%TF.GenerationSoftware,KiCad,Pcbnew,5.1.10*%
%TF.CreationDate,2021-06-06T23:04:05-06:00*%
%TF.ProjectId,mountaineer,6d6f756e-7461-4696-9e65-65722e6b6963,3*%
%TF.SameCoordinates,Original*%
%TF.FileFunction,Copper,L2,Bot*%
%TF.FilePolarity,Positive*%
%FSLAX46Y46*%
G04 Gerber Fmt 4.6, Leading zero omitted, Abs format (unit mm)*
G04 Created by KiCad (PCBNEW 5.1.10) date 2021-06-06 23:04:05*
%MOMM*%
%LPD*%
G01*
G04 APERTURE LIST*
%TA.AperFunction,ComponentPad*%
%ADD10O,0.950000X1.300000*%
%TD*%
%TA.AperFunction,ComponentPad*%
%ADD11C,0.600000*%
%TD*%
%TA.AperFunction,ComponentPad*%
%ADD12O,1.900000X1.200000*%
%TD*%
%TA.AperFunction,ComponentPad*%
%ADD13C,4.400000*%
%TD*%
%TA.AperFunction,ViaPad*%
%ADD14C,0.800000*%
%TD*%
%TA.AperFunction,ViaPad*%
%ADD15C,1.000000*%
%TD*%
%TA.AperFunction,Conductor*%
%ADD16C,0.250000*%
%TD*%
%TA.AperFunction,Conductor*%
%ADD17C,0.200000*%
%TD*%
%TA.AperFunction,Conductor*%
%ADD18C,0.350000*%
%TD*%
%TA.AperFunction,Conductor*%
%ADD19C,0.254000*%
%TD*%
%TA.AperFunction,Conductor*%
%ADD20C,0.100000*%
%TD*%
G04 APERTURE END LIST*
D10*
%TO.P,J1,S1*%
%TO.N,GND1*%
X120050000Y-111000000D03*
X120050000Y-103000000D03*
D11*
%TO.P,J1,B6*%
%TO.N,/DR+*%
X120750000Y-107400000D03*
%TO.P,J1,B7*%
%TO.N,/DR-*%
X120750000Y-106600000D03*
%TO.P,J1,B4*%
%TO.N,Net-(J1-PadA4)*%
X120750000Y-108200000D03*
%TO.P,J1,B9*%
X120750000Y-105800000D03*
%TO.P,J1,B5*%
%TO.N,Net-(J1-PadB5)*%
X120050000Y-107800000D03*
%TO.P,J1,B8*%
%TO.N,N/C*%
X120050000Y-106200000D03*
%TO.P,J1,B3*%
X120050000Y-108600000D03*
%TO.P,J1,B10*%
X120050000Y-105400000D03*
%TO.P,J1,B2*%
X120050000Y-109400000D03*
%TO.P,J1,B11*%
X120050000Y-104600000D03*
%TO.P,J1,B12*%
%TO.N,GNDREF*%
X120750000Y-103950000D03*
%TO.P,J1,B1*%
X120750000Y-110050000D03*
D12*
%TO.P,J1,S1*%
%TO.N,GND1*%
X116700000Y-102100000D03*
X116700000Y-111900000D03*
%TD*%
D13*
%TO.P,H4,1*%
%TO.N,GND1*%
X190000000Y-86000000D03*
%TD*%
%TO.P,H3,1*%
%TO.N,GND1*%
X190000000Y-128000000D03*
%TD*%
%TO.P,H2,1*%
%TO.N,GND1*%
X119000000Y-86000000D03*
%TD*%
%TO.P,H1,1*%
%TO.N,GND1*%
X119000000Y-128000000D03*
%TD*%
D14*
%TO.N,GNDREF*%
X126700000Y-107500000D03*
X133000000Y-121000000D03*
X127000000Y-121000000D03*
X135500000Y-120000000D03*
X136500000Y-108000000D03*
X140000000Y-108000000D03*
X142000000Y-121000000D03*
X122000000Y-123000000D03*
X150000000Y-96000000D03*
X171000000Y-119000000D03*
X157000000Y-88000000D03*
X159014833Y-99051916D03*
X176000000Y-107000000D03*
X118000000Y-107000000D03*
X116000000Y-107000000D03*
X123000000Y-116000000D03*
X138000000Y-120000000D03*
%TO.N,/DR+*%
X127000000Y-104300000D03*
D15*
%TO.N,+3V3*%
X127000000Y-119000000D03*
X127000000Y-123880001D03*
D14*
%TO.N,GND1*%
X122000000Y-131000000D03*
D15*
X122000000Y-83000000D03*
D14*
X172000000Y-131000000D03*
X172000000Y-83000000D03*
D15*
%TO.N,/3V3A*%
X149750000Y-121250000D03*
X150000000Y-125250000D03*
%TO.N,+5V*%
X131500000Y-124000000D03*
X140000000Y-94000000D03*
X155500000Y-100500000D03*
X168000000Y-95500000D03*
X167500000Y-90500000D03*
D14*
%TO.N,Net-(J1-PadA4)*%
X120000000Y-113000000D03*
%TO.N,Net-(J1-PadB5)*%
X118500000Y-103500000D03*
X119000000Y-101000000D03*
%TO.N,/DTR*%
X166000000Y-88000000D03*
X160500000Y-92000000D03*
D15*
%TO.N,/VCCIO*%
X146000000Y-92000000D03*
X158000000Y-92000000D03*
D14*
%TO.N,/MIC_BIAS*%
X160000000Y-109000000D03*
X172000000Y-117000000D03*
%TO.N,/RXLED*%
X164000000Y-95450000D03*
X165000000Y-90000000D03*
%TO.N,/AVDD1*%
X142000000Y-119000000D03*
X155000000Y-120000000D03*
%TO.N,/AVDD2*%
X144000000Y-118000000D03*
X155000000Y-118225003D03*
%TO.N,/DVDD*%
X137973430Y-115973430D03*
X155000000Y-117225000D03*
%TO.N,/RESET#*%
X138000000Y-100500000D03*
X138500000Y-110000000D03*
%TO.N,/MICIN*%
X159000000Y-122000000D03*
X163000000Y-114000000D03*
%TO.N,/LOL*%
X158674847Y-120325153D03*
X160000000Y-119500000D03*
%TO.N,/XTAL2*%
X133000000Y-102000000D03*
X133000000Y-107000000D03*
%TO.N,/VBIAS*%
X155000000Y-121750000D03*
X160000000Y-111000000D03*
%TO.N,/LEDO*%
X148500000Y-124250000D03*
X160750000Y-127250000D03*
%TO.N,/OC#*%
X132750000Y-115250000D03*
X135000000Y-117750000D03*
X145000000Y-106000000D03*
X144000000Y-112000000D03*
X141000000Y-105000000D03*
%TO.N,/XTAL1*%
X134000000Y-101000000D03*
X132997842Y-108003237D03*
%TD*%
D16*
%TO.N,GNDREF*%
X118099990Y-102600010D02*
X118099990Y-100399990D01*
X117400000Y-103300000D02*
X118099990Y-102600010D01*
D17*
%TO.N,/DR+*%
X120750000Y-107400000D02*
X122400000Y-107400000D01*
X122400000Y-107400000D02*
X125600000Y-104200000D01*
X126900000Y-104200000D02*
X127000000Y-104300000D01*
X125600000Y-104200000D02*
X126900000Y-104200000D01*
D18*
%TO.N,+3V3*%
X126224999Y-123105000D02*
X127000000Y-123880001D01*
X126224999Y-119775001D02*
X126224999Y-123105000D01*
X127000000Y-119000000D02*
X126224999Y-119775001D01*
%TO.N,GND1*%
X122000000Y-129469654D02*
X122000000Y-131000000D01*
X119000000Y-128000000D02*
X120530346Y-128000000D01*
X120530346Y-128000000D02*
X122000000Y-129469654D01*
X117700000Y-126700000D02*
X119000000Y-128000000D01*
X122000000Y-84530346D02*
X122000000Y-83000000D01*
X120530346Y-86000000D02*
X122000000Y-84530346D01*
X119000000Y-86000000D02*
X120530346Y-86000000D01*
X187000000Y-131000000D02*
X172000000Y-131000000D01*
X190000000Y-128000000D02*
X187000000Y-131000000D01*
X187000000Y-83000000D02*
X172000000Y-83000000D01*
X190000000Y-86000000D02*
X187000000Y-83000000D01*
X190000000Y-128000000D02*
X190000000Y-86000000D01*
X116750000Y-125750000D02*
X119000000Y-128000000D01*
X116750000Y-88250000D02*
X119000000Y-86000000D01*
X116750000Y-111950000D02*
X116700000Y-111900000D01*
X116750000Y-125750000D02*
X116750000Y-111950000D01*
X116750000Y-102050000D02*
X116700000Y-102100000D01*
X116750000Y-88250000D02*
X116750000Y-102050000D01*
%TO.N,/3V3A*%
X149750000Y-125000000D02*
X150000000Y-125250000D01*
X149750000Y-121250000D02*
X149750000Y-125000000D01*
%TO.N,+5V*%
X131500000Y-124000000D02*
X131000000Y-123500000D01*
X131000000Y-102852998D02*
X139852998Y-94000000D01*
X131000000Y-123500000D02*
X131000000Y-102852998D01*
X139852998Y-94000000D02*
X140000000Y-94000000D01*
X140000000Y-94000000D02*
X146500000Y-100500000D01*
X146500000Y-100500000D02*
X155500000Y-100500000D01*
X167500000Y-95000000D02*
X167500000Y-90500000D01*
X168000000Y-95500000D02*
X167500000Y-95000000D01*
D16*
%TO.N,Net-(J1-PadA4)*%
X119249990Y-112249990D02*
X120000000Y-113000000D01*
X119249990Y-102493626D02*
X119249990Y-112249990D01*
X119718626Y-102024990D02*
X119249990Y-102493626D01*
X121173992Y-102024990D02*
X119718626Y-102024990D01*
X121925001Y-102775999D02*
X121173992Y-102024990D01*
X121925001Y-104624999D02*
X121925001Y-102775999D01*
X120750000Y-105800000D02*
X121925001Y-104624999D01*
%TO.N,Net-(J1-PadB5)*%
X118500000Y-101500000D02*
X119000000Y-101000000D01*
X118500000Y-103500000D02*
X118500000Y-101500000D01*
%TO.N,/DTR*%
X164500000Y-88000000D02*
X166000000Y-88000000D01*
X160500000Y-92000000D02*
X164500000Y-88000000D01*
D18*
%TO.N,/VCCIO*%
X146000000Y-92000000D02*
X158000000Y-92000000D01*
D16*
%TO.N,/MIC_BIAS*%
X164000000Y-109000000D02*
X172000000Y-117000000D01*
X160000000Y-109000000D02*
X164000000Y-109000000D01*
%TO.N,/RXLED*%
X164000000Y-91000000D02*
X165000000Y-90000000D01*
X164000000Y-95450000D02*
X164000000Y-91000000D01*
D18*
%TO.N,/AVDD1*%
X154000000Y-119000000D02*
X155000000Y-120000000D01*
X142000000Y-119000000D02*
X154000000Y-119000000D01*
%TO.N,/AVDD2*%
X154774997Y-118000000D02*
X155000000Y-118225003D01*
X144000000Y-118000000D02*
X154774997Y-118000000D01*
%TO.N,/DVDD*%
X139225000Y-117225000D02*
X155000000Y-117225000D01*
X137973430Y-115973430D02*
X139225000Y-117225000D01*
D16*
%TO.N,/RESET#*%
X138500000Y-101000000D02*
X138500000Y-110000000D01*
X138000000Y-100500000D02*
X138500000Y-101000000D01*
%TO.N,/MICIN*%
X159000000Y-122000000D02*
X163000000Y-118000000D01*
X163000000Y-118000000D02*
X163000000Y-114000000D01*
%TO.N,/LOL*%
X159000000Y-120000000D02*
X158674847Y-120325153D01*
X159500000Y-120000000D02*
X160000000Y-119500000D01*
X159000000Y-120000000D02*
X159500000Y-120000000D01*
%TO.N,/XTAL2*%
X133000000Y-102000000D02*
X133000000Y-107000000D01*
%TO.N,/VBIAS*%
X160000000Y-116750000D02*
X160000000Y-111000000D01*
X155000000Y-121750000D02*
X160000000Y-116750000D01*
%TO.N,/LEDO*%
X150852998Y-127250000D02*
X160750000Y-127250000D01*
X148500000Y-124897002D02*
X150852998Y-127250000D01*
X148500000Y-124250000D02*
X148500000Y-124897002D01*
%TO.N,/OC#*%
X135000000Y-117500000D02*
X135000000Y-117750000D01*
X132750000Y-115250000D02*
X135000000Y-117500000D01*
X144000000Y-107000000D02*
X144000000Y-112000000D01*
X145000000Y-106000000D02*
X144000000Y-107000000D01*
X142000000Y-106000000D02*
X141000000Y-105000000D01*
X145000000Y-106000000D02*
X142000000Y-106000000D01*
%TO.N,/XTAL1*%
X133069765Y-108003237D02*
X132997842Y-108003237D01*
X134000000Y-107073002D02*
X133069765Y-108003237D01*
X134000000Y-101000000D02*
X134000000Y-107073002D01*
%TD*%
D19*
%TO.N,GND1*%
X172873000Y-131340000D02*
X121127000Y-131340000D01*
X121127000Y-130127000D01*
X172873000Y-130127000D01*
X172873000Y-131340000D01*
%TA.AperFunction,Conductor*%
D20*
G36*
X172873000Y-131340000D02*
G01*
X121127000Y-131340000D01*
X121127000Y-130127000D01*
X172873000Y-130127000D01*
X172873000Y-131340000D01*
G37*
%TD.AperFunction*%
%TD*%
D19*
%TO.N,GND1*%
X172873000Y-83873000D02*
X121127000Y-83873000D01*
X121127000Y-82660000D01*
X172873000Y-82660000D01*
X172873000Y-83873000D01*
%TA.AperFunction,Conductor*%
D20*
G36*
X172873000Y-83873000D02*
G01*
X121127000Y-83873000D01*
X121127000Y-82660000D01*
X172873000Y-82660000D01*
X172873000Y-83873000D01*
G37*
%TD.AperFunction*%
%TD*%
D19*
%TO.N,GNDREF*%
X178873000Y-128873000D02*
X122369254Y-128873000D01*
X121708000Y-128211747D01*
X121708000Y-127733285D01*
X121603933Y-127210105D01*
X121399799Y-126717281D01*
X121103441Y-126273751D01*
X120726249Y-125896559D01*
X120282719Y-125600201D01*
X119789895Y-125396067D01*
X119266715Y-125292000D01*
X118733285Y-125292000D01*
X118210105Y-125396067D01*
X117717281Y-125600201D01*
X117626659Y-125660752D01*
X117433000Y-125467093D01*
X117433000Y-119775001D01*
X125538696Y-119775001D01*
X125541999Y-119808537D01*
X125542000Y-123071454D01*
X125538696Y-123105000D01*
X125551883Y-123238891D01*
X125590938Y-123367637D01*
X125654359Y-123486290D01*
X125699067Y-123540766D01*
X125739710Y-123590290D01*
X125765764Y-123611672D01*
X125992000Y-123837908D01*
X125992000Y-123979280D01*
X126030737Y-124174024D01*
X126106722Y-124357468D01*
X126217035Y-124522563D01*
X126357438Y-124662966D01*
X126522533Y-124773279D01*
X126705977Y-124849264D01*
X126900721Y-124888001D01*
X127099279Y-124888001D01*
X127294023Y-124849264D01*
X127477467Y-124773279D01*
X127642562Y-124662966D01*
X127782965Y-124522563D01*
X127893278Y-124357468D01*
X127969263Y-124174024D01*
X128008000Y-123979280D01*
X128008000Y-123780722D01*
X127969263Y-123585978D01*
X127893278Y-123402534D01*
X127782965Y-123237439D01*
X127642562Y-123097036D01*
X127477467Y-122986723D01*
X127294023Y-122910738D01*
X127099279Y-122872001D01*
X126957907Y-122872001D01*
X126907999Y-122822093D01*
X126907999Y-120057908D01*
X126957907Y-120008000D01*
X127099279Y-120008000D01*
X127294023Y-119969263D01*
X127477467Y-119893278D01*
X127642562Y-119782965D01*
X127782965Y-119642562D01*
X127893278Y-119477467D01*
X127969263Y-119294023D01*
X128008000Y-119099279D01*
X128008000Y-118900721D01*
X127969263Y-118705977D01*
X127893278Y-118522533D01*
X127782965Y-118357438D01*
X127642562Y-118217035D01*
X127477467Y-118106722D01*
X127294023Y-118030737D01*
X127099279Y-117992000D01*
X126900721Y-117992000D01*
X126705977Y-118030737D01*
X126522533Y-118106722D01*
X126357438Y-118217035D01*
X126217035Y-118357438D01*
X126106722Y-118522533D01*
X126030737Y-118705977D01*
X125992000Y-118900721D01*
X125992000Y-119042093D01*
X125765764Y-119268328D01*
X125739709Y-119289712D01*
X125654358Y-119393712D01*
X125590937Y-119512365D01*
X125551882Y-119641111D01*
X125541999Y-119741456D01*
X125541999Y-119741465D01*
X125538696Y-119775001D01*
X117433000Y-119775001D01*
X117433000Y-112941675D01*
X117476065Y-112928611D01*
X117668550Y-112825726D01*
X117837265Y-112687265D01*
X117975726Y-112518550D01*
X118078611Y-112326065D01*
X118141968Y-112117206D01*
X118163361Y-111900000D01*
X118141968Y-111682794D01*
X118078611Y-111473935D01*
X117975726Y-111281450D01*
X117837265Y-111112735D01*
X117668550Y-110974274D01*
X117476065Y-110871389D01*
X117267206Y-110808032D01*
X117104431Y-110792000D01*
X116295569Y-110792000D01*
X116132794Y-110808032D01*
X115923935Y-110871389D01*
X115731450Y-110974274D01*
X115562735Y-111112735D01*
X115533000Y-111148967D01*
X115533000Y-102851033D01*
X115562735Y-102887265D01*
X115731450Y-103025726D01*
X115923935Y-103128611D01*
X116132794Y-103191968D01*
X116295569Y-103208000D01*
X117104431Y-103208000D01*
X117267206Y-103191968D01*
X117476065Y-103128611D01*
X117668550Y-103025726D01*
X117793225Y-102923407D01*
X117695341Y-103069901D01*
X117626894Y-103235146D01*
X117592000Y-103410570D01*
X117592000Y-103589430D01*
X117626894Y-103764854D01*
X117695341Y-103930099D01*
X117794711Y-104078816D01*
X117921184Y-104205289D01*
X118069901Y-104304659D01*
X118235146Y-104373106D01*
X118410570Y-104408000D01*
X118589430Y-104408000D01*
X118616990Y-104402518D01*
X118616991Y-112218892D01*
X118613928Y-112249990D01*
X118626150Y-112374079D01*
X118662346Y-112493400D01*
X118721124Y-112603366D01*
X118748155Y-112636303D01*
X118800227Y-112699754D01*
X118824373Y-112719570D01*
X119092000Y-112987197D01*
X119092000Y-113089430D01*
X119126894Y-113264854D01*
X119195341Y-113430099D01*
X119294711Y-113578816D01*
X119421184Y-113705289D01*
X119569901Y-113804659D01*
X119735146Y-113873106D01*
X119910570Y-113908000D01*
X120089430Y-113908000D01*
X120264854Y-113873106D01*
X120430099Y-113804659D01*
X120578816Y-113705289D01*
X120705289Y-113578816D01*
X120804659Y-113430099D01*
X120873106Y-113264854D01*
X120908000Y-113089430D01*
X120908000Y-112910570D01*
X120873106Y-112735146D01*
X120804659Y-112569901D01*
X120705289Y-112421184D01*
X120578816Y-112294711D01*
X120430099Y-112195341D01*
X120279017Y-112132761D01*
X120427997Y-112087568D01*
X120598768Y-111996289D01*
X120748449Y-111873449D01*
X120871289Y-111723768D01*
X120894021Y-111681240D01*
X120999731Y-111725027D01*
X121165494Y-111758000D01*
X121334506Y-111758000D01*
X121500269Y-111725027D01*
X121656415Y-111660349D01*
X121796943Y-111566452D01*
X121916452Y-111446943D01*
X122010349Y-111306415D01*
X122075027Y-111150269D01*
X122108000Y-110984506D01*
X122108000Y-110815494D01*
X122075027Y-110649731D01*
X122010349Y-110493585D01*
X121916452Y-110353057D01*
X121796943Y-110233548D01*
X121682205Y-110156883D01*
X121684828Y-110143824D01*
X121685171Y-109959645D01*
X121649574Y-109778939D01*
X121579408Y-109608649D01*
X121577763Y-109605575D01*
X121384541Y-109595064D01*
X120929605Y-110050000D01*
X120943748Y-110064143D01*
X120885672Y-110122218D01*
X120843585Y-110139651D01*
X120789085Y-110176066D01*
X120748449Y-110126551D01*
X120598768Y-110003711D01*
X120592386Y-110000299D01*
X120677615Y-109915070D01*
X120678773Y-109913337D01*
X120735858Y-109856253D01*
X120750000Y-109870395D01*
X121204936Y-109415459D01*
X121194425Y-109222237D01*
X121024397Y-109151438D01*
X120843824Y-109115172D01*
X120806565Y-109115103D01*
X120766041Y-109017268D01*
X120759848Y-109008000D01*
X120829581Y-109008000D01*
X120985685Y-108976949D01*
X121132732Y-108916041D01*
X121265070Y-108827615D01*
X121377615Y-108715070D01*
X121466041Y-108582732D01*
X121526949Y-108435685D01*
X121558000Y-108279581D01*
X121558000Y-108120419D01*
X121535638Y-108008000D01*
X122370140Y-108008000D01*
X122400000Y-108010941D01*
X122429860Y-108008000D01*
X122429861Y-108008000D01*
X122519189Y-107999202D01*
X122633797Y-107964436D01*
X122739421Y-107907979D01*
X122832001Y-107832001D01*
X122851043Y-107808798D01*
X125851842Y-104808000D01*
X126247393Y-104808000D01*
X126294711Y-104878816D01*
X126421184Y-105005289D01*
X126569901Y-105104659D01*
X126735146Y-105173106D01*
X126910570Y-105208000D01*
X127089430Y-105208000D01*
X127264854Y-105173106D01*
X127430099Y-105104659D01*
X127578816Y-105005289D01*
X127705289Y-104878816D01*
X127804659Y-104730099D01*
X127873106Y-104564854D01*
X127908000Y-104389430D01*
X127908000Y-104210570D01*
X127873106Y-104035146D01*
X127804659Y-103869901D01*
X127705289Y-103721184D01*
X127578816Y-103594711D01*
X127430099Y-103495341D01*
X127264854Y-103426894D01*
X127089430Y-103392000D01*
X126910570Y-103392000D01*
X126735146Y-103426894D01*
X126569901Y-103495341D01*
X126425241Y-103592000D01*
X125629860Y-103592000D01*
X125599999Y-103589059D01*
X125480811Y-103600798D01*
X125366203Y-103635564D01*
X125260579Y-103692021D01*
X125167999Y-103767999D01*
X125148961Y-103791197D01*
X122148159Y-106792000D01*
X121535638Y-106792000D01*
X121558000Y-106679581D01*
X121558000Y-106520419D01*
X121526949Y-106364315D01*
X121466041Y-106217268D01*
X121454503Y-106200000D01*
X121466041Y-106182732D01*
X121526949Y-106035685D01*
X121556109Y-105889088D01*
X122350615Y-105094582D01*
X122374765Y-105074763D01*
X122453867Y-104978376D01*
X122496187Y-104899202D01*
X122512645Y-104868411D01*
X122518666Y-104848562D01*
X122548841Y-104749089D01*
X122558001Y-104656087D01*
X122558001Y-104656086D01*
X122561063Y-104625000D01*
X122558001Y-104593914D01*
X122558001Y-102852998D01*
X130313697Y-102852998D01*
X130317001Y-102886544D01*
X130317000Y-123466464D01*
X130313697Y-123500000D01*
X130317000Y-123533536D01*
X130317000Y-123533545D01*
X130326883Y-123633890D01*
X130365938Y-123762636D01*
X130429359Y-123881289D01*
X130492000Y-123957617D01*
X130492000Y-124099279D01*
X130530737Y-124294023D01*
X130606722Y-124477467D01*
X130717035Y-124642562D01*
X130857438Y-124782965D01*
X131022533Y-124893278D01*
X131205977Y-124969263D01*
X131400721Y-125008000D01*
X131599279Y-125008000D01*
X131794023Y-124969263D01*
X131977467Y-124893278D01*
X132142562Y-124782965D01*
X132282965Y-124642562D01*
X132393278Y-124477467D01*
X132469263Y-124294023D01*
X132495808Y-124160570D01*
X147592000Y-124160570D01*
X147592000Y-124339430D01*
X147626894Y-124514854D01*
X147695341Y-124680099D01*
X147794711Y-124828816D01*
X147864052Y-124898157D01*
X147867000Y-124928090D01*
X147876160Y-125021092D01*
X147912355Y-125140412D01*
X147933174Y-125179360D01*
X147970932Y-125249999D01*
X147971135Y-125250379D01*
X148050237Y-125346766D01*
X148074383Y-125366582D01*
X150383414Y-127675613D01*
X150403234Y-127699764D01*
X150499621Y-127778866D01*
X150609588Y-127837645D01*
X150728908Y-127873840D01*
X150852998Y-127886062D01*
X150884086Y-127883000D01*
X160098895Y-127883000D01*
X160171184Y-127955289D01*
X160319901Y-128054659D01*
X160485146Y-128123106D01*
X160660570Y-128158000D01*
X160839430Y-128158000D01*
X161014854Y-128123106D01*
X161180099Y-128054659D01*
X161328816Y-127955289D01*
X161455289Y-127828816D01*
X161554659Y-127680099D01*
X161623106Y-127514854D01*
X161658000Y-127339430D01*
X161658000Y-127160570D01*
X161623106Y-126985146D01*
X161554659Y-126819901D01*
X161455289Y-126671184D01*
X161328816Y-126544711D01*
X161180099Y-126445341D01*
X161014854Y-126376894D01*
X160839430Y-126342000D01*
X160660570Y-126342000D01*
X160485146Y-126376894D01*
X160319901Y-126445341D01*
X160171184Y-126544711D01*
X160098895Y-126617000D01*
X151115195Y-126617000D01*
X150575781Y-126077586D01*
X150642562Y-126032965D01*
X150782965Y-125892562D01*
X150893278Y-125727467D01*
X150969263Y-125544023D01*
X151008000Y-125349279D01*
X151008000Y-125150721D01*
X150969263Y-124955977D01*
X150893278Y-124772533D01*
X150782965Y-124607438D01*
X150642562Y-124467035D01*
X150477467Y-124356722D01*
X150433000Y-124338303D01*
X150433000Y-121992527D01*
X150532965Y-121892562D01*
X150643278Y-121727467D01*
X150719263Y-121544023D01*
X150758000Y-121349279D01*
X150758000Y-121150721D01*
X150719263Y-120955977D01*
X150643278Y-120772533D01*
X150532965Y-120607438D01*
X150392562Y-120467035D01*
X150227467Y-120356722D01*
X150044023Y-120280737D01*
X149849279Y-120242000D01*
X149650721Y-120242000D01*
X149455977Y-120280737D01*
X149272533Y-120356722D01*
X149107438Y-120467035D01*
X148967035Y-120607438D01*
X148856722Y-120772533D01*
X148780737Y-120955977D01*
X148742000Y-121150721D01*
X148742000Y-121349279D01*
X148780737Y-121544023D01*
X148856722Y-121727467D01*
X148967035Y-121892562D01*
X149067000Y-121992527D01*
X149067001Y-123536816D01*
X148930099Y-123445341D01*
X148764854Y-123376894D01*
X148589430Y-123342000D01*
X148410570Y-123342000D01*
X148235146Y-123376894D01*
X148069901Y-123445341D01*
X147921184Y-123544711D01*
X147794711Y-123671184D01*
X147695341Y-123819901D01*
X147626894Y-123985146D01*
X147592000Y-124160570D01*
X132495808Y-124160570D01*
X132508000Y-124099279D01*
X132508000Y-123900721D01*
X132469263Y-123705977D01*
X132393278Y-123522533D01*
X132282965Y-123357438D01*
X132142562Y-123217035D01*
X131977467Y-123106722D01*
X131794023Y-123030737D01*
X131683000Y-123008653D01*
X131683000Y-115160570D01*
X131842000Y-115160570D01*
X131842000Y-115339430D01*
X131876894Y-115514854D01*
X131945341Y-115680099D01*
X132044711Y-115828816D01*
X132171184Y-115955289D01*
X132319901Y-116054659D01*
X132485146Y-116123106D01*
X132660570Y-116158000D01*
X132762803Y-116158000D01*
X134120764Y-117515961D01*
X134092000Y-117660570D01*
X134092000Y-117839430D01*
X134126894Y-118014854D01*
X134195341Y-118180099D01*
X134294711Y-118328816D01*
X134421184Y-118455289D01*
X134569901Y-118554659D01*
X134735146Y-118623106D01*
X134910570Y-118658000D01*
X135089430Y-118658000D01*
X135264854Y-118623106D01*
X135430099Y-118554659D01*
X135578816Y-118455289D01*
X135705289Y-118328816D01*
X135804659Y-118180099D01*
X135873106Y-118014854D01*
X135908000Y-117839430D01*
X135908000Y-117660570D01*
X135873106Y-117485146D01*
X135804659Y-117319901D01*
X135705289Y-117171184D01*
X135578816Y-117044711D01*
X135430099Y-116945341D01*
X135277208Y-116882011D01*
X134279197Y-115884000D01*
X137065430Y-115884000D01*
X137065430Y-116062860D01*
X137100324Y-116238284D01*
X137168771Y-116403529D01*
X137268141Y-116552246D01*
X137394614Y-116678719D01*
X137543331Y-116778089D01*
X137708576Y-116846536D01*
X137884000Y-116881430D01*
X137915523Y-116881430D01*
X138718327Y-117684235D01*
X138739710Y-117710290D01*
X138843710Y-117795641D01*
X138962363Y-117859062D01*
X139091109Y-117898117D01*
X139191454Y-117908000D01*
X139191463Y-117908000D01*
X139224999Y-117911303D01*
X139258535Y-117908000D01*
X143092511Y-117908000D01*
X143092000Y-117910570D01*
X143092000Y-118089430D01*
X143126894Y-118264854D01*
X143148494Y-118317000D01*
X142601105Y-118317000D01*
X142578816Y-118294711D01*
X142430099Y-118195341D01*
X142264854Y-118126894D01*
X142089430Y-118092000D01*
X141910570Y-118092000D01*
X141735146Y-118126894D01*
X141569901Y-118195341D01*
X141421184Y-118294711D01*
X141294711Y-118421184D01*
X141195341Y-118569901D01*
X141126894Y-118735146D01*
X141092000Y-118910570D01*
X141092000Y-119089430D01*
X141126894Y-119264854D01*
X141195341Y-119430099D01*
X141294711Y-119578816D01*
X141421184Y-119705289D01*
X141569901Y-119804659D01*
X141735146Y-119873106D01*
X141910570Y-119908000D01*
X142089430Y-119908000D01*
X142264854Y-119873106D01*
X142430099Y-119804659D01*
X142578816Y-119705289D01*
X142601105Y-119683000D01*
X153717093Y-119683000D01*
X154092000Y-120057908D01*
X154092000Y-120089430D01*
X154126894Y-120264854D01*
X154195341Y-120430099D01*
X154294711Y-120578816D01*
X154421184Y-120705289D01*
X154569901Y-120804659D01*
X154735146Y-120873106D01*
X154744668Y-120875000D01*
X154735146Y-120876894D01*
X154569901Y-120945341D01*
X154421184Y-121044711D01*
X154294711Y-121171184D01*
X154195341Y-121319901D01*
X154126894Y-121485146D01*
X154092000Y-121660570D01*
X154092000Y-121839430D01*
X154126894Y-122014854D01*
X154195341Y-122180099D01*
X154294711Y-122328816D01*
X154421184Y-122455289D01*
X154569901Y-122554659D01*
X154735146Y-122623106D01*
X154910570Y-122658000D01*
X155089430Y-122658000D01*
X155264854Y-122623106D01*
X155430099Y-122554659D01*
X155578816Y-122455289D01*
X155705289Y-122328816D01*
X155804659Y-122180099D01*
X155873106Y-122014854D01*
X155908000Y-121839430D01*
X155908000Y-121737197D01*
X157409474Y-120235723D01*
X157766847Y-120235723D01*
X157766847Y-120414583D01*
X157801741Y-120590007D01*
X157870188Y-120755252D01*
X157969558Y-120903969D01*
X158096031Y-121030442D01*
X158244748Y-121129812D01*
X158409993Y-121198259D01*
X158529853Y-121222101D01*
X158421184Y-121294711D01*
X158294711Y-121421184D01*
X158195341Y-121569901D01*
X158126894Y-121735146D01*
X158092000Y-121910570D01*
X158092000Y-122089430D01*
X158126894Y-122264854D01*
X158195341Y-122430099D01*
X158294711Y-122578816D01*
X158421184Y-122705289D01*
X158569901Y-122804659D01*
X158735146Y-122873106D01*
X158910570Y-122908000D01*
X159089430Y-122908000D01*
X159264854Y-122873106D01*
X159430099Y-122804659D01*
X159578816Y-122705289D01*
X159705289Y-122578816D01*
X159804659Y-122430099D01*
X159873106Y-122264854D01*
X159908000Y-122089430D01*
X159908000Y-121987197D01*
X163425614Y-118469583D01*
X163449764Y-118449764D01*
X163528866Y-118353377D01*
X163587645Y-118243410D01*
X163623840Y-118124090D01*
X163633000Y-118031088D01*
X163633000Y-118031087D01*
X163636062Y-118000001D01*
X163633000Y-117968915D01*
X163633000Y-114651105D01*
X163705289Y-114578816D01*
X163804659Y-114430099D01*
X163873106Y-114264854D01*
X163908000Y-114089430D01*
X163908000Y-113910570D01*
X163873106Y-113735146D01*
X163804659Y-113569901D01*
X163705289Y-113421184D01*
X163578816Y-113294711D01*
X163430099Y-113195341D01*
X163264854Y-113126894D01*
X163089430Y-113092000D01*
X162910570Y-113092000D01*
X162735146Y-113126894D01*
X162569901Y-113195341D01*
X162421184Y-113294711D01*
X162294711Y-113421184D01*
X162195341Y-113569901D01*
X162126894Y-113735146D01*
X162092000Y-113910570D01*
X162092000Y-114089430D01*
X162126894Y-114264854D01*
X162195341Y-114430099D01*
X162294711Y-114578816D01*
X162367001Y-114651106D01*
X162367000Y-117737803D01*
X160872096Y-119232707D01*
X160804659Y-119069901D01*
X160705289Y-118921184D01*
X160578816Y-118794711D01*
X160430099Y-118695341D01*
X160264854Y-118626894D01*
X160089430Y-118592000D01*
X159910570Y-118592000D01*
X159735146Y-118626894D01*
X159569901Y-118695341D01*
X159421184Y-118794711D01*
X159294711Y-118921184D01*
X159195341Y-119069901D01*
X159126894Y-119235146D01*
X159100667Y-119367000D01*
X159031088Y-119367000D01*
X159000000Y-119363938D01*
X158968912Y-119367000D01*
X158875910Y-119376160D01*
X158756590Y-119412355D01*
X158747614Y-119417153D01*
X158585417Y-119417153D01*
X158409993Y-119452047D01*
X158244748Y-119520494D01*
X158096031Y-119619864D01*
X157969558Y-119746337D01*
X157870188Y-119895054D01*
X157801741Y-120060299D01*
X157766847Y-120235723D01*
X157409474Y-120235723D01*
X160425614Y-117219583D01*
X160449764Y-117199764D01*
X160528866Y-117103377D01*
X160587645Y-116993410D01*
X160623840Y-116874090D01*
X160633000Y-116781088D01*
X160633000Y-116781087D01*
X160636062Y-116750000D01*
X160633000Y-116718912D01*
X160633000Y-111651105D01*
X160705289Y-111578816D01*
X160804659Y-111430099D01*
X160873106Y-111264854D01*
X160908000Y-111089430D01*
X160908000Y-110910570D01*
X160873106Y-110735146D01*
X160804659Y-110569901D01*
X160705289Y-110421184D01*
X160578816Y-110294711D01*
X160430099Y-110195341D01*
X160264854Y-110126894D01*
X160089430Y-110092000D01*
X159910570Y-110092000D01*
X159735146Y-110126894D01*
X159569901Y-110195341D01*
X159421184Y-110294711D01*
X159294711Y-110421184D01*
X159195341Y-110569901D01*
X159126894Y-110735146D01*
X159092000Y-110910570D01*
X159092000Y-111089430D01*
X159126894Y-111264854D01*
X159195341Y-111430099D01*
X159294711Y-111578816D01*
X159367001Y-111651106D01*
X159367000Y-116487803D01*
X155908000Y-119946803D01*
X155908000Y-119910570D01*
X155873106Y-119735146D01*
X155804659Y-119569901D01*
X155705289Y-119421184D01*
X155578816Y-119294711D01*
X155430099Y-119195341D01*
X155264854Y-119126894D01*
X155192498Y-119112502D01*
X155264854Y-119098109D01*
X155430099Y-119029662D01*
X155578816Y-118930292D01*
X155705289Y-118803819D01*
X155804659Y-118655102D01*
X155873106Y-118489857D01*
X155908000Y-118314433D01*
X155908000Y-118135573D01*
X155873106Y-117960149D01*
X155804659Y-117794904D01*
X155757951Y-117725002D01*
X155804659Y-117655099D01*
X155873106Y-117489854D01*
X155908000Y-117314430D01*
X155908000Y-117135570D01*
X155873106Y-116960146D01*
X155804659Y-116794901D01*
X155705289Y-116646184D01*
X155578816Y-116519711D01*
X155430099Y-116420341D01*
X155264854Y-116351894D01*
X155089430Y-116317000D01*
X154910570Y-116317000D01*
X154735146Y-116351894D01*
X154569901Y-116420341D01*
X154421184Y-116519711D01*
X154398895Y-116542000D01*
X139507908Y-116542000D01*
X138881430Y-115915523D01*
X138881430Y-115884000D01*
X138846536Y-115708576D01*
X138778089Y-115543331D01*
X138678719Y-115394614D01*
X138552246Y-115268141D01*
X138403529Y-115168771D01*
X138238284Y-115100324D01*
X138062860Y-115065430D01*
X137884000Y-115065430D01*
X137708576Y-115100324D01*
X137543331Y-115168771D01*
X137394614Y-115268141D01*
X137268141Y-115394614D01*
X137168771Y-115543331D01*
X137100324Y-115708576D01*
X137065430Y-115884000D01*
X134279197Y-115884000D01*
X133658000Y-115262803D01*
X133658000Y-115160570D01*
X133623106Y-114985146D01*
X133554659Y-114819901D01*
X133455289Y-114671184D01*
X133328816Y-114544711D01*
X133180099Y-114445341D01*
X133014854Y-114376894D01*
X132839430Y-114342000D01*
X132660570Y-114342000D01*
X132485146Y-114376894D01*
X132319901Y-114445341D01*
X132171184Y-114544711D01*
X132044711Y-114671184D01*
X131945341Y-114819901D01*
X131876894Y-114985146D01*
X131842000Y-115160570D01*
X131683000Y-115160570D01*
X131683000Y-103135905D01*
X132272832Y-102546073D01*
X132294711Y-102578816D01*
X132367000Y-102651105D01*
X132367001Y-106348894D01*
X132294711Y-106421184D01*
X132195341Y-106569901D01*
X132126894Y-106735146D01*
X132092000Y-106910570D01*
X132092000Y-107089430D01*
X132126894Y-107264854D01*
X132195341Y-107430099D01*
X132242050Y-107500004D01*
X132193183Y-107573138D01*
X132124736Y-107738383D01*
X132089842Y-107913807D01*
X132089842Y-108092667D01*
X132124736Y-108268091D01*
X132193183Y-108433336D01*
X132292553Y-108582053D01*
X132419026Y-108708526D01*
X132567743Y-108807896D01*
X132732988Y-108876343D01*
X132908412Y-108911237D01*
X133087272Y-108911237D01*
X133262696Y-108876343D01*
X133427941Y-108807896D01*
X133576658Y-108708526D01*
X133703131Y-108582053D01*
X133802501Y-108433336D01*
X133870948Y-108268091D01*
X133905842Y-108092667D01*
X133905842Y-108062357D01*
X134425618Y-107542582D01*
X134449764Y-107522766D01*
X134489481Y-107474371D01*
X134528866Y-107426379D01*
X134547242Y-107392000D01*
X134587645Y-107316412D01*
X134623840Y-107197092D01*
X134633000Y-107104090D01*
X134636062Y-107073002D01*
X134633000Y-107041914D01*
X134633000Y-101651105D01*
X134705289Y-101578816D01*
X134804659Y-101430099D01*
X134873106Y-101264854D01*
X134908000Y-101089430D01*
X134908000Y-100910570D01*
X134873106Y-100735146D01*
X134804659Y-100569901D01*
X134705289Y-100421184D01*
X134694675Y-100410570D01*
X137092000Y-100410570D01*
X137092000Y-100589430D01*
X137126894Y-100764854D01*
X137195341Y-100930099D01*
X137294711Y-101078816D01*
X137421184Y-101205289D01*
X137569901Y-101304659D01*
X137735146Y-101373106D01*
X137867000Y-101399333D01*
X137867001Y-109348894D01*
X137794711Y-109421184D01*
X137695341Y-109569901D01*
X137626894Y-109735146D01*
X137592000Y-109910570D01*
X137592000Y-110089430D01*
X137626894Y-110264854D01*
X137695341Y-110430099D01*
X137794711Y-110578816D01*
X137921184Y-110705289D01*
X138069901Y-110804659D01*
X138235146Y-110873106D01*
X138410570Y-110908000D01*
X138589430Y-110908000D01*
X138764854Y-110873106D01*
X138930099Y-110804659D01*
X139078816Y-110705289D01*
X139205289Y-110578816D01*
X139304659Y-110430099D01*
X139373106Y-110264854D01*
X139408000Y-110089430D01*
X139408000Y-109910570D01*
X139373106Y-109735146D01*
X139304659Y-109569901D01*
X139205289Y-109421184D01*
X139133000Y-109348895D01*
X139133000Y-104910570D01*
X140092000Y-104910570D01*
X140092000Y-105089430D01*
X140126894Y-105264854D01*
X140195341Y-105430099D01*
X140294711Y-105578816D01*
X140421184Y-105705289D01*
X140569901Y-105804659D01*
X140735146Y-105873106D01*
X140910570Y-105908000D01*
X141012803Y-105908000D01*
X141530416Y-106425613D01*
X141550236Y-106449764D01*
X141646623Y-106528866D01*
X141756590Y-106587645D01*
X141873309Y-106623051D01*
X141875910Y-106623840D01*
X142000000Y-106636062D01*
X142031088Y-106633000D01*
X143482315Y-106633000D01*
X143471134Y-106646624D01*
X143412355Y-106756591D01*
X143377011Y-106873106D01*
X143376160Y-106875911D01*
X143363938Y-107000000D01*
X143367000Y-107031088D01*
X143367001Y-111348894D01*
X143294711Y-111421184D01*
X143195341Y-111569901D01*
X143126894Y-111735146D01*
X143092000Y-111910570D01*
X143092000Y-112089430D01*
X143126894Y-112264854D01*
X143195341Y-112430099D01*
X143294711Y-112578816D01*
X143421184Y-112705289D01*
X143569901Y-112804659D01*
X143735146Y-112873106D01*
X143910570Y-112908000D01*
X144089430Y-112908000D01*
X144264854Y-112873106D01*
X144430099Y-112804659D01*
X144578816Y-112705289D01*
X144705289Y-112578816D01*
X144804659Y-112430099D01*
X144873106Y-112264854D01*
X144908000Y-112089430D01*
X144908000Y-111910570D01*
X144873106Y-111735146D01*
X144804659Y-111569901D01*
X144705289Y-111421184D01*
X144633000Y-111348895D01*
X144633000Y-108910570D01*
X159092000Y-108910570D01*
X159092000Y-109089430D01*
X159126894Y-109264854D01*
X159195341Y-109430099D01*
X159294711Y-109578816D01*
X159421184Y-109705289D01*
X159569901Y-109804659D01*
X159735146Y-109873106D01*
X159910570Y-109908000D01*
X160089430Y-109908000D01*
X160264854Y-109873106D01*
X160430099Y-109804659D01*
X160578816Y-109705289D01*
X160651105Y-109633000D01*
X163737803Y-109633000D01*
X171092000Y-116987197D01*
X171092000Y-117089430D01*
X171126894Y-117264854D01*
X171195341Y-117430099D01*
X171294711Y-117578816D01*
X171421184Y-117705289D01*
X171569901Y-117804659D01*
X171735146Y-117873106D01*
X171910570Y-117908000D01*
X172089430Y-117908000D01*
X172264854Y-117873106D01*
X172430099Y-117804659D01*
X172578816Y-117705289D01*
X172705289Y-117578816D01*
X172804659Y-117430099D01*
X172873106Y-117264854D01*
X172908000Y-117089430D01*
X172908000Y-116910570D01*
X172873106Y-116735146D01*
X172804659Y-116569901D01*
X172705289Y-116421184D01*
X172578816Y-116294711D01*
X172430099Y-116195341D01*
X172264854Y-116126894D01*
X172089430Y-116092000D01*
X171987197Y-116092000D01*
X164469584Y-108574387D01*
X164449764Y-108550236D01*
X164353377Y-108471134D01*
X164243410Y-108412355D01*
X164124090Y-108376160D01*
X164031088Y-108367000D01*
X164000000Y-108363938D01*
X163968912Y-108367000D01*
X160651105Y-108367000D01*
X160578816Y-108294711D01*
X160430099Y-108195341D01*
X160264854Y-108126894D01*
X160089430Y-108092000D01*
X159910570Y-108092000D01*
X159735146Y-108126894D01*
X159569901Y-108195341D01*
X159421184Y-108294711D01*
X159294711Y-108421184D01*
X159195341Y-108569901D01*
X159126894Y-108735146D01*
X159092000Y-108910570D01*
X144633000Y-108910570D01*
X144633000Y-107262197D01*
X144987197Y-106908000D01*
X145089430Y-106908000D01*
X145264854Y-106873106D01*
X145430099Y-106804659D01*
X145578816Y-106705289D01*
X145705289Y-106578816D01*
X145804659Y-106430099D01*
X145873106Y-106264854D01*
X145908000Y-106089430D01*
X145908000Y-105910570D01*
X145873106Y-105735146D01*
X145804659Y-105569901D01*
X145705289Y-105421184D01*
X145578816Y-105294711D01*
X145430099Y-105195341D01*
X145264854Y-105126894D01*
X145089430Y-105092000D01*
X144910570Y-105092000D01*
X144735146Y-105126894D01*
X144569901Y-105195341D01*
X144421184Y-105294711D01*
X144348895Y-105367000D01*
X142262197Y-105367000D01*
X141908000Y-105012803D01*
X141908000Y-104910570D01*
X141873106Y-104735146D01*
X141804659Y-104569901D01*
X141705289Y-104421184D01*
X141578816Y-104294711D01*
X141430099Y-104195341D01*
X141264854Y-104126894D01*
X141089430Y-104092000D01*
X140910570Y-104092000D01*
X140735146Y-104126894D01*
X140569901Y-104195341D01*
X140421184Y-104294711D01*
X140294711Y-104421184D01*
X140195341Y-104569901D01*
X140126894Y-104735146D01*
X140092000Y-104910570D01*
X139133000Y-104910570D01*
X139133000Y-101031088D01*
X139136062Y-101000000D01*
X139123840Y-100875910D01*
X139099000Y-100794023D01*
X139087645Y-100756590D01*
X139028866Y-100646623D01*
X138949764Y-100550236D01*
X138925614Y-100530417D01*
X138908000Y-100512803D01*
X138908000Y-100410570D01*
X138873106Y-100235146D01*
X138804659Y-100069901D01*
X138705289Y-99921184D01*
X138578816Y-99794711D01*
X138430099Y-99695341D01*
X138264854Y-99626894D01*
X138089430Y-99592000D01*
X137910570Y-99592000D01*
X137735146Y-99626894D01*
X137569901Y-99695341D01*
X137421184Y-99794711D01*
X137294711Y-99921184D01*
X137195341Y-100069901D01*
X137126894Y-100235146D01*
X137092000Y-100410570D01*
X134694675Y-100410570D01*
X134578816Y-100294711D01*
X134546073Y-100272833D01*
X139825807Y-94993099D01*
X139900721Y-95008000D01*
X140042093Y-95008000D01*
X145993328Y-100959236D01*
X146014710Y-100985290D01*
X146118710Y-101070641D01*
X146237363Y-101134062D01*
X146366109Y-101173117D01*
X146466454Y-101183000D01*
X146466463Y-101183000D01*
X146499999Y-101186303D01*
X146533535Y-101183000D01*
X154757473Y-101183000D01*
X154857438Y-101282965D01*
X155022533Y-101393278D01*
X155205977Y-101469263D01*
X155400721Y-101508000D01*
X155599279Y-101508000D01*
X155794023Y-101469263D01*
X155977467Y-101393278D01*
X156142562Y-101282965D01*
X156282965Y-101142562D01*
X156393278Y-100977467D01*
X156469263Y-100794023D01*
X156508000Y-100599279D01*
X156508000Y-100400721D01*
X156469263Y-100205977D01*
X156393278Y-100022533D01*
X156282965Y-99857438D01*
X156142562Y-99717035D01*
X155977467Y-99606722D01*
X155794023Y-99530737D01*
X155599279Y-99492000D01*
X155400721Y-99492000D01*
X155205977Y-99530737D01*
X155022533Y-99606722D01*
X154857438Y-99717035D01*
X154757473Y-99817000D01*
X146782908Y-99817000D01*
X142326478Y-95360570D01*
X163092000Y-95360570D01*
X163092000Y-95539430D01*
X163126894Y-95714854D01*
X163195341Y-95880099D01*
X163294711Y-96028816D01*
X163421184Y-96155289D01*
X163569901Y-96254659D01*
X163735146Y-96323106D01*
X163910570Y-96358000D01*
X164089430Y-96358000D01*
X164264854Y-96323106D01*
X164430099Y-96254659D01*
X164578816Y-96155289D01*
X164705289Y-96028816D01*
X164804659Y-95880099D01*
X164873106Y-95714854D01*
X164908000Y-95539430D01*
X164908000Y-95360570D01*
X164873106Y-95185146D01*
X164804659Y-95019901D01*
X164705289Y-94871184D01*
X164633000Y-94798895D01*
X164633000Y-91262197D01*
X164987197Y-90908000D01*
X165089430Y-90908000D01*
X165264854Y-90873106D01*
X165430099Y-90804659D01*
X165578816Y-90705289D01*
X165705289Y-90578816D01*
X165804659Y-90430099D01*
X165816827Y-90400721D01*
X166492000Y-90400721D01*
X166492000Y-90599279D01*
X166530737Y-90794023D01*
X166606722Y-90977467D01*
X166717035Y-91142562D01*
X166817001Y-91242528D01*
X166817000Y-94966464D01*
X166813697Y-95000000D01*
X166817000Y-95033536D01*
X166817000Y-95033545D01*
X166826883Y-95133890D01*
X166865938Y-95262636D01*
X166929359Y-95381289D01*
X166992000Y-95457617D01*
X166992000Y-95599279D01*
X167030737Y-95794023D01*
X167106722Y-95977467D01*
X167217035Y-96142562D01*
X167357438Y-96282965D01*
X167522533Y-96393278D01*
X167705977Y-96469263D01*
X167900721Y-96508000D01*
X168099279Y-96508000D01*
X168294023Y-96469263D01*
X168477467Y-96393278D01*
X168642562Y-96282965D01*
X168782965Y-96142562D01*
X168893278Y-95977467D01*
X168969263Y-95794023D01*
X169008000Y-95599279D01*
X169008000Y-95400721D01*
X168969263Y-95205977D01*
X168893278Y-95022533D01*
X168782965Y-94857438D01*
X168642562Y-94717035D01*
X168477467Y-94606722D01*
X168294023Y-94530737D01*
X168183000Y-94508653D01*
X168183000Y-91242527D01*
X168282965Y-91142562D01*
X168393278Y-90977467D01*
X168469263Y-90794023D01*
X168508000Y-90599279D01*
X168508000Y-90400721D01*
X168469263Y-90205977D01*
X168393278Y-90022533D01*
X168282965Y-89857438D01*
X168142562Y-89717035D01*
X167977467Y-89606722D01*
X167794023Y-89530737D01*
X167599279Y-89492000D01*
X167400721Y-89492000D01*
X167205977Y-89530737D01*
X167022533Y-89606722D01*
X166857438Y-89717035D01*
X166717035Y-89857438D01*
X166606722Y-90022533D01*
X166530737Y-90205977D01*
X166492000Y-90400721D01*
X165816827Y-90400721D01*
X165873106Y-90264854D01*
X165908000Y-90089430D01*
X165908000Y-89910570D01*
X165873106Y-89735146D01*
X165804659Y-89569901D01*
X165705289Y-89421184D01*
X165578816Y-89294711D01*
X165430099Y-89195341D01*
X165264854Y-89126894D01*
X165089430Y-89092000D01*
X164910570Y-89092000D01*
X164735146Y-89126894D01*
X164569901Y-89195341D01*
X164421184Y-89294711D01*
X164294711Y-89421184D01*
X164195341Y-89569901D01*
X164126894Y-89735146D01*
X164092000Y-89910570D01*
X164092000Y-90012803D01*
X163574383Y-90530420D01*
X163550237Y-90550236D01*
X163530421Y-90574382D01*
X163530419Y-90574384D01*
X163471134Y-90646624D01*
X163412356Y-90756590D01*
X163376160Y-90875911D01*
X163363938Y-91000000D01*
X163367001Y-91031098D01*
X163367000Y-94798895D01*
X163294711Y-94871184D01*
X163195341Y-95019901D01*
X163126894Y-95185146D01*
X163092000Y-95360570D01*
X142326478Y-95360570D01*
X141008000Y-94042093D01*
X141008000Y-93900721D01*
X140969263Y-93705977D01*
X140893278Y-93522533D01*
X140782965Y-93357438D01*
X140642562Y-93217035D01*
X140477467Y-93106722D01*
X140294023Y-93030737D01*
X140099279Y-92992000D01*
X139900721Y-92992000D01*
X139705977Y-93030737D01*
X139522533Y-93106722D01*
X139357438Y-93217035D01*
X139217035Y-93357438D01*
X139106722Y-93522533D01*
X139030737Y-93705977D01*
X138993398Y-93893692D01*
X130540765Y-102346326D01*
X130514711Y-102367708D01*
X130493329Y-102393762D01*
X130493326Y-102393765D01*
X130429360Y-102471708D01*
X130365939Y-102590361D01*
X130326884Y-102719107D01*
X130313697Y-102852998D01*
X122558001Y-102852998D01*
X122558001Y-102807084D01*
X122561063Y-102775998D01*
X122555459Y-102719107D01*
X122548841Y-102651909D01*
X122512646Y-102532589D01*
X122453867Y-102422622D01*
X122417548Y-102378367D01*
X122394582Y-102350382D01*
X122394581Y-102350381D01*
X122374765Y-102326235D01*
X122350619Y-102306419D01*
X121643576Y-101599377D01*
X121623756Y-101575226D01*
X121527369Y-101496124D01*
X121417402Y-101437345D01*
X121298082Y-101401150D01*
X121205080Y-101391990D01*
X121173992Y-101388928D01*
X121142904Y-101391990D01*
X119820444Y-101391990D01*
X119873106Y-101264854D01*
X119908000Y-101089430D01*
X119908000Y-100910570D01*
X119873106Y-100735146D01*
X119804659Y-100569901D01*
X119705289Y-100421184D01*
X119578816Y-100294711D01*
X119430099Y-100195341D01*
X119264854Y-100126894D01*
X119089430Y-100092000D01*
X118910570Y-100092000D01*
X118735146Y-100126894D01*
X118569901Y-100195341D01*
X118421184Y-100294711D01*
X118294711Y-100421184D01*
X118195341Y-100569901D01*
X118126894Y-100735146D01*
X118092000Y-100910570D01*
X118092000Y-101012803D01*
X118074383Y-101030420D01*
X118050237Y-101050236D01*
X118030421Y-101074382D01*
X118030419Y-101074384D01*
X117971134Y-101146624D01*
X117912356Y-101256590D01*
X117879656Y-101364388D01*
X117837265Y-101312735D01*
X117668550Y-101174274D01*
X117476065Y-101071389D01*
X117433000Y-101058325D01*
X117433000Y-91900721D01*
X144992000Y-91900721D01*
X144992000Y-92099279D01*
X145030737Y-92294023D01*
X145106722Y-92477467D01*
X145217035Y-92642562D01*
X145357438Y-92782965D01*
X145522533Y-92893278D01*
X145705977Y-92969263D01*
X145900721Y-93008000D01*
X146099279Y-93008000D01*
X146294023Y-92969263D01*
X146477467Y-92893278D01*
X146642562Y-92782965D01*
X146742527Y-92683000D01*
X157257473Y-92683000D01*
X157357438Y-92782965D01*
X157522533Y-92893278D01*
X157705977Y-92969263D01*
X157900721Y-93008000D01*
X158099279Y-93008000D01*
X158294023Y-92969263D01*
X158477467Y-92893278D01*
X158642562Y-92782965D01*
X158782965Y-92642562D01*
X158893278Y-92477467D01*
X158969263Y-92294023D01*
X159008000Y-92099279D01*
X159008000Y-91910570D01*
X159592000Y-91910570D01*
X159592000Y-92089430D01*
X159626894Y-92264854D01*
X159695341Y-92430099D01*
X159794711Y-92578816D01*
X159921184Y-92705289D01*
X160069901Y-92804659D01*
X160235146Y-92873106D01*
X160410570Y-92908000D01*
X160589430Y-92908000D01*
X160764854Y-92873106D01*
X160930099Y-92804659D01*
X161078816Y-92705289D01*
X161205289Y-92578816D01*
X161304659Y-92430099D01*
X161373106Y-92264854D01*
X161408000Y-92089430D01*
X161408000Y-91987197D01*
X164762197Y-88633000D01*
X165348895Y-88633000D01*
X165421184Y-88705289D01*
X165569901Y-88804659D01*
X165735146Y-88873106D01*
X165910570Y-88908000D01*
X166089430Y-88908000D01*
X166264854Y-88873106D01*
X166430099Y-88804659D01*
X166578816Y-88705289D01*
X166705289Y-88578816D01*
X166804659Y-88430099D01*
X166873106Y-88264854D01*
X166908000Y-88089430D01*
X166908000Y-87910570D01*
X166873106Y-87735146D01*
X166804659Y-87569901D01*
X166705289Y-87421184D01*
X166578816Y-87294711D01*
X166430099Y-87195341D01*
X166264854Y-87126894D01*
X166089430Y-87092000D01*
X165910570Y-87092000D01*
X165735146Y-87126894D01*
X165569901Y-87195341D01*
X165421184Y-87294711D01*
X165348895Y-87367000D01*
X164531085Y-87367000D01*
X164499999Y-87363938D01*
X164468913Y-87367000D01*
X164468912Y-87367000D01*
X164375910Y-87376160D01*
X164256590Y-87412355D01*
X164146623Y-87471134D01*
X164050236Y-87550236D01*
X164030416Y-87574387D01*
X160512803Y-91092000D01*
X160410570Y-91092000D01*
X160235146Y-91126894D01*
X160069901Y-91195341D01*
X159921184Y-91294711D01*
X159794711Y-91421184D01*
X159695341Y-91569901D01*
X159626894Y-91735146D01*
X159592000Y-91910570D01*
X159008000Y-91910570D01*
X159008000Y-91900721D01*
X158969263Y-91705977D01*
X158893278Y-91522533D01*
X158782965Y-91357438D01*
X158642562Y-91217035D01*
X158477467Y-91106722D01*
X158294023Y-91030737D01*
X158099279Y-90992000D01*
X157900721Y-90992000D01*
X157705977Y-91030737D01*
X157522533Y-91106722D01*
X157357438Y-91217035D01*
X157257473Y-91317000D01*
X146742527Y-91317000D01*
X146642562Y-91217035D01*
X146477467Y-91106722D01*
X146294023Y-91030737D01*
X146099279Y-90992000D01*
X145900721Y-90992000D01*
X145705977Y-91030737D01*
X145522533Y-91106722D01*
X145357438Y-91217035D01*
X145217035Y-91357438D01*
X145106722Y-91522533D01*
X145030737Y-91705977D01*
X144992000Y-91900721D01*
X117433000Y-91900721D01*
X117433000Y-88532907D01*
X117626659Y-88339248D01*
X117717281Y-88399799D01*
X118210105Y-88603933D01*
X118733285Y-88708000D01*
X119266715Y-88708000D01*
X119789895Y-88603933D01*
X120282719Y-88399799D01*
X120726249Y-88103441D01*
X121103441Y-87726249D01*
X121399799Y-87282719D01*
X121603933Y-86789895D01*
X121708000Y-86266715D01*
X121708000Y-85788253D01*
X122369254Y-85127000D01*
X178873000Y-85127000D01*
X178873000Y-128873000D01*
%TA.AperFunction,Conductor*%
D20*
G36*
X178873000Y-128873000D02*
G01*
X122369254Y-128873000D01*
X121708000Y-128211747D01*
X121708000Y-127733285D01*
X121603933Y-127210105D01*
X121399799Y-126717281D01*
X121103441Y-126273751D01*
X120726249Y-125896559D01*
X120282719Y-125600201D01*
X119789895Y-125396067D01*
X119266715Y-125292000D01*
X118733285Y-125292000D01*
X118210105Y-125396067D01*
X117717281Y-125600201D01*
X117626659Y-125660752D01*
X117433000Y-125467093D01*
X117433000Y-119775001D01*
X125538696Y-119775001D01*
X125541999Y-119808537D01*
X125542000Y-123071454D01*
X125538696Y-123105000D01*
X125551883Y-123238891D01*
X125590938Y-123367637D01*
X125654359Y-123486290D01*
X125699067Y-123540766D01*
X125739710Y-123590290D01*
X125765764Y-123611672D01*
X125992000Y-123837908D01*
X125992000Y-123979280D01*
X126030737Y-124174024D01*
X126106722Y-124357468D01*
X126217035Y-124522563D01*
X126357438Y-124662966D01*
X126522533Y-124773279D01*
X126705977Y-124849264D01*
X126900721Y-124888001D01*
X127099279Y-124888001D01*
X127294023Y-124849264D01*
X127477467Y-124773279D01*
X127642562Y-124662966D01*
X127782965Y-124522563D01*
X127893278Y-124357468D01*
X127969263Y-124174024D01*
X128008000Y-123979280D01*
X128008000Y-123780722D01*
X127969263Y-123585978D01*
X127893278Y-123402534D01*
X127782965Y-123237439D01*
X127642562Y-123097036D01*
X127477467Y-122986723D01*
X127294023Y-122910738D01*
X127099279Y-122872001D01*
X126957907Y-122872001D01*
X126907999Y-122822093D01*
X126907999Y-120057908D01*
X126957907Y-120008000D01*
X127099279Y-120008000D01*
X127294023Y-119969263D01*
X127477467Y-119893278D01*
X127642562Y-119782965D01*
X127782965Y-119642562D01*
X127893278Y-119477467D01*
X127969263Y-119294023D01*
X128008000Y-119099279D01*
X128008000Y-118900721D01*
X127969263Y-118705977D01*
X127893278Y-118522533D01*
X127782965Y-118357438D01*
X127642562Y-118217035D01*
X127477467Y-118106722D01*
X127294023Y-118030737D01*
X127099279Y-117992000D01*
X126900721Y-117992000D01*
X126705977Y-118030737D01*
X126522533Y-118106722D01*
X126357438Y-118217035D01*
X126217035Y-118357438D01*
X126106722Y-118522533D01*
X126030737Y-118705977D01*
X125992000Y-118900721D01*
X125992000Y-119042093D01*
X125765764Y-119268328D01*
X125739709Y-119289712D01*
X125654358Y-119393712D01*
X125590937Y-119512365D01*
X125551882Y-119641111D01*
X125541999Y-119741456D01*
X125541999Y-119741465D01*
X125538696Y-119775001D01*
X117433000Y-119775001D01*
X117433000Y-112941675D01*
X117476065Y-112928611D01*
X117668550Y-112825726D01*
X117837265Y-112687265D01*
X117975726Y-112518550D01*
X118078611Y-112326065D01*
X118141968Y-112117206D01*
X118163361Y-111900000D01*
X118141968Y-111682794D01*
X118078611Y-111473935D01*
X117975726Y-111281450D01*
X117837265Y-111112735D01*
X117668550Y-110974274D01*
X117476065Y-110871389D01*
X117267206Y-110808032D01*
X117104431Y-110792000D01*
X116295569Y-110792000D01*
X116132794Y-110808032D01*
X115923935Y-110871389D01*
X115731450Y-110974274D01*
X115562735Y-111112735D01*
X115533000Y-111148967D01*
X115533000Y-102851033D01*
X115562735Y-102887265D01*
X115731450Y-103025726D01*
X115923935Y-103128611D01*
X116132794Y-103191968D01*
X116295569Y-103208000D01*
X117104431Y-103208000D01*
X117267206Y-103191968D01*
X117476065Y-103128611D01*
X117668550Y-103025726D01*
X117793225Y-102923407D01*
X117695341Y-103069901D01*
X117626894Y-103235146D01*
X117592000Y-103410570D01*
X117592000Y-103589430D01*
X117626894Y-103764854D01*
X117695341Y-103930099D01*
X117794711Y-104078816D01*
X117921184Y-104205289D01*
X118069901Y-104304659D01*
X118235146Y-104373106D01*
X118410570Y-104408000D01*
X118589430Y-104408000D01*
X118616990Y-104402518D01*
X118616991Y-112218892D01*
X118613928Y-112249990D01*
X118626150Y-112374079D01*
X118662346Y-112493400D01*
X118721124Y-112603366D01*
X118748155Y-112636303D01*
X118800227Y-112699754D01*
X118824373Y-112719570D01*
X119092000Y-112987197D01*
X119092000Y-113089430D01*
X119126894Y-113264854D01*
X119195341Y-113430099D01*
X119294711Y-113578816D01*
X119421184Y-113705289D01*
X119569901Y-113804659D01*
X119735146Y-113873106D01*
X119910570Y-113908000D01*
X120089430Y-113908000D01*
X120264854Y-113873106D01*
X120430099Y-113804659D01*
X120578816Y-113705289D01*
X120705289Y-113578816D01*
X120804659Y-113430099D01*
X120873106Y-113264854D01*
X120908000Y-113089430D01*
X120908000Y-112910570D01*
X120873106Y-112735146D01*
X120804659Y-112569901D01*
X120705289Y-112421184D01*
X120578816Y-112294711D01*
X120430099Y-112195341D01*
X120279017Y-112132761D01*
X120427997Y-112087568D01*
X120598768Y-111996289D01*
X120748449Y-111873449D01*
X120871289Y-111723768D01*
X120894021Y-111681240D01*
X120999731Y-111725027D01*
X121165494Y-111758000D01*
X121334506Y-111758000D01*
X121500269Y-111725027D01*
X121656415Y-111660349D01*
X121796943Y-111566452D01*
X121916452Y-111446943D01*
X122010349Y-111306415D01*
X122075027Y-111150269D01*
X122108000Y-110984506D01*
X122108000Y-110815494D01*
X122075027Y-110649731D01*
X122010349Y-110493585D01*
X121916452Y-110353057D01*
X121796943Y-110233548D01*
X121682205Y-110156883D01*
X121684828Y-110143824D01*
X121685171Y-109959645D01*
X121649574Y-109778939D01*
X121579408Y-109608649D01*
X121577763Y-109605575D01*
X121384541Y-109595064D01*
X120929605Y-110050000D01*
X120943748Y-110064143D01*
X120885672Y-110122218D01*
X120843585Y-110139651D01*
X120789085Y-110176066D01*
X120748449Y-110126551D01*
X120598768Y-110003711D01*
X120592386Y-110000299D01*
X120677615Y-109915070D01*
X120678773Y-109913337D01*
X120735858Y-109856253D01*
X120750000Y-109870395D01*
X121204936Y-109415459D01*
X121194425Y-109222237D01*
X121024397Y-109151438D01*
X120843824Y-109115172D01*
X120806565Y-109115103D01*
X120766041Y-109017268D01*
X120759848Y-109008000D01*
X120829581Y-109008000D01*
X120985685Y-108976949D01*
X121132732Y-108916041D01*
X121265070Y-108827615D01*
X121377615Y-108715070D01*
X121466041Y-108582732D01*
X121526949Y-108435685D01*
X121558000Y-108279581D01*
X121558000Y-108120419D01*
X121535638Y-108008000D01*
X122370140Y-108008000D01*
X122400000Y-108010941D01*
X122429860Y-108008000D01*
X122429861Y-108008000D01*
X122519189Y-107999202D01*
X122633797Y-107964436D01*
X122739421Y-107907979D01*
X122832001Y-107832001D01*
X122851043Y-107808798D01*
X125851842Y-104808000D01*
X126247393Y-104808000D01*
X126294711Y-104878816D01*
X126421184Y-105005289D01*
X126569901Y-105104659D01*
X126735146Y-105173106D01*
X126910570Y-105208000D01*
X127089430Y-105208000D01*
X127264854Y-105173106D01*
X127430099Y-105104659D01*
X127578816Y-105005289D01*
X127705289Y-104878816D01*
X127804659Y-104730099D01*
X127873106Y-104564854D01*
X127908000Y-104389430D01*
X127908000Y-104210570D01*
X127873106Y-104035146D01*
X127804659Y-103869901D01*
X127705289Y-103721184D01*
X127578816Y-103594711D01*
X127430099Y-103495341D01*
X127264854Y-103426894D01*
X127089430Y-103392000D01*
X126910570Y-103392000D01*
X126735146Y-103426894D01*
X126569901Y-103495341D01*
X126425241Y-103592000D01*
X125629860Y-103592000D01*
X125599999Y-103589059D01*
X125480811Y-103600798D01*
X125366203Y-103635564D01*
X125260579Y-103692021D01*
X125167999Y-103767999D01*
X125148961Y-103791197D01*
X122148159Y-106792000D01*
X121535638Y-106792000D01*
X121558000Y-106679581D01*
X121558000Y-106520419D01*
X121526949Y-106364315D01*
X121466041Y-106217268D01*
X121454503Y-106200000D01*
X121466041Y-106182732D01*
X121526949Y-106035685D01*
X121556109Y-105889088D01*
X122350615Y-105094582D01*
X122374765Y-105074763D01*
X122453867Y-104978376D01*
X122496187Y-104899202D01*
X122512645Y-104868411D01*
X122518666Y-104848562D01*
X122548841Y-104749089D01*
X122558001Y-104656087D01*
X122558001Y-104656086D01*
X122561063Y-104625000D01*
X122558001Y-104593914D01*
X122558001Y-102852998D01*
X130313697Y-102852998D01*
X130317001Y-102886544D01*
X130317000Y-123466464D01*
X130313697Y-123500000D01*
X130317000Y-123533536D01*
X130317000Y-123533545D01*
X130326883Y-123633890D01*
X130365938Y-123762636D01*
X130429359Y-123881289D01*
X130492000Y-123957617D01*
X130492000Y-124099279D01*
X130530737Y-124294023D01*
X130606722Y-124477467D01*
X130717035Y-124642562D01*
X130857438Y-124782965D01*
X131022533Y-124893278D01*
X131205977Y-124969263D01*
X131400721Y-125008000D01*
X131599279Y-125008000D01*
X131794023Y-124969263D01*
X131977467Y-124893278D01*
X132142562Y-124782965D01*
X132282965Y-124642562D01*
X132393278Y-124477467D01*
X132469263Y-124294023D01*
X132495808Y-124160570D01*
X147592000Y-124160570D01*
X147592000Y-124339430D01*
X147626894Y-124514854D01*
X147695341Y-124680099D01*
X147794711Y-124828816D01*
X147864052Y-124898157D01*
X147867000Y-124928090D01*
X147876160Y-125021092D01*
X147912355Y-125140412D01*
X147933174Y-125179360D01*
X147970932Y-125249999D01*
X147971135Y-125250379D01*
X148050237Y-125346766D01*
X148074383Y-125366582D01*
X150383414Y-127675613D01*
X150403234Y-127699764D01*
X150499621Y-127778866D01*
X150609588Y-127837645D01*
X150728908Y-127873840D01*
X150852998Y-127886062D01*
X150884086Y-127883000D01*
X160098895Y-127883000D01*
X160171184Y-127955289D01*
X160319901Y-128054659D01*
X160485146Y-128123106D01*
X160660570Y-128158000D01*
X160839430Y-128158000D01*
X161014854Y-128123106D01*
X161180099Y-128054659D01*
X161328816Y-127955289D01*
X161455289Y-127828816D01*
X161554659Y-127680099D01*
X161623106Y-127514854D01*
X161658000Y-127339430D01*
X161658000Y-127160570D01*
X161623106Y-126985146D01*
X161554659Y-126819901D01*
X161455289Y-126671184D01*
X161328816Y-126544711D01*
X161180099Y-126445341D01*
X161014854Y-126376894D01*
X160839430Y-126342000D01*
X160660570Y-126342000D01*
X160485146Y-126376894D01*
X160319901Y-126445341D01*
X160171184Y-126544711D01*
X160098895Y-126617000D01*
X151115195Y-126617000D01*
X150575781Y-126077586D01*
X150642562Y-126032965D01*
X150782965Y-125892562D01*
X150893278Y-125727467D01*
X150969263Y-125544023D01*
X151008000Y-125349279D01*
X151008000Y-125150721D01*
X150969263Y-124955977D01*
X150893278Y-124772533D01*
X150782965Y-124607438D01*
X150642562Y-124467035D01*
X150477467Y-124356722D01*
X150433000Y-124338303D01*
X150433000Y-121992527D01*
X150532965Y-121892562D01*
X150643278Y-121727467D01*
X150719263Y-121544023D01*
X150758000Y-121349279D01*
X150758000Y-121150721D01*
X150719263Y-120955977D01*
X150643278Y-120772533D01*
X150532965Y-120607438D01*
X150392562Y-120467035D01*
X150227467Y-120356722D01*
X150044023Y-120280737D01*
X149849279Y-120242000D01*
X149650721Y-120242000D01*
X149455977Y-120280737D01*
X149272533Y-120356722D01*
X149107438Y-120467035D01*
X148967035Y-120607438D01*
X148856722Y-120772533D01*
X148780737Y-120955977D01*
X148742000Y-121150721D01*
X148742000Y-121349279D01*
X148780737Y-121544023D01*
X148856722Y-121727467D01*
X148967035Y-121892562D01*
X149067000Y-121992527D01*
X149067001Y-123536816D01*
X148930099Y-123445341D01*
X148764854Y-123376894D01*
X148589430Y-123342000D01*
X148410570Y-123342000D01*
X148235146Y-123376894D01*
X148069901Y-123445341D01*
X147921184Y-123544711D01*
X147794711Y-123671184D01*
X147695341Y-123819901D01*
X147626894Y-123985146D01*
X147592000Y-124160570D01*
X132495808Y-124160570D01*
X132508000Y-124099279D01*
X132508000Y-123900721D01*
X132469263Y-123705977D01*
X132393278Y-123522533D01*
X132282965Y-123357438D01*
X132142562Y-123217035D01*
X131977467Y-123106722D01*
X131794023Y-123030737D01*
X131683000Y-123008653D01*
X131683000Y-115160570D01*
X131842000Y-115160570D01*
X131842000Y-115339430D01*
X131876894Y-115514854D01*
X131945341Y-115680099D01*
X132044711Y-115828816D01*
X132171184Y-115955289D01*
X132319901Y-116054659D01*
X132485146Y-116123106D01*
X132660570Y-116158000D01*
X132762803Y-116158000D01*
X134120764Y-117515961D01*
X134092000Y-117660570D01*
X134092000Y-117839430D01*
X134126894Y-118014854D01*
X134195341Y-118180099D01*
X134294711Y-118328816D01*
X134421184Y-118455289D01*
X134569901Y-118554659D01*
X134735146Y-118623106D01*
X134910570Y-118658000D01*
X135089430Y-118658000D01*
X135264854Y-118623106D01*
X135430099Y-118554659D01*
X135578816Y-118455289D01*
X135705289Y-118328816D01*
X135804659Y-118180099D01*
X135873106Y-118014854D01*
X135908000Y-117839430D01*
X135908000Y-117660570D01*
X135873106Y-117485146D01*
X135804659Y-117319901D01*
X135705289Y-117171184D01*
X135578816Y-117044711D01*
X135430099Y-116945341D01*
X135277208Y-116882011D01*
X134279197Y-115884000D01*
X137065430Y-115884000D01*
X137065430Y-116062860D01*
X137100324Y-116238284D01*
X137168771Y-116403529D01*
X137268141Y-116552246D01*
X137394614Y-116678719D01*
X137543331Y-116778089D01*
X137708576Y-116846536D01*
X137884000Y-116881430D01*
X137915523Y-116881430D01*
X138718327Y-117684235D01*
X138739710Y-117710290D01*
X138843710Y-117795641D01*
X138962363Y-117859062D01*
X139091109Y-117898117D01*
X139191454Y-117908000D01*
X139191463Y-117908000D01*
X139224999Y-117911303D01*
X139258535Y-117908000D01*
X143092511Y-117908000D01*
X143092000Y-117910570D01*
X143092000Y-118089430D01*
X143126894Y-118264854D01*
X143148494Y-118317000D01*
X142601105Y-118317000D01*
X142578816Y-118294711D01*
X142430099Y-118195341D01*
X142264854Y-118126894D01*
X142089430Y-118092000D01*
X141910570Y-118092000D01*
X141735146Y-118126894D01*
X141569901Y-118195341D01*
X141421184Y-118294711D01*
X141294711Y-118421184D01*
X141195341Y-118569901D01*
X141126894Y-118735146D01*
X141092000Y-118910570D01*
X141092000Y-119089430D01*
X141126894Y-119264854D01*
X141195341Y-119430099D01*
X141294711Y-119578816D01*
X141421184Y-119705289D01*
X141569901Y-119804659D01*
X141735146Y-119873106D01*
X141910570Y-119908000D01*
X142089430Y-119908000D01*
X142264854Y-119873106D01*
X142430099Y-119804659D01*
X142578816Y-119705289D01*
X142601105Y-119683000D01*
X153717093Y-119683000D01*
X154092000Y-120057908D01*
X154092000Y-120089430D01*
X154126894Y-120264854D01*
X154195341Y-120430099D01*
X154294711Y-120578816D01*
X154421184Y-120705289D01*
X154569901Y-120804659D01*
X154735146Y-120873106D01*
X154744668Y-120875000D01*
X154735146Y-120876894D01*
X154569901Y-120945341D01*
X154421184Y-121044711D01*
X154294711Y-121171184D01*
X154195341Y-121319901D01*
X154126894Y-121485146D01*
X154092000Y-121660570D01*
X154092000Y-121839430D01*
X154126894Y-122014854D01*
X154195341Y-122180099D01*
X154294711Y-122328816D01*
X154421184Y-122455289D01*
X154569901Y-122554659D01*
X154735146Y-122623106D01*
X154910570Y-122658000D01*
X155089430Y-122658000D01*
X155264854Y-122623106D01*
X155430099Y-122554659D01*
X155578816Y-122455289D01*
X155705289Y-122328816D01*
X155804659Y-122180099D01*
X155873106Y-122014854D01*
X155908000Y-121839430D01*
X155908000Y-121737197D01*
X157409474Y-120235723D01*
X157766847Y-120235723D01*
X157766847Y-120414583D01*
X157801741Y-120590007D01*
X157870188Y-120755252D01*
X157969558Y-120903969D01*
X158096031Y-121030442D01*
X158244748Y-121129812D01*
X158409993Y-121198259D01*
X158529853Y-121222101D01*
X158421184Y-121294711D01*
X158294711Y-121421184D01*
X158195341Y-121569901D01*
X158126894Y-121735146D01*
X158092000Y-121910570D01*
X158092000Y-122089430D01*
X158126894Y-122264854D01*
X158195341Y-122430099D01*
X158294711Y-122578816D01*
X158421184Y-122705289D01*
X158569901Y-122804659D01*
X158735146Y-122873106D01*
X158910570Y-122908000D01*
X159089430Y-122908000D01*
X159264854Y-122873106D01*
X159430099Y-122804659D01*
X159578816Y-122705289D01*
X159705289Y-122578816D01*
X159804659Y-122430099D01*
X159873106Y-122264854D01*
X159908000Y-122089430D01*
X159908000Y-121987197D01*
X163425614Y-118469583D01*
X163449764Y-118449764D01*
X163528866Y-118353377D01*
X163587645Y-118243410D01*
X163623840Y-118124090D01*
X163633000Y-118031088D01*
X163633000Y-118031087D01*
X163636062Y-118000001D01*
X163633000Y-117968915D01*
X163633000Y-114651105D01*
X163705289Y-114578816D01*
X163804659Y-114430099D01*
X163873106Y-114264854D01*
X163908000Y-114089430D01*
X163908000Y-113910570D01*
X163873106Y-113735146D01*
X163804659Y-113569901D01*
X163705289Y-113421184D01*
X163578816Y-113294711D01*
X163430099Y-113195341D01*
X163264854Y-113126894D01*
X163089430Y-113092000D01*
X162910570Y-113092000D01*
X162735146Y-113126894D01*
X162569901Y-113195341D01*
X162421184Y-113294711D01*
X162294711Y-113421184D01*
X162195341Y-113569901D01*
X162126894Y-113735146D01*
X162092000Y-113910570D01*
X162092000Y-114089430D01*
X162126894Y-114264854D01*
X162195341Y-114430099D01*
X162294711Y-114578816D01*
X162367001Y-114651106D01*
X162367000Y-117737803D01*
X160872096Y-119232707D01*
X160804659Y-119069901D01*
X160705289Y-118921184D01*
X160578816Y-118794711D01*
X160430099Y-118695341D01*
X160264854Y-118626894D01*
X160089430Y-118592000D01*
X159910570Y-118592000D01*
X159735146Y-118626894D01*
X159569901Y-118695341D01*
X159421184Y-118794711D01*
X159294711Y-118921184D01*
X159195341Y-119069901D01*
X159126894Y-119235146D01*
X159100667Y-119367000D01*
X159031088Y-119367000D01*
X159000000Y-119363938D01*
X158968912Y-119367000D01*
X158875910Y-119376160D01*
X158756590Y-119412355D01*
X158747614Y-119417153D01*
X158585417Y-119417153D01*
X158409993Y-119452047D01*
X158244748Y-119520494D01*
X158096031Y-119619864D01*
X157969558Y-119746337D01*
X157870188Y-119895054D01*
X157801741Y-120060299D01*
X157766847Y-120235723D01*
X157409474Y-120235723D01*
X160425614Y-117219583D01*
X160449764Y-117199764D01*
X160528866Y-117103377D01*
X160587645Y-116993410D01*
X160623840Y-116874090D01*
X160633000Y-116781088D01*
X160633000Y-116781087D01*
X160636062Y-116750000D01*
X160633000Y-116718912D01*
X160633000Y-111651105D01*
X160705289Y-111578816D01*
X160804659Y-111430099D01*
X160873106Y-111264854D01*
X160908000Y-111089430D01*
X160908000Y-110910570D01*
X160873106Y-110735146D01*
X160804659Y-110569901D01*
X160705289Y-110421184D01*
X160578816Y-110294711D01*
X160430099Y-110195341D01*
X160264854Y-110126894D01*
X160089430Y-110092000D01*
X159910570Y-110092000D01*
X159735146Y-110126894D01*
X159569901Y-110195341D01*
X159421184Y-110294711D01*
X159294711Y-110421184D01*
X159195341Y-110569901D01*
X159126894Y-110735146D01*
X159092000Y-110910570D01*
X159092000Y-111089430D01*
X159126894Y-111264854D01*
X159195341Y-111430099D01*
X159294711Y-111578816D01*
X159367001Y-111651106D01*
X159367000Y-116487803D01*
X155908000Y-119946803D01*
X155908000Y-119910570D01*
X155873106Y-119735146D01*
X155804659Y-119569901D01*
X155705289Y-119421184D01*
X155578816Y-119294711D01*
X155430099Y-119195341D01*
X155264854Y-119126894D01*
X155192498Y-119112502D01*
X155264854Y-119098109D01*
X155430099Y-119029662D01*
X155578816Y-118930292D01*
X155705289Y-118803819D01*
X155804659Y-118655102D01*
X155873106Y-118489857D01*
X155908000Y-118314433D01*
X155908000Y-118135573D01*
X155873106Y-117960149D01*
X155804659Y-117794904D01*
X155757951Y-117725002D01*
X155804659Y-117655099D01*
X155873106Y-117489854D01*
X155908000Y-117314430D01*
X155908000Y-117135570D01*
X155873106Y-116960146D01*
X155804659Y-116794901D01*
X155705289Y-116646184D01*
X155578816Y-116519711D01*
X155430099Y-116420341D01*
X155264854Y-116351894D01*
X155089430Y-116317000D01*
X154910570Y-116317000D01*
X154735146Y-116351894D01*
X154569901Y-116420341D01*
X154421184Y-116519711D01*
X154398895Y-116542000D01*
X139507908Y-116542000D01*
X138881430Y-115915523D01*
X138881430Y-115884000D01*
X138846536Y-115708576D01*
X138778089Y-115543331D01*
X138678719Y-115394614D01*
X138552246Y-115268141D01*
X138403529Y-115168771D01*
X138238284Y-115100324D01*
X138062860Y-115065430D01*
X137884000Y-115065430D01*
X137708576Y-115100324D01*
X137543331Y-115168771D01*
X137394614Y-115268141D01*
X137268141Y-115394614D01*
X137168771Y-115543331D01*
X137100324Y-115708576D01*
X137065430Y-115884000D01*
X134279197Y-115884000D01*
X133658000Y-115262803D01*
X133658000Y-115160570D01*
X133623106Y-114985146D01*
X133554659Y-114819901D01*
X133455289Y-114671184D01*
X133328816Y-114544711D01*
X133180099Y-114445341D01*
X133014854Y-114376894D01*
X132839430Y-114342000D01*
X132660570Y-114342000D01*
X132485146Y-114376894D01*
X132319901Y-114445341D01*
X132171184Y-114544711D01*
X132044711Y-114671184D01*
X131945341Y-114819901D01*
X131876894Y-114985146D01*
X131842000Y-115160570D01*
X131683000Y-115160570D01*
X131683000Y-103135905D01*
X132272832Y-102546073D01*
X132294711Y-102578816D01*
X132367000Y-102651105D01*
X132367001Y-106348894D01*
X132294711Y-106421184D01*
X132195341Y-106569901D01*
X132126894Y-106735146D01*
X132092000Y-106910570D01*
X132092000Y-107089430D01*
X132126894Y-107264854D01*
X132195341Y-107430099D01*
X132242050Y-107500004D01*
X132193183Y-107573138D01*
X132124736Y-107738383D01*
X132089842Y-107913807D01*
X132089842Y-108092667D01*
X132124736Y-108268091D01*
X132193183Y-108433336D01*
X132292553Y-108582053D01*
X132419026Y-108708526D01*
X132567743Y-108807896D01*
X132732988Y-108876343D01*
X132908412Y-108911237D01*
X133087272Y-108911237D01*
X133262696Y-108876343D01*
X133427941Y-108807896D01*
X133576658Y-108708526D01*
X133703131Y-108582053D01*
X133802501Y-108433336D01*
X133870948Y-108268091D01*
X133905842Y-108092667D01*
X133905842Y-108062357D01*
X134425618Y-107542582D01*
X134449764Y-107522766D01*
X134489481Y-107474371D01*
X134528866Y-107426379D01*
X134547242Y-107392000D01*
X134587645Y-107316412D01*
X134623840Y-107197092D01*
X134633000Y-107104090D01*
X134636062Y-107073002D01*
X134633000Y-107041914D01*
X134633000Y-101651105D01*
X134705289Y-101578816D01*
X134804659Y-101430099D01*
X134873106Y-101264854D01*
X134908000Y-101089430D01*
X134908000Y-100910570D01*
X134873106Y-100735146D01*
X134804659Y-100569901D01*
X134705289Y-100421184D01*
X134694675Y-100410570D01*
X137092000Y-100410570D01*
X137092000Y-100589430D01*
X137126894Y-100764854D01*
X137195341Y-100930099D01*
X137294711Y-101078816D01*
X137421184Y-101205289D01*
X137569901Y-101304659D01*
X137735146Y-101373106D01*
X137867000Y-101399333D01*
X137867001Y-109348894D01*
X137794711Y-109421184D01*
X137695341Y-109569901D01*
X137626894Y-109735146D01*
X137592000Y-109910570D01*
X137592000Y-110089430D01*
X137626894Y-110264854D01*
X137695341Y-110430099D01*
X137794711Y-110578816D01*
X137921184Y-110705289D01*
X138069901Y-110804659D01*
X138235146Y-110873106D01*
X138410570Y-110908000D01*
X138589430Y-110908000D01*
X138764854Y-110873106D01*
X138930099Y-110804659D01*
X139078816Y-110705289D01*
X139205289Y-110578816D01*
X139304659Y-110430099D01*
X139373106Y-110264854D01*
X139408000Y-110089430D01*
X139408000Y-109910570D01*
X139373106Y-109735146D01*
X139304659Y-109569901D01*
X139205289Y-109421184D01*
X139133000Y-109348895D01*
X139133000Y-104910570D01*
X140092000Y-104910570D01*
X140092000Y-105089430D01*
X140126894Y-105264854D01*
X140195341Y-105430099D01*
X140294711Y-105578816D01*
X140421184Y-105705289D01*
X140569901Y-105804659D01*
X140735146Y-105873106D01*
X140910570Y-105908000D01*
X141012803Y-105908000D01*
X141530416Y-106425613D01*
X141550236Y-106449764D01*
X141646623Y-106528866D01*
X141756590Y-106587645D01*
X141873309Y-106623051D01*
X141875910Y-106623840D01*
X142000000Y-106636062D01*
X142031088Y-106633000D01*
X143482315Y-106633000D01*
X143471134Y-106646624D01*
X143412355Y-106756591D01*
X143377011Y-106873106D01*
X143376160Y-106875911D01*
X143363938Y-107000000D01*
X143367000Y-107031088D01*
X143367001Y-111348894D01*
X143294711Y-111421184D01*
X143195341Y-111569901D01*
X143126894Y-111735146D01*
X143092000Y-111910570D01*
X143092000Y-112089430D01*
X143126894Y-112264854D01*
X143195341Y-112430099D01*
X143294711Y-112578816D01*
X143421184Y-112705289D01*
X143569901Y-112804659D01*
X143735146Y-112873106D01*
X143910570Y-112908000D01*
X144089430Y-112908000D01*
X144264854Y-112873106D01*
X144430099Y-112804659D01*
X144578816Y-112705289D01*
X144705289Y-112578816D01*
X144804659Y-112430099D01*
X144873106Y-112264854D01*
X144908000Y-112089430D01*
X144908000Y-111910570D01*
X144873106Y-111735146D01*
X144804659Y-111569901D01*
X144705289Y-111421184D01*
X144633000Y-111348895D01*
X144633000Y-108910570D01*
X159092000Y-108910570D01*
X159092000Y-109089430D01*
X159126894Y-109264854D01*
X159195341Y-109430099D01*
X159294711Y-109578816D01*
X159421184Y-109705289D01*
X159569901Y-109804659D01*
X159735146Y-109873106D01*
X159910570Y-109908000D01*
X160089430Y-109908000D01*
X160264854Y-109873106D01*
X160430099Y-109804659D01*
X160578816Y-109705289D01*
X160651105Y-109633000D01*
X163737803Y-109633000D01*
X171092000Y-116987197D01*
X171092000Y-117089430D01*
X171126894Y-117264854D01*
X171195341Y-117430099D01*
X171294711Y-117578816D01*
X171421184Y-117705289D01*
X171569901Y-117804659D01*
X171735146Y-117873106D01*
X171910570Y-117908000D01*
X172089430Y-117908000D01*
X172264854Y-117873106D01*
X172430099Y-117804659D01*
X172578816Y-117705289D01*
X172705289Y-117578816D01*
X172804659Y-117430099D01*
X172873106Y-117264854D01*
X172908000Y-117089430D01*
X172908000Y-116910570D01*
X172873106Y-116735146D01*
X172804659Y-116569901D01*
X172705289Y-116421184D01*
X172578816Y-116294711D01*
X172430099Y-116195341D01*
X172264854Y-116126894D01*
X172089430Y-116092000D01*
X171987197Y-116092000D01*
X164469584Y-108574387D01*
X164449764Y-108550236D01*
X164353377Y-108471134D01*
X164243410Y-108412355D01*
X164124090Y-108376160D01*
X164031088Y-108367000D01*
X164000000Y-108363938D01*
X163968912Y-108367000D01*
X160651105Y-108367000D01*
X160578816Y-108294711D01*
X160430099Y-108195341D01*
X160264854Y-108126894D01*
X160089430Y-108092000D01*
X159910570Y-108092000D01*
X159735146Y-108126894D01*
X159569901Y-108195341D01*
X159421184Y-108294711D01*
X159294711Y-108421184D01*
X159195341Y-108569901D01*
X159126894Y-108735146D01*
X159092000Y-108910570D01*
X144633000Y-108910570D01*
X144633000Y-107262197D01*
X144987197Y-106908000D01*
X145089430Y-106908000D01*
X145264854Y-106873106D01*
X145430099Y-106804659D01*
X145578816Y-106705289D01*
X145705289Y-106578816D01*
X145804659Y-106430099D01*
X145873106Y-106264854D01*
X145908000Y-106089430D01*
X145908000Y-105910570D01*
X145873106Y-105735146D01*
X145804659Y-105569901D01*
X145705289Y-105421184D01*
X145578816Y-105294711D01*
X145430099Y-105195341D01*
X145264854Y-105126894D01*
X145089430Y-105092000D01*
X144910570Y-105092000D01*
X144735146Y-105126894D01*
X144569901Y-105195341D01*
X144421184Y-105294711D01*
X144348895Y-105367000D01*
X142262197Y-105367000D01*
X141908000Y-105012803D01*
X141908000Y-104910570D01*
X141873106Y-104735146D01*
X141804659Y-104569901D01*
X141705289Y-104421184D01*
X141578816Y-104294711D01*
X141430099Y-104195341D01*
X141264854Y-104126894D01*
X141089430Y-104092000D01*
X140910570Y-104092000D01*
X140735146Y-104126894D01*
X140569901Y-104195341D01*
X140421184Y-104294711D01*
X140294711Y-104421184D01*
X140195341Y-104569901D01*
X140126894Y-104735146D01*
X140092000Y-104910570D01*
X139133000Y-104910570D01*
X139133000Y-101031088D01*
X139136062Y-101000000D01*
X139123840Y-100875910D01*
X139099000Y-100794023D01*
X139087645Y-100756590D01*
X139028866Y-100646623D01*
X138949764Y-100550236D01*
X138925614Y-100530417D01*
X138908000Y-100512803D01*
X138908000Y-100410570D01*
X138873106Y-100235146D01*
X138804659Y-100069901D01*
X138705289Y-99921184D01*
X138578816Y-99794711D01*
X138430099Y-99695341D01*
X138264854Y-99626894D01*
X138089430Y-99592000D01*
X137910570Y-99592000D01*
X137735146Y-99626894D01*
X137569901Y-99695341D01*
X137421184Y-99794711D01*
X137294711Y-99921184D01*
X137195341Y-100069901D01*
X137126894Y-100235146D01*
X137092000Y-100410570D01*
X134694675Y-100410570D01*
X134578816Y-100294711D01*
X134546073Y-100272833D01*
X139825807Y-94993099D01*
X139900721Y-95008000D01*
X140042093Y-95008000D01*
X145993328Y-100959236D01*
X146014710Y-100985290D01*
X146118710Y-101070641D01*
X146237363Y-101134062D01*
X146366109Y-101173117D01*
X146466454Y-101183000D01*
X146466463Y-101183000D01*
X146499999Y-101186303D01*
X146533535Y-101183000D01*
X154757473Y-101183000D01*
X154857438Y-101282965D01*
X155022533Y-101393278D01*
X155205977Y-101469263D01*
X155400721Y-101508000D01*
X155599279Y-101508000D01*
X155794023Y-101469263D01*
X155977467Y-101393278D01*
X156142562Y-101282965D01*
X156282965Y-101142562D01*
X156393278Y-100977467D01*
X156469263Y-100794023D01*
X156508000Y-100599279D01*
X156508000Y-100400721D01*
X156469263Y-100205977D01*
X156393278Y-100022533D01*
X156282965Y-99857438D01*
X156142562Y-99717035D01*
X155977467Y-99606722D01*
X155794023Y-99530737D01*
X155599279Y-99492000D01*
X155400721Y-99492000D01*
X155205977Y-99530737D01*
X155022533Y-99606722D01*
X154857438Y-99717035D01*
X154757473Y-99817000D01*
X146782908Y-99817000D01*
X142326478Y-95360570D01*
X163092000Y-95360570D01*
X163092000Y-95539430D01*
X163126894Y-95714854D01*
X163195341Y-95880099D01*
X163294711Y-96028816D01*
X163421184Y-96155289D01*
X163569901Y-96254659D01*
X163735146Y-96323106D01*
X163910570Y-96358000D01*
X164089430Y-96358000D01*
X164264854Y-96323106D01*
X164430099Y-96254659D01*
X164578816Y-96155289D01*
X164705289Y-96028816D01*
X164804659Y-95880099D01*
X164873106Y-95714854D01*
X164908000Y-95539430D01*
X164908000Y-95360570D01*
X164873106Y-95185146D01*
X164804659Y-95019901D01*
X164705289Y-94871184D01*
X164633000Y-94798895D01*
X164633000Y-91262197D01*
X164987197Y-90908000D01*
X165089430Y-90908000D01*
X165264854Y-90873106D01*
X165430099Y-90804659D01*
X165578816Y-90705289D01*
X165705289Y-90578816D01*
X165804659Y-90430099D01*
X165816827Y-90400721D01*
X166492000Y-90400721D01*
X166492000Y-90599279D01*
X166530737Y-90794023D01*
X166606722Y-90977467D01*
X166717035Y-91142562D01*
X166817001Y-91242528D01*
X166817000Y-94966464D01*
X166813697Y-95000000D01*
X166817000Y-95033536D01*
X166817000Y-95033545D01*
X166826883Y-95133890D01*
X166865938Y-95262636D01*
X166929359Y-95381289D01*
X166992000Y-95457617D01*
X166992000Y-95599279D01*
X167030737Y-95794023D01*
X167106722Y-95977467D01*
X167217035Y-96142562D01*
X167357438Y-96282965D01*
X167522533Y-96393278D01*
X167705977Y-96469263D01*
X167900721Y-96508000D01*
X168099279Y-96508000D01*
X168294023Y-96469263D01*
X168477467Y-96393278D01*
X168642562Y-96282965D01*
X168782965Y-96142562D01*
X168893278Y-95977467D01*
X168969263Y-95794023D01*
X169008000Y-95599279D01*
X169008000Y-95400721D01*
X168969263Y-95205977D01*
X168893278Y-95022533D01*
X168782965Y-94857438D01*
X168642562Y-94717035D01*
X168477467Y-94606722D01*
X168294023Y-94530737D01*
X168183000Y-94508653D01*
X168183000Y-91242527D01*
X168282965Y-91142562D01*
X168393278Y-90977467D01*
X168469263Y-90794023D01*
X168508000Y-90599279D01*
X168508000Y-90400721D01*
X168469263Y-90205977D01*
X168393278Y-90022533D01*
X168282965Y-89857438D01*
X168142562Y-89717035D01*
X167977467Y-89606722D01*
X167794023Y-89530737D01*
X167599279Y-89492000D01*
X167400721Y-89492000D01*
X167205977Y-89530737D01*
X167022533Y-89606722D01*
X166857438Y-89717035D01*
X166717035Y-89857438D01*
X166606722Y-90022533D01*
X166530737Y-90205977D01*
X166492000Y-90400721D01*
X165816827Y-90400721D01*
X165873106Y-90264854D01*
X165908000Y-90089430D01*
X165908000Y-89910570D01*
X165873106Y-89735146D01*
X165804659Y-89569901D01*
X165705289Y-89421184D01*
X165578816Y-89294711D01*
X165430099Y-89195341D01*
X165264854Y-89126894D01*
X165089430Y-89092000D01*
X164910570Y-89092000D01*
X164735146Y-89126894D01*
X164569901Y-89195341D01*
X164421184Y-89294711D01*
X164294711Y-89421184D01*
X164195341Y-89569901D01*
X164126894Y-89735146D01*
X164092000Y-89910570D01*
X164092000Y-90012803D01*
X163574383Y-90530420D01*
X163550237Y-90550236D01*
X163530421Y-90574382D01*
X163530419Y-90574384D01*
X163471134Y-90646624D01*
X163412356Y-90756590D01*
X163376160Y-90875911D01*
X163363938Y-91000000D01*
X163367001Y-91031098D01*
X163367000Y-94798895D01*
X163294711Y-94871184D01*
X163195341Y-95019901D01*
X163126894Y-95185146D01*
X163092000Y-95360570D01*
X142326478Y-95360570D01*
X141008000Y-94042093D01*
X141008000Y-93900721D01*
X140969263Y-93705977D01*
X140893278Y-93522533D01*
X140782965Y-93357438D01*
X140642562Y-93217035D01*
X140477467Y-93106722D01*
X140294023Y-93030737D01*
X140099279Y-92992000D01*
X139900721Y-92992000D01*
X139705977Y-93030737D01*
X139522533Y-93106722D01*
X139357438Y-93217035D01*
X139217035Y-93357438D01*
X139106722Y-93522533D01*
X139030737Y-93705977D01*
X138993398Y-93893692D01*
X130540765Y-102346326D01*
X130514711Y-102367708D01*
X130493329Y-102393762D01*
X130493326Y-102393765D01*
X130429360Y-102471708D01*
X130365939Y-102590361D01*
X130326884Y-102719107D01*
X130313697Y-102852998D01*
X122558001Y-102852998D01*
X122558001Y-102807084D01*
X122561063Y-102775998D01*
X122555459Y-102719107D01*
X122548841Y-102651909D01*
X122512646Y-102532589D01*
X122453867Y-102422622D01*
X122417548Y-102378367D01*
X122394582Y-102350382D01*
X122394581Y-102350381D01*
X122374765Y-102326235D01*
X122350619Y-102306419D01*
X121643576Y-101599377D01*
X121623756Y-101575226D01*
X121527369Y-101496124D01*
X121417402Y-101437345D01*
X121298082Y-101401150D01*
X121205080Y-101391990D01*
X121173992Y-101388928D01*
X121142904Y-101391990D01*
X119820444Y-101391990D01*
X119873106Y-101264854D01*
X119908000Y-101089430D01*
X119908000Y-100910570D01*
X119873106Y-100735146D01*
X119804659Y-100569901D01*
X119705289Y-100421184D01*
X119578816Y-100294711D01*
X119430099Y-100195341D01*
X119264854Y-100126894D01*
X119089430Y-100092000D01*
X118910570Y-100092000D01*
X118735146Y-100126894D01*
X118569901Y-100195341D01*
X118421184Y-100294711D01*
X118294711Y-100421184D01*
X118195341Y-100569901D01*
X118126894Y-100735146D01*
X118092000Y-100910570D01*
X118092000Y-101012803D01*
X118074383Y-101030420D01*
X118050237Y-101050236D01*
X118030421Y-101074382D01*
X118030419Y-101074384D01*
X117971134Y-101146624D01*
X117912356Y-101256590D01*
X117879656Y-101364388D01*
X117837265Y-101312735D01*
X117668550Y-101174274D01*
X117476065Y-101071389D01*
X117433000Y-101058325D01*
X117433000Y-91900721D01*
X144992000Y-91900721D01*
X144992000Y-92099279D01*
X145030737Y-92294023D01*
X145106722Y-92477467D01*
X145217035Y-92642562D01*
X145357438Y-92782965D01*
X145522533Y-92893278D01*
X145705977Y-92969263D01*
X145900721Y-93008000D01*
X146099279Y-93008000D01*
X146294023Y-92969263D01*
X146477467Y-92893278D01*
X146642562Y-92782965D01*
X146742527Y-92683000D01*
X157257473Y-92683000D01*
X157357438Y-92782965D01*
X157522533Y-92893278D01*
X157705977Y-92969263D01*
X157900721Y-93008000D01*
X158099279Y-93008000D01*
X158294023Y-92969263D01*
X158477467Y-92893278D01*
X158642562Y-92782965D01*
X158782965Y-92642562D01*
X158893278Y-92477467D01*
X158969263Y-92294023D01*
X159008000Y-92099279D01*
X159008000Y-91910570D01*
X159592000Y-91910570D01*
X159592000Y-92089430D01*
X159626894Y-92264854D01*
X159695341Y-92430099D01*
X159794711Y-92578816D01*
X159921184Y-92705289D01*
X160069901Y-92804659D01*
X160235146Y-92873106D01*
X160410570Y-92908000D01*
X160589430Y-92908000D01*
X160764854Y-92873106D01*
X160930099Y-92804659D01*
X161078816Y-92705289D01*
X161205289Y-92578816D01*
X161304659Y-92430099D01*
X161373106Y-92264854D01*
X161408000Y-92089430D01*
X161408000Y-91987197D01*
X164762197Y-88633000D01*
X165348895Y-88633000D01*
X165421184Y-88705289D01*
X165569901Y-88804659D01*
X165735146Y-88873106D01*
X165910570Y-88908000D01*
X166089430Y-88908000D01*
X166264854Y-88873106D01*
X166430099Y-88804659D01*
X166578816Y-88705289D01*
X166705289Y-88578816D01*
X166804659Y-88430099D01*
X166873106Y-88264854D01*
X166908000Y-88089430D01*
X166908000Y-87910570D01*
X166873106Y-87735146D01*
X166804659Y-87569901D01*
X166705289Y-87421184D01*
X166578816Y-87294711D01*
X166430099Y-87195341D01*
X166264854Y-87126894D01*
X166089430Y-87092000D01*
X165910570Y-87092000D01*
X165735146Y-87126894D01*
X165569901Y-87195341D01*
X165421184Y-87294711D01*
X165348895Y-87367000D01*
X164531085Y-87367000D01*
X164499999Y-87363938D01*
X164468913Y-87367000D01*
X164468912Y-87367000D01*
X164375910Y-87376160D01*
X164256590Y-87412355D01*
X164146623Y-87471134D01*
X164050236Y-87550236D01*
X164030416Y-87574387D01*
X160512803Y-91092000D01*
X160410570Y-91092000D01*
X160235146Y-91126894D01*
X160069901Y-91195341D01*
X159921184Y-91294711D01*
X159794711Y-91421184D01*
X159695341Y-91569901D01*
X159626894Y-91735146D01*
X159592000Y-91910570D01*
X159008000Y-91910570D01*
X159008000Y-91900721D01*
X158969263Y-91705977D01*
X158893278Y-91522533D01*
X158782965Y-91357438D01*
X158642562Y-91217035D01*
X158477467Y-91106722D01*
X158294023Y-91030737D01*
X158099279Y-90992000D01*
X157900721Y-90992000D01*
X157705977Y-91030737D01*
X157522533Y-91106722D01*
X157357438Y-91217035D01*
X157257473Y-91317000D01*
X146742527Y-91317000D01*
X146642562Y-91217035D01*
X146477467Y-91106722D01*
X146294023Y-91030737D01*
X146099279Y-90992000D01*
X145900721Y-90992000D01*
X145705977Y-91030737D01*
X145522533Y-91106722D01*
X145357438Y-91217035D01*
X145217035Y-91357438D01*
X145106722Y-91522533D01*
X145030737Y-91705977D01*
X144992000Y-91900721D01*
X117433000Y-91900721D01*
X117433000Y-88532907D01*
X117626659Y-88339248D01*
X117717281Y-88399799D01*
X118210105Y-88603933D01*
X118733285Y-88708000D01*
X119266715Y-88708000D01*
X119789895Y-88603933D01*
X120282719Y-88399799D01*
X120726249Y-88103441D01*
X121103441Y-87726249D01*
X121399799Y-87282719D01*
X121603933Y-86789895D01*
X121708000Y-86266715D01*
X121708000Y-85788253D01*
X122369254Y-85127000D01*
X178873000Y-85127000D01*
X178873000Y-128873000D01*
G37*
%TD.AperFunction*%
D19*
X120843585Y-103860349D02*
X120885672Y-103877782D01*
X120943748Y-103935858D01*
X120929605Y-103950000D01*
X120943748Y-103964143D01*
X120764143Y-104143748D01*
X120750000Y-104129605D01*
X120735858Y-104143748D01*
X120678773Y-104086663D01*
X120677615Y-104084930D01*
X120592386Y-103999701D01*
X120598768Y-103996289D01*
X120748449Y-103873449D01*
X120789085Y-103823934D01*
X120843585Y-103860349D01*
%TA.AperFunction,Conductor*%
D20*
G36*
X120843585Y-103860349D02*
G01*
X120885672Y-103877782D01*
X120943748Y-103935858D01*
X120929605Y-103950000D01*
X120943748Y-103964143D01*
X120764143Y-104143748D01*
X120750000Y-104129605D01*
X120735858Y-104143748D01*
X120678773Y-104086663D01*
X120677615Y-104084930D01*
X120592386Y-103999701D01*
X120598768Y-103996289D01*
X120748449Y-103873449D01*
X120789085Y-103823934D01*
X120843585Y-103860349D01*
G37*
%TD.AperFunction*%
%TD*%
M02*
