M48
; DRILL file {KiCad 5.1.10} date Sat May 15 14:29:25 2021
; FORMAT={-:-/ absolute / metric / decimal}
; #@! TF.CreationDate,2021-05-15T14:29:25-06:00
; #@! TF.GenerationSoftware,Kicad,Pcbnew,5.1.10
FMAT,2
METRIC
T1C0.400
T2C0.550
T3C0.700
T4C2.200
T5C0.700
T6C0.900
%
G90
G05
T1
X116.0Y-107.0
X118.0Y-107.0
X118.5Y-103.5
X119.0Y-101.0
X120.0Y-113.0
X120.05Y-104.6
X120.05Y-105.4
X120.05Y-106.2
X120.05Y-107.8
X120.05Y-108.6
X120.05Y-109.4
X120.75Y-103.95
X120.75Y-105.8
X120.75Y-106.6
X120.75Y-107.4
X120.75Y-108.2
X120.75Y-110.05
X122.0Y-83.0
X122.0Y-123.0
X122.0Y-131.0
X123.0Y-116.0
X126.7Y-107.5
X127.0Y-104.3
X127.0Y-119.0
X127.0Y-121.0
X127.0Y-123.88
X131.5Y-124.0
X132.75Y-115.25
X132.998Y-108.003
X133.0Y-102.0
X133.0Y-107.0
X133.0Y-121.0
X134.0Y-101.0
X135.0Y-117.75
X135.5Y-120.0
X136.5Y-108.0
X137.973Y-115.973
X138.0Y-100.5
X138.0Y-120.0
X138.5Y-110.0
X140.0Y-94.0
X140.0Y-108.0
X142.0Y-119.0
X142.0Y-121.0
X144.0Y-118.0
X147.0Y-91.0
X148.45Y-125.5
X150.0Y-96.0
X150.0Y-121.0
X150.1Y-125.5
X154.0Y-122.0
X155.0Y-117.225
X155.0Y-118.225
X155.0Y-120.0
X155.0Y-121.0
X155.5Y-100.5
X157.0Y-88.0
X158.0Y-92.0
X158.675Y-120.325
X159.0Y-111.0
X159.0Y-122.0
X159.015Y-99.052
X160.0Y-109.0
X160.0Y-119.5
X160.5Y-92.0
X163.0Y-114.0
X164.0Y-95.45
X165.0Y-90.0
X166.0Y-88.0
X167.5Y-90.5
X168.0Y-95.5
X171.0Y-119.0
X172.0Y-83.0
X172.0Y-117.0
X172.0Y-131.0
X176.0Y-107.0
T4
X119.0Y-86.0
X119.0Y-128.0
X190.0Y-86.0
X190.0Y-128.0
T5
X121.25Y-103.1
X121.25Y-110.9
T6
X142.6Y-90.0
X149.4Y-90.0
T2
G00X120.05Y-102.825
M15
G01X120.05Y-103.175
M16
G05
G00X120.05Y-110.825
M15
G01X120.05Y-111.175
M16
G05
T3
G00X117.05Y-102.1
M15
G01X116.35Y-102.1
M16
G05
G00X117.05Y-111.9
M15
G01X116.35Y-111.9
M16
G05
T0
M30
