%TF.GenerationSoftware,KiCad,Pcbnew,7.0.6-0*%
%TF.CreationDate,2023-08-27T22:36:32-06:00*%
%TF.ProjectId,mountaineer,6d6f756e-7461-4696-9e65-65722e6b6963,2*%
%TF.SameCoordinates,Original*%
%TF.FileFunction,Legend,Bot*%
%TF.FilePolarity,Positive*%
%FSLAX46Y46*%
G04 Gerber Fmt 4.6, Leading zero omitted, Abs format (unit mm)*
G04 Created by KiCad (PCBNEW 7.0.6-0) date 2023-08-27 22:36:32*
%MOMM*%
%LPD*%
G01*
G04 APERTURE LIST*
%ADD10C,0.250000*%
G04 APERTURE END LIST*
D10*
X187449619Y-92047618D02*
X186449619Y-92047618D01*
X187449619Y-92476189D02*
X186925809Y-92476189D01*
X186925809Y-92476189D02*
X186830571Y-92428570D01*
X186830571Y-92428570D02*
X186782952Y-92333332D01*
X186782952Y-92333332D02*
X186782952Y-92190475D01*
X186782952Y-92190475D02*
X186830571Y-92095237D01*
X186830571Y-92095237D02*
X186878190Y-92047618D01*
X186782952Y-92809523D02*
X186782952Y-93190475D01*
X186449619Y-92952380D02*
X187306761Y-92952380D01*
X187306761Y-92952380D02*
X187402000Y-92999999D01*
X187402000Y-92999999D02*
X187449619Y-93095237D01*
X187449619Y-93095237D02*
X187449619Y-93190475D01*
X186782952Y-93380952D02*
X186782952Y-93761904D01*
X186449619Y-93523809D02*
X187306761Y-93523809D01*
X187306761Y-93523809D02*
X187402000Y-93571428D01*
X187402000Y-93571428D02*
X187449619Y-93666666D01*
X187449619Y-93666666D02*
X187449619Y-93761904D01*
X186782952Y-94095238D02*
X187782952Y-94095238D01*
X186830571Y-94095238D02*
X186782952Y-94190476D01*
X186782952Y-94190476D02*
X186782952Y-94380952D01*
X186782952Y-94380952D02*
X186830571Y-94476190D01*
X186830571Y-94476190D02*
X186878190Y-94523809D01*
X186878190Y-94523809D02*
X186973428Y-94571428D01*
X186973428Y-94571428D02*
X187259142Y-94571428D01*
X187259142Y-94571428D02*
X187354380Y-94523809D01*
X187354380Y-94523809D02*
X187402000Y-94476190D01*
X187402000Y-94476190D02*
X187449619Y-94380952D01*
X187449619Y-94380952D02*
X187449619Y-94190476D01*
X187449619Y-94190476D02*
X187402000Y-94095238D01*
X187402000Y-94952381D02*
X187449619Y-95047619D01*
X187449619Y-95047619D02*
X187449619Y-95238095D01*
X187449619Y-95238095D02*
X187402000Y-95333333D01*
X187402000Y-95333333D02*
X187306761Y-95380952D01*
X187306761Y-95380952D02*
X187259142Y-95380952D01*
X187259142Y-95380952D02*
X187163904Y-95333333D01*
X187163904Y-95333333D02*
X187116285Y-95238095D01*
X187116285Y-95238095D02*
X187116285Y-95095238D01*
X187116285Y-95095238D02*
X187068666Y-95000000D01*
X187068666Y-95000000D02*
X186973428Y-94952381D01*
X186973428Y-94952381D02*
X186925809Y-94952381D01*
X186925809Y-94952381D02*
X186830571Y-95000000D01*
X186830571Y-95000000D02*
X186782952Y-95095238D01*
X186782952Y-95095238D02*
X186782952Y-95238095D01*
X186782952Y-95238095D02*
X186830571Y-95333333D01*
X187354380Y-95809524D02*
X187402000Y-95857143D01*
X187402000Y-95857143D02*
X187449619Y-95809524D01*
X187449619Y-95809524D02*
X187402000Y-95761905D01*
X187402000Y-95761905D02*
X187354380Y-95809524D01*
X187354380Y-95809524D02*
X187449619Y-95809524D01*
X186830571Y-95809524D02*
X186878190Y-95857143D01*
X186878190Y-95857143D02*
X186925809Y-95809524D01*
X186925809Y-95809524D02*
X186878190Y-95761905D01*
X186878190Y-95761905D02*
X186830571Y-95809524D01*
X186830571Y-95809524D02*
X186925809Y-95809524D01*
X186402000Y-96999999D02*
X187687714Y-96142857D01*
X186402000Y-98047618D02*
X187687714Y-97190476D01*
X186782952Y-98809523D02*
X187592476Y-98809523D01*
X187592476Y-98809523D02*
X187687714Y-98761904D01*
X187687714Y-98761904D02*
X187735333Y-98714285D01*
X187735333Y-98714285D02*
X187782952Y-98619047D01*
X187782952Y-98619047D02*
X187782952Y-98476190D01*
X187782952Y-98476190D02*
X187735333Y-98380952D01*
X187402000Y-98809523D02*
X187449619Y-98714285D01*
X187449619Y-98714285D02*
X187449619Y-98523809D01*
X187449619Y-98523809D02*
X187402000Y-98428571D01*
X187402000Y-98428571D02*
X187354380Y-98380952D01*
X187354380Y-98380952D02*
X187259142Y-98333333D01*
X187259142Y-98333333D02*
X186973428Y-98333333D01*
X186973428Y-98333333D02*
X186878190Y-98380952D01*
X186878190Y-98380952D02*
X186830571Y-98428571D01*
X186830571Y-98428571D02*
X186782952Y-98523809D01*
X186782952Y-98523809D02*
X186782952Y-98714285D01*
X186782952Y-98714285D02*
X186830571Y-98809523D01*
X187449619Y-99285714D02*
X186782952Y-99285714D01*
X186449619Y-99285714D02*
X186497238Y-99238095D01*
X186497238Y-99238095D02*
X186544857Y-99285714D01*
X186544857Y-99285714D02*
X186497238Y-99333333D01*
X186497238Y-99333333D02*
X186449619Y-99285714D01*
X186449619Y-99285714D02*
X186544857Y-99285714D01*
X186782952Y-99619047D02*
X186782952Y-99999999D01*
X186449619Y-99761904D02*
X187306761Y-99761904D01*
X187306761Y-99761904D02*
X187402000Y-99809523D01*
X187402000Y-99809523D02*
X187449619Y-99904761D01*
X187449619Y-99904761D02*
X187449619Y-99999999D01*
X187449619Y-100333333D02*
X186449619Y-100333333D01*
X187449619Y-100761904D02*
X186925809Y-100761904D01*
X186925809Y-100761904D02*
X186830571Y-100714285D01*
X186830571Y-100714285D02*
X186782952Y-100619047D01*
X186782952Y-100619047D02*
X186782952Y-100476190D01*
X186782952Y-100476190D02*
X186830571Y-100380952D01*
X186830571Y-100380952D02*
X186878190Y-100333333D01*
X186782952Y-101666666D02*
X187449619Y-101666666D01*
X186782952Y-101238095D02*
X187306761Y-101238095D01*
X187306761Y-101238095D02*
X187402000Y-101285714D01*
X187402000Y-101285714D02*
X187449619Y-101380952D01*
X187449619Y-101380952D02*
X187449619Y-101523809D01*
X187449619Y-101523809D02*
X187402000Y-101619047D01*
X187402000Y-101619047D02*
X187354380Y-101666666D01*
X187449619Y-102142857D02*
X186449619Y-102142857D01*
X186830571Y-102142857D02*
X186782952Y-102238095D01*
X186782952Y-102238095D02*
X186782952Y-102428571D01*
X186782952Y-102428571D02*
X186830571Y-102523809D01*
X186830571Y-102523809D02*
X186878190Y-102571428D01*
X186878190Y-102571428D02*
X186973428Y-102619047D01*
X186973428Y-102619047D02*
X187259142Y-102619047D01*
X187259142Y-102619047D02*
X187354380Y-102571428D01*
X187354380Y-102571428D02*
X187402000Y-102523809D01*
X187402000Y-102523809D02*
X187449619Y-102428571D01*
X187449619Y-102428571D02*
X187449619Y-102238095D01*
X187449619Y-102238095D02*
X187402000Y-102142857D01*
X187354380Y-103047619D02*
X187402000Y-103095238D01*
X187402000Y-103095238D02*
X187449619Y-103047619D01*
X187449619Y-103047619D02*
X187402000Y-103000000D01*
X187402000Y-103000000D02*
X187354380Y-103047619D01*
X187354380Y-103047619D02*
X187449619Y-103047619D01*
X187402000Y-103952380D02*
X187449619Y-103857142D01*
X187449619Y-103857142D02*
X187449619Y-103666666D01*
X187449619Y-103666666D02*
X187402000Y-103571428D01*
X187402000Y-103571428D02*
X187354380Y-103523809D01*
X187354380Y-103523809D02*
X187259142Y-103476190D01*
X187259142Y-103476190D02*
X186973428Y-103476190D01*
X186973428Y-103476190D02*
X186878190Y-103523809D01*
X186878190Y-103523809D02*
X186830571Y-103571428D01*
X186830571Y-103571428D02*
X186782952Y-103666666D01*
X186782952Y-103666666D02*
X186782952Y-103857142D01*
X186782952Y-103857142D02*
X186830571Y-103952380D01*
X187449619Y-104523809D02*
X187402000Y-104428571D01*
X187402000Y-104428571D02*
X187354380Y-104380952D01*
X187354380Y-104380952D02*
X187259142Y-104333333D01*
X187259142Y-104333333D02*
X186973428Y-104333333D01*
X186973428Y-104333333D02*
X186878190Y-104380952D01*
X186878190Y-104380952D02*
X186830571Y-104428571D01*
X186830571Y-104428571D02*
X186782952Y-104523809D01*
X186782952Y-104523809D02*
X186782952Y-104666666D01*
X186782952Y-104666666D02*
X186830571Y-104761904D01*
X186830571Y-104761904D02*
X186878190Y-104809523D01*
X186878190Y-104809523D02*
X186973428Y-104857142D01*
X186973428Y-104857142D02*
X187259142Y-104857142D01*
X187259142Y-104857142D02*
X187354380Y-104809523D01*
X187354380Y-104809523D02*
X187402000Y-104761904D01*
X187402000Y-104761904D02*
X187449619Y-104666666D01*
X187449619Y-104666666D02*
X187449619Y-104523809D01*
X187449619Y-105285714D02*
X186782952Y-105285714D01*
X186878190Y-105285714D02*
X186830571Y-105333333D01*
X186830571Y-105333333D02*
X186782952Y-105428571D01*
X186782952Y-105428571D02*
X186782952Y-105571428D01*
X186782952Y-105571428D02*
X186830571Y-105666666D01*
X186830571Y-105666666D02*
X186925809Y-105714285D01*
X186925809Y-105714285D02*
X187449619Y-105714285D01*
X186925809Y-105714285D02*
X186830571Y-105761904D01*
X186830571Y-105761904D02*
X186782952Y-105857142D01*
X186782952Y-105857142D02*
X186782952Y-105999999D01*
X186782952Y-105999999D02*
X186830571Y-106095238D01*
X186830571Y-106095238D02*
X186925809Y-106142857D01*
X186925809Y-106142857D02*
X187449619Y-106142857D01*
X186402000Y-107333332D02*
X187687714Y-106476190D01*
X187449619Y-107666666D02*
X186449619Y-107666666D01*
X187068666Y-107761904D02*
X187449619Y-108047618D01*
X186782952Y-108047618D02*
X187163904Y-107666666D01*
X186449619Y-108666666D02*
X186449619Y-108761904D01*
X186449619Y-108761904D02*
X186497238Y-108857142D01*
X186497238Y-108857142D02*
X186544857Y-108904761D01*
X186544857Y-108904761D02*
X186640095Y-108952380D01*
X186640095Y-108952380D02*
X186830571Y-108999999D01*
X186830571Y-108999999D02*
X187068666Y-108999999D01*
X187068666Y-108999999D02*
X187259142Y-108952380D01*
X187259142Y-108952380D02*
X187354380Y-108904761D01*
X187354380Y-108904761D02*
X187402000Y-108857142D01*
X187402000Y-108857142D02*
X187449619Y-108761904D01*
X187449619Y-108761904D02*
X187449619Y-108666666D01*
X187449619Y-108666666D02*
X187402000Y-108571428D01*
X187402000Y-108571428D02*
X187354380Y-108523809D01*
X187354380Y-108523809D02*
X187259142Y-108476190D01*
X187259142Y-108476190D02*
X187068666Y-108428571D01*
X187068666Y-108428571D02*
X186830571Y-108428571D01*
X186830571Y-108428571D02*
X186640095Y-108476190D01*
X186640095Y-108476190D02*
X186544857Y-108523809D01*
X186544857Y-108523809D02*
X186497238Y-108571428D01*
X186497238Y-108571428D02*
X186449619Y-108666666D01*
X187402000Y-109380952D02*
X187449619Y-109476190D01*
X187449619Y-109476190D02*
X187449619Y-109666666D01*
X187449619Y-109666666D02*
X187402000Y-109761904D01*
X187402000Y-109761904D02*
X187306761Y-109809523D01*
X187306761Y-109809523D02*
X187259142Y-109809523D01*
X187259142Y-109809523D02*
X187163904Y-109761904D01*
X187163904Y-109761904D02*
X187116285Y-109666666D01*
X187116285Y-109666666D02*
X187116285Y-109523809D01*
X187116285Y-109523809D02*
X187068666Y-109428571D01*
X187068666Y-109428571D02*
X186973428Y-109380952D01*
X186973428Y-109380952D02*
X186925809Y-109380952D01*
X186925809Y-109380952D02*
X186830571Y-109428571D01*
X186830571Y-109428571D02*
X186782952Y-109523809D01*
X186782952Y-109523809D02*
X186782952Y-109666666D01*
X186782952Y-109666666D02*
X186830571Y-109761904D01*
X186782952Y-110142857D02*
X187449619Y-110333333D01*
X187449619Y-110333333D02*
X186973428Y-110523809D01*
X186973428Y-110523809D02*
X187449619Y-110714285D01*
X187449619Y-110714285D02*
X186782952Y-110904761D01*
X187402000Y-111666666D02*
X187449619Y-111571428D01*
X187449619Y-111571428D02*
X187449619Y-111380952D01*
X187449619Y-111380952D02*
X187402000Y-111285714D01*
X187402000Y-111285714D02*
X187306761Y-111238095D01*
X187306761Y-111238095D02*
X186925809Y-111238095D01*
X186925809Y-111238095D02*
X186830571Y-111285714D01*
X186830571Y-111285714D02*
X186782952Y-111380952D01*
X186782952Y-111380952D02*
X186782952Y-111571428D01*
X186782952Y-111571428D02*
X186830571Y-111666666D01*
X186830571Y-111666666D02*
X186925809Y-111714285D01*
X186925809Y-111714285D02*
X187021047Y-111714285D01*
X187021047Y-111714285D02*
X187116285Y-111238095D01*
X186402000Y-112857142D02*
X187687714Y-112000000D01*
X187449619Y-113190476D02*
X186782952Y-113190476D01*
X186878190Y-113190476D02*
X186830571Y-113238095D01*
X186830571Y-113238095D02*
X186782952Y-113333333D01*
X186782952Y-113333333D02*
X186782952Y-113476190D01*
X186782952Y-113476190D02*
X186830571Y-113571428D01*
X186830571Y-113571428D02*
X186925809Y-113619047D01*
X186925809Y-113619047D02*
X187449619Y-113619047D01*
X186925809Y-113619047D02*
X186830571Y-113666666D01*
X186830571Y-113666666D02*
X186782952Y-113761904D01*
X186782952Y-113761904D02*
X186782952Y-113904761D01*
X186782952Y-113904761D02*
X186830571Y-114000000D01*
X186830571Y-114000000D02*
X186925809Y-114047619D01*
X186925809Y-114047619D02*
X187449619Y-114047619D01*
X187449619Y-114666666D02*
X187402000Y-114571428D01*
X187402000Y-114571428D02*
X187354380Y-114523809D01*
X187354380Y-114523809D02*
X187259142Y-114476190D01*
X187259142Y-114476190D02*
X186973428Y-114476190D01*
X186973428Y-114476190D02*
X186878190Y-114523809D01*
X186878190Y-114523809D02*
X186830571Y-114571428D01*
X186830571Y-114571428D02*
X186782952Y-114666666D01*
X186782952Y-114666666D02*
X186782952Y-114809523D01*
X186782952Y-114809523D02*
X186830571Y-114904761D01*
X186830571Y-114904761D02*
X186878190Y-114952380D01*
X186878190Y-114952380D02*
X186973428Y-114999999D01*
X186973428Y-114999999D02*
X187259142Y-114999999D01*
X187259142Y-114999999D02*
X187354380Y-114952380D01*
X187354380Y-114952380D02*
X187402000Y-114904761D01*
X187402000Y-114904761D02*
X187449619Y-114809523D01*
X187449619Y-114809523D02*
X187449619Y-114666666D01*
X186782952Y-115857142D02*
X187449619Y-115857142D01*
X186782952Y-115428571D02*
X187306761Y-115428571D01*
X187306761Y-115428571D02*
X187402000Y-115476190D01*
X187402000Y-115476190D02*
X187449619Y-115571428D01*
X187449619Y-115571428D02*
X187449619Y-115714285D01*
X187449619Y-115714285D02*
X187402000Y-115809523D01*
X187402000Y-115809523D02*
X187354380Y-115857142D01*
X186782952Y-116333333D02*
X187449619Y-116333333D01*
X186878190Y-116333333D02*
X186830571Y-116380952D01*
X186830571Y-116380952D02*
X186782952Y-116476190D01*
X186782952Y-116476190D02*
X186782952Y-116619047D01*
X186782952Y-116619047D02*
X186830571Y-116714285D01*
X186830571Y-116714285D02*
X186925809Y-116761904D01*
X186925809Y-116761904D02*
X187449619Y-116761904D01*
X186782952Y-117095238D02*
X186782952Y-117476190D01*
X186449619Y-117238095D02*
X187306761Y-117238095D01*
X187306761Y-117238095D02*
X187402000Y-117285714D01*
X187402000Y-117285714D02*
X187449619Y-117380952D01*
X187449619Y-117380952D02*
X187449619Y-117476190D01*
X187449619Y-118238095D02*
X186925809Y-118238095D01*
X186925809Y-118238095D02*
X186830571Y-118190476D01*
X186830571Y-118190476D02*
X186782952Y-118095238D01*
X186782952Y-118095238D02*
X186782952Y-117904762D01*
X186782952Y-117904762D02*
X186830571Y-117809524D01*
X187402000Y-118238095D02*
X187449619Y-118142857D01*
X187449619Y-118142857D02*
X187449619Y-117904762D01*
X187449619Y-117904762D02*
X187402000Y-117809524D01*
X187402000Y-117809524D02*
X187306761Y-117761905D01*
X187306761Y-117761905D02*
X187211523Y-117761905D01*
X187211523Y-117761905D02*
X187116285Y-117809524D01*
X187116285Y-117809524D02*
X187068666Y-117904762D01*
X187068666Y-117904762D02*
X187068666Y-118142857D01*
X187068666Y-118142857D02*
X187021047Y-118238095D01*
X187449619Y-118714286D02*
X186782952Y-118714286D01*
X186449619Y-118714286D02*
X186497238Y-118666667D01*
X186497238Y-118666667D02*
X186544857Y-118714286D01*
X186544857Y-118714286D02*
X186497238Y-118761905D01*
X186497238Y-118761905D02*
X186449619Y-118714286D01*
X186449619Y-118714286D02*
X186544857Y-118714286D01*
X186782952Y-119190476D02*
X187449619Y-119190476D01*
X186878190Y-119190476D02*
X186830571Y-119238095D01*
X186830571Y-119238095D02*
X186782952Y-119333333D01*
X186782952Y-119333333D02*
X186782952Y-119476190D01*
X186782952Y-119476190D02*
X186830571Y-119571428D01*
X186830571Y-119571428D02*
X186925809Y-119619047D01*
X186925809Y-119619047D02*
X187449619Y-119619047D01*
X187402000Y-120476190D02*
X187449619Y-120380952D01*
X187449619Y-120380952D02*
X187449619Y-120190476D01*
X187449619Y-120190476D02*
X187402000Y-120095238D01*
X187402000Y-120095238D02*
X187306761Y-120047619D01*
X187306761Y-120047619D02*
X186925809Y-120047619D01*
X186925809Y-120047619D02*
X186830571Y-120095238D01*
X186830571Y-120095238D02*
X186782952Y-120190476D01*
X186782952Y-120190476D02*
X186782952Y-120380952D01*
X186782952Y-120380952D02*
X186830571Y-120476190D01*
X186830571Y-120476190D02*
X186925809Y-120523809D01*
X186925809Y-120523809D02*
X187021047Y-120523809D01*
X187021047Y-120523809D02*
X187116285Y-120047619D01*
X187402000Y-121333333D02*
X187449619Y-121238095D01*
X187449619Y-121238095D02*
X187449619Y-121047619D01*
X187449619Y-121047619D02*
X187402000Y-120952381D01*
X187402000Y-120952381D02*
X187306761Y-120904762D01*
X187306761Y-120904762D02*
X186925809Y-120904762D01*
X186925809Y-120904762D02*
X186830571Y-120952381D01*
X186830571Y-120952381D02*
X186782952Y-121047619D01*
X186782952Y-121047619D02*
X186782952Y-121238095D01*
X186782952Y-121238095D02*
X186830571Y-121333333D01*
X186830571Y-121333333D02*
X186925809Y-121380952D01*
X186925809Y-121380952D02*
X187021047Y-121380952D01*
X187021047Y-121380952D02*
X187116285Y-120904762D01*
X187449619Y-121809524D02*
X186782952Y-121809524D01*
X186973428Y-121809524D02*
X186878190Y-121857143D01*
X186878190Y-121857143D02*
X186830571Y-121904762D01*
X186830571Y-121904762D02*
X186782952Y-122000000D01*
X186782952Y-122000000D02*
X186782952Y-122095238D01*
M02*
