%TF.GenerationSoftware,KiCad,Pcbnew,5.1.10*%
%TF.CreationDate,2021-05-24T23:09:48-06:00*%
%TF.ProjectId,mountaineer,6d6f756e-7461-4696-9e65-65722e6b6963,2*%
%TF.SameCoordinates,Original*%
%TF.FileFunction,Soldermask,Bot*%
%TF.FilePolarity,Negative*%
%FSLAX46Y46*%
G04 Gerber Fmt 4.6, Leading zero omitted, Abs format (unit mm)*
G04 Created by KiCad (PCBNEW 5.1.10) date 2021-05-24 23:09:48*
%MOMM*%
%LPD*%
G01*
G04 APERTURE LIST*
%ADD10C,0.100000*%
%ADD11O,0.950000X1.300000*%
%ADD12C,0.600000*%
%ADD13C,0.700000*%
%ADD14O,1.900000X1.200000*%
%ADD15C,0.900000*%
%ADD16C,4.400000*%
G04 APERTURE END LIST*
D10*
G36*
X173000000Y-132000000D02*
G01*
X121000000Y-132000000D01*
X121000000Y-130000000D01*
X173000000Y-130000000D01*
X173000000Y-132000000D01*
G37*
X173000000Y-132000000D02*
X121000000Y-132000000D01*
X121000000Y-130000000D01*
X173000000Y-130000000D01*
X173000000Y-132000000D01*
G36*
X173000000Y-84000000D02*
G01*
X121000000Y-84000000D01*
X121000000Y-82000000D01*
X173000000Y-82000000D01*
X173000000Y-84000000D01*
G37*
X173000000Y-84000000D02*
X121000000Y-84000000D01*
X121000000Y-82000000D01*
X173000000Y-82000000D01*
X173000000Y-84000000D01*
D11*
%TO.C,J1*%
X120050000Y-111000000D03*
X120050000Y-103000000D03*
D12*
X120750000Y-107400000D03*
X120750000Y-106600000D03*
X120750000Y-108200000D03*
X120750000Y-105800000D03*
X120050000Y-107800000D03*
X120050000Y-106200000D03*
X120050000Y-108600000D03*
X120050000Y-105400000D03*
X120050000Y-109400000D03*
X120050000Y-104600000D03*
X120750000Y-103950000D03*
X120750000Y-110050000D03*
D13*
X121250000Y-103100000D03*
X121250000Y-110900000D03*
D14*
X116700000Y-102100000D03*
X116700000Y-111900000D03*
%TD*%
D15*
%TO.C,SW1*%
X142600000Y-90000000D03*
X149400000Y-90000000D03*
%TD*%
D16*
%TO.C,H4*%
X190000000Y-86000000D03*
%TD*%
%TO.C,H3*%
X190000000Y-128000000D03*
%TD*%
%TO.C,H2*%
X119000000Y-86000000D03*
%TD*%
%TO.C,H1*%
X119000000Y-128000000D03*
%TD*%
M02*
