%TF.GenerationSoftware,KiCad,Pcbnew,7.0.6-0*%
%TF.CreationDate,2023-08-27T22:36:32-06:00*%
%TF.ProjectId,mountaineer,6d6f756e-7461-4696-9e65-65722e6b6963,2*%
%TF.SameCoordinates,Original*%
%TF.FileFunction,Copper,L2,Bot*%
%TF.FilePolarity,Positive*%
%FSLAX46Y46*%
G04 Gerber Fmt 4.6, Leading zero omitted, Abs format (unit mm)*
G04 Created by KiCad (PCBNEW 7.0.6-0) date 2023-08-27 22:36:32*
%MOMM*%
%LPD*%
G01*
G04 APERTURE LIST*
%TA.AperFunction,ComponentPad*%
%ADD10O,0.950000X1.300000*%
%TD*%
%TA.AperFunction,ComponentPad*%
%ADD11C,0.600000*%
%TD*%
%TA.AperFunction,ComponentPad*%
%ADD12O,1.900000X1.200000*%
%TD*%
%TA.AperFunction,ComponentPad*%
%ADD13C,4.400000*%
%TD*%
%TA.AperFunction,ViaPad*%
%ADD14C,0.800000*%
%TD*%
%TA.AperFunction,ViaPad*%
%ADD15C,1.000000*%
%TD*%
%TA.AperFunction,Conductor*%
%ADD16C,0.250000*%
%TD*%
%TA.AperFunction,Conductor*%
%ADD17C,0.200000*%
%TD*%
%TA.AperFunction,Conductor*%
%ADD18C,0.350000*%
%TD*%
G04 APERTURE END LIST*
D10*
%TO.P,J1,S1*%
%TO.N,GND1*%
X120050000Y-111000000D03*
X120050000Y-103000000D03*
D11*
%TO.P,J1,B6*%
%TO.N,/DR+*%
X120750000Y-107400000D03*
%TO.P,J1,B7*%
%TO.N,/DR-*%
X120750000Y-106600000D03*
%TO.P,J1,B4*%
%TO.N,Net-(J1-PadA4)*%
X120750000Y-108200000D03*
%TO.P,J1,B9*%
X120750000Y-105800000D03*
%TO.P,J1,B5*%
%TO.N,Net-(J1-PadB5)*%
X120050000Y-107800000D03*
%TO.P,J1,B8*%
%TO.N,N/C*%
X120050000Y-106200000D03*
%TO.P,J1,B3*%
X120050000Y-108600000D03*
%TO.P,J1,B10*%
X120050000Y-105400000D03*
%TO.P,J1,B2*%
X120050000Y-109400000D03*
%TO.P,J1,B11*%
X120050000Y-104600000D03*
%TO.P,J1,B12*%
%TO.N,GNDREF*%
X120750000Y-103950000D03*
%TO.P,J1,B1*%
X120750000Y-110050000D03*
D12*
%TO.P,J1,S1*%
%TO.N,GND1*%
X116700000Y-102100000D03*
X116700000Y-111900000D03*
%TD*%
D13*
%TO.P,H4,1*%
%TO.N,GND1*%
X190000000Y-86000000D03*
%TD*%
%TO.P,H3,1*%
%TO.N,GND1*%
X190000000Y-128000000D03*
%TD*%
%TO.P,H2,1*%
%TO.N,GND1*%
X119000000Y-86000000D03*
%TD*%
%TO.P,H1,1*%
%TO.N,GND1*%
X119000000Y-128000000D03*
%TD*%
D14*
%TO.N,GNDREF*%
X126700000Y-107500000D03*
X133000000Y-121000000D03*
X127000000Y-121000000D03*
X135500000Y-120000000D03*
X136500000Y-108000000D03*
X140000000Y-108000000D03*
X154000000Y-122000000D03*
X142000000Y-121000000D03*
X122000000Y-123000000D03*
X150000000Y-96000000D03*
X171000000Y-119000000D03*
X157000000Y-88000000D03*
X159014833Y-99051916D03*
X176000000Y-107000000D03*
X118000000Y-107000000D03*
X116000000Y-107000000D03*
X123000000Y-116000000D03*
X138000000Y-120000000D03*
%TO.N,/DR+*%
X127000000Y-104300000D03*
D15*
%TO.N,+3V3*%
X127000000Y-119000000D03*
X127000000Y-123880001D03*
D14*
%TO.N,GND1*%
X122000000Y-131000000D03*
D15*
X122000000Y-83000000D03*
D14*
X172000000Y-131000000D03*
X172000000Y-83000000D03*
D15*
%TO.N,/3V3A*%
X150000000Y-121000000D03*
X150099990Y-125500000D03*
X148449990Y-125500000D03*
%TO.N,+5V*%
X131500000Y-124000000D03*
X140000000Y-94000000D03*
X155500000Y-100500000D03*
X168000000Y-95500000D03*
X167500000Y-90500000D03*
D14*
%TO.N,Net-(J1-PadA4)*%
X120000000Y-113000000D03*
%TO.N,Net-(J1-PadB5)*%
X118500000Y-103500000D03*
X119000000Y-101000000D03*
%TO.N,/DTR*%
X166000000Y-88000000D03*
X160500000Y-92000000D03*
D15*
%TO.N,/VCCIO*%
X146000000Y-92000000D03*
X158000000Y-92000000D03*
D14*
%TO.N,/MIC_BIAS*%
X160000000Y-109000000D03*
X172000000Y-117000000D03*
%TO.N,/RXLED*%
X164000000Y-95450000D03*
X165000000Y-90000000D03*
%TO.N,/AVDD1*%
X142000000Y-119000000D03*
X155000000Y-120000000D03*
%TO.N,/AVDD2*%
X144000000Y-118000000D03*
X155000000Y-118225003D03*
%TO.N,/DVDD*%
X137973430Y-115973430D03*
X155000000Y-117225000D03*
%TO.N,/RESET#*%
X138000000Y-100500000D03*
X138500000Y-110000000D03*
%TO.N,/MICIN*%
X159000000Y-122000000D03*
X163000000Y-114000000D03*
%TO.N,/LOL*%
X158674847Y-120325153D03*
X160000000Y-119500000D03*
%TO.N,/XTAL2*%
X133000000Y-102000000D03*
X133000000Y-107000000D03*
%TO.N,/VBIAS*%
X155000000Y-121000000D03*
X159000000Y-111000000D03*
%TO.N,/OC#*%
X132750000Y-115250000D03*
X135000000Y-117750000D03*
X145000000Y-106000000D03*
X144000000Y-112000000D03*
X141000000Y-105000000D03*
%TO.N,/XTAL1*%
X134000000Y-101000000D03*
X132997842Y-108003237D03*
%TD*%
D16*
%TO.N,GNDREF*%
X118099990Y-102600010D02*
X118099990Y-100399990D01*
X117400000Y-103300000D02*
X118099990Y-102600010D01*
D17*
%TO.N,/DR+*%
X120750000Y-107400000D02*
X122400000Y-107400000D01*
X122400000Y-107400000D02*
X125600000Y-104200000D01*
X126900000Y-104200000D02*
X127000000Y-104300000D01*
X125600000Y-104200000D02*
X126900000Y-104200000D01*
D18*
%TO.N,+3V3*%
X126224999Y-123105000D02*
X127000000Y-123880001D01*
X126224999Y-119775001D02*
X126224999Y-123105000D01*
X127000000Y-119000000D02*
X126224999Y-119775001D01*
%TO.N,GND1*%
X122000000Y-129469654D02*
X122000000Y-131000000D01*
X119000000Y-128000000D02*
X120530346Y-128000000D01*
X120530346Y-128000000D02*
X122000000Y-129469654D01*
X117700000Y-126700000D02*
X119000000Y-128000000D01*
X122000000Y-84530346D02*
X122000000Y-83000000D01*
X120530346Y-86000000D02*
X122000000Y-84530346D01*
X119000000Y-86000000D02*
X120530346Y-86000000D01*
X187000000Y-131000000D02*
X172000000Y-131000000D01*
X190000000Y-128000000D02*
X187000000Y-131000000D01*
X187000000Y-83000000D02*
X172000000Y-83000000D01*
X190000000Y-86000000D02*
X187000000Y-83000000D01*
X190000000Y-128000000D02*
X190000000Y-86000000D01*
X116750000Y-125750000D02*
X119000000Y-128000000D01*
X116750000Y-88250000D02*
X119000000Y-86000000D01*
X116750000Y-111950000D02*
X116700000Y-111900000D01*
X116750000Y-125750000D02*
X116750000Y-111950000D01*
X116750000Y-102050000D02*
X116700000Y-102100000D01*
X116750000Y-88250000D02*
X116750000Y-102050000D01*
%TO.N,/3V3A*%
X150000000Y-125400010D02*
X150099990Y-125500000D01*
X150000000Y-121000000D02*
X150000000Y-125400010D01*
X150099990Y-125500000D02*
X148449990Y-125500000D01*
%TO.N,+5V*%
X131500000Y-124000000D02*
X131000000Y-123500000D01*
X131000000Y-102852998D02*
X139852998Y-94000000D01*
X131000000Y-123500000D02*
X131000000Y-102852998D01*
X139852998Y-94000000D02*
X140000000Y-94000000D01*
X140000000Y-94000000D02*
X146500000Y-100500000D01*
X146500000Y-100500000D02*
X155500000Y-100500000D01*
X167500000Y-95000000D02*
X167500000Y-90500000D01*
X168000000Y-95500000D02*
X167500000Y-95000000D01*
D16*
%TO.N,Net-(J1-PadA4)*%
X119249990Y-112249990D02*
X120000000Y-113000000D01*
X119249990Y-102493626D02*
X119249990Y-112249990D01*
X119718626Y-102024990D02*
X119249990Y-102493626D01*
X121173992Y-102024990D02*
X119718626Y-102024990D01*
X121925001Y-102775999D02*
X121173992Y-102024990D01*
X121925001Y-104624999D02*
X121925001Y-102775999D01*
X120750000Y-105800000D02*
X121925001Y-104624999D01*
%TO.N,Net-(J1-PadB5)*%
X118500000Y-101500000D02*
X119000000Y-101000000D01*
X118500000Y-103500000D02*
X118500000Y-101500000D01*
%TO.N,/DTR*%
X164500000Y-88000000D02*
X166000000Y-88000000D01*
X160500000Y-92000000D02*
X164500000Y-88000000D01*
D18*
%TO.N,/VCCIO*%
X146000000Y-92000000D02*
X158000000Y-92000000D01*
D16*
%TO.N,/MIC_BIAS*%
X164000000Y-109000000D02*
X172000000Y-117000000D01*
X160000000Y-109000000D02*
X164000000Y-109000000D01*
%TO.N,/RXLED*%
X164000000Y-91000000D02*
X165000000Y-90000000D01*
X164000000Y-95450000D02*
X164000000Y-91000000D01*
D18*
%TO.N,/AVDD1*%
X154000000Y-119000000D02*
X155000000Y-120000000D01*
X142000000Y-119000000D02*
X154000000Y-119000000D01*
%TO.N,/AVDD2*%
X154774997Y-118000000D02*
X155000000Y-118225003D01*
X144000000Y-118000000D02*
X154774997Y-118000000D01*
%TO.N,/DVDD*%
X139225000Y-117225000D02*
X155000000Y-117225000D01*
X137973430Y-115973430D02*
X139225000Y-117225000D01*
D16*
%TO.N,/RESET#*%
X138500000Y-101000000D02*
X138500000Y-110000000D01*
X138000000Y-100500000D02*
X138500000Y-101000000D01*
%TO.N,/MICIN*%
X163000000Y-118000000D02*
X163000000Y-114000000D01*
X159000000Y-122000000D02*
X163000000Y-118000000D01*
%TO.N,/LOL*%
X159000000Y-120000000D02*
X158674847Y-120325153D01*
X159500000Y-120000000D02*
X160000000Y-119500000D01*
X159000000Y-120000000D02*
X159500000Y-120000000D01*
%TO.N,/XTAL2*%
X133000000Y-102000000D02*
X133000000Y-107000000D01*
%TO.N,/VBIAS*%
X155725001Y-114274999D02*
X159000000Y-111000000D01*
X155725001Y-120840684D02*
X155725001Y-114274999D01*
X155565685Y-121000000D02*
X155725001Y-120840684D01*
X155000000Y-121000000D02*
X155565685Y-121000000D01*
%TO.N,/OC#*%
X135000000Y-117500000D02*
X135000000Y-117750000D01*
X132750000Y-115250000D02*
X135000000Y-117500000D01*
X144000000Y-107000000D02*
X144000000Y-112000000D01*
X145000000Y-106000000D02*
X144000000Y-107000000D01*
X142000000Y-106000000D02*
X141000000Y-105000000D01*
X145000000Y-106000000D02*
X142000000Y-106000000D01*
%TO.N,/XTAL1*%
X133069765Y-108003237D02*
X132997842Y-108003237D01*
X134000000Y-107073002D02*
X133069765Y-108003237D01*
X134000000Y-101000000D02*
X134000000Y-107073002D01*
%TD*%
%TA.AperFunction,Conductor*%
%TO.N,GND1*%
G36*
X172942121Y-130020002D02*
G01*
X172988614Y-130073658D01*
X173000000Y-130126000D01*
X173000000Y-131848500D01*
X172979998Y-131916621D01*
X172926342Y-131963114D01*
X172874000Y-131974500D01*
X121126000Y-131974500D01*
X121057879Y-131954498D01*
X121011386Y-131900842D01*
X121000000Y-131848500D01*
X121000000Y-130126000D01*
X121020002Y-130057879D01*
X121073658Y-130011386D01*
X121126000Y-130000000D01*
X172874000Y-130000000D01*
X172942121Y-130020002D01*
G37*
%TD.AperFunction*%
%TD*%
%TA.AperFunction,Conductor*%
%TO.N,GND1*%
G36*
X172942121Y-82045502D02*
G01*
X172988614Y-82099158D01*
X173000000Y-82151500D01*
X173000000Y-83874000D01*
X172979998Y-83942121D01*
X172926342Y-83988614D01*
X172874000Y-84000000D01*
X121126000Y-84000000D01*
X121057879Y-83979998D01*
X121011386Y-83926342D01*
X121000000Y-83874000D01*
X121000000Y-82151500D01*
X121020002Y-82083379D01*
X121073658Y-82036886D01*
X121126000Y-82025500D01*
X172874000Y-82025500D01*
X172942121Y-82045502D01*
G37*
%TD.AperFunction*%
%TD*%
%TA.AperFunction,Conductor*%
%TO.N,GNDREF*%
G36*
X116505266Y-85020002D02*
G01*
X116551759Y-85073658D01*
X116561863Y-85143932D01*
X116556978Y-85164936D01*
X116494661Y-85356729D01*
X116494658Y-85356742D01*
X116433792Y-85675808D01*
X116433790Y-85675825D01*
X116413396Y-85999993D01*
X116413396Y-86000006D01*
X116433790Y-86324174D01*
X116433792Y-86324191D01*
X116494658Y-86643257D01*
X116494661Y-86643270D01*
X116595031Y-86952180D01*
X116595036Y-86952193D01*
X116733339Y-87246101D01*
X116733341Y-87246104D01*
X116733342Y-87246106D01*
X116769922Y-87303747D01*
X116789535Y-87371980D01*
X116769144Y-87439986D01*
X116752632Y-87460356D01*
X116363211Y-87849778D01*
X116314261Y-87895495D01*
X116314255Y-87895501D01*
X116291014Y-87933720D01*
X116287382Y-87939056D01*
X116260362Y-87974686D01*
X116260360Y-87974690D01*
X116253724Y-87991516D01*
X116244170Y-88010751D01*
X116234773Y-88026203D01*
X116234772Y-88026207D01*
X116222706Y-88069269D01*
X116220649Y-88075386D01*
X116204238Y-88117003D01*
X116202388Y-88134997D01*
X116198379Y-88156092D01*
X116193500Y-88173509D01*
X116193500Y-88218236D01*
X116193169Y-88224684D01*
X116188594Y-88269174D01*
X116188594Y-88269177D01*
X116191668Y-88287004D01*
X116193499Y-88308409D01*
X116193499Y-101027902D01*
X116173497Y-101096023D01*
X116119841Y-101142516D01*
X116105219Y-101148124D01*
X115960942Y-101193391D01*
X115786407Y-101290266D01*
X115786406Y-101290266D01*
X115634951Y-101420286D01*
X115634946Y-101420292D01*
X115512759Y-101578145D01*
X115424850Y-101757359D01*
X115424849Y-101757362D01*
X115374814Y-101950610D01*
X115374813Y-101950615D01*
X115364703Y-102149968D01*
X115386900Y-102294857D01*
X115394932Y-102347284D01*
X115394934Y-102347289D01*
X115464257Y-102534471D01*
X115464259Y-102534474D01*
X115464260Y-102534476D01*
X115478670Y-102557595D01*
X115553958Y-102678384D01*
X115569851Y-102703881D01*
X115707381Y-102848562D01*
X115707384Y-102848564D01*
X115871221Y-102962598D01*
X115871222Y-102962599D01*
X116054656Y-103041317D01*
X116054659Y-103041317D01*
X116054660Y-103041318D01*
X116250191Y-103081500D01*
X116250192Y-103081500D01*
X117099778Y-103081500D01*
X117099779Y-103081500D01*
X117099780Y-103081499D01*
X117099797Y-103081499D01*
X117219318Y-103069343D01*
X117248593Y-103066367D01*
X117439057Y-103006609D01*
X117613592Y-102909734D01*
X117723817Y-102815108D01*
X117788531Y-102785913D01*
X117858758Y-102796340D01*
X117912199Y-102843080D01*
X117931888Y-102911292D01*
X117911572Y-102979320D01*
X117894987Y-102999804D01*
X117885134Y-103009657D01*
X117885131Y-103009661D01*
X117791439Y-103158771D01*
X117791438Y-103158773D01*
X117791438Y-103158774D01*
X117733273Y-103325000D01*
X117713555Y-103500000D01*
X117733273Y-103675000D01*
X117733274Y-103675002D01*
X117791437Y-103841225D01*
X117814861Y-103878504D01*
X117885133Y-103990340D01*
X117885136Y-103990343D01*
X117885136Y-103990344D01*
X118009655Y-104114863D01*
X118009657Y-104114864D01*
X118009660Y-104114867D01*
X118158774Y-104208562D01*
X118325000Y-104266727D01*
X118500000Y-104286445D01*
X118603383Y-104274796D01*
X118673313Y-104287045D01*
X118725521Y-104335158D01*
X118743489Y-104400004D01*
X118743489Y-112181991D01*
X118740612Y-112208762D01*
X118739586Y-112213477D01*
X118739586Y-112213485D01*
X118743329Y-112265826D01*
X118743490Y-112270322D01*
X118743490Y-112286212D01*
X118745751Y-112301940D01*
X118746232Y-112306411D01*
X118749976Y-112358761D01*
X118751662Y-112363282D01*
X118758321Y-112389367D01*
X118759009Y-112394155D01*
X118759010Y-112394156D01*
X118780813Y-112441899D01*
X118782534Y-112446053D01*
X118790884Y-112468440D01*
X118800875Y-112495225D01*
X118803767Y-112499089D01*
X118817507Y-112522246D01*
X118819514Y-112526640D01*
X118819515Y-112526641D01*
X118853886Y-112566308D01*
X118856708Y-112569810D01*
X118866225Y-112582523D01*
X118866226Y-112582525D01*
X118866227Y-112582526D01*
X118866228Y-112582527D01*
X118877469Y-112593768D01*
X118880524Y-112597049D01*
X118914893Y-112636713D01*
X118918945Y-112639317D01*
X118939922Y-112656221D01*
X119177751Y-112894050D01*
X119211777Y-112956362D01*
X119213865Y-112997242D01*
X119213555Y-112999995D01*
X119213555Y-112999996D01*
X119213555Y-113000000D01*
X119233273Y-113175000D01*
X119233274Y-113175002D01*
X119291437Y-113341225D01*
X119291438Y-113341226D01*
X119385133Y-113490340D01*
X119385136Y-113490343D01*
X119385136Y-113490344D01*
X119509655Y-113614863D01*
X119509657Y-113614864D01*
X119509660Y-113614867D01*
X119658774Y-113708562D01*
X119825000Y-113766727D01*
X120000000Y-113786445D01*
X120175000Y-113766727D01*
X120341226Y-113708562D01*
X120490340Y-113614867D01*
X120614867Y-113490340D01*
X120708562Y-113341226D01*
X120766727Y-113175000D01*
X120786445Y-113000000D01*
X120766727Y-112825000D01*
X120708562Y-112658774D01*
X120614867Y-112509660D01*
X120614863Y-112509656D01*
X120614863Y-112509655D01*
X120490344Y-112385136D01*
X120490341Y-112385134D01*
X120490340Y-112385133D01*
X120405797Y-112332011D01*
X120341225Y-112291437D01*
X120229276Y-112252265D01*
X120171584Y-112210887D01*
X120145422Y-112144887D01*
X120159095Y-112075219D01*
X120208262Y-112024003D01*
X120237183Y-112011929D01*
X120352051Y-111980036D01*
X120368893Y-111975360D01*
X120533491Y-111888095D01*
X120675481Y-111767487D01*
X120788225Y-111619175D01*
X120838553Y-111510392D01*
X120885310Y-111456966D01*
X120953529Y-111437300D01*
X121001120Y-111446887D01*
X121093238Y-111485044D01*
X121210639Y-111500500D01*
X121210646Y-111500500D01*
X121289354Y-111500500D01*
X121289361Y-111500500D01*
X121406762Y-111485044D01*
X121552841Y-111424536D01*
X121678282Y-111328282D01*
X121774536Y-111202841D01*
X121835044Y-111056762D01*
X121855682Y-110900000D01*
X121835044Y-110743238D01*
X121774536Y-110597159D01*
X121678282Y-110471718D01*
X121577340Y-110394262D01*
X121535474Y-110336926D01*
X121531252Y-110266055D01*
X121535116Y-110252685D01*
X121542726Y-110230936D01*
X121542727Y-110230929D01*
X121563112Y-110049999D01*
X121542727Y-109869070D01*
X121542726Y-109869062D01*
X121482588Y-109697201D01*
X121482587Y-109697200D01*
X121474647Y-109684563D01*
X121474645Y-109684563D01*
X120885656Y-110273553D01*
X120823344Y-110307579D01*
X120752529Y-110302514D01*
X120705086Y-110271108D01*
X120673401Y-110237659D01*
X120727468Y-110250000D01*
X120772532Y-110250000D01*
X120839008Y-110234827D01*
X120910387Y-110177905D01*
X120950000Y-110095649D01*
X120950000Y-110004351D01*
X120910387Y-109922095D01*
X120839008Y-109865173D01*
X120772532Y-109850000D01*
X120727468Y-109850000D01*
X120660992Y-109865173D01*
X120589613Y-109922095D01*
X120550000Y-110004351D01*
X120550000Y-110095649D01*
X120573990Y-110145465D01*
X120534122Y-110118434D01*
X120488966Y-110063651D01*
X120480595Y-109993149D01*
X120511669Y-109929314D01*
X120515738Y-109925051D01*
X121115436Y-109325352D01*
X121102797Y-109317411D01*
X120930936Y-109257273D01*
X120930929Y-109257272D01*
X120791960Y-109241614D01*
X120726507Y-109214110D01*
X120688256Y-109161087D01*
X120657870Y-109080965D01*
X120656564Y-109079073D01*
X120656035Y-109077469D01*
X120654327Y-109074214D01*
X120654868Y-109073929D01*
X120634330Y-109011650D01*
X120652078Y-108942907D01*
X120704173Y-108894673D01*
X120760262Y-108881500D01*
X120832748Y-108881500D01*
X120832749Y-108881500D01*
X120993438Y-108841893D01*
X121139979Y-108764983D01*
X121263856Y-108655237D01*
X121357870Y-108519035D01*
X121361426Y-108509660D01*
X121381550Y-108456595D01*
X121416556Y-108364291D01*
X121436505Y-108200000D01*
X121433863Y-108178239D01*
X121415638Y-108028143D01*
X121417465Y-108027921D01*
X121420151Y-107966735D01*
X121461116Y-107908749D01*
X121526928Y-107882116D01*
X121539374Y-107881500D01*
X122334688Y-107881500D01*
X122361471Y-107884379D01*
X122365297Y-107885212D01*
X122365297Y-107885211D01*
X122365298Y-107885212D01*
X122414950Y-107881661D01*
X122419447Y-107881500D01*
X122434434Y-107881500D01*
X122449290Y-107879363D01*
X122453739Y-107878885D01*
X122503403Y-107875334D01*
X122507072Y-107873965D01*
X122533175Y-107867302D01*
X122537049Y-107866746D01*
X122582345Y-107846059D01*
X122586474Y-107844349D01*
X122633131Y-107826948D01*
X122636262Y-107824603D01*
X122659439Y-107810852D01*
X122662995Y-107809229D01*
X122700637Y-107776611D01*
X122704129Y-107773798D01*
X122716123Y-107764820D01*
X122726728Y-107754213D01*
X122730007Y-107751162D01*
X122730968Y-107750328D01*
X122767635Y-107718558D01*
X122769753Y-107715261D01*
X122786653Y-107694288D01*
X125762538Y-104718405D01*
X125824851Y-104684379D01*
X125851634Y-104681500D01*
X126247107Y-104681500D01*
X126315228Y-104701502D01*
X126353794Y-104740464D01*
X126385133Y-104790340D01*
X126385136Y-104790344D01*
X126509655Y-104914863D01*
X126509657Y-104914864D01*
X126509660Y-104914867D01*
X126658774Y-105008562D01*
X126825000Y-105066727D01*
X127000000Y-105086445D01*
X127175000Y-105066727D01*
X127341226Y-105008562D01*
X127490340Y-104914867D01*
X127614867Y-104790340D01*
X127708562Y-104641226D01*
X127766727Y-104475000D01*
X127786445Y-104300000D01*
X127766727Y-104125000D01*
X127708562Y-103958774D01*
X127614867Y-103809660D01*
X127614863Y-103809656D01*
X127614863Y-103809655D01*
X127490344Y-103685136D01*
X127490341Y-103685134D01*
X127490340Y-103685133D01*
X127385369Y-103619175D01*
X127341225Y-103591437D01*
X127227509Y-103551646D01*
X127175000Y-103533273D01*
X127000000Y-103513555D01*
X126825000Y-103533273D01*
X126824997Y-103533273D01*
X126824997Y-103533274D01*
X126658774Y-103591437D01*
X126558467Y-103654465D01*
X126509660Y-103685133D01*
X126509658Y-103685134D01*
X126509656Y-103685136D01*
X126504126Y-103689546D01*
X126502460Y-103687457D01*
X126450885Y-103715621D01*
X126424102Y-103718500D01*
X125665308Y-103718500D01*
X125638527Y-103715621D01*
X125634703Y-103714789D01*
X125634699Y-103714789D01*
X125585058Y-103718339D01*
X125580562Y-103718500D01*
X125565560Y-103718500D01*
X125550719Y-103720634D01*
X125546256Y-103721114D01*
X125506512Y-103723956D01*
X125496596Y-103724666D01*
X125496595Y-103724666D01*
X125492912Y-103726040D01*
X125466834Y-103732695D01*
X125462956Y-103733252D01*
X125462952Y-103733253D01*
X125417658Y-103753937D01*
X125413505Y-103755657D01*
X125366864Y-103773054D01*
X125363724Y-103775405D01*
X125340582Y-103789136D01*
X125337007Y-103790768D01*
X125337006Y-103790769D01*
X125299375Y-103823376D01*
X125295875Y-103826196D01*
X125283875Y-103835180D01*
X125283871Y-103835184D01*
X125273268Y-103845785D01*
X125269983Y-103848844D01*
X125232368Y-103881438D01*
X125232360Y-103881447D01*
X125230242Y-103884744D01*
X125213344Y-103905711D01*
X122237462Y-106881595D01*
X122175150Y-106915620D01*
X122148367Y-106918500D01*
X121539374Y-106918500D01*
X121471253Y-106898498D01*
X121424760Y-106844842D01*
X121414656Y-106774568D01*
X121416390Y-106765663D01*
X121436505Y-106600002D01*
X121436505Y-106599997D01*
X121416556Y-106435709D01*
X121396856Y-106383764D01*
X121357870Y-106280965D01*
X121351389Y-106271576D01*
X121329153Y-106204157D01*
X121346896Y-106135413D01*
X121351369Y-106128452D01*
X121357870Y-106119035D01*
X121416556Y-105964291D01*
X121416555Y-105964291D01*
X121416557Y-105964289D01*
X121427146Y-105877074D01*
X121455212Y-105811860D01*
X121463121Y-105803176D01*
X122235069Y-105031228D01*
X122256047Y-105014325D01*
X122260098Y-105011722D01*
X122294468Y-104972055D01*
X122297521Y-104968777D01*
X122308763Y-104957536D01*
X122318294Y-104944801D01*
X122321099Y-104941321D01*
X122355477Y-104901649D01*
X122357480Y-104897261D01*
X122371223Y-104874098D01*
X122374116Y-104870234D01*
X122392466Y-104821032D01*
X122394164Y-104816933D01*
X122415981Y-104769164D01*
X122416666Y-104764392D01*
X122423329Y-104738286D01*
X122425014Y-104733771D01*
X122428758Y-104681415D01*
X122429234Y-104676983D01*
X122431501Y-104661221D01*
X122431501Y-104645303D01*
X122431660Y-104640846D01*
X122435405Y-104588494D01*
X122434380Y-104583785D01*
X122431501Y-104557009D01*
X122431500Y-102872174D01*
X130438594Y-102872174D01*
X130441668Y-102889999D01*
X130443500Y-102911407D01*
X130443500Y-123490499D01*
X130441213Y-123557444D01*
X130451803Y-123600909D01*
X130453007Y-123607246D01*
X130459098Y-123651548D01*
X130459102Y-123651562D01*
X130466303Y-123668141D01*
X130473150Y-123688501D01*
X130477430Y-123706066D01*
X130477432Y-123706071D01*
X130477433Y-123706074D01*
X130477434Y-123706075D01*
X130499350Y-123745054D01*
X130502222Y-123750835D01*
X130520042Y-123791862D01*
X130520046Y-123791869D01*
X130531453Y-123805889D01*
X130543546Y-123823657D01*
X130552406Y-123839415D01*
X130552407Y-123839416D01*
X130552409Y-123839419D01*
X130580595Y-123867605D01*
X130614620Y-123929915D01*
X130616810Y-123969867D01*
X130613644Y-123999997D01*
X130613644Y-123999998D01*
X130633012Y-124184283D01*
X130651283Y-124240512D01*
X130690274Y-124360513D01*
X130690277Y-124360518D01*
X130782921Y-124520984D01*
X130782926Y-124520992D01*
X130906909Y-124658689D01*
X130906912Y-124658691D01*
X131056822Y-124767607D01*
X131222357Y-124841308D01*
X131226101Y-124842975D01*
X131407350Y-124881500D01*
X131407351Y-124881500D01*
X131592650Y-124881500D01*
X131683274Y-124862237D01*
X131773899Y-124842975D01*
X131943178Y-124767607D01*
X132093088Y-124658691D01*
X132129276Y-124618500D01*
X132217073Y-124520992D01*
X132217074Y-124520990D01*
X132217077Y-124520987D01*
X132309726Y-124360513D01*
X132366987Y-124184284D01*
X132386356Y-124000000D01*
X132366987Y-123815716D01*
X132309726Y-123639487D01*
X132217077Y-123479013D01*
X132217076Y-123479012D01*
X132217073Y-123479007D01*
X132093090Y-123341310D01*
X131943178Y-123232393D01*
X131773899Y-123157025D01*
X131656303Y-123132029D01*
X131593829Y-123098300D01*
X131559508Y-123036151D01*
X131556500Y-123008782D01*
X131556500Y-115250000D01*
X131963555Y-115250000D01*
X131983273Y-115425000D01*
X131983274Y-115425002D01*
X132041437Y-115591225D01*
X132041438Y-115591226D01*
X132135133Y-115740340D01*
X132135135Y-115740342D01*
X132135136Y-115740343D01*
X132135136Y-115740344D01*
X132259655Y-115864863D01*
X132259657Y-115864864D01*
X132259660Y-115864867D01*
X132408774Y-115958562D01*
X132575000Y-116016727D01*
X132750000Y-116036445D01*
X132752741Y-116036136D01*
X132754506Y-116036445D01*
X132757077Y-116036445D01*
X132757077Y-116036895D01*
X132822674Y-116048382D01*
X132855949Y-116072248D01*
X134209802Y-117426101D01*
X134243828Y-117488413D01*
X134239637Y-117556808D01*
X134233275Y-117574990D01*
X134233274Y-117574993D01*
X134233274Y-117574997D01*
X134233273Y-117575000D01*
X134213555Y-117750000D01*
X134233273Y-117925000D01*
X134233274Y-117925002D01*
X134291437Y-118091225D01*
X134291438Y-118091226D01*
X134385133Y-118240340D01*
X134385136Y-118240343D01*
X134385136Y-118240344D01*
X134509655Y-118364863D01*
X134509657Y-118364864D01*
X134509660Y-118364867D01*
X134658774Y-118458562D01*
X134825000Y-118516727D01*
X135000000Y-118536445D01*
X135175000Y-118516727D01*
X135341226Y-118458562D01*
X135490340Y-118364867D01*
X135614867Y-118240340D01*
X135708562Y-118091226D01*
X135766727Y-117925000D01*
X135786445Y-117750000D01*
X135766727Y-117575000D01*
X135708562Y-117408774D01*
X135614867Y-117259660D01*
X135614863Y-117259656D01*
X135614863Y-117259655D01*
X135490344Y-117135136D01*
X135490341Y-117135134D01*
X135490340Y-117135133D01*
X135405797Y-117082011D01*
X135341225Y-117041437D01*
X135239942Y-117005997D01*
X135192462Y-116976163D01*
X134189729Y-115973430D01*
X137186985Y-115973430D01*
X137206703Y-116148430D01*
X137206704Y-116148432D01*
X137264867Y-116314655D01*
X137264868Y-116314656D01*
X137358563Y-116463770D01*
X137358566Y-116463773D01*
X137358566Y-116463774D01*
X137483085Y-116588293D01*
X137483087Y-116588294D01*
X137483090Y-116588297D01*
X137632204Y-116681992D01*
X137798430Y-116740157D01*
X137928984Y-116754866D01*
X137994435Y-116782370D01*
X138003959Y-116790969D01*
X138824778Y-117611788D01*
X138870498Y-117660742D01*
X138908733Y-117683993D01*
X138914046Y-117687610D01*
X138949689Y-117714639D01*
X138966507Y-117721271D01*
X138985750Y-117730828D01*
X139001205Y-117740227D01*
X139017230Y-117744716D01*
X139044276Y-117752295D01*
X139050396Y-117754353D01*
X139074927Y-117764026D01*
X139092002Y-117770760D01*
X139092000Y-117770760D01*
X139109987Y-117772609D01*
X139131097Y-117776620D01*
X139148511Y-117781500D01*
X139193247Y-117781500D01*
X139199695Y-117781831D01*
X139244176Y-117786404D01*
X139244176Y-117786403D01*
X139244178Y-117786404D01*
X139258289Y-117783971D01*
X139261996Y-117783332D01*
X139283403Y-117781500D01*
X143097180Y-117781500D01*
X143165301Y-117801502D01*
X143211794Y-117855158D01*
X143222387Y-117921607D01*
X143213555Y-118000000D01*
X143233273Y-118175000D01*
X143240646Y-118196071D01*
X143268574Y-118275885D01*
X143272193Y-118346789D01*
X143236904Y-118408395D01*
X143173911Y-118441141D01*
X143149645Y-118443500D01*
X142600898Y-118443500D01*
X142532777Y-118423498D01*
X142511803Y-118406595D01*
X142490344Y-118385136D01*
X142490341Y-118385134D01*
X142490340Y-118385133D01*
X142380803Y-118316306D01*
X142341225Y-118291437D01*
X142209171Y-118245230D01*
X142175000Y-118233273D01*
X142000000Y-118213555D01*
X141999999Y-118213555D01*
X141974544Y-118216423D01*
X141825000Y-118233273D01*
X141824997Y-118233273D01*
X141824997Y-118233274D01*
X141658774Y-118291437D01*
X141575476Y-118343778D01*
X141509660Y-118385133D01*
X141509658Y-118385134D01*
X141509656Y-118385136D01*
X141509655Y-118385136D01*
X141385136Y-118509655D01*
X141385136Y-118509656D01*
X141385134Y-118509658D01*
X141385133Y-118509660D01*
X141368303Y-118536445D01*
X141291437Y-118658774D01*
X141265369Y-118733274D01*
X141233273Y-118825000D01*
X141213555Y-119000000D01*
X141233273Y-119175000D01*
X141236522Y-119184284D01*
X141291437Y-119341225D01*
X141303557Y-119360513D01*
X141385133Y-119490340D01*
X141385136Y-119490343D01*
X141385136Y-119490344D01*
X141509655Y-119614863D01*
X141509657Y-119614864D01*
X141509660Y-119614867D01*
X141658774Y-119708562D01*
X141825000Y-119766727D01*
X142000000Y-119786445D01*
X142175000Y-119766727D01*
X142341226Y-119708562D01*
X142490340Y-119614867D01*
X142490344Y-119614863D01*
X142511803Y-119593405D01*
X142574115Y-119559379D01*
X142600898Y-119556500D01*
X153717300Y-119556500D01*
X153785421Y-119576502D01*
X153806395Y-119593405D01*
X154182449Y-119969459D01*
X154216475Y-120031771D01*
X154218562Y-120044445D01*
X154231247Y-120157024D01*
X154233273Y-120174999D01*
X154233274Y-120175005D01*
X154291438Y-120341226D01*
X154291439Y-120341228D01*
X154349080Y-120432963D01*
X154368386Y-120501284D01*
X154349081Y-120567034D01*
X154291438Y-120658773D01*
X154236600Y-120815493D01*
X154233273Y-120825000D01*
X154213555Y-121000000D01*
X154233273Y-121175000D01*
X154246764Y-121213555D01*
X154291437Y-121341225D01*
X154303557Y-121360513D01*
X154385133Y-121490340D01*
X154385136Y-121490343D01*
X154385136Y-121490344D01*
X154509655Y-121614863D01*
X154509657Y-121614864D01*
X154509660Y-121614867D01*
X154658774Y-121708562D01*
X154825000Y-121766727D01*
X155000000Y-121786445D01*
X155175000Y-121766727D01*
X155341226Y-121708562D01*
X155490340Y-121614867D01*
X155566628Y-121538578D01*
X155628938Y-121504555D01*
X155646731Y-121501996D01*
X155674456Y-121500014D01*
X155678973Y-121498328D01*
X155705070Y-121491667D01*
X155709850Y-121490980D01*
X155757603Y-121469170D01*
X155761715Y-121467466D01*
X155810920Y-121449115D01*
X155814784Y-121446222D01*
X155837947Y-121432479D01*
X155842335Y-121430476D01*
X155882007Y-121396098D01*
X155885487Y-121393293D01*
X155898222Y-121383762D01*
X155909464Y-121372518D01*
X155912741Y-121369467D01*
X155952408Y-121335097D01*
X155955010Y-121331046D01*
X155971911Y-121310071D01*
X156035074Y-121246909D01*
X156056047Y-121230009D01*
X156060098Y-121227407D01*
X156094462Y-121187747D01*
X156097515Y-121184469D01*
X156098869Y-121183115D01*
X156108764Y-121173221D01*
X156118293Y-121160490D01*
X156121108Y-121156996D01*
X156155477Y-121117334D01*
X156157481Y-121112945D01*
X156171223Y-121089783D01*
X156174116Y-121085919D01*
X156192458Y-121036738D01*
X156194176Y-121032593D01*
X156209061Y-121000000D01*
X156215981Y-120984849D01*
X156216668Y-120980069D01*
X156223329Y-120953972D01*
X156225015Y-120949455D01*
X156228760Y-120897081D01*
X156229239Y-120892632D01*
X156231501Y-120876908D01*
X156231501Y-120861016D01*
X156231662Y-120856520D01*
X156235405Y-120804179D01*
X156235404Y-120804174D01*
X156234380Y-120799464D01*
X156231501Y-120772685D01*
X156231501Y-120325153D01*
X157888402Y-120325153D01*
X157908120Y-120500153D01*
X157910341Y-120506500D01*
X157966284Y-120666378D01*
X157966285Y-120666379D01*
X158059980Y-120815493D01*
X158059983Y-120815496D01*
X158059983Y-120815497D01*
X158184502Y-120940016D01*
X158184504Y-120940017D01*
X158184507Y-120940020D01*
X158333621Y-121033715D01*
X158499847Y-121091880D01*
X158546091Y-121097090D01*
X158611541Y-121124592D01*
X158651735Y-121183115D01*
X158653908Y-121254079D01*
X158617370Y-121314952D01*
X158599019Y-121328983D01*
X158509662Y-121385131D01*
X158509655Y-121385136D01*
X158385136Y-121509655D01*
X158385136Y-121509656D01*
X158385134Y-121509658D01*
X158385133Y-121509660D01*
X158366961Y-121538580D01*
X158291437Y-121658774D01*
X158246764Y-121786444D01*
X158233273Y-121825000D01*
X158213555Y-122000000D01*
X158233273Y-122175000D01*
X158233274Y-122175002D01*
X158291437Y-122341225D01*
X158291438Y-122341226D01*
X158385133Y-122490340D01*
X158385135Y-122490343D01*
X158385136Y-122490343D01*
X158385136Y-122490344D01*
X158509655Y-122614863D01*
X158509657Y-122614864D01*
X158509660Y-122614867D01*
X158658774Y-122708562D01*
X158825000Y-122766727D01*
X159000000Y-122786445D01*
X159175000Y-122766727D01*
X159341226Y-122708562D01*
X159490340Y-122614867D01*
X159614867Y-122490340D01*
X159708562Y-122341226D01*
X159766727Y-122175000D01*
X159786445Y-122000000D01*
X159786136Y-121997254D01*
X159786445Y-121995489D01*
X159786445Y-121992923D01*
X159786894Y-121992923D01*
X159798383Y-121927322D01*
X159822245Y-121894052D01*
X163310068Y-118406229D01*
X163331046Y-118389326D01*
X163335097Y-118386723D01*
X163369467Y-118347056D01*
X163372520Y-118343778D01*
X163375072Y-118341226D01*
X163383762Y-118332537D01*
X163393293Y-118319802D01*
X163396098Y-118316322D01*
X163430476Y-118276650D01*
X163432479Y-118272262D01*
X163446222Y-118249099D01*
X163449115Y-118245235D01*
X163467465Y-118196033D01*
X163469163Y-118191934D01*
X163490980Y-118144165D01*
X163491665Y-118139393D01*
X163498328Y-118113287D01*
X163500013Y-118108772D01*
X163503757Y-118056416D01*
X163504233Y-118051984D01*
X163506500Y-118036222D01*
X163506500Y-118020327D01*
X163506661Y-118015831D01*
X163507831Y-117999463D01*
X163510404Y-117963495D01*
X163510403Y-117963490D01*
X163509379Y-117958780D01*
X163506500Y-117932001D01*
X163506500Y-114650897D01*
X163526502Y-114582776D01*
X163543400Y-114561806D01*
X163614867Y-114490340D01*
X163708562Y-114341226D01*
X163766727Y-114175000D01*
X163786445Y-114000000D01*
X163766727Y-113825000D01*
X163708562Y-113658774D01*
X163614867Y-113509660D01*
X163614863Y-113509656D01*
X163614863Y-113509655D01*
X163490344Y-113385136D01*
X163490341Y-113385134D01*
X163490340Y-113385133D01*
X163405797Y-113332011D01*
X163341225Y-113291437D01*
X163227509Y-113251646D01*
X163175000Y-113233273D01*
X163000000Y-113213555D01*
X162999999Y-113213555D01*
X162974544Y-113216423D01*
X162825000Y-113233273D01*
X162824997Y-113233273D01*
X162824997Y-113233274D01*
X162658774Y-113291437D01*
X162579539Y-113341225D01*
X162509660Y-113385133D01*
X162509658Y-113385134D01*
X162509656Y-113385136D01*
X162509655Y-113385136D01*
X162385136Y-113509655D01*
X162385136Y-113509656D01*
X162291437Y-113658774D01*
X162246764Y-113786444D01*
X162233273Y-113825000D01*
X162213555Y-114000000D01*
X162233273Y-114175000D01*
X162233274Y-114175002D01*
X162291437Y-114341225D01*
X162338285Y-114415783D01*
X162385133Y-114490340D01*
X162436231Y-114541438D01*
X162456595Y-114561801D01*
X162490620Y-114624113D01*
X162493500Y-114650897D01*
X162493500Y-117738010D01*
X162473498Y-117806131D01*
X162456595Y-117827105D01*
X160958282Y-119325417D01*
X160895970Y-119359443D01*
X160825154Y-119354378D01*
X160768319Y-119311831D01*
X160750261Y-119277944D01*
X160708562Y-119158774D01*
X160614867Y-119009660D01*
X160614863Y-119009656D01*
X160614863Y-119009655D01*
X160490344Y-118885136D01*
X160490341Y-118885134D01*
X160490340Y-118885133D01*
X160379864Y-118815716D01*
X160341225Y-118791437D01*
X160227509Y-118751646D01*
X160175000Y-118733273D01*
X160000000Y-118713555D01*
X159999999Y-118713555D01*
X159974544Y-118716423D01*
X159825000Y-118733273D01*
X159824997Y-118733273D01*
X159824997Y-118733274D01*
X159658774Y-118791437D01*
X159558467Y-118854465D01*
X159509660Y-118885133D01*
X159509658Y-118885134D01*
X159509656Y-118885136D01*
X159509655Y-118885136D01*
X159385136Y-119009655D01*
X159385136Y-119009656D01*
X159291437Y-119158774D01*
X159249741Y-119277936D01*
X159233273Y-119325000D01*
X159226894Y-119381610D01*
X159199391Y-119447061D01*
X159140866Y-119487254D01*
X159101687Y-119493500D01*
X159067998Y-119493500D01*
X159041217Y-119490621D01*
X159036505Y-119489596D01*
X159036502Y-119489596D01*
X158984163Y-119493339D01*
X158979667Y-119493500D01*
X158963773Y-119493500D01*
X158948044Y-119495761D01*
X158943579Y-119496240D01*
X158891227Y-119499986D01*
X158886701Y-119501674D01*
X158860622Y-119508331D01*
X158855837Y-119509019D01*
X158855832Y-119509020D01*
X158808085Y-119530825D01*
X158803930Y-119532546D01*
X158789510Y-119537924D01*
X158731374Y-119545076D01*
X158674848Y-119538708D01*
X158674847Y-119538708D01*
X158499847Y-119558426D01*
X158499844Y-119558426D01*
X158499844Y-119558427D01*
X158333621Y-119616590D01*
X158233314Y-119679618D01*
X158184507Y-119710286D01*
X158184505Y-119710287D01*
X158184503Y-119710289D01*
X158184502Y-119710289D01*
X158059983Y-119834808D01*
X158059983Y-119834809D01*
X158059981Y-119834811D01*
X158059980Y-119834813D01*
X158030847Y-119881177D01*
X157966284Y-119983927D01*
X157940470Y-120057701D01*
X157908120Y-120150153D01*
X157888402Y-120325153D01*
X156231501Y-120325153D01*
X156231501Y-114536987D01*
X156251503Y-114468866D01*
X156268401Y-114447897D01*
X158894051Y-111822246D01*
X158956361Y-111788222D01*
X158997254Y-111786136D01*
X158999996Y-111786445D01*
X158999997Y-111786445D01*
X158999998Y-111786444D01*
X159000000Y-111786445D01*
X159175000Y-111766727D01*
X159341226Y-111708562D01*
X159490340Y-111614867D01*
X159614867Y-111490340D01*
X159708562Y-111341226D01*
X159766727Y-111175000D01*
X159786445Y-111000000D01*
X159766727Y-110825000D01*
X159708562Y-110658774D01*
X159614867Y-110509660D01*
X159614863Y-110509656D01*
X159614863Y-110509655D01*
X159490344Y-110385136D01*
X159490341Y-110385134D01*
X159490340Y-110385133D01*
X159405797Y-110332011D01*
X159341225Y-110291437D01*
X159222803Y-110250000D01*
X159175000Y-110233273D01*
X159000000Y-110213555D01*
X158825000Y-110233273D01*
X158824997Y-110233273D01*
X158824997Y-110233274D01*
X158658774Y-110291437D01*
X158579539Y-110341225D01*
X158509660Y-110385133D01*
X158509658Y-110385134D01*
X158509656Y-110385136D01*
X158509655Y-110385136D01*
X158385136Y-110509655D01*
X158385136Y-110509656D01*
X158291437Y-110658774D01*
X158246764Y-110786444D01*
X158233273Y-110825000D01*
X158214300Y-110993391D01*
X158213555Y-111000001D01*
X158213865Y-111002753D01*
X158213555Y-111004522D01*
X158213555Y-111007076D01*
X158213107Y-111007076D01*
X158201611Y-111072684D01*
X158177751Y-111105948D01*
X155414933Y-113868766D01*
X155393966Y-113885665D01*
X155389903Y-113888276D01*
X155355541Y-113927931D01*
X155352478Y-113931222D01*
X155341236Y-113942464D01*
X155331715Y-113955182D01*
X155328896Y-113958680D01*
X155294525Y-113998348D01*
X155292515Y-114002749D01*
X155278782Y-114025893D01*
X155275887Y-114029760D01*
X155275885Y-114029764D01*
X155257546Y-114078932D01*
X155255825Y-114083086D01*
X155234022Y-114130828D01*
X155234020Y-114130836D01*
X155233332Y-114135621D01*
X155226675Y-114161700D01*
X155224987Y-114166226D01*
X155221241Y-114218578D01*
X155220762Y-114223043D01*
X155218501Y-114238772D01*
X155218501Y-114254666D01*
X155218340Y-114259162D01*
X155214597Y-114311504D01*
X155215621Y-114316214D01*
X155218501Y-114342995D01*
X155218501Y-116322179D01*
X155198499Y-116390300D01*
X155144843Y-116436793D01*
X155078395Y-116447387D01*
X155000001Y-116438555D01*
X155000000Y-116438555D01*
X154825000Y-116458273D01*
X154824997Y-116458273D01*
X154824997Y-116458274D01*
X154658774Y-116516437D01*
X154558467Y-116579465D01*
X154509660Y-116610133D01*
X154509658Y-116610134D01*
X154509656Y-116610136D01*
X154509655Y-116610136D01*
X154488197Y-116631595D01*
X154425885Y-116665621D01*
X154399102Y-116668500D01*
X139507700Y-116668500D01*
X139439579Y-116648498D01*
X139418605Y-116631595D01*
X138790979Y-116003969D01*
X138756953Y-115941657D01*
X138754868Y-115928995D01*
X138740157Y-115798430D01*
X138681992Y-115632204D01*
X138588297Y-115483090D01*
X138588293Y-115483086D01*
X138588293Y-115483085D01*
X138463774Y-115358566D01*
X138463771Y-115358564D01*
X138463770Y-115358563D01*
X138379227Y-115305441D01*
X138314655Y-115264867D01*
X138200939Y-115225076D01*
X138148430Y-115206703D01*
X137973430Y-115186985D01*
X137798430Y-115206703D01*
X137798427Y-115206703D01*
X137798427Y-115206704D01*
X137632204Y-115264867D01*
X137555536Y-115313042D01*
X137483090Y-115358563D01*
X137483088Y-115358564D01*
X137483086Y-115358566D01*
X137483085Y-115358566D01*
X137358566Y-115483085D01*
X137358566Y-115483086D01*
X137264867Y-115632204D01*
X137227028Y-115740344D01*
X137206703Y-115798430D01*
X137186985Y-115973430D01*
X134189729Y-115973430D01*
X133572248Y-115355949D01*
X133538222Y-115293637D01*
X133536136Y-115252741D01*
X133536445Y-115250000D01*
X133516727Y-115075000D01*
X133458562Y-114908774D01*
X133364867Y-114759660D01*
X133364863Y-114759656D01*
X133364863Y-114759655D01*
X133240344Y-114635136D01*
X133240341Y-114635134D01*
X133240340Y-114635133D01*
X133155797Y-114582011D01*
X133091225Y-114541437D01*
X132945196Y-114490340D01*
X132925000Y-114483273D01*
X132750000Y-114463555D01*
X132575000Y-114483273D01*
X132574997Y-114483273D01*
X132574997Y-114483274D01*
X132408774Y-114541437D01*
X132342985Y-114582776D01*
X132259660Y-114635133D01*
X132259658Y-114635134D01*
X132259656Y-114635136D01*
X132259655Y-114635136D01*
X132135136Y-114759655D01*
X132135136Y-114759656D01*
X132041437Y-114908774D01*
X131983274Y-115074997D01*
X131983273Y-115075000D01*
X131963555Y-115250000D01*
X131556500Y-115250000D01*
X131556500Y-103135698D01*
X131576502Y-103067577D01*
X131593400Y-103046607D01*
X132182551Y-102457455D01*
X132244862Y-102423432D01*
X132315677Y-102428496D01*
X132372513Y-102471043D01*
X132378325Y-102479506D01*
X132385133Y-102490340D01*
X132456595Y-102561802D01*
X132490619Y-102624112D01*
X132493499Y-102650896D01*
X132493499Y-106349102D01*
X132473497Y-106417223D01*
X132456595Y-106438197D01*
X132385130Y-106509662D01*
X132291439Y-106658771D01*
X132291438Y-106658773D01*
X132250920Y-106774568D01*
X132233273Y-106825000D01*
X132213555Y-107000000D01*
X132233273Y-107175000D01*
X132264734Y-107264910D01*
X132291438Y-107341226D01*
X132291439Y-107341228D01*
X132349018Y-107432865D01*
X132368324Y-107501186D01*
X132349018Y-107566937D01*
X132289281Y-107662007D01*
X132289280Y-107662010D01*
X132237766Y-107809229D01*
X132231115Y-107828237D01*
X132211397Y-108003237D01*
X132231115Y-108178237D01*
X132231116Y-108178239D01*
X132289279Y-108344462D01*
X132289280Y-108344463D01*
X132382975Y-108493577D01*
X132382978Y-108493580D01*
X132382978Y-108493581D01*
X132507497Y-108618100D01*
X132507499Y-108618101D01*
X132507502Y-108618104D01*
X132656616Y-108711799D01*
X132822842Y-108769964D01*
X132997842Y-108789682D01*
X133172842Y-108769964D01*
X133339068Y-108711799D01*
X133488182Y-108618104D01*
X133612709Y-108493577D01*
X133706404Y-108344463D01*
X133764569Y-108178237D01*
X133779125Y-108049047D01*
X133806628Y-107983597D01*
X133815227Y-107974072D01*
X134310068Y-107479231D01*
X134331046Y-107462328D01*
X134335097Y-107459725D01*
X134369467Y-107420058D01*
X134372520Y-107416780D01*
X134383762Y-107405539D01*
X134393293Y-107392804D01*
X134396098Y-107389324D01*
X134430476Y-107349652D01*
X134432479Y-107345264D01*
X134446222Y-107322101D01*
X134449115Y-107318237D01*
X134467466Y-107269032D01*
X134469175Y-107264910D01*
X134490980Y-107217167D01*
X134491667Y-107212387D01*
X134498328Y-107186290D01*
X134500014Y-107181773D01*
X134503759Y-107129399D01*
X134504238Y-107124950D01*
X134506500Y-107109226D01*
X134506500Y-107093334D01*
X134506661Y-107088838D01*
X134510404Y-107036497D01*
X134510403Y-107036492D01*
X134509379Y-107031782D01*
X134506500Y-107005003D01*
X134506500Y-101650897D01*
X134526502Y-101582776D01*
X134543400Y-101561806D01*
X134614867Y-101490340D01*
X134708562Y-101341226D01*
X134766727Y-101175000D01*
X134786445Y-101000000D01*
X134766727Y-100825000D01*
X134708562Y-100658774D01*
X134614867Y-100509660D01*
X134614863Y-100509656D01*
X134614863Y-100509655D01*
X134605208Y-100500000D01*
X137213555Y-100500000D01*
X137233273Y-100675000D01*
X137236522Y-100684284D01*
X137291437Y-100841225D01*
X137303557Y-100860513D01*
X137385133Y-100990340D01*
X137385136Y-100990343D01*
X137385136Y-100990344D01*
X137509655Y-101114863D01*
X137509657Y-101114864D01*
X137509660Y-101114867D01*
X137658774Y-101208562D01*
X137825000Y-101266727D01*
X137824999Y-101266727D01*
X137881607Y-101273105D01*
X137947060Y-101300608D01*
X137987253Y-101359132D01*
X137993500Y-101398313D01*
X137993500Y-109349101D01*
X137973498Y-109417222D01*
X137956596Y-109438196D01*
X137885130Y-109509662D01*
X137791439Y-109658771D01*
X137791438Y-109658773D01*
X137746764Y-109786444D01*
X137733273Y-109825000D01*
X137713555Y-110000000D01*
X137733273Y-110175000D01*
X137733274Y-110175002D01*
X137791437Y-110341225D01*
X137791438Y-110341226D01*
X137885133Y-110490340D01*
X137885136Y-110490343D01*
X137885136Y-110490344D01*
X138009655Y-110614863D01*
X138009657Y-110614864D01*
X138009660Y-110614867D01*
X138158774Y-110708562D01*
X138325000Y-110766727D01*
X138500000Y-110786445D01*
X138675000Y-110766727D01*
X138841226Y-110708562D01*
X138990340Y-110614867D01*
X139114867Y-110490340D01*
X139208562Y-110341226D01*
X139266727Y-110175000D01*
X139286445Y-110000000D01*
X139266727Y-109825000D01*
X139208562Y-109658774D01*
X139180971Y-109614863D01*
X139114869Y-109509662D01*
X139043404Y-109438196D01*
X139009379Y-109375883D01*
X139006500Y-109349101D01*
X139006500Y-105000000D01*
X140213555Y-105000000D01*
X140233273Y-105175000D01*
X140233274Y-105175002D01*
X140291437Y-105341225D01*
X140291438Y-105341226D01*
X140385133Y-105490340D01*
X140385136Y-105490343D01*
X140385136Y-105490344D01*
X140509655Y-105614863D01*
X140509657Y-105614864D01*
X140509660Y-105614867D01*
X140658774Y-105708562D01*
X140825000Y-105766727D01*
X141000000Y-105786445D01*
X141002741Y-105786136D01*
X141004506Y-105786445D01*
X141007077Y-105786445D01*
X141007077Y-105786895D01*
X141072674Y-105798382D01*
X141105949Y-105822248D01*
X141593766Y-106310065D01*
X141610667Y-106331037D01*
X141613274Y-106335094D01*
X141613278Y-106335099D01*
X141652932Y-106369458D01*
X141656212Y-106372511D01*
X141667464Y-106383763D01*
X141674535Y-106389056D01*
X141680188Y-106393288D01*
X141683692Y-106396112D01*
X141708055Y-106417223D01*
X141723350Y-106430476D01*
X141727731Y-106432476D01*
X141750896Y-106446220D01*
X141754765Y-106449116D01*
X141754767Y-106449116D01*
X141754769Y-106449118D01*
X141803942Y-106467458D01*
X141808098Y-106469180D01*
X141835748Y-106481806D01*
X141855835Y-106490980D01*
X141857304Y-106491191D01*
X141860611Y-106491667D01*
X141886703Y-106498326D01*
X141891229Y-106500014D01*
X141943604Y-106503759D01*
X141948040Y-106504236D01*
X141955742Y-106505344D01*
X141963775Y-106506500D01*
X141963778Y-106506500D01*
X141979667Y-106506500D01*
X141984163Y-106506661D01*
X142002959Y-106508004D01*
X142036505Y-106510404D01*
X142041217Y-106509378D01*
X142067998Y-106506500D01*
X143481523Y-106506500D01*
X143549644Y-106526502D01*
X143596137Y-106580158D01*
X143606241Y-106650432D01*
X143576750Y-106715010D01*
X143569524Y-106723349D01*
X143567514Y-106727750D01*
X143553781Y-106750894D01*
X143550886Y-106754761D01*
X143550884Y-106754765D01*
X143532545Y-106803933D01*
X143530824Y-106808087D01*
X143509021Y-106855829D01*
X143509019Y-106855837D01*
X143508331Y-106860622D01*
X143501674Y-106886701D01*
X143499986Y-106891227D01*
X143496240Y-106943579D01*
X143495761Y-106948044D01*
X143493500Y-106963773D01*
X143493500Y-106979667D01*
X143493339Y-106984163D01*
X143489596Y-107036502D01*
X143489596Y-107036505D01*
X143490620Y-107041215D01*
X143493500Y-107067996D01*
X143493500Y-111349101D01*
X143473498Y-111417222D01*
X143456596Y-111438196D01*
X143385130Y-111509662D01*
X143291439Y-111658771D01*
X143291438Y-111658773D01*
X143253398Y-111767487D01*
X143233273Y-111825000D01*
X143213555Y-112000000D01*
X143233273Y-112175000D01*
X143246764Y-112213555D01*
X143291437Y-112341225D01*
X143291438Y-112341226D01*
X143385133Y-112490340D01*
X143385135Y-112490343D01*
X143385136Y-112490343D01*
X143385136Y-112490344D01*
X143509655Y-112614863D01*
X143509657Y-112614864D01*
X143509660Y-112614867D01*
X143658774Y-112708562D01*
X143825000Y-112766727D01*
X144000000Y-112786445D01*
X144175000Y-112766727D01*
X144341226Y-112708562D01*
X144490340Y-112614867D01*
X144614867Y-112490340D01*
X144708562Y-112341226D01*
X144766727Y-112175000D01*
X144786445Y-112000000D01*
X144766727Y-111825000D01*
X144708562Y-111658774D01*
X144614867Y-111509660D01*
X144614863Y-111509656D01*
X144614863Y-111509655D01*
X144543405Y-111438197D01*
X144509379Y-111375885D01*
X144506500Y-111349102D01*
X144506500Y-109000000D01*
X159213555Y-109000000D01*
X159233273Y-109175000D01*
X159233274Y-109175002D01*
X159291437Y-109341225D01*
X159291438Y-109341226D01*
X159385133Y-109490340D01*
X159385136Y-109490343D01*
X159385136Y-109490344D01*
X159509655Y-109614863D01*
X159509657Y-109614864D01*
X159509660Y-109614867D01*
X159658774Y-109708562D01*
X159825000Y-109766727D01*
X160000000Y-109786445D01*
X160175000Y-109766727D01*
X160341226Y-109708562D01*
X160490340Y-109614867D01*
X160561803Y-109543403D01*
X160624113Y-109509380D01*
X160650897Y-109506500D01*
X163738011Y-109506500D01*
X163806132Y-109526502D01*
X163827106Y-109543405D01*
X171177751Y-116894050D01*
X171211777Y-116956362D01*
X171213865Y-116997242D01*
X171213555Y-116999995D01*
X171213555Y-116999996D01*
X171213555Y-117000000D01*
X171233273Y-117175000D01*
X171233274Y-117175002D01*
X171291437Y-117341225D01*
X171291438Y-117341226D01*
X171385133Y-117490340D01*
X171385136Y-117490343D01*
X171385136Y-117490344D01*
X171509655Y-117614863D01*
X171509657Y-117614864D01*
X171509660Y-117614867D01*
X171658774Y-117708562D01*
X171825000Y-117766727D01*
X172000000Y-117786445D01*
X172175000Y-117766727D01*
X172341226Y-117708562D01*
X172490340Y-117614867D01*
X172614867Y-117490340D01*
X172708562Y-117341226D01*
X172766727Y-117175000D01*
X172786445Y-117000000D01*
X172766727Y-116825000D01*
X172708562Y-116658774D01*
X172614867Y-116509660D01*
X172614863Y-116509656D01*
X172614863Y-116509655D01*
X172490344Y-116385136D01*
X172490341Y-116385134D01*
X172490340Y-116385133D01*
X172378177Y-116314656D01*
X172341225Y-116291437D01*
X172227509Y-116251646D01*
X172175000Y-116233273D01*
X172000000Y-116213555D01*
X171999998Y-116213555D01*
X171999997Y-116213555D01*
X171999995Y-116213555D01*
X171997242Y-116213865D01*
X171995473Y-116213555D01*
X171992924Y-116213555D01*
X171992924Y-116213108D01*
X171927311Y-116201610D01*
X171894050Y-116177751D01*
X164406231Y-108689932D01*
X164389327Y-108668955D01*
X164386723Y-108664903D01*
X164347059Y-108630534D01*
X164343778Y-108627479D01*
X164332537Y-108616238D01*
X164332536Y-108616237D01*
X164332535Y-108616236D01*
X164332533Y-108616235D01*
X164319820Y-108606718D01*
X164316318Y-108603896D01*
X164276651Y-108569525D01*
X164276650Y-108569524D01*
X164272256Y-108567517D01*
X164249099Y-108553777D01*
X164245235Y-108550885D01*
X164218450Y-108540894D01*
X164196063Y-108532544D01*
X164191909Y-108530823D01*
X164144166Y-108509020D01*
X164144165Y-108509019D01*
X164139377Y-108508331D01*
X164113292Y-108501672D01*
X164108771Y-108499986D01*
X164056411Y-108496240D01*
X164051950Y-108495761D01*
X164036222Y-108493500D01*
X164020333Y-108493500D01*
X164015837Y-108493339D01*
X163963497Y-108489596D01*
X163963494Y-108489596D01*
X163958783Y-108490621D01*
X163932002Y-108493500D01*
X160650897Y-108493500D01*
X160582776Y-108473498D01*
X160561806Y-108456599D01*
X160490340Y-108385133D01*
X160415783Y-108338285D01*
X160341225Y-108291437D01*
X160227509Y-108251646D01*
X160175000Y-108233273D01*
X160000000Y-108213555D01*
X159825000Y-108233273D01*
X159824997Y-108233273D01*
X159824997Y-108233274D01*
X159658774Y-108291437D01*
X159558467Y-108354465D01*
X159509660Y-108385133D01*
X159509658Y-108385134D01*
X159509656Y-108385136D01*
X159509655Y-108385136D01*
X159385136Y-108509655D01*
X159385136Y-108509656D01*
X159385134Y-108509658D01*
X159385133Y-108509660D01*
X159357414Y-108553774D01*
X159291437Y-108658774D01*
X159245631Y-108789682D01*
X159233273Y-108825000D01*
X159213555Y-109000000D01*
X144506500Y-109000000D01*
X144506500Y-107261988D01*
X144526502Y-107193867D01*
X144543399Y-107172898D01*
X144894052Y-106822245D01*
X144956361Y-106788223D01*
X144997254Y-106786136D01*
X144999996Y-106786445D01*
X144999997Y-106786445D01*
X144999998Y-106786444D01*
X145000000Y-106786445D01*
X145175000Y-106766727D01*
X145341226Y-106708562D01*
X145490340Y-106614867D01*
X145614867Y-106490340D01*
X145708562Y-106341226D01*
X145766727Y-106175000D01*
X145786445Y-106000000D01*
X145766727Y-105825000D01*
X145708562Y-105658774D01*
X145614867Y-105509660D01*
X145614863Y-105509656D01*
X145614863Y-105509655D01*
X145490344Y-105385136D01*
X145490341Y-105385134D01*
X145490340Y-105385133D01*
X145405797Y-105332011D01*
X145341225Y-105291437D01*
X145227509Y-105251646D01*
X145175000Y-105233273D01*
X145000000Y-105213555D01*
X144825000Y-105233273D01*
X144824997Y-105233273D01*
X144824997Y-105233274D01*
X144658774Y-105291437D01*
X144509658Y-105385134D01*
X144473928Y-105420864D01*
X144438196Y-105456596D01*
X144375887Y-105490620D01*
X144349103Y-105493500D01*
X142261989Y-105493500D01*
X142193868Y-105473498D01*
X142172894Y-105456595D01*
X141822248Y-105105949D01*
X141788222Y-105043637D01*
X141786136Y-105002741D01*
X141786445Y-105000000D01*
X141766727Y-104825000D01*
X141708562Y-104658774D01*
X141614867Y-104509660D01*
X141614863Y-104509656D01*
X141614863Y-104509655D01*
X141490344Y-104385136D01*
X141490341Y-104385134D01*
X141490340Y-104385133D01*
X141405797Y-104332011D01*
X141341225Y-104291437D01*
X141202115Y-104242761D01*
X141175000Y-104233273D01*
X141000000Y-104213555D01*
X140999999Y-104213555D01*
X140974544Y-104216423D01*
X140825000Y-104233273D01*
X140824997Y-104233273D01*
X140824997Y-104233274D01*
X140658774Y-104291437D01*
X140589194Y-104335158D01*
X140509660Y-104385133D01*
X140509658Y-104385134D01*
X140509656Y-104385136D01*
X140509655Y-104385136D01*
X140385136Y-104509655D01*
X140385136Y-104509656D01*
X140291437Y-104658774D01*
X140236103Y-104816911D01*
X140233273Y-104825000D01*
X140213555Y-105000000D01*
X139006500Y-105000000D01*
X139006500Y-101067996D01*
X139009379Y-101041215D01*
X139010404Y-101036505D01*
X139008004Y-101002959D01*
X139006661Y-100984163D01*
X139006500Y-100979667D01*
X139006500Y-100963775D01*
X139004238Y-100948052D01*
X139003759Y-100943604D01*
X139000014Y-100891229D01*
X138998327Y-100886708D01*
X138991665Y-100860602D01*
X138991652Y-100860513D01*
X138990980Y-100855835D01*
X138969176Y-100808092D01*
X138967455Y-100803935D01*
X138959451Y-100782479D01*
X138949115Y-100754765D01*
X138946222Y-100750900D01*
X138932479Y-100727736D01*
X138930476Y-100723350D01*
X138896113Y-100683693D01*
X138893290Y-100680190D01*
X138889405Y-100675000D01*
X138883763Y-100667463D01*
X138872505Y-100656205D01*
X138869467Y-100652942D01*
X138835097Y-100613277D01*
X138835096Y-100613276D01*
X138829266Y-100608224D01*
X138790881Y-100548499D01*
X138787283Y-100507077D01*
X138786445Y-100507077D01*
X138786445Y-100500003D01*
X138786445Y-100500000D01*
X138766727Y-100325000D01*
X138708562Y-100158774D01*
X138614867Y-100009660D01*
X138614863Y-100009656D01*
X138614863Y-100009655D01*
X138490344Y-99885136D01*
X138490341Y-99885134D01*
X138490340Y-99885133D01*
X138405797Y-99832011D01*
X138341225Y-99791437D01*
X138227509Y-99751646D01*
X138175000Y-99733273D01*
X138000000Y-99713555D01*
X137825000Y-99733273D01*
X137824997Y-99733273D01*
X137824997Y-99733274D01*
X137658774Y-99791437D01*
X137558467Y-99854465D01*
X137509660Y-99885133D01*
X137509658Y-99885134D01*
X137509656Y-99885136D01*
X137509655Y-99885136D01*
X137385136Y-100009655D01*
X137385136Y-100009656D01*
X137291437Y-100158774D01*
X137236522Y-100315716D01*
X137233273Y-100325000D01*
X137213555Y-100500000D01*
X134605208Y-100500000D01*
X134490344Y-100385136D01*
X134490341Y-100385134D01*
X134490340Y-100385133D01*
X134479512Y-100378329D01*
X134432476Y-100325149D01*
X134421659Y-100254981D01*
X134450494Y-100190104D01*
X134457445Y-100182561D01*
X139736225Y-94903781D01*
X139798535Y-94869757D01*
X139851512Y-94869631D01*
X139907351Y-94881500D01*
X139907354Y-94881500D01*
X140042300Y-94881500D01*
X140110421Y-94901502D01*
X140131395Y-94918405D01*
X146099778Y-100886788D01*
X146145498Y-100935742D01*
X146183733Y-100958993D01*
X146189046Y-100962610D01*
X146224689Y-100989639D01*
X146241507Y-100996271D01*
X146260750Y-101005828D01*
X146276205Y-101015227D01*
X146292230Y-101019716D01*
X146319276Y-101027295D01*
X146325396Y-101029353D01*
X146343533Y-101036505D01*
X146367002Y-101045760D01*
X146367000Y-101045760D01*
X146384987Y-101047609D01*
X146406097Y-101051620D01*
X146423511Y-101056500D01*
X146468247Y-101056500D01*
X146474695Y-101056831D01*
X146519176Y-101061404D01*
X146519176Y-101061403D01*
X146519178Y-101061404D01*
X146533289Y-101058971D01*
X146536996Y-101058332D01*
X146558403Y-101056500D01*
X154758800Y-101056500D01*
X154826921Y-101076502D01*
X154852436Y-101098189D01*
X154906912Y-101158691D01*
X155056822Y-101267607D01*
X155222170Y-101341225D01*
X155226101Y-101342975D01*
X155407350Y-101381500D01*
X155407351Y-101381500D01*
X155592650Y-101381500D01*
X155683274Y-101362237D01*
X155773899Y-101342975D01*
X155943178Y-101267607D01*
X156093088Y-101158691D01*
X156096741Y-101154634D01*
X156217073Y-101020992D01*
X156217074Y-101020990D01*
X156217077Y-101020987D01*
X156309726Y-100860513D01*
X156366987Y-100684284D01*
X156386356Y-100500000D01*
X156366987Y-100315716D01*
X156309726Y-100139487D01*
X156217077Y-99979013D01*
X156217076Y-99979012D01*
X156217073Y-99979007D01*
X156093090Y-99841310D01*
X155943178Y-99732393D01*
X155773898Y-99657024D01*
X155592650Y-99618500D01*
X155592649Y-99618500D01*
X155407351Y-99618500D01*
X155407350Y-99618500D01*
X155226101Y-99657024D01*
X155056821Y-99732393D01*
X154906912Y-99841308D01*
X154852437Y-99901810D01*
X154791991Y-99939050D01*
X154758800Y-99943500D01*
X146782700Y-99943500D01*
X146714579Y-99923498D01*
X146693605Y-99906595D01*
X142237010Y-95450000D01*
X163213555Y-95450000D01*
X163233273Y-95625000D01*
X163233274Y-95625002D01*
X163291437Y-95791225D01*
X163291438Y-95791226D01*
X163385133Y-95940340D01*
X163385136Y-95940343D01*
X163385136Y-95940344D01*
X163509655Y-96064863D01*
X163509657Y-96064864D01*
X163509660Y-96064867D01*
X163658774Y-96158562D01*
X163825000Y-96216727D01*
X164000000Y-96236445D01*
X164175000Y-96216727D01*
X164341226Y-96158562D01*
X164490340Y-96064867D01*
X164614867Y-95940340D01*
X164708562Y-95791226D01*
X164766727Y-95625000D01*
X164786445Y-95450000D01*
X164766727Y-95275000D01*
X164708562Y-95108774D01*
X164614867Y-94959660D01*
X164614863Y-94959656D01*
X164614863Y-94959655D01*
X164543405Y-94888197D01*
X164509379Y-94825885D01*
X164506500Y-94799102D01*
X164506500Y-91261987D01*
X164526502Y-91193866D01*
X164543400Y-91172897D01*
X164894051Y-90822246D01*
X164956361Y-90788222D01*
X164997254Y-90786136D01*
X164999996Y-90786445D01*
X164999997Y-90786445D01*
X164999998Y-90786444D01*
X165000000Y-90786445D01*
X165175000Y-90766727D01*
X165341226Y-90708562D01*
X165490340Y-90614867D01*
X165605208Y-90499999D01*
X166613644Y-90499999D01*
X166633012Y-90684283D01*
X166645706Y-90723349D01*
X166690274Y-90860513D01*
X166705394Y-90886701D01*
X166782921Y-91020984D01*
X166782926Y-91020991D01*
X166911136Y-91163383D01*
X166941854Y-91227390D01*
X166943500Y-91247693D01*
X166943500Y-94990499D01*
X166941213Y-95057444D01*
X166951803Y-95100909D01*
X166953007Y-95107246D01*
X166959098Y-95151548D01*
X166959102Y-95151562D01*
X166966303Y-95168141D01*
X166973150Y-95188501D01*
X166977430Y-95206066D01*
X166977432Y-95206071D01*
X166977433Y-95206074D01*
X166977434Y-95206075D01*
X166999350Y-95245054D01*
X167002222Y-95250835D01*
X167020042Y-95291862D01*
X167020046Y-95291869D01*
X167031453Y-95305889D01*
X167043546Y-95323657D01*
X167052406Y-95339415D01*
X167052407Y-95339416D01*
X167052409Y-95339419D01*
X167080595Y-95367605D01*
X167114620Y-95429915D01*
X167116810Y-95469867D01*
X167113644Y-95499997D01*
X167113644Y-95499998D01*
X167133012Y-95684283D01*
X167162188Y-95774074D01*
X167190274Y-95860513D01*
X167190277Y-95860518D01*
X167282921Y-96020984D01*
X167282926Y-96020992D01*
X167406909Y-96158689D01*
X167406912Y-96158691D01*
X167556822Y-96267607D01*
X167726100Y-96342974D01*
X167726101Y-96342975D01*
X167907350Y-96381500D01*
X167907351Y-96381500D01*
X168092650Y-96381500D01*
X168183273Y-96362237D01*
X168273899Y-96342975D01*
X168443178Y-96267607D01*
X168593088Y-96158691D01*
X168593204Y-96158562D01*
X168717073Y-96020992D01*
X168717074Y-96020990D01*
X168717077Y-96020987D01*
X168809726Y-95860513D01*
X168866987Y-95684284D01*
X168886356Y-95500000D01*
X168866987Y-95315716D01*
X168809726Y-95139487D01*
X168717077Y-94979013D01*
X168717076Y-94979012D01*
X168717073Y-94979007D01*
X168593090Y-94841310D01*
X168443178Y-94732393D01*
X168273899Y-94657025D01*
X168156303Y-94632029D01*
X168093829Y-94598300D01*
X168059508Y-94536151D01*
X168056500Y-94508782D01*
X168056500Y-91247693D01*
X168076502Y-91179572D01*
X168088864Y-91163383D01*
X168198869Y-91041209D01*
X168217077Y-91020987D01*
X168309726Y-90860513D01*
X168366987Y-90684284D01*
X168386356Y-90500000D01*
X168366987Y-90315716D01*
X168309726Y-90139487D01*
X168217077Y-89979013D01*
X168217076Y-89979012D01*
X168217073Y-89979007D01*
X168093090Y-89841310D01*
X167943178Y-89732393D01*
X167773898Y-89657024D01*
X167592650Y-89618500D01*
X167592649Y-89618500D01*
X167407351Y-89618500D01*
X167407350Y-89618500D01*
X167226101Y-89657024D01*
X167056821Y-89732393D01*
X166906909Y-89841310D01*
X166782926Y-89979007D01*
X166782921Y-89979015D01*
X166690277Y-90139481D01*
X166690274Y-90139488D01*
X166633012Y-90315716D01*
X166613644Y-90499999D01*
X165605208Y-90499999D01*
X165614867Y-90490340D01*
X165708562Y-90341226D01*
X165766727Y-90175000D01*
X165786445Y-90000000D01*
X165766727Y-89825000D01*
X165708562Y-89658774D01*
X165614867Y-89509660D01*
X165614863Y-89509656D01*
X165614863Y-89509655D01*
X165490344Y-89385136D01*
X165490341Y-89385134D01*
X165490340Y-89385133D01*
X165405797Y-89332011D01*
X165341225Y-89291437D01*
X165227509Y-89251646D01*
X165175000Y-89233273D01*
X165000000Y-89213555D01*
X164999999Y-89213555D01*
X164974544Y-89216423D01*
X164825000Y-89233273D01*
X164824997Y-89233273D01*
X164824997Y-89233274D01*
X164658774Y-89291437D01*
X164558467Y-89354465D01*
X164509660Y-89385133D01*
X164509658Y-89385134D01*
X164509656Y-89385136D01*
X164509655Y-89385136D01*
X164385136Y-89509655D01*
X164385136Y-89509656D01*
X164291437Y-89658774D01*
X164233274Y-89824997D01*
X164233273Y-89825000D01*
X164213555Y-89999999D01*
X164213555Y-90000001D01*
X164213865Y-90002753D01*
X164213555Y-90004522D01*
X164213555Y-90007076D01*
X164213107Y-90007076D01*
X164201611Y-90072684D01*
X164177751Y-90105948D01*
X163689932Y-90593767D01*
X163668965Y-90610666D01*
X163664902Y-90613277D01*
X163630540Y-90652932D01*
X163627477Y-90656223D01*
X163616235Y-90667465D01*
X163606714Y-90680183D01*
X163603895Y-90683681D01*
X163569524Y-90723349D01*
X163567514Y-90727750D01*
X163553781Y-90750894D01*
X163550886Y-90754761D01*
X163550884Y-90754765D01*
X163532545Y-90803933D01*
X163530824Y-90808087D01*
X163509021Y-90855829D01*
X163509019Y-90855837D01*
X163508331Y-90860622D01*
X163501674Y-90886701D01*
X163499986Y-90891227D01*
X163496240Y-90943579D01*
X163495761Y-90948044D01*
X163493500Y-90963773D01*
X163493500Y-90979667D01*
X163493339Y-90984163D01*
X163489596Y-91036502D01*
X163489596Y-91036505D01*
X163490620Y-91041215D01*
X163493500Y-91067996D01*
X163493500Y-94799101D01*
X163473498Y-94867222D01*
X163456596Y-94888196D01*
X163385130Y-94959662D01*
X163291439Y-95108771D01*
X163291438Y-95108773D01*
X163242763Y-95247878D01*
X163233273Y-95275000D01*
X163213555Y-95450000D01*
X142237010Y-95450000D01*
X140919404Y-94132394D01*
X140885378Y-94070082D01*
X140883189Y-94030128D01*
X140886356Y-94000000D01*
X140866987Y-93815716D01*
X140809726Y-93639487D01*
X140717077Y-93479013D01*
X140717076Y-93479012D01*
X140717073Y-93479007D01*
X140593090Y-93341310D01*
X140443178Y-93232393D01*
X140273898Y-93157024D01*
X140092650Y-93118500D01*
X140092649Y-93118500D01*
X139907351Y-93118500D01*
X139907350Y-93118500D01*
X139726101Y-93157024D01*
X139556821Y-93232393D01*
X139406909Y-93341310D01*
X139282926Y-93479007D01*
X139282921Y-93479015D01*
X139190277Y-93639481D01*
X139190274Y-93639488D01*
X139133014Y-93815711D01*
X139123905Y-93902373D01*
X139096891Y-93968029D01*
X139087690Y-93978296D01*
X130613211Y-102452776D01*
X130564261Y-102498493D01*
X130564255Y-102498499D01*
X130541014Y-102536718D01*
X130537382Y-102542054D01*
X130510362Y-102577684D01*
X130510360Y-102577688D01*
X130503724Y-102594514D01*
X130494170Y-102613749D01*
X130484773Y-102629201D01*
X130484772Y-102629205D01*
X130472706Y-102672267D01*
X130470649Y-102678384D01*
X130454238Y-102720001D01*
X130452388Y-102737995D01*
X130448379Y-102759090D01*
X130443500Y-102776507D01*
X130443500Y-102821234D01*
X130443169Y-102827681D01*
X130438594Y-102872174D01*
X122431500Y-102872174D01*
X122431500Y-102843995D01*
X122434380Y-102817214D01*
X122435405Y-102812504D01*
X122431662Y-102760162D01*
X122431501Y-102755666D01*
X122431501Y-102739774D01*
X122429239Y-102724051D01*
X122428760Y-102719603D01*
X122425015Y-102667228D01*
X122423328Y-102662707D01*
X122416666Y-102636601D01*
X122415981Y-102631836D01*
X122415981Y-102631834D01*
X122394177Y-102584091D01*
X122392455Y-102579934D01*
X122390788Y-102575464D01*
X122374116Y-102530764D01*
X122371223Y-102526899D01*
X122357479Y-102503732D01*
X122355478Y-102499350D01*
X122321112Y-102459690D01*
X122318290Y-102456188D01*
X122315709Y-102452741D01*
X122308763Y-102443462D01*
X122297512Y-102432211D01*
X122294459Y-102428931D01*
X122260100Y-102389277D01*
X122260095Y-102389273D01*
X122256038Y-102386666D01*
X122235066Y-102369765D01*
X121580223Y-101714922D01*
X121563319Y-101693945D01*
X121560715Y-101689893D01*
X121521051Y-101655524D01*
X121517770Y-101652469D01*
X121506529Y-101641228D01*
X121506528Y-101641227D01*
X121506527Y-101641226D01*
X121506525Y-101641225D01*
X121493812Y-101631708D01*
X121490310Y-101628886D01*
X121450643Y-101594515D01*
X121450642Y-101594514D01*
X121446248Y-101592507D01*
X121423091Y-101578767D01*
X121419227Y-101575875D01*
X121392442Y-101565884D01*
X121370055Y-101557534D01*
X121365901Y-101555813D01*
X121318158Y-101534010D01*
X121318157Y-101534009D01*
X121313369Y-101533321D01*
X121287284Y-101526662D01*
X121282763Y-101524976D01*
X121282762Y-101524976D01*
X121230403Y-101521230D01*
X121225942Y-101520751D01*
X121210214Y-101518490D01*
X121194325Y-101518490D01*
X121189829Y-101518329D01*
X121137489Y-101514586D01*
X121137486Y-101514586D01*
X121132775Y-101515611D01*
X121105994Y-101518490D01*
X119823724Y-101518490D01*
X119755603Y-101498488D01*
X119709110Y-101444832D01*
X119699006Y-101374558D01*
X119707040Y-101348190D01*
X119706225Y-101347905D01*
X119722775Y-101300608D01*
X119766727Y-101175000D01*
X119786445Y-101000000D01*
X119766727Y-100825000D01*
X119708562Y-100658774D01*
X119614867Y-100509660D01*
X119614863Y-100509656D01*
X119614863Y-100509655D01*
X119490344Y-100385136D01*
X119490341Y-100385134D01*
X119490340Y-100385133D01*
X119405797Y-100332011D01*
X119341225Y-100291437D01*
X119227509Y-100251646D01*
X119175000Y-100233273D01*
X119000000Y-100213555D01*
X118825000Y-100233273D01*
X118824997Y-100233273D01*
X118824997Y-100233274D01*
X118658774Y-100291437D01*
X118558467Y-100354465D01*
X118509660Y-100385133D01*
X118509658Y-100385134D01*
X118509656Y-100385136D01*
X118509655Y-100385136D01*
X118385136Y-100509655D01*
X118385136Y-100509656D01*
X118291437Y-100658774D01*
X118239189Y-100808092D01*
X118233273Y-100825000D01*
X118213555Y-100999999D01*
X118213555Y-101000003D01*
X118213555Y-101007076D01*
X118211997Y-101007076D01*
X118201178Y-101068827D01*
X118170742Y-101108216D01*
X118164904Y-101113275D01*
X118130540Y-101152932D01*
X118127477Y-101156223D01*
X118116235Y-101167465D01*
X118106714Y-101180183D01*
X118103895Y-101183681D01*
X118069524Y-101223349D01*
X118067514Y-101227750D01*
X118053781Y-101250894D01*
X118050886Y-101254761D01*
X118050884Y-101254765D01*
X118032545Y-101303933D01*
X118030824Y-101308087D01*
X118009021Y-101355829D01*
X118009019Y-101355837D01*
X118008331Y-101360622D01*
X118001674Y-101386701D01*
X117996839Y-101399667D01*
X117995167Y-101399043D01*
X117966320Y-101451867D01*
X117904005Y-101485888D01*
X117833190Y-101480819D01*
X117785906Y-101449576D01*
X117692619Y-101351438D01*
X117692615Y-101351435D01*
X117528781Y-101237403D01*
X117399642Y-101181985D01*
X117382809Y-101174761D01*
X117328098Y-101129517D01*
X117306532Y-101061874D01*
X117306499Y-101059060D01*
X117306499Y-92000000D01*
X145113644Y-92000000D01*
X145133012Y-92184283D01*
X145162188Y-92274074D01*
X145190274Y-92360513D01*
X145190277Y-92360518D01*
X145282921Y-92520984D01*
X145282926Y-92520992D01*
X145406909Y-92658689D01*
X145406912Y-92658691D01*
X145556822Y-92767607D01*
X145726100Y-92842974D01*
X145726101Y-92842975D01*
X145907350Y-92881500D01*
X145907351Y-92881500D01*
X146092650Y-92881500D01*
X146183274Y-92862237D01*
X146273899Y-92842975D01*
X146443178Y-92767607D01*
X146593088Y-92658691D01*
X146647563Y-92598189D01*
X146708009Y-92560950D01*
X146741200Y-92556500D01*
X157258800Y-92556500D01*
X157326921Y-92576502D01*
X157352436Y-92598189D01*
X157406912Y-92658691D01*
X157556822Y-92767607D01*
X157726100Y-92842974D01*
X157726101Y-92842975D01*
X157907350Y-92881500D01*
X157907351Y-92881500D01*
X158092650Y-92881500D01*
X158183274Y-92862237D01*
X158273899Y-92842975D01*
X158443178Y-92767607D01*
X158593088Y-92658691D01*
X158593090Y-92658689D01*
X158717073Y-92520992D01*
X158717074Y-92520990D01*
X158717077Y-92520987D01*
X158809726Y-92360513D01*
X158866987Y-92184284D01*
X158886356Y-92000000D01*
X159713555Y-92000000D01*
X159733273Y-92175000D01*
X159736522Y-92184284D01*
X159791437Y-92341225D01*
X159803557Y-92360513D01*
X159885133Y-92490340D01*
X159885136Y-92490343D01*
X159885136Y-92490344D01*
X160009655Y-92614863D01*
X160009657Y-92614864D01*
X160009660Y-92614867D01*
X160158774Y-92708562D01*
X160325000Y-92766727D01*
X160500000Y-92786445D01*
X160675000Y-92766727D01*
X160841226Y-92708562D01*
X160990340Y-92614867D01*
X161114867Y-92490340D01*
X161208562Y-92341226D01*
X161266727Y-92175000D01*
X161286445Y-92000000D01*
X161286136Y-91997254D01*
X161286445Y-91995489D01*
X161286445Y-91992923D01*
X161286894Y-91992923D01*
X161298383Y-91927322D01*
X161322245Y-91894052D01*
X164672893Y-88543405D01*
X164735206Y-88509379D01*
X164761989Y-88506500D01*
X165349103Y-88506500D01*
X165417224Y-88526502D01*
X165438193Y-88543400D01*
X165509660Y-88614867D01*
X165658774Y-88708562D01*
X165825000Y-88766727D01*
X166000000Y-88786445D01*
X166175000Y-88766727D01*
X166341226Y-88708562D01*
X166490340Y-88614867D01*
X166614867Y-88490340D01*
X166708562Y-88341226D01*
X166766727Y-88175000D01*
X166786445Y-88000000D01*
X166766727Y-87825000D01*
X166708562Y-87658774D01*
X166614867Y-87509660D01*
X166614863Y-87509656D01*
X166614863Y-87509655D01*
X166490344Y-87385136D01*
X166490341Y-87385134D01*
X166490340Y-87385133D01*
X166360814Y-87303746D01*
X166341225Y-87291437D01*
X166211677Y-87246107D01*
X166175000Y-87233273D01*
X166000000Y-87213555D01*
X165825000Y-87233273D01*
X165824997Y-87233273D01*
X165824997Y-87233274D01*
X165658774Y-87291437D01*
X165509658Y-87385134D01*
X165473928Y-87420864D01*
X165438196Y-87456596D01*
X165375887Y-87490620D01*
X165349103Y-87493500D01*
X164567997Y-87493500D01*
X164541212Y-87490620D01*
X164536505Y-87489596D01*
X164536503Y-87489595D01*
X164484168Y-87493339D01*
X164479671Y-87493500D01*
X164463778Y-87493500D01*
X164448044Y-87495761D01*
X164443577Y-87496241D01*
X164391226Y-87499987D01*
X164386703Y-87501674D01*
X164360616Y-87508332D01*
X164355837Y-87509019D01*
X164355836Y-87509019D01*
X164308089Y-87530824D01*
X164303936Y-87532544D01*
X164254763Y-87550885D01*
X164254760Y-87550887D01*
X164250894Y-87553781D01*
X164227750Y-87567514D01*
X164223349Y-87569524D01*
X164183681Y-87603895D01*
X164180183Y-87606714D01*
X164167465Y-87616235D01*
X164156223Y-87627477D01*
X164152932Y-87630540D01*
X164113277Y-87664902D01*
X164110666Y-87668965D01*
X164093767Y-87689932D01*
X160605948Y-91177751D01*
X160543636Y-91211777D01*
X160502753Y-91213865D01*
X160500001Y-91213555D01*
X160500000Y-91213555D01*
X160325000Y-91233273D01*
X160324997Y-91233273D01*
X160324997Y-91233274D01*
X160158774Y-91291437D01*
X160058467Y-91354465D01*
X160009660Y-91385133D01*
X160009658Y-91385134D01*
X160009656Y-91385136D01*
X160009655Y-91385136D01*
X159885136Y-91509655D01*
X159885136Y-91509656D01*
X159791437Y-91658774D01*
X159736522Y-91815716D01*
X159733273Y-91825000D01*
X159713555Y-92000000D01*
X158886356Y-92000000D01*
X158866987Y-91815716D01*
X158809726Y-91639487D01*
X158717077Y-91479013D01*
X158717076Y-91479012D01*
X158717073Y-91479007D01*
X158593090Y-91341310D01*
X158443178Y-91232393D01*
X158273898Y-91157024D01*
X158092650Y-91118500D01*
X158092649Y-91118500D01*
X157907351Y-91118500D01*
X157907350Y-91118500D01*
X157726101Y-91157024D01*
X157556821Y-91232393D01*
X157406912Y-91341308D01*
X157352437Y-91401810D01*
X157291991Y-91439050D01*
X157258800Y-91443500D01*
X146741200Y-91443500D01*
X146673079Y-91423498D01*
X146647563Y-91401810D01*
X146593087Y-91341308D01*
X146443178Y-91232393D01*
X146273898Y-91157024D01*
X146092650Y-91118500D01*
X146092649Y-91118500D01*
X145907351Y-91118500D01*
X145907350Y-91118500D01*
X145726101Y-91157024D01*
X145556821Y-91232393D01*
X145406909Y-91341310D01*
X145282926Y-91479007D01*
X145282921Y-91479015D01*
X145190277Y-91639481D01*
X145190274Y-91639488D01*
X145133012Y-91815716D01*
X145113644Y-92000000D01*
X117306499Y-92000000D01*
X117306499Y-88532698D01*
X117326501Y-88464578D01*
X117343399Y-88443609D01*
X117540062Y-88246946D01*
X117602372Y-88212922D01*
X117673187Y-88217987D01*
X117689849Y-88225624D01*
X117898678Y-88340429D01*
X118200695Y-88460007D01*
X118515319Y-88540788D01*
X118837586Y-88581500D01*
X118837589Y-88581500D01*
X119162411Y-88581500D01*
X119162414Y-88581500D01*
X119484681Y-88540788D01*
X119799305Y-88460007D01*
X120101322Y-88340429D01*
X120385972Y-88183942D01*
X120648763Y-87993013D01*
X120885553Y-87770652D01*
X120885560Y-87770643D01*
X120885562Y-87770642D01*
X121013296Y-87616238D01*
X121092607Y-87520368D01*
X121266658Y-87246106D01*
X121404964Y-86952192D01*
X121505341Y-86643262D01*
X121566208Y-86324187D01*
X121586604Y-86000000D01*
X121574239Y-85803465D01*
X121589924Y-85734224D01*
X121610888Y-85706466D01*
X122280452Y-85036902D01*
X122342762Y-85002879D01*
X122369545Y-85000000D01*
X178874000Y-85000000D01*
X178942121Y-85020002D01*
X178988614Y-85073658D01*
X179000000Y-85126000D01*
X179000000Y-128874000D01*
X178979998Y-128942121D01*
X178926342Y-128988614D01*
X178874000Y-129000000D01*
X169000000Y-129000000D01*
X122369546Y-129000000D01*
X122301425Y-128979998D01*
X122280451Y-128963095D01*
X121610895Y-128293539D01*
X121576869Y-128231227D01*
X121574239Y-128196532D01*
X121586604Y-128000005D01*
X121586604Y-127999993D01*
X121566209Y-127675825D01*
X121566207Y-127675808D01*
X121505341Y-127356738D01*
X121404964Y-127047808D01*
X121266658Y-126753894D01*
X121266652Y-126753884D01*
X121092607Y-126479631D01*
X121092604Y-126479628D01*
X120885562Y-126229357D01*
X120885558Y-126229354D01*
X120885557Y-126229353D01*
X120885553Y-126229348D01*
X120719759Y-126073657D01*
X120648766Y-126006989D01*
X120385974Y-125816059D01*
X120248530Y-125740499D01*
X120101322Y-125659571D01*
X119799305Y-125539993D01*
X119799302Y-125539992D01*
X119799299Y-125539991D01*
X119643541Y-125500000D01*
X147563634Y-125500000D01*
X147583002Y-125684283D01*
X147605347Y-125753051D01*
X147640264Y-125860513D01*
X147640267Y-125860518D01*
X147732911Y-126020984D01*
X147732916Y-126020992D01*
X147856895Y-126158685D01*
X147856898Y-126158688D01*
X147856901Y-126158690D01*
X147856902Y-126158691D01*
X148006812Y-126267607D01*
X148176091Y-126342974D01*
X148176091Y-126342975D01*
X148357340Y-126381500D01*
X148357341Y-126381500D01*
X148542640Y-126381500D01*
X148633264Y-126362237D01*
X148723889Y-126342975D01*
X148893168Y-126267607D01*
X149043078Y-126158691D01*
X149097553Y-126098189D01*
X149157999Y-126060950D01*
X149191190Y-126056500D01*
X149358790Y-126056500D01*
X149426911Y-126076502D01*
X149452426Y-126098189D01*
X149506902Y-126158691D01*
X149656812Y-126267607D01*
X149826090Y-126342974D01*
X149826091Y-126342975D01*
X150007340Y-126381500D01*
X150007341Y-126381500D01*
X150192640Y-126381500D01*
X150283264Y-126362237D01*
X150373889Y-126342975D01*
X150543168Y-126267607D01*
X150693078Y-126158691D01*
X150693080Y-126158688D01*
X150693085Y-126158685D01*
X150817063Y-126020992D01*
X150817064Y-126020990D01*
X150817067Y-126020987D01*
X150909716Y-125860513D01*
X150966977Y-125684284D01*
X150986346Y-125500000D01*
X150966977Y-125315716D01*
X150909716Y-125139487D01*
X150817067Y-124979013D01*
X150817066Y-124979012D01*
X150817063Y-124979007D01*
X150693082Y-124841312D01*
X150693076Y-124841308D01*
X150608438Y-124779814D01*
X150565085Y-124723591D01*
X150556500Y-124677878D01*
X150556500Y-121747693D01*
X150576502Y-121679572D01*
X150588864Y-121663383D01*
X150717073Y-121520991D01*
X150717077Y-121520987D01*
X150809726Y-121360513D01*
X150866987Y-121184284D01*
X150886356Y-121000000D01*
X150866987Y-120815716D01*
X150809726Y-120639487D01*
X150717077Y-120479013D01*
X150717076Y-120479012D01*
X150717073Y-120479007D01*
X150593090Y-120341310D01*
X150443178Y-120232393D01*
X150273898Y-120157024D01*
X150092650Y-120118500D01*
X150092649Y-120118500D01*
X149907351Y-120118500D01*
X149907350Y-120118500D01*
X149726101Y-120157024D01*
X149556821Y-120232393D01*
X149406909Y-120341310D01*
X149282926Y-120479007D01*
X149282921Y-120479015D01*
X149232104Y-120567034D01*
X149190274Y-120639487D01*
X149181536Y-120666379D01*
X149133012Y-120815716D01*
X149113644Y-121000000D01*
X149133012Y-121184283D01*
X149155691Y-121254079D01*
X149190274Y-121360513D01*
X149190277Y-121360518D01*
X149282921Y-121520984D01*
X149282926Y-121520991D01*
X149411136Y-121663383D01*
X149441854Y-121727390D01*
X149443500Y-121747693D01*
X149443500Y-124817500D01*
X149423498Y-124885621D01*
X149369842Y-124932114D01*
X149317500Y-124943500D01*
X149191190Y-124943500D01*
X149123069Y-124923498D01*
X149097553Y-124901810D01*
X149082976Y-124885621D01*
X149043078Y-124841309D01*
X148958437Y-124779814D01*
X148893168Y-124732393D01*
X148723888Y-124657024D01*
X148542640Y-124618500D01*
X148542639Y-124618500D01*
X148357341Y-124618500D01*
X148357340Y-124618500D01*
X148176091Y-124657024D01*
X148006811Y-124732393D01*
X147856899Y-124841310D01*
X147732916Y-124979007D01*
X147732911Y-124979015D01*
X147640267Y-125139481D01*
X147640264Y-125139488D01*
X147583002Y-125315716D01*
X147563634Y-125500000D01*
X119643541Y-125500000D01*
X119484681Y-125459212D01*
X119484676Y-125459211D01*
X119484675Y-125459211D01*
X119484672Y-125459210D01*
X119162429Y-125418501D01*
X119162416Y-125418500D01*
X119162414Y-125418500D01*
X118837586Y-125418500D01*
X118837583Y-125418500D01*
X118837570Y-125418501D01*
X118515327Y-125459210D01*
X118515324Y-125459211D01*
X118515321Y-125459211D01*
X118515319Y-125459212D01*
X118426043Y-125482133D01*
X118200700Y-125539991D01*
X117898680Y-125659570D01*
X117689857Y-125774371D01*
X117620526Y-125789660D01*
X117553935Y-125765039D01*
X117540061Y-125753051D01*
X117343404Y-125556394D01*
X117309378Y-125494082D01*
X117306499Y-125467299D01*
X117306499Y-119794180D01*
X125663594Y-119794180D01*
X125666667Y-119812007D01*
X125668498Y-119833410D01*
X125668499Y-123095499D01*
X125666212Y-123162444D01*
X125676802Y-123205909D01*
X125678006Y-123212246D01*
X125684097Y-123256548D01*
X125684101Y-123256562D01*
X125691302Y-123273141D01*
X125698149Y-123293501D01*
X125702429Y-123311066D01*
X125702431Y-123311071D01*
X125702432Y-123311074D01*
X125702433Y-123311075D01*
X125724349Y-123350054D01*
X125727221Y-123355835D01*
X125745041Y-123396862D01*
X125745045Y-123396869D01*
X125756452Y-123410889D01*
X125768545Y-123428657D01*
X125777405Y-123444415D01*
X125777410Y-123444422D01*
X125809034Y-123476045D01*
X125813358Y-123480837D01*
X125821219Y-123490499D01*
X125841587Y-123515534D01*
X125841593Y-123515538D01*
X125841594Y-123515539D01*
X125856362Y-123525964D01*
X125872796Y-123539807D01*
X126080595Y-123747606D01*
X126114621Y-123809918D01*
X126116810Y-123849868D01*
X126113644Y-123879998D01*
X126113644Y-123880000D01*
X126133012Y-124064284D01*
X126162188Y-124154075D01*
X126190274Y-124240514D01*
X126190277Y-124240519D01*
X126282921Y-124400985D01*
X126282926Y-124400993D01*
X126406909Y-124538690D01*
X126406912Y-124538692D01*
X126556822Y-124647608D01*
X126726101Y-124722976D01*
X126907350Y-124761501D01*
X126907351Y-124761501D01*
X127092650Y-124761501D01*
X127229594Y-124732393D01*
X127273899Y-124722976D01*
X127443178Y-124647608D01*
X127593088Y-124538692D01*
X127609030Y-124520987D01*
X127717073Y-124400993D01*
X127717074Y-124400991D01*
X127717077Y-124400988D01*
X127809726Y-124240514D01*
X127866987Y-124064285D01*
X127886356Y-123880001D01*
X127866987Y-123695717D01*
X127809726Y-123519488D01*
X127717077Y-123359014D01*
X127717076Y-123359013D01*
X127717073Y-123359008D01*
X127593090Y-123221311D01*
X127443178Y-123112394D01*
X127273898Y-123037025D01*
X127092650Y-122998501D01*
X127092649Y-122998501D01*
X126957700Y-122998501D01*
X126889579Y-122978499D01*
X126868605Y-122961596D01*
X126818404Y-122911395D01*
X126784378Y-122849083D01*
X126781499Y-122822300D01*
X126781499Y-120057701D01*
X126801501Y-119989580D01*
X126818404Y-119968606D01*
X126868605Y-119918405D01*
X126930917Y-119884379D01*
X126957700Y-119881500D01*
X127092650Y-119881500D01*
X127183273Y-119862237D01*
X127273899Y-119842975D01*
X127443178Y-119767607D01*
X127593088Y-119658691D01*
X127630996Y-119616590D01*
X127717073Y-119520992D01*
X127717074Y-119520990D01*
X127717077Y-119520987D01*
X127809726Y-119360513D01*
X127866987Y-119184284D01*
X127886356Y-119000000D01*
X127866987Y-118815716D01*
X127809726Y-118639487D01*
X127717077Y-118479013D01*
X127717076Y-118479012D01*
X127717073Y-118479007D01*
X127593090Y-118341310D01*
X127443178Y-118232393D01*
X127273898Y-118157024D01*
X127092650Y-118118500D01*
X127092649Y-118118500D01*
X126907351Y-118118500D01*
X126907350Y-118118500D01*
X126726101Y-118157024D01*
X126556821Y-118232393D01*
X126406909Y-118341310D01*
X126282926Y-118479007D01*
X126282921Y-118479015D01*
X126190277Y-118639481D01*
X126190274Y-118639488D01*
X126133012Y-118815716D01*
X126113644Y-119000000D01*
X126113644Y-119000001D01*
X126116810Y-119030130D01*
X126104037Y-119099968D01*
X126080595Y-119132393D01*
X125838210Y-119374779D01*
X125789260Y-119420496D01*
X125789254Y-119420502D01*
X125766013Y-119458721D01*
X125762381Y-119464057D01*
X125735361Y-119499687D01*
X125735359Y-119499691D01*
X125728723Y-119516517D01*
X125719169Y-119535752D01*
X125709772Y-119551204D01*
X125709771Y-119551208D01*
X125697705Y-119594270D01*
X125695648Y-119600387D01*
X125679237Y-119642004D01*
X125677387Y-119659998D01*
X125673378Y-119681093D01*
X125668499Y-119698510D01*
X125668498Y-119698513D01*
X125668498Y-119743238D01*
X125668168Y-119749683D01*
X125663594Y-119794180D01*
X117306499Y-119794180D01*
X117306499Y-119184283D01*
X117306499Y-112940718D01*
X117326501Y-112872601D01*
X117380157Y-112826108D01*
X117394776Y-112820501D01*
X117439057Y-112806609D01*
X117613592Y-112709734D01*
X117765053Y-112579709D01*
X117887240Y-112421856D01*
X117975151Y-112242638D01*
X118025185Y-112049393D01*
X118025185Y-112049387D01*
X118025186Y-112049384D01*
X118035296Y-111850031D01*
X118025827Y-111788222D01*
X118005068Y-111652716D01*
X117948694Y-111500500D01*
X117935742Y-111465528D01*
X117935740Y-111465525D01*
X117935740Y-111465524D01*
X117830149Y-111296119D01*
X117692619Y-111151438D01*
X117565617Y-111063042D01*
X117528778Y-111037401D01*
X117528777Y-111037400D01*
X117345343Y-110958682D01*
X117198691Y-110928545D01*
X117149809Y-110918500D01*
X116300221Y-110918500D01*
X116300202Y-110918500D01*
X116151408Y-110933632D01*
X115960942Y-110993391D01*
X115786407Y-111090266D01*
X115786406Y-111090266D01*
X115634951Y-111220286D01*
X115634946Y-111220292D01*
X115512759Y-111378145D01*
X115424850Y-111557359D01*
X115424849Y-111557362D01*
X115374814Y-111750610D01*
X115374813Y-111750615D01*
X115364703Y-111949968D01*
X115379934Y-112049384D01*
X115394932Y-112147284D01*
X115394934Y-112147289D01*
X115464257Y-112334471D01*
X115464259Y-112334474D01*
X115464260Y-112334476D01*
X115479397Y-112358761D01*
X115564455Y-112495225D01*
X115569851Y-112503881D01*
X115707381Y-112648562D01*
X115707384Y-112648564D01*
X115871221Y-112762598D01*
X115871222Y-112762599D01*
X116054654Y-112841316D01*
X116054662Y-112841319D01*
X116092860Y-112849168D01*
X116155561Y-112882471D01*
X116190303Y-112944387D01*
X116193500Y-112972589D01*
X116193500Y-125740499D01*
X116191213Y-125807444D01*
X116201803Y-125850909D01*
X116203007Y-125857246D01*
X116209098Y-125901548D01*
X116209102Y-125901562D01*
X116216303Y-125918141D01*
X116223150Y-125938501D01*
X116227430Y-125956066D01*
X116227432Y-125956071D01*
X116227433Y-125956074D01*
X116227434Y-125956075D01*
X116249350Y-125995054D01*
X116252222Y-126000835D01*
X116270042Y-126041862D01*
X116270046Y-126041869D01*
X116281453Y-126055889D01*
X116293546Y-126073657D01*
X116302406Y-126089415D01*
X116302411Y-126089422D01*
X116334035Y-126121045D01*
X116338359Y-126125837D01*
X116359712Y-126152082D01*
X116366588Y-126160534D01*
X116366594Y-126160538D01*
X116366595Y-126160539D01*
X116381363Y-126170964D01*
X116397797Y-126184807D01*
X116752632Y-126539642D01*
X116786658Y-126601954D01*
X116781593Y-126672769D01*
X116769923Y-126696250D01*
X116733345Y-126753888D01*
X116733339Y-126753898D01*
X116595036Y-127047806D01*
X116595031Y-127047819D01*
X116494661Y-127356729D01*
X116494658Y-127356742D01*
X116433792Y-127675808D01*
X116433790Y-127675825D01*
X116413396Y-127999993D01*
X116413396Y-128000006D01*
X116433790Y-128324174D01*
X116433792Y-128324191D01*
X116494658Y-128643257D01*
X116494661Y-128643270D01*
X116556978Y-128835064D01*
X116559005Y-128906032D01*
X116522343Y-128966830D01*
X116458630Y-128998155D01*
X116437145Y-129000000D01*
X115151500Y-129000000D01*
X115083379Y-128979998D01*
X115036886Y-128926342D01*
X115025500Y-128874000D01*
X115025500Y-85126000D01*
X115045502Y-85057879D01*
X115099158Y-85011386D01*
X115151500Y-85000000D01*
X116437145Y-85000000D01*
X116505266Y-85020002D01*
G37*
%TD.AperFunction*%
%TD*%
M02*
