M48
; DRILL file {KiCad 5.1.10} date Tue May 25 23:34:27 2021
; FORMAT={-:-/ absolute / inch / decimal}
; #@! TF.CreationDate,2021-05-25T23:34:27-06:00
; #@! TF.GenerationSoftware,Kicad,Pcbnew,5.1.10
FMAT,2
INCH
T1C0.0157
T2C0.0217
T3C0.0276
T4C0.0866
T5C0.0276
%
G90
G05
T1
X4.5669Y-4.2126
X4.6457Y-4.2126
X4.6654Y-4.0748
X4.685Y-3.9764
X4.7244Y-4.4488
X4.7264Y-4.1181
X4.7264Y-4.1496
X4.7264Y-4.1811
X4.7264Y-4.2441
X4.7264Y-4.2756
X4.7264Y-4.3071
X4.7539Y-4.0925
X4.7539Y-4.1654
X4.7539Y-4.1969
X4.7539Y-4.2283
X4.7539Y-4.2598
X4.7539Y-4.3327
X4.8031Y-3.2677
X4.8031Y-4.8425
X4.8031Y-5.1575
X4.8425Y-4.5669
X4.9882Y-4.2323
X5.0Y-4.1063
X5.0Y-4.685
X5.0Y-4.7638
X5.0Y-4.8772
X5.1772Y-4.8819
X5.2264Y-4.5374
X5.2361Y-4.2521
X5.2362Y-4.0157
X5.2362Y-4.2126
X5.2362Y-4.7638
X5.2756Y-3.9764
X5.315Y-4.6358
X5.3346Y-4.7244
X5.374Y-4.252
X5.432Y-4.5659
X5.4331Y-3.9567
X5.4331Y-4.7244
X5.4528Y-4.3307
X5.5118Y-3.7008
X5.5118Y-4.252
X5.5512Y-4.1339
X5.5906Y-4.685
X5.5906Y-4.7638
X5.6693Y-4.4094
X5.6693Y-4.6457
X5.7087Y-4.1732
X5.748Y-3.622
X5.8445Y-4.9409
X5.9055Y-3.7795
X5.9055Y-4.7638
X5.9094Y-4.9409
X6.063Y-4.8031
X6.1024Y-4.6152
X6.1024Y-4.6545
X6.1024Y-4.7244
X6.1024Y-4.7638
X6.122Y-3.9567
X6.1811Y-3.4646
X6.2205Y-3.622
X6.247Y-4.7372
X6.2598Y-4.3701
X6.2598Y-4.8031
X6.2604Y-3.8997
X6.2992Y-4.2913
X6.2992Y-4.7047
X6.3189Y-3.622
X6.4173Y-4.4882
X6.4567Y-3.7579
X6.4961Y-3.5433
X6.5354Y-3.4646
X6.5945Y-3.563
X6.6142Y-3.7598
X6.7323Y-4.685
X6.7717Y-3.2677
X6.7717Y-4.6063
X6.7717Y-5.1575
X6.9291Y-4.2126
T4
X4.685Y-3.3858
X4.685Y-5.0394
X7.4803Y-3.3858
X7.4803Y-5.0394
T5
X4.7736Y-4.0591
X4.7736Y-4.3661
T2
G00X4.7264Y-4.0482
M15
G01X4.7264Y-4.062
M16
G05
G00X4.7264Y-4.3632
M15
G01X4.7264Y-4.377
M16
G05
T3
G00X4.6083Y-4.0197
M15
G01X4.5807Y-4.0197
M16
G05
G00X4.6083Y-4.4055
M15
G01X4.5807Y-4.4055
M16
G05
T0
M30
