%TF.GenerationSoftware,KiCad,Pcbnew,5.1.10*%
%TF.CreationDate,2021-05-07T20:59:31-06:00*%
%TF.ProjectId,tx500-data,74783530-302d-4646-9174-612e6b696361,2*%
%TF.SameCoordinates,Original*%
%TF.FileFunction,Soldermask,Bot*%
%TF.FilePolarity,Negative*%
%FSLAX46Y46*%
G04 Gerber Fmt 4.6, Leading zero omitted, Abs format (unit mm)*
G04 Created by KiCad (PCBNEW 5.1.10) date 2021-05-07 20:59:31*
%MOMM*%
%LPD*%
G01*
G04 APERTURE LIST*
%ADD10C,0.100000*%
%ADD11C,0.600000*%
%ADD12C,0.700000*%
%ADD13O,1.200000X1.900000*%
%ADD14C,0.900000*%
%ADD15C,4.400000*%
G04 APERTURE END LIST*
D10*
G36*
X131000000Y-116000000D02*
G01*
X129000000Y-116000000D01*
X129000000Y-64000000D01*
X131000000Y-64000000D01*
X131000000Y-116000000D01*
G37*
X131000000Y-116000000D02*
X129000000Y-116000000D01*
X129000000Y-64000000D01*
X131000000Y-64000000D01*
X131000000Y-116000000D01*
G36*
X179000000Y-116000000D02*
G01*
X177000000Y-116000000D01*
X177000000Y-64000000D01*
X179000000Y-64000000D01*
X179000000Y-116000000D01*
G37*
X179000000Y-116000000D02*
X177000000Y-116000000D01*
X177000000Y-64000000D01*
X179000000Y-64000000D01*
X179000000Y-116000000D01*
D11*
%TO.C,J1*%
X153600000Y-63750000D03*
X154400000Y-63750000D03*
X152800000Y-63750000D03*
X155200000Y-63750000D03*
X153200000Y-63050000D03*
X154800000Y-63050000D03*
X152400000Y-63050000D03*
X155600000Y-63050000D03*
X151600000Y-63050000D03*
X156400000Y-63050000D03*
X157050000Y-63750000D03*
X150950000Y-63750000D03*
D12*
X157900000Y-64250000D03*
X150100000Y-64250000D03*
D13*
X158900000Y-59700000D03*
X149100000Y-59700000D03*
%TD*%
D14*
%TO.C,SW1*%
X171000000Y-85600000D03*
X171000000Y-92400000D03*
%TD*%
D15*
%TO.C,H4*%
X175000000Y-133000000D03*
%TD*%
%TO.C,H3*%
X133000000Y-133000000D03*
%TD*%
%TO.C,H2*%
X175000000Y-62000000D03*
%TD*%
%TO.C,H1*%
X133000000Y-62000000D03*
%TD*%
M02*
