M48
; DRILL file {KiCad 5.1.10} date Thu May  6 15:02:46 2021
; FORMAT={-:-/ absolute / metric / decimal}
; #@! TF.CreationDate,2021-05-06T15:02:46-06:00
; #@! TF.GenerationSoftware,Kicad,Pcbnew,5.1.10
; #@! TF.FileFunction,Plated,1,2,PTH
FMAT,2
METRIC
T1C0.400
T2C0.550
T3C0.700
T4C2.200
%
G90
G05
T1
X130.0Y-65.0
X130.0Y-115.0
X135.0Y-91.0
X135.0Y-93.0
X137.0Y-70.0
X137.5Y-74.5
X138.0Y-65.0
X139.0Y-97.0
X139.0Y-102.0
X140.0Y-70.0
X140.0Y-76.0
X140.0Y-85.0
X140.0Y-98.0
X140.675Y-101.675
X141.0Y-78.5
X141.0Y-93.0
X141.0Y-98.0
X141.5Y-103.0
X142.0Y-85.0
X142.0Y-114.0
X142.775Y-98.0
X143.0Y-70.0
X143.0Y-87.0
X143.775Y-98.0
X144.0Y-115.0
X145.0Y-66.0
X145.027Y-80.973
X147.0Y-106.0
X148.0Y-63.75
X150.0Y-102.0
X150.7Y-63.8
X151.0Y-81.5
X151.35Y-63.1
X152.0Y-103.0
X152.15Y-63.1
X152.55Y-63.8
X152.95Y-63.1
X152.997Y-75.998
X153.0Y-79.5
X153.0Y-83.0
X153.35Y-63.8
X153.5Y-69.7
X154.0Y-59.0
X154.0Y-61.0
X154.0Y-76.0
X154.0Y-119.0
X154.15Y-63.8
X154.55Y-63.1
X154.95Y-63.8
X155.35Y-63.1
X156.15Y-63.1
X156.8Y-63.8
X157.0Y-70.0
X157.95Y-61.5
X159.0Y-76.0
X160.0Y-65.75
X160.0Y-77.0
X160.5Y-81.0
X161.0Y-63.0
X161.0Y-99.0
X161.948Y-102.015
X164.0Y-88.0
X165.0Y-93.0
X165.0Y-113.0
X165.55Y-107.0
X168.0Y-84.5
X169.0Y-101.0
X169.0Y-103.0
X170.0Y-90.0
X170.0Y-113.0
X171.0Y-108.0
X173.0Y-84.0
X173.0Y-100.0
X173.0Y-109.0
X178.0Y-65.0
X178.0Y-115.0
T2
X149.75Y-63.1
X157.75Y-63.1
T4
X133.0Y-62.0
X133.0Y-133.0
X175.0Y-62.0
X175.0Y-133.0
T3
G00X148.85Y-60.1
M15
G01X148.85Y-59.4
M16
G05
G00X158.65Y-60.1
M15
G01X158.65Y-59.4
M16
G05
T0
M30
