%TF.GenerationSoftware,KiCad,Pcbnew,5.1.10*%
%TF.CreationDate,2021-05-07T20:59:31-06:00*%
%TF.ProjectId,tx500-data,74783530-302d-4646-9174-612e6b696361,2*%
%TF.SameCoordinates,Original*%
%TF.FileFunction,Copper,L2,Bot*%
%TF.FilePolarity,Positive*%
%FSLAX46Y46*%
G04 Gerber Fmt 4.6, Leading zero omitted, Abs format (unit mm)*
G04 Created by KiCad (PCBNEW 5.1.10) date 2021-05-07 20:59:31*
%MOMM*%
%LPD*%
G01*
G04 APERTURE LIST*
%TA.AperFunction,ComponentPad*%
%ADD10O,1.300000X0.950000*%
%TD*%
%TA.AperFunction,ComponentPad*%
%ADD11C,0.600000*%
%TD*%
%TA.AperFunction,ComponentPad*%
%ADD12O,1.200000X1.900000*%
%TD*%
%TA.AperFunction,ComponentPad*%
%ADD13C,4.400000*%
%TD*%
%TA.AperFunction,ViaPad*%
%ADD14C,0.800000*%
%TD*%
%TA.AperFunction,ViaPad*%
%ADD15C,1.000000*%
%TD*%
%TA.AperFunction,Conductor*%
%ADD16C,0.250000*%
%TD*%
%TA.AperFunction,Conductor*%
%ADD17C,0.200000*%
%TD*%
%TA.AperFunction,Conductor*%
%ADD18C,0.350000*%
%TD*%
%TA.AperFunction,Conductor*%
%ADD19C,0.254000*%
%TD*%
%TA.AperFunction,Conductor*%
%ADD20C,0.100000*%
%TD*%
G04 APERTURE END LIST*
D10*
%TO.P,J1,S1*%
%TO.N,GND1*%
X150000000Y-63050000D03*
X158000000Y-63050000D03*
D11*
%TO.P,J1,B6*%
%TO.N,/DR+*%
X153600000Y-63750000D03*
%TO.P,J1,B7*%
%TO.N,/DR-*%
X154400000Y-63750000D03*
%TO.P,J1,B4*%
%TO.N,Net-(J1-PadA4)*%
X152800000Y-63750000D03*
%TO.P,J1,B9*%
X155200000Y-63750000D03*
%TO.P,J1,B5*%
%TO.N,Net-(J1-PadB5)*%
X153200000Y-63050000D03*
%TO.P,J1,B8*%
%TO.N,N/C*%
X154800000Y-63050000D03*
%TO.P,J1,B3*%
X152400000Y-63050000D03*
%TO.P,J1,B10*%
X155600000Y-63050000D03*
%TO.P,J1,B2*%
X151600000Y-63050000D03*
%TO.P,J1,B11*%
X156400000Y-63050000D03*
%TO.P,J1,B12*%
%TO.N,GNDREF*%
X157050000Y-63750000D03*
%TO.P,J1,B1*%
X150950000Y-63750000D03*
D12*
%TO.P,J1,S1*%
%TO.N,GND1*%
X158900000Y-59700000D03*
X149100000Y-59700000D03*
%TD*%
D13*
%TO.P,H4,1*%
%TO.N,GND1*%
X175000000Y-133000000D03*
%TD*%
%TO.P,H3,1*%
%TO.N,GND1*%
X133000000Y-133000000D03*
%TD*%
%TO.P,H2,1*%
%TO.N,GND1*%
X175000000Y-62000000D03*
%TD*%
%TO.P,H1,1*%
%TO.N,GND1*%
X133000000Y-62000000D03*
%TD*%
D14*
%TO.N,GNDREF*%
X153500000Y-69700000D03*
X140000000Y-76000000D03*
X140000000Y-70000000D03*
X141000000Y-78500000D03*
X153000000Y-79500000D03*
X153000000Y-83000000D03*
X139000000Y-97000000D03*
X140000000Y-85000000D03*
X138000000Y-65000000D03*
X165000000Y-93000000D03*
X142000000Y-114000000D03*
X173000000Y-100000000D03*
X161948084Y-102014833D03*
X154000000Y-119000000D03*
X154000000Y-61000000D03*
X154000000Y-59000000D03*
X145000000Y-66000000D03*
X141000000Y-81000000D03*
%TO.N,/DR+*%
X156700000Y-70000000D03*
D15*
%TO.N,+3V3*%
X142000000Y-70000000D03*
X137119999Y-70000000D03*
D14*
%TO.N,GND1*%
X130000000Y-65000000D03*
D15*
X178000000Y-65000000D03*
D14*
X130000000Y-115000000D03*
X178000000Y-115000000D03*
D15*
%TO.N,/3V3A*%
X140000000Y-93000000D03*
X135500000Y-93099990D03*
X135500000Y-91449990D03*
D14*
%TO.N,Net-(C1-Pad1)*%
X160500000Y-81000000D03*
X151000000Y-81500000D03*
D15*
%TO.N,+5V*%
X137000000Y-74500000D03*
X167000000Y-83000000D03*
X160500000Y-98500000D03*
X165500000Y-111000000D03*
X170500000Y-110500000D03*
D14*
%TO.N,Net-(C14-Pad2)*%
X139000000Y-102000000D03*
X147000000Y-106000000D03*
%TO.N,Net-(C17-Pad1)*%
X140674847Y-101674847D03*
X141500000Y-103000000D03*
%TO.N,Net-(J1-PadA4)*%
X148000000Y-63000000D03*
%TO.N,Net-(J1-PadB5)*%
X157500000Y-61500000D03*
X160000000Y-62000000D03*
%TO.N,/DTR*%
X173000000Y-109000000D03*
X169000000Y-103500000D03*
%TO.N,/VCCIO*%
X170000000Y-90000000D03*
X173000000Y-84000000D03*
X169000000Y-101000000D03*
%TO.N,/MIC_BIAS*%
X152000000Y-103000000D03*
X144000000Y-115000000D03*
%TO.N,Net-(R2-Pad2)*%
X159000000Y-76000000D03*
X154000000Y-76000000D03*
%TO.N,Net-(R16-Pad2)*%
X140000000Y-98000000D03*
X150000000Y-102000000D03*
%TO.N,/RXLED*%
X165550000Y-107000000D03*
X171000000Y-108000000D03*
%TO.N,Net-(U1-Pad30)*%
X160000000Y-77000000D03*
X152996763Y-75997842D03*
%TO.N,/AVDD1*%
X142000000Y-85000000D03*
X141000000Y-98000000D03*
%TO.N,/AVDD2*%
X143000000Y-87000000D03*
X142774997Y-98000000D03*
%TO.N,/DVDD*%
X145026570Y-80973430D03*
X143775000Y-98000000D03*
%TD*%
D16*
%TO.N,GNDREF*%
X158399990Y-61099990D02*
X160600010Y-61099990D01*
X157700000Y-60400000D02*
X158399990Y-61099990D01*
D17*
%TO.N,/DR+*%
X153600000Y-63750000D02*
X153600000Y-65400000D01*
X153600000Y-65400000D02*
X156800000Y-68600000D01*
X156800000Y-69900000D02*
X156700000Y-70000000D01*
X156800000Y-68600000D02*
X156800000Y-69900000D01*
D18*
%TO.N,+3V3*%
X137895000Y-69224999D02*
X137119999Y-70000000D01*
X141224999Y-69224999D02*
X137895000Y-69224999D01*
X142000000Y-70000000D02*
X141224999Y-69224999D01*
%TO.N,GND1*%
X131530346Y-65000000D02*
X130000000Y-65000000D01*
X133000000Y-62000000D02*
X133000000Y-63530346D01*
X133000000Y-63530346D02*
X131530346Y-65000000D01*
X134300000Y-60700000D02*
X133000000Y-62000000D01*
X176469654Y-65000000D02*
X178000000Y-65000000D01*
X175000000Y-63530346D02*
X176469654Y-65000000D01*
X175000000Y-62000000D02*
X175000000Y-63530346D01*
X130000000Y-130000000D02*
X130000000Y-115000000D01*
X133000000Y-133000000D02*
X130000000Y-130000000D01*
X178000000Y-130000000D02*
X178000000Y-115000000D01*
X175000000Y-133000000D02*
X178000000Y-130000000D01*
X133000000Y-133000000D02*
X175000000Y-133000000D01*
X135250000Y-59750000D02*
X133000000Y-62000000D01*
X172750000Y-59750000D02*
X175000000Y-62000000D01*
X149050000Y-59750000D02*
X149100000Y-59700000D01*
X135250000Y-59750000D02*
X149050000Y-59750000D01*
X158950000Y-59750000D02*
X158900000Y-59700000D01*
X172750000Y-59750000D02*
X158950000Y-59750000D01*
%TO.N,/3V3A*%
X135599990Y-93000000D02*
X135500000Y-93099990D01*
X140000000Y-93000000D02*
X135599990Y-93000000D01*
X135500000Y-93099990D02*
X135500000Y-91449990D01*
D16*
%TO.N,Net-(C1-Pad1)*%
X160000000Y-81500000D02*
X151000000Y-81500000D01*
X160500000Y-81000000D02*
X160000000Y-81500000D01*
D18*
%TO.N,+5V*%
X137000000Y-74500000D02*
X137500000Y-74000000D01*
X158147002Y-74000000D02*
X167000000Y-82852998D01*
X137500000Y-74000000D02*
X158147002Y-74000000D01*
X167000000Y-82852998D02*
X167000000Y-83000000D01*
X167000000Y-83000000D02*
X160500000Y-89500000D01*
X160500000Y-89500000D02*
X160500000Y-98500000D01*
X166000000Y-110500000D02*
X170500000Y-110500000D01*
X165500000Y-111000000D02*
X166000000Y-110500000D01*
D16*
%TO.N,Net-(C14-Pad2)*%
X143000000Y-106000000D02*
X147000000Y-106000000D01*
X139000000Y-102000000D02*
X143000000Y-106000000D01*
%TO.N,Net-(C17-Pad1)*%
X141000000Y-102000000D02*
X140674847Y-101674847D01*
X141000000Y-102500000D02*
X141500000Y-103000000D01*
X141000000Y-102000000D02*
X141000000Y-102500000D01*
%TO.N,Net-(J1-PadA4)*%
X148750010Y-62249990D02*
X148000000Y-63000000D01*
X158506374Y-62249990D02*
X148750010Y-62249990D01*
X158975010Y-62718626D02*
X158506374Y-62249990D01*
X158975010Y-64173992D02*
X158975010Y-62718626D01*
X158224001Y-64925001D02*
X158975010Y-64173992D01*
X156375001Y-64925001D02*
X158224001Y-64925001D01*
X155200000Y-63750000D02*
X156375001Y-64925001D01*
%TO.N,Net-(J1-PadB5)*%
X159500000Y-61500000D02*
X160000000Y-62000000D01*
X157500000Y-61500000D02*
X159500000Y-61500000D01*
%TO.N,/DTR*%
X173000000Y-107500000D02*
X173000000Y-109000000D01*
X169000000Y-103500000D02*
X173000000Y-107500000D01*
D18*
%TO.N,/VCCIO*%
X170000000Y-90000000D02*
X173000000Y-87000000D01*
X173000000Y-87000000D02*
X173000000Y-84000000D01*
X170000000Y-100000000D02*
X169000000Y-101000000D01*
X170000000Y-90000000D02*
X170000000Y-100000000D01*
D16*
%TO.N,/MIC_BIAS*%
X152000000Y-107000000D02*
X144000000Y-115000000D01*
X152000000Y-103000000D02*
X152000000Y-107000000D01*
%TO.N,Net-(R2-Pad2)*%
X159000000Y-76000000D02*
X154000000Y-76000000D01*
%TO.N,Net-(R16-Pad2)*%
X146725001Y-98725001D02*
X150000000Y-102000000D01*
X140159316Y-98725001D02*
X146725001Y-98725001D01*
X140000000Y-98565685D02*
X140159316Y-98725001D01*
X140000000Y-98000000D02*
X140000000Y-98565685D01*
%TO.N,/RXLED*%
X170000000Y-107000000D02*
X171000000Y-108000000D01*
X165550000Y-107000000D02*
X170000000Y-107000000D01*
%TO.N,Net-(U1-Pad30)*%
X152996763Y-76069765D02*
X152996763Y-75997842D01*
X153926998Y-77000000D02*
X152996763Y-76069765D01*
X160000000Y-77000000D02*
X153926998Y-77000000D01*
D18*
%TO.N,/AVDD1*%
X142000000Y-97000000D02*
X141000000Y-98000000D01*
X142000000Y-85000000D02*
X142000000Y-97000000D01*
%TO.N,/AVDD2*%
X143000000Y-97774997D02*
X142774997Y-98000000D01*
X143000000Y-87000000D02*
X143000000Y-97774997D01*
%TO.N,/DVDD*%
X143775000Y-82225000D02*
X143775000Y-98000000D01*
X145026570Y-80973430D02*
X143775000Y-82225000D01*
%TD*%
D19*
%TO.N,GND1*%
X130873000Y-115873000D02*
X129660000Y-115873000D01*
X129660000Y-64127000D01*
X130873000Y-64127000D01*
X130873000Y-115873000D01*
%TA.AperFunction,Conductor*%
D20*
G36*
X130873000Y-115873000D02*
G01*
X129660000Y-115873000D01*
X129660000Y-64127000D01*
X130873000Y-64127000D01*
X130873000Y-115873000D01*
G37*
%TD.AperFunction*%
%TD*%
D19*
%TO.N,GND1*%
X178340001Y-115873000D02*
X177127000Y-115873000D01*
X177127000Y-64127000D01*
X178340000Y-64127000D01*
X178340001Y-115873000D01*
%TA.AperFunction,Conductor*%
D20*
G36*
X178340001Y-115873000D02*
G01*
X177127000Y-115873000D01*
X177127000Y-64127000D01*
X178340000Y-64127000D01*
X178340001Y-115873000D01*
G37*
%TD.AperFunction*%
%TD*%
D19*
%TO.N,GNDREF*%
X158112736Y-58562735D02*
X157974275Y-58731450D01*
X157871390Y-58923935D01*
X157808032Y-59132794D01*
X157792000Y-59295569D01*
X157792000Y-60104430D01*
X157808032Y-60267205D01*
X157871389Y-60476064D01*
X157974274Y-60668550D01*
X158076593Y-60793225D01*
X157930099Y-60695341D01*
X157764854Y-60626894D01*
X157589430Y-60592000D01*
X157410570Y-60592000D01*
X157235146Y-60626894D01*
X157069901Y-60695341D01*
X156921184Y-60794711D01*
X156794711Y-60921184D01*
X156695341Y-61069901D01*
X156626894Y-61235146D01*
X156592000Y-61410570D01*
X156592000Y-61589430D01*
X156597482Y-61616990D01*
X148781095Y-61616990D01*
X148750009Y-61613928D01*
X148718923Y-61616990D01*
X148718922Y-61616990D01*
X148625920Y-61626150D01*
X148506600Y-61662345D01*
X148396633Y-61721124D01*
X148300246Y-61800226D01*
X148280426Y-61824377D01*
X148012803Y-62092000D01*
X147910570Y-62092000D01*
X147735146Y-62126894D01*
X147569901Y-62195341D01*
X147421184Y-62294711D01*
X147294711Y-62421184D01*
X147195341Y-62569901D01*
X147126894Y-62735146D01*
X147092000Y-62910570D01*
X147092000Y-63089430D01*
X147126894Y-63264854D01*
X147195341Y-63430099D01*
X147294711Y-63578816D01*
X147421184Y-63705289D01*
X147569901Y-63804659D01*
X147735146Y-63873106D01*
X147910570Y-63908000D01*
X148089430Y-63908000D01*
X148264854Y-63873106D01*
X148430099Y-63804659D01*
X148578816Y-63705289D01*
X148705289Y-63578816D01*
X148804659Y-63430099D01*
X148867239Y-63279018D01*
X148912432Y-63427998D01*
X149003711Y-63598768D01*
X149126551Y-63748449D01*
X149276232Y-63871289D01*
X149318760Y-63894021D01*
X149274973Y-63999731D01*
X149242000Y-64165494D01*
X149242000Y-64334506D01*
X149274973Y-64500269D01*
X149339651Y-64656415D01*
X149433548Y-64796943D01*
X149553057Y-64916452D01*
X149693585Y-65010349D01*
X149849731Y-65075027D01*
X150015494Y-65108000D01*
X150184506Y-65108000D01*
X150350269Y-65075027D01*
X150506415Y-65010349D01*
X150646943Y-64916452D01*
X150766452Y-64796943D01*
X150843117Y-64682205D01*
X150856176Y-64684828D01*
X151040355Y-64685171D01*
X151221061Y-64649574D01*
X151391351Y-64579408D01*
X151394425Y-64577763D01*
X151404936Y-64384541D01*
X150950000Y-63929605D01*
X150935858Y-63943748D01*
X150877782Y-63885672D01*
X150860349Y-63843585D01*
X150823934Y-63789085D01*
X150873449Y-63748449D01*
X150996289Y-63598768D01*
X150999701Y-63592386D01*
X151084930Y-63677615D01*
X151086663Y-63678773D01*
X151143748Y-63735858D01*
X151129605Y-63750000D01*
X151584541Y-64204936D01*
X151777763Y-64194425D01*
X151848562Y-64024397D01*
X151884828Y-63843824D01*
X151884897Y-63806565D01*
X151982732Y-63766041D01*
X151992000Y-63759848D01*
X151992000Y-63829581D01*
X152023051Y-63985685D01*
X152083959Y-64132732D01*
X152172385Y-64265070D01*
X152284930Y-64377615D01*
X152417268Y-64466041D01*
X152564315Y-64526949D01*
X152720419Y-64558000D01*
X152879581Y-64558000D01*
X152992000Y-64535638D01*
X152992001Y-65370130D01*
X152989059Y-65400000D01*
X153000798Y-65519188D01*
X153035565Y-65633797D01*
X153092022Y-65739421D01*
X153168000Y-65832001D01*
X153191198Y-65851039D01*
X156192000Y-68851842D01*
X156192000Y-69247393D01*
X156121184Y-69294711D01*
X155994711Y-69421184D01*
X155895341Y-69569901D01*
X155826894Y-69735146D01*
X155792000Y-69910570D01*
X155792000Y-70089430D01*
X155826894Y-70264854D01*
X155895341Y-70430099D01*
X155994711Y-70578816D01*
X156121184Y-70705289D01*
X156269901Y-70804659D01*
X156435146Y-70873106D01*
X156610570Y-70908000D01*
X156789430Y-70908000D01*
X156964854Y-70873106D01*
X157130099Y-70804659D01*
X157278816Y-70705289D01*
X157405289Y-70578816D01*
X157504659Y-70430099D01*
X157573106Y-70264854D01*
X157608000Y-70089430D01*
X157608000Y-69910570D01*
X157573106Y-69735146D01*
X157504659Y-69569901D01*
X157408000Y-69425241D01*
X157408000Y-68629860D01*
X157410941Y-68599999D01*
X157399202Y-68480811D01*
X157364436Y-68366204D01*
X157364436Y-68366203D01*
X157307979Y-68260579D01*
X157232001Y-68167999D01*
X157208804Y-68148962D01*
X154208000Y-65148159D01*
X154208000Y-64535638D01*
X154320419Y-64558000D01*
X154479581Y-64558000D01*
X154635685Y-64526949D01*
X154782732Y-64466041D01*
X154800000Y-64454503D01*
X154817268Y-64466041D01*
X154964315Y-64526949D01*
X155110912Y-64556109D01*
X155905417Y-65350614D01*
X155925237Y-65374765D01*
X156021624Y-65453867D01*
X156131591Y-65512646D01*
X156250911Y-65548841D01*
X156343913Y-65558001D01*
X156343914Y-65558001D01*
X156375000Y-65561063D01*
X156406086Y-65558001D01*
X158192913Y-65558001D01*
X158224001Y-65561063D01*
X158255089Y-65558001D01*
X158348091Y-65548841D01*
X158467411Y-65512646D01*
X158577378Y-65453867D01*
X158673765Y-65374765D01*
X158693585Y-65350614D01*
X159400629Y-64643571D01*
X159424774Y-64623756D01*
X159467557Y-64571625D01*
X159503876Y-64527369D01*
X159531741Y-64475237D01*
X159562655Y-64417402D01*
X159598850Y-64298082D01*
X159608010Y-64205080D01*
X159608010Y-64205079D01*
X159611072Y-64173993D01*
X159608010Y-64142907D01*
X159608010Y-62820444D01*
X159735146Y-62873106D01*
X159910570Y-62908000D01*
X160089430Y-62908000D01*
X160264854Y-62873106D01*
X160430099Y-62804659D01*
X160578816Y-62705289D01*
X160705289Y-62578816D01*
X160804659Y-62430099D01*
X160873106Y-62264854D01*
X160908000Y-62089430D01*
X160908000Y-61910570D01*
X160873106Y-61735146D01*
X160804659Y-61569901D01*
X160705289Y-61421184D01*
X160578816Y-61294711D01*
X160430099Y-61195341D01*
X160264854Y-61126894D01*
X160089430Y-61092000D01*
X159987197Y-61092000D01*
X159969584Y-61074387D01*
X159949764Y-61050236D01*
X159853377Y-60971134D01*
X159743410Y-60912355D01*
X159635612Y-60879655D01*
X159687265Y-60837265D01*
X159825726Y-60668550D01*
X159928611Y-60476065D01*
X159941675Y-60433000D01*
X172467093Y-60433000D01*
X172660752Y-60626659D01*
X172600201Y-60717281D01*
X172396067Y-61210105D01*
X172292000Y-61733285D01*
X172292000Y-62266715D01*
X172396067Y-62789895D01*
X172600201Y-63282719D01*
X172896559Y-63726249D01*
X173273751Y-64103441D01*
X173717281Y-64399799D01*
X174210105Y-64603933D01*
X174733285Y-64708000D01*
X175211747Y-64708000D01*
X175873000Y-65369254D01*
X175873000Y-121873000D01*
X132127000Y-121873000D01*
X132127000Y-114910570D01*
X143092000Y-114910570D01*
X143092000Y-115089430D01*
X143126894Y-115264854D01*
X143195341Y-115430099D01*
X143294711Y-115578816D01*
X143421184Y-115705289D01*
X143569901Y-115804659D01*
X143735146Y-115873106D01*
X143910570Y-115908000D01*
X144089430Y-115908000D01*
X144264854Y-115873106D01*
X144430099Y-115804659D01*
X144578816Y-115705289D01*
X144705289Y-115578816D01*
X144804659Y-115430099D01*
X144873106Y-115264854D01*
X144908000Y-115089430D01*
X144908000Y-114987197D01*
X148994476Y-110900721D01*
X164492000Y-110900721D01*
X164492000Y-111099279D01*
X164530737Y-111294023D01*
X164606722Y-111477467D01*
X164717035Y-111642562D01*
X164857438Y-111782965D01*
X165022533Y-111893278D01*
X165205977Y-111969263D01*
X165400721Y-112008000D01*
X165599279Y-112008000D01*
X165794023Y-111969263D01*
X165977467Y-111893278D01*
X166142562Y-111782965D01*
X166282965Y-111642562D01*
X166393278Y-111477467D01*
X166469263Y-111294023D01*
X166491347Y-111183000D01*
X169757473Y-111183000D01*
X169857438Y-111282965D01*
X170022533Y-111393278D01*
X170205977Y-111469263D01*
X170400721Y-111508000D01*
X170599279Y-111508000D01*
X170794023Y-111469263D01*
X170977467Y-111393278D01*
X171142562Y-111282965D01*
X171282965Y-111142562D01*
X171393278Y-110977467D01*
X171469263Y-110794023D01*
X171508000Y-110599279D01*
X171508000Y-110400721D01*
X171469263Y-110205977D01*
X171393278Y-110022533D01*
X171282965Y-109857438D01*
X171142562Y-109717035D01*
X170977467Y-109606722D01*
X170794023Y-109530737D01*
X170599279Y-109492000D01*
X170400721Y-109492000D01*
X170205977Y-109530737D01*
X170022533Y-109606722D01*
X169857438Y-109717035D01*
X169757473Y-109817000D01*
X166033539Y-109817000D01*
X166000000Y-109813697D01*
X165966461Y-109817000D01*
X165966454Y-109817000D01*
X165878655Y-109825647D01*
X165866108Y-109826883D01*
X165737363Y-109865938D01*
X165618710Y-109929359D01*
X165542382Y-109992000D01*
X165400721Y-109992000D01*
X165205977Y-110030737D01*
X165022533Y-110106722D01*
X164857438Y-110217035D01*
X164717035Y-110357438D01*
X164606722Y-110522533D01*
X164530737Y-110705977D01*
X164492000Y-110900721D01*
X148994476Y-110900721D01*
X152425613Y-107469584D01*
X152449764Y-107449764D01*
X152528866Y-107353377D01*
X152587645Y-107243410D01*
X152623840Y-107124090D01*
X152633000Y-107031088D01*
X152633000Y-107031079D01*
X152636061Y-107000001D01*
X152633000Y-106968923D01*
X152633000Y-106910570D01*
X164642000Y-106910570D01*
X164642000Y-107089430D01*
X164676894Y-107264854D01*
X164745341Y-107430099D01*
X164844711Y-107578816D01*
X164971184Y-107705289D01*
X165119901Y-107804659D01*
X165285146Y-107873106D01*
X165460570Y-107908000D01*
X165639430Y-107908000D01*
X165814854Y-107873106D01*
X165980099Y-107804659D01*
X166128816Y-107705289D01*
X166201105Y-107633000D01*
X169737803Y-107633000D01*
X170092000Y-107987197D01*
X170092000Y-108089430D01*
X170126894Y-108264854D01*
X170195341Y-108430099D01*
X170294711Y-108578816D01*
X170421184Y-108705289D01*
X170569901Y-108804659D01*
X170735146Y-108873106D01*
X170910570Y-108908000D01*
X171089430Y-108908000D01*
X171264854Y-108873106D01*
X171430099Y-108804659D01*
X171578816Y-108705289D01*
X171705289Y-108578816D01*
X171804659Y-108430099D01*
X171873106Y-108264854D01*
X171908000Y-108089430D01*
X171908000Y-107910570D01*
X171873106Y-107735146D01*
X171804659Y-107569901D01*
X171705289Y-107421184D01*
X171578816Y-107294711D01*
X171430099Y-107195341D01*
X171264854Y-107126894D01*
X171089430Y-107092000D01*
X170987197Y-107092000D01*
X170469584Y-106574387D01*
X170449764Y-106550236D01*
X170353377Y-106471134D01*
X170243410Y-106412355D01*
X170124090Y-106376160D01*
X170031088Y-106367000D01*
X170000000Y-106363938D01*
X169968912Y-106367000D01*
X166201105Y-106367000D01*
X166128816Y-106294711D01*
X165980099Y-106195341D01*
X165814854Y-106126894D01*
X165639430Y-106092000D01*
X165460570Y-106092000D01*
X165285146Y-106126894D01*
X165119901Y-106195341D01*
X164971184Y-106294711D01*
X164844711Y-106421184D01*
X164745341Y-106569901D01*
X164676894Y-106735146D01*
X164642000Y-106910570D01*
X152633000Y-106910570D01*
X152633000Y-103651105D01*
X152705289Y-103578816D01*
X152804659Y-103430099D01*
X152812748Y-103410570D01*
X168092000Y-103410570D01*
X168092000Y-103589430D01*
X168126894Y-103764854D01*
X168195341Y-103930099D01*
X168294711Y-104078816D01*
X168421184Y-104205289D01*
X168569901Y-104304659D01*
X168735146Y-104373106D01*
X168910570Y-104408000D01*
X169012803Y-104408000D01*
X172367000Y-107762197D01*
X172367001Y-108348894D01*
X172294711Y-108421184D01*
X172195341Y-108569901D01*
X172126894Y-108735146D01*
X172092000Y-108910570D01*
X172092000Y-109089430D01*
X172126894Y-109264854D01*
X172195341Y-109430099D01*
X172294711Y-109578816D01*
X172421184Y-109705289D01*
X172569901Y-109804659D01*
X172735146Y-109873106D01*
X172910570Y-109908000D01*
X173089430Y-109908000D01*
X173264854Y-109873106D01*
X173430099Y-109804659D01*
X173578816Y-109705289D01*
X173705289Y-109578816D01*
X173804659Y-109430099D01*
X173873106Y-109264854D01*
X173908000Y-109089430D01*
X173908000Y-108910570D01*
X173873106Y-108735146D01*
X173804659Y-108569901D01*
X173705289Y-108421184D01*
X173633000Y-108348895D01*
X173633000Y-107531085D01*
X173636062Y-107499999D01*
X173629177Y-107430099D01*
X173623840Y-107375910D01*
X173587645Y-107256590D01*
X173554907Y-107195341D01*
X173528866Y-107146623D01*
X173481929Y-107089430D01*
X173449764Y-107050236D01*
X173425614Y-107030417D01*
X169908000Y-103512803D01*
X169908000Y-103410570D01*
X169873106Y-103235146D01*
X169804659Y-103069901D01*
X169705289Y-102921184D01*
X169578816Y-102794711D01*
X169430099Y-102695341D01*
X169264854Y-102626894D01*
X169089430Y-102592000D01*
X168910570Y-102592000D01*
X168735146Y-102626894D01*
X168569901Y-102695341D01*
X168421184Y-102794711D01*
X168294711Y-102921184D01*
X168195341Y-103069901D01*
X168126894Y-103235146D01*
X168092000Y-103410570D01*
X152812748Y-103410570D01*
X152873106Y-103264854D01*
X152908000Y-103089430D01*
X152908000Y-102910570D01*
X152873106Y-102735146D01*
X152804659Y-102569901D01*
X152705289Y-102421184D01*
X152578816Y-102294711D01*
X152430099Y-102195341D01*
X152264854Y-102126894D01*
X152089430Y-102092000D01*
X151910570Y-102092000D01*
X151735146Y-102126894D01*
X151569901Y-102195341D01*
X151421184Y-102294711D01*
X151294711Y-102421184D01*
X151195341Y-102569901D01*
X151126894Y-102735146D01*
X151092000Y-102910570D01*
X151092000Y-103089430D01*
X151126894Y-103264854D01*
X151195341Y-103430099D01*
X151294711Y-103578816D01*
X151367000Y-103651105D01*
X151367001Y-106737802D01*
X144012803Y-114092000D01*
X143910570Y-114092000D01*
X143735146Y-114126894D01*
X143569901Y-114195341D01*
X143421184Y-114294711D01*
X143294711Y-114421184D01*
X143195341Y-114569901D01*
X143126894Y-114735146D01*
X143092000Y-114910570D01*
X132127000Y-114910570D01*
X132127000Y-101910570D01*
X138092000Y-101910570D01*
X138092000Y-102089430D01*
X138126894Y-102264854D01*
X138195341Y-102430099D01*
X138294711Y-102578816D01*
X138421184Y-102705289D01*
X138569901Y-102804659D01*
X138735146Y-102873106D01*
X138910570Y-102908000D01*
X139012803Y-102908000D01*
X142530416Y-106425613D01*
X142550236Y-106449764D01*
X142646623Y-106528866D01*
X142723394Y-106569901D01*
X142756590Y-106587645D01*
X142875910Y-106623840D01*
X142968912Y-106633000D01*
X142968913Y-106633000D01*
X142999999Y-106636062D01*
X143031085Y-106633000D01*
X146348895Y-106633000D01*
X146421184Y-106705289D01*
X146569901Y-106804659D01*
X146735146Y-106873106D01*
X146910570Y-106908000D01*
X147089430Y-106908000D01*
X147264854Y-106873106D01*
X147430099Y-106804659D01*
X147578816Y-106705289D01*
X147705289Y-106578816D01*
X147804659Y-106430099D01*
X147873106Y-106264854D01*
X147908000Y-106089430D01*
X147908000Y-105910570D01*
X147873106Y-105735146D01*
X147804659Y-105569901D01*
X147705289Y-105421184D01*
X147578816Y-105294711D01*
X147430099Y-105195341D01*
X147264854Y-105126894D01*
X147089430Y-105092000D01*
X146910570Y-105092000D01*
X146735146Y-105126894D01*
X146569901Y-105195341D01*
X146421184Y-105294711D01*
X146348895Y-105367000D01*
X143262197Y-105367000D01*
X141767293Y-103872096D01*
X141930099Y-103804659D01*
X142078816Y-103705289D01*
X142205289Y-103578816D01*
X142304659Y-103430099D01*
X142373106Y-103264854D01*
X142408000Y-103089430D01*
X142408000Y-102910570D01*
X142373106Y-102735146D01*
X142304659Y-102569901D01*
X142205289Y-102421184D01*
X142078816Y-102294711D01*
X141930099Y-102195341D01*
X141764854Y-102126894D01*
X141633000Y-102100667D01*
X141633000Y-102031088D01*
X141636062Y-102000000D01*
X141623840Y-101875910D01*
X141600490Y-101798936D01*
X141587645Y-101756590D01*
X141582847Y-101747614D01*
X141582847Y-101585417D01*
X141547953Y-101409993D01*
X141479506Y-101244748D01*
X141380136Y-101096031D01*
X141253663Y-100969558D01*
X141104946Y-100870188D01*
X140939701Y-100801741D01*
X140764277Y-100766847D01*
X140585417Y-100766847D01*
X140409993Y-100801741D01*
X140244748Y-100870188D01*
X140096031Y-100969558D01*
X139969558Y-101096031D01*
X139870188Y-101244748D01*
X139801741Y-101409993D01*
X139777899Y-101529853D01*
X139705289Y-101421184D01*
X139578816Y-101294711D01*
X139430099Y-101195341D01*
X139264854Y-101126894D01*
X139089430Y-101092000D01*
X138910570Y-101092000D01*
X138735146Y-101126894D01*
X138569901Y-101195341D01*
X138421184Y-101294711D01*
X138294711Y-101421184D01*
X138195341Y-101569901D01*
X138126894Y-101735146D01*
X138092000Y-101910570D01*
X132127000Y-101910570D01*
X132127000Y-97910570D01*
X139092000Y-97910570D01*
X139092000Y-98089430D01*
X139126894Y-98264854D01*
X139195341Y-98430099D01*
X139294711Y-98578816D01*
X139372936Y-98657041D01*
X139376160Y-98689775D01*
X139412355Y-98809095D01*
X139471134Y-98919062D01*
X139550237Y-99015449D01*
X139574384Y-99035266D01*
X139689728Y-99150610D01*
X139709552Y-99174765D01*
X139805939Y-99253867D01*
X139915906Y-99312646D01*
X140035226Y-99348841D01*
X140159316Y-99361063D01*
X140190404Y-99358001D01*
X146462804Y-99358001D01*
X149092000Y-101987198D01*
X149092000Y-102089430D01*
X149126894Y-102264854D01*
X149195341Y-102430099D01*
X149294711Y-102578816D01*
X149421184Y-102705289D01*
X149569901Y-102804659D01*
X149735146Y-102873106D01*
X149910570Y-102908000D01*
X150089430Y-102908000D01*
X150264854Y-102873106D01*
X150430099Y-102804659D01*
X150578816Y-102705289D01*
X150705289Y-102578816D01*
X150804659Y-102430099D01*
X150873106Y-102264854D01*
X150908000Y-102089430D01*
X150908000Y-101910570D01*
X150873106Y-101735146D01*
X150804659Y-101569901D01*
X150705289Y-101421184D01*
X150578816Y-101294711D01*
X150430099Y-101195341D01*
X150264854Y-101126894D01*
X150089430Y-101092000D01*
X149987198Y-101092000D01*
X149805768Y-100910570D01*
X168092000Y-100910570D01*
X168092000Y-101089430D01*
X168126894Y-101264854D01*
X168195341Y-101430099D01*
X168294711Y-101578816D01*
X168421184Y-101705289D01*
X168569901Y-101804659D01*
X168735146Y-101873106D01*
X168910570Y-101908000D01*
X169089430Y-101908000D01*
X169264854Y-101873106D01*
X169430099Y-101804659D01*
X169578816Y-101705289D01*
X169705289Y-101578816D01*
X169804659Y-101430099D01*
X169873106Y-101264854D01*
X169908000Y-101089430D01*
X169908000Y-101057907D01*
X170459235Y-100506673D01*
X170485290Y-100485290D01*
X170537901Y-100421184D01*
X170570641Y-100381291D01*
X170634062Y-100262637D01*
X170673117Y-100133892D01*
X170686304Y-100000000D01*
X170683000Y-99966454D01*
X170683000Y-93305625D01*
X170720562Y-93321184D01*
X170905645Y-93358000D01*
X171094355Y-93358000D01*
X171279438Y-93321184D01*
X171453783Y-93248968D01*
X171610689Y-93144127D01*
X171744127Y-93010689D01*
X171848968Y-92853783D01*
X171921184Y-92679438D01*
X171958000Y-92494355D01*
X171958000Y-92305645D01*
X171921184Y-92120562D01*
X171848968Y-91946217D01*
X171744127Y-91789311D01*
X171610689Y-91655873D01*
X171453783Y-91551032D01*
X171279438Y-91478816D01*
X171094355Y-91442000D01*
X170905645Y-91442000D01*
X170720562Y-91478816D01*
X170683000Y-91494375D01*
X170683000Y-90601105D01*
X170705289Y-90578816D01*
X170804659Y-90430099D01*
X170873106Y-90264854D01*
X170908000Y-90089430D01*
X170908000Y-90057907D01*
X173459240Y-87506668D01*
X173485289Y-87485290D01*
X173506668Y-87459240D01*
X173506674Y-87459234D01*
X173570641Y-87381291D01*
X173634062Y-87262637D01*
X173673117Y-87133892D01*
X173677496Y-87089430D01*
X173683000Y-87033546D01*
X173683000Y-87033539D01*
X173686303Y-87000000D01*
X173683000Y-86966461D01*
X173683000Y-84601105D01*
X173705289Y-84578816D01*
X173804659Y-84430099D01*
X173873106Y-84264854D01*
X173908000Y-84089430D01*
X173908000Y-83910570D01*
X173873106Y-83735146D01*
X173804659Y-83569901D01*
X173705289Y-83421184D01*
X173578816Y-83294711D01*
X173430099Y-83195341D01*
X173264854Y-83126894D01*
X173089430Y-83092000D01*
X172910570Y-83092000D01*
X172735146Y-83126894D01*
X172569901Y-83195341D01*
X172421184Y-83294711D01*
X172294711Y-83421184D01*
X172195341Y-83569901D01*
X172126894Y-83735146D01*
X172092000Y-83910570D01*
X172092000Y-84089430D01*
X172126894Y-84264854D01*
X172195341Y-84430099D01*
X172294711Y-84578816D01*
X172317001Y-84601106D01*
X172317000Y-86717092D01*
X169942093Y-89092000D01*
X169910570Y-89092000D01*
X169735146Y-89126894D01*
X169569901Y-89195341D01*
X169421184Y-89294711D01*
X169294711Y-89421184D01*
X169195341Y-89569901D01*
X169126894Y-89735146D01*
X169092000Y-89910570D01*
X169092000Y-90089430D01*
X169126894Y-90264854D01*
X169195341Y-90430099D01*
X169294711Y-90578816D01*
X169317000Y-90601105D01*
X169317001Y-99717091D01*
X168942093Y-100092000D01*
X168910570Y-100092000D01*
X168735146Y-100126894D01*
X168569901Y-100195341D01*
X168421184Y-100294711D01*
X168294711Y-100421184D01*
X168195341Y-100569901D01*
X168126894Y-100735146D01*
X168092000Y-100910570D01*
X149805768Y-100910570D01*
X147194583Y-98299386D01*
X147174765Y-98275237D01*
X147078378Y-98196135D01*
X146968411Y-98137356D01*
X146849091Y-98101161D01*
X146756089Y-98092001D01*
X146725001Y-98088939D01*
X146693913Y-98092001D01*
X144682489Y-98092001D01*
X144683000Y-98089430D01*
X144683000Y-97910570D01*
X144648106Y-97735146D01*
X144579659Y-97569901D01*
X144480289Y-97421184D01*
X144458000Y-97398895D01*
X144458000Y-82507907D01*
X145084478Y-81881430D01*
X145116000Y-81881430D01*
X145291424Y-81846536D01*
X145456669Y-81778089D01*
X145605386Y-81678719D01*
X145731859Y-81552246D01*
X145826524Y-81410570D01*
X150092000Y-81410570D01*
X150092000Y-81589430D01*
X150126894Y-81764854D01*
X150195341Y-81930099D01*
X150294711Y-82078816D01*
X150421184Y-82205289D01*
X150569901Y-82304659D01*
X150735146Y-82373106D01*
X150910570Y-82408000D01*
X151089430Y-82408000D01*
X151264854Y-82373106D01*
X151430099Y-82304659D01*
X151578816Y-82205289D01*
X151651105Y-82133000D01*
X159968912Y-82133000D01*
X160000000Y-82136062D01*
X160031088Y-82133000D01*
X160124090Y-82123840D01*
X160243410Y-82087645D01*
X160353377Y-82028866D01*
X160449764Y-81949764D01*
X160469584Y-81925613D01*
X160487197Y-81908000D01*
X160589430Y-81908000D01*
X160764854Y-81873106D01*
X160930099Y-81804659D01*
X161078816Y-81705289D01*
X161205289Y-81578816D01*
X161304659Y-81430099D01*
X161373106Y-81264854D01*
X161408000Y-81089430D01*
X161408000Y-80910570D01*
X161373106Y-80735146D01*
X161304659Y-80569901D01*
X161205289Y-80421184D01*
X161078816Y-80294711D01*
X160930099Y-80195341D01*
X160764854Y-80126894D01*
X160589430Y-80092000D01*
X160410570Y-80092000D01*
X160235146Y-80126894D01*
X160069901Y-80195341D01*
X159921184Y-80294711D01*
X159794711Y-80421184D01*
X159695341Y-80569901D01*
X159626894Y-80735146D01*
X159600667Y-80867000D01*
X151651105Y-80867000D01*
X151578816Y-80794711D01*
X151430099Y-80695341D01*
X151264854Y-80626894D01*
X151089430Y-80592000D01*
X150910570Y-80592000D01*
X150735146Y-80626894D01*
X150569901Y-80695341D01*
X150421184Y-80794711D01*
X150294711Y-80921184D01*
X150195341Y-81069901D01*
X150126894Y-81235146D01*
X150092000Y-81410570D01*
X145826524Y-81410570D01*
X145831229Y-81403529D01*
X145899676Y-81238284D01*
X145934570Y-81062860D01*
X145934570Y-80884000D01*
X145899676Y-80708576D01*
X145831229Y-80543331D01*
X145731859Y-80394614D01*
X145605386Y-80268141D01*
X145456669Y-80168771D01*
X145291424Y-80100324D01*
X145116000Y-80065430D01*
X144937140Y-80065430D01*
X144761716Y-80100324D01*
X144596471Y-80168771D01*
X144447754Y-80268141D01*
X144321281Y-80394614D01*
X144221911Y-80543331D01*
X144153464Y-80708576D01*
X144118570Y-80884000D01*
X144118570Y-80915522D01*
X143315766Y-81718327D01*
X143289710Y-81739711D01*
X143204359Y-81843711D01*
X143140938Y-81962364D01*
X143101883Y-82091110D01*
X143092000Y-82191455D01*
X143092000Y-82191464D01*
X143088697Y-82225000D01*
X143092000Y-82258536D01*
X143092000Y-86092511D01*
X143089430Y-86092000D01*
X142910570Y-86092000D01*
X142735146Y-86126894D01*
X142683000Y-86148494D01*
X142683000Y-85601105D01*
X142705289Y-85578816D01*
X142804659Y-85430099D01*
X142873106Y-85264854D01*
X142908000Y-85089430D01*
X142908000Y-84910570D01*
X142873106Y-84735146D01*
X142804659Y-84569901D01*
X142705289Y-84421184D01*
X142578816Y-84294711D01*
X142430099Y-84195341D01*
X142264854Y-84126894D01*
X142089430Y-84092000D01*
X141910570Y-84092000D01*
X141735146Y-84126894D01*
X141569901Y-84195341D01*
X141421184Y-84294711D01*
X141294711Y-84421184D01*
X141195341Y-84569901D01*
X141126894Y-84735146D01*
X141092000Y-84910570D01*
X141092000Y-85089430D01*
X141126894Y-85264854D01*
X141195341Y-85430099D01*
X141294711Y-85578816D01*
X141317000Y-85601105D01*
X141317001Y-96717091D01*
X140942093Y-97092000D01*
X140910570Y-97092000D01*
X140735146Y-97126894D01*
X140569901Y-97195341D01*
X140500000Y-97242048D01*
X140430099Y-97195341D01*
X140264854Y-97126894D01*
X140089430Y-97092000D01*
X139910570Y-97092000D01*
X139735146Y-97126894D01*
X139569901Y-97195341D01*
X139421184Y-97294711D01*
X139294711Y-97421184D01*
X139195341Y-97569901D01*
X139126894Y-97735146D01*
X139092000Y-97910570D01*
X132127000Y-97910570D01*
X132127000Y-91350711D01*
X134492000Y-91350711D01*
X134492000Y-91549269D01*
X134530737Y-91744013D01*
X134606722Y-91927457D01*
X134717035Y-92092552D01*
X134817001Y-92192518D01*
X134817000Y-92357463D01*
X134717035Y-92457428D01*
X134606722Y-92622523D01*
X134530737Y-92805967D01*
X134492000Y-93000711D01*
X134492000Y-93199269D01*
X134530737Y-93394013D01*
X134606722Y-93577457D01*
X134717035Y-93742552D01*
X134857438Y-93882955D01*
X135022533Y-93993268D01*
X135205977Y-94069253D01*
X135400721Y-94107990D01*
X135599279Y-94107990D01*
X135794023Y-94069253D01*
X135977467Y-93993268D01*
X136142562Y-93882955D01*
X136282965Y-93742552D01*
X136322756Y-93683000D01*
X139257473Y-93683000D01*
X139357438Y-93782965D01*
X139522533Y-93893278D01*
X139705977Y-93969263D01*
X139900721Y-94008000D01*
X140099279Y-94008000D01*
X140294023Y-93969263D01*
X140477467Y-93893278D01*
X140642562Y-93782965D01*
X140782965Y-93642562D01*
X140893278Y-93477467D01*
X140969263Y-93294023D01*
X141008000Y-93099279D01*
X141008000Y-92900721D01*
X140969263Y-92705977D01*
X140893278Y-92522533D01*
X140782965Y-92357438D01*
X140642562Y-92217035D01*
X140477467Y-92106722D01*
X140294023Y-92030737D01*
X140099279Y-91992000D01*
X139900721Y-91992000D01*
X139705977Y-92030737D01*
X139522533Y-92106722D01*
X139357438Y-92217035D01*
X139257473Y-92317000D01*
X136183000Y-92317000D01*
X136183000Y-92192517D01*
X136282965Y-92092552D01*
X136393278Y-91927457D01*
X136469263Y-91744013D01*
X136508000Y-91549269D01*
X136508000Y-91350711D01*
X136469263Y-91155967D01*
X136393278Y-90972523D01*
X136282965Y-90807428D01*
X136142562Y-90667025D01*
X135977467Y-90556712D01*
X135794023Y-90480727D01*
X135599279Y-90441990D01*
X135400721Y-90441990D01*
X135205977Y-90480727D01*
X135022533Y-90556712D01*
X134857438Y-90667025D01*
X134717035Y-90807428D01*
X134606722Y-90972523D01*
X134530737Y-91155967D01*
X134492000Y-91350711D01*
X132127000Y-91350711D01*
X132127000Y-74400721D01*
X135992000Y-74400721D01*
X135992000Y-74599279D01*
X136030737Y-74794023D01*
X136106722Y-74977467D01*
X136217035Y-75142562D01*
X136357438Y-75282965D01*
X136522533Y-75393278D01*
X136705977Y-75469263D01*
X136900721Y-75508000D01*
X137099279Y-75508000D01*
X137294023Y-75469263D01*
X137477467Y-75393278D01*
X137642562Y-75282965D01*
X137782965Y-75142562D01*
X137893278Y-74977467D01*
X137969263Y-74794023D01*
X137991347Y-74683000D01*
X157864095Y-74683000D01*
X158453927Y-75272832D01*
X158421184Y-75294711D01*
X158348895Y-75367000D01*
X154651105Y-75367000D01*
X154578816Y-75294711D01*
X154430099Y-75195341D01*
X154264854Y-75126894D01*
X154089430Y-75092000D01*
X153910570Y-75092000D01*
X153735146Y-75126894D01*
X153569901Y-75195341D01*
X153499996Y-75242050D01*
X153426862Y-75193183D01*
X153261617Y-75124736D01*
X153086193Y-75089842D01*
X152907333Y-75089842D01*
X152731909Y-75124736D01*
X152566664Y-75193183D01*
X152417947Y-75292553D01*
X152291474Y-75419026D01*
X152192104Y-75567743D01*
X152123657Y-75732988D01*
X152088763Y-75908412D01*
X152088763Y-76087272D01*
X152123657Y-76262696D01*
X152192104Y-76427941D01*
X152291474Y-76576658D01*
X152417947Y-76703131D01*
X152566664Y-76802501D01*
X152731909Y-76870948D01*
X152907333Y-76905842D01*
X152937643Y-76905842D01*
X153457418Y-77425618D01*
X153477234Y-77449764D01*
X153573621Y-77528866D01*
X153683588Y-77587645D01*
X153802908Y-77623840D01*
X153926998Y-77636062D01*
X153958086Y-77633000D01*
X159348895Y-77633000D01*
X159421184Y-77705289D01*
X159569901Y-77804659D01*
X159735146Y-77873106D01*
X159910570Y-77908000D01*
X160089430Y-77908000D01*
X160264854Y-77873106D01*
X160430099Y-77804659D01*
X160578816Y-77705289D01*
X160705289Y-77578816D01*
X160727167Y-77546073D01*
X166006901Y-82825807D01*
X165992000Y-82900721D01*
X165992000Y-83042092D01*
X160040766Y-88993327D01*
X160014710Y-89014711D01*
X159929359Y-89118711D01*
X159865938Y-89237364D01*
X159826883Y-89366110D01*
X159817000Y-89466455D01*
X159817000Y-89466464D01*
X159813697Y-89500000D01*
X159817000Y-89533536D01*
X159817001Y-97757472D01*
X159717035Y-97857438D01*
X159606722Y-98022533D01*
X159530737Y-98205977D01*
X159492000Y-98400721D01*
X159492000Y-98599279D01*
X159530737Y-98794023D01*
X159606722Y-98977467D01*
X159717035Y-99142562D01*
X159857438Y-99282965D01*
X160022533Y-99393278D01*
X160205977Y-99469263D01*
X160400721Y-99508000D01*
X160599279Y-99508000D01*
X160794023Y-99469263D01*
X160977467Y-99393278D01*
X161142562Y-99282965D01*
X161282965Y-99142562D01*
X161393278Y-98977467D01*
X161469263Y-98794023D01*
X161508000Y-98599279D01*
X161508000Y-98400721D01*
X161469263Y-98205977D01*
X161393278Y-98022533D01*
X161282965Y-97857438D01*
X161183000Y-97757473D01*
X161183000Y-89782907D01*
X165460262Y-85505645D01*
X170042000Y-85505645D01*
X170042000Y-85694355D01*
X170078816Y-85879438D01*
X170151032Y-86053783D01*
X170255873Y-86210689D01*
X170389311Y-86344127D01*
X170546217Y-86448968D01*
X170720562Y-86521184D01*
X170905645Y-86558000D01*
X171094355Y-86558000D01*
X171279438Y-86521184D01*
X171453783Y-86448968D01*
X171610689Y-86344127D01*
X171744127Y-86210689D01*
X171848968Y-86053783D01*
X171921184Y-85879438D01*
X171958000Y-85694355D01*
X171958000Y-85505645D01*
X171921184Y-85320562D01*
X171848968Y-85146217D01*
X171744127Y-84989311D01*
X171610689Y-84855873D01*
X171453783Y-84751032D01*
X171279438Y-84678816D01*
X171094355Y-84642000D01*
X170905645Y-84642000D01*
X170720562Y-84678816D01*
X170546217Y-84751032D01*
X170389311Y-84855873D01*
X170255873Y-84989311D01*
X170151032Y-85146217D01*
X170078816Y-85320562D01*
X170042000Y-85505645D01*
X165460262Y-85505645D01*
X166957908Y-84008000D01*
X167099279Y-84008000D01*
X167294023Y-83969263D01*
X167477467Y-83893278D01*
X167642562Y-83782965D01*
X167782965Y-83642562D01*
X167893278Y-83477467D01*
X167969263Y-83294023D01*
X168008000Y-83099279D01*
X168008000Y-82900721D01*
X167969263Y-82705977D01*
X167893278Y-82522533D01*
X167782965Y-82357438D01*
X167642562Y-82217035D01*
X167477467Y-82106722D01*
X167294023Y-82030737D01*
X167106308Y-81993398D01*
X158653679Y-73540770D01*
X158632292Y-73514710D01*
X158528292Y-73429359D01*
X158409639Y-73365938D01*
X158280893Y-73326883D01*
X158180548Y-73317000D01*
X158180538Y-73317000D01*
X158147002Y-73313697D01*
X158113466Y-73317000D01*
X137533539Y-73317000D01*
X137500000Y-73313697D01*
X137466461Y-73317000D01*
X137466454Y-73317000D01*
X137378655Y-73325647D01*
X137366108Y-73326883D01*
X137237363Y-73365938D01*
X137118710Y-73429359D01*
X137042382Y-73492000D01*
X136900721Y-73492000D01*
X136705977Y-73530737D01*
X136522533Y-73606722D01*
X136357438Y-73717035D01*
X136217035Y-73857438D01*
X136106722Y-74022533D01*
X136030737Y-74205977D01*
X135992000Y-74400721D01*
X132127000Y-74400721D01*
X132127000Y-69900721D01*
X136111999Y-69900721D01*
X136111999Y-70099279D01*
X136150736Y-70294023D01*
X136226721Y-70477467D01*
X136337034Y-70642562D01*
X136477437Y-70782965D01*
X136642532Y-70893278D01*
X136825976Y-70969263D01*
X137020720Y-71008000D01*
X137219278Y-71008000D01*
X137414022Y-70969263D01*
X137597466Y-70893278D01*
X137762561Y-70782965D01*
X137902964Y-70642562D01*
X138013277Y-70477467D01*
X138089262Y-70294023D01*
X138127999Y-70099279D01*
X138127999Y-69957908D01*
X138177908Y-69907999D01*
X140942092Y-69907999D01*
X140992000Y-69957907D01*
X140992000Y-70099279D01*
X141030737Y-70294023D01*
X141106722Y-70477467D01*
X141217035Y-70642562D01*
X141357438Y-70782965D01*
X141522533Y-70893278D01*
X141705977Y-70969263D01*
X141900721Y-71008000D01*
X142099279Y-71008000D01*
X142294023Y-70969263D01*
X142477467Y-70893278D01*
X142642562Y-70782965D01*
X142782965Y-70642562D01*
X142893278Y-70477467D01*
X142969263Y-70294023D01*
X143008000Y-70099279D01*
X143008000Y-69900721D01*
X142969263Y-69705977D01*
X142893278Y-69522533D01*
X142782965Y-69357438D01*
X142642562Y-69217035D01*
X142477467Y-69106722D01*
X142294023Y-69030737D01*
X142099279Y-68992000D01*
X141957907Y-68992000D01*
X141731676Y-68765769D01*
X141710289Y-68739709D01*
X141606289Y-68654358D01*
X141487636Y-68590937D01*
X141358890Y-68551882D01*
X141258545Y-68541999D01*
X141258535Y-68541999D01*
X141224999Y-68538696D01*
X141191463Y-68541999D01*
X137928536Y-68541999D01*
X137895000Y-68538696D01*
X137861464Y-68541999D01*
X137861454Y-68541999D01*
X137761109Y-68551882D01*
X137632363Y-68590937D01*
X137513710Y-68654358D01*
X137409710Y-68739709D01*
X137388327Y-68765764D01*
X137162091Y-68992000D01*
X137020720Y-68992000D01*
X136825976Y-69030737D01*
X136642532Y-69106722D01*
X136477437Y-69217035D01*
X136337034Y-69357438D01*
X136226721Y-69522533D01*
X136150736Y-69705977D01*
X136111999Y-69900721D01*
X132127000Y-69900721D01*
X132127000Y-65369253D01*
X132788254Y-64708000D01*
X133266715Y-64708000D01*
X133789895Y-64603933D01*
X134282719Y-64399799D01*
X134726249Y-64103441D01*
X135103441Y-63726249D01*
X135399799Y-63282719D01*
X135603933Y-62789895D01*
X135708000Y-62266715D01*
X135708000Y-61733285D01*
X135603933Y-61210105D01*
X135399799Y-60717281D01*
X135339248Y-60626659D01*
X135532907Y-60433000D01*
X148058326Y-60433000D01*
X148071389Y-60476064D01*
X148174274Y-60668550D01*
X148312735Y-60837265D01*
X148481450Y-60975726D01*
X148673935Y-61078611D01*
X148882794Y-61141968D01*
X149100000Y-61163361D01*
X149317205Y-61141968D01*
X149526064Y-61078611D01*
X149718550Y-60975726D01*
X149887265Y-60837265D01*
X150025726Y-60668550D01*
X150128611Y-60476065D01*
X150191968Y-60267206D01*
X150208000Y-60104431D01*
X150208000Y-59295570D01*
X150191968Y-59132795D01*
X150128611Y-58923935D01*
X150025726Y-58731450D01*
X149887265Y-58562735D01*
X149851033Y-58533000D01*
X158148968Y-58533000D01*
X158112736Y-58562735D01*
%TA.AperFunction,Conductor*%
D20*
G36*
X158112736Y-58562735D02*
G01*
X157974275Y-58731450D01*
X157871390Y-58923935D01*
X157808032Y-59132794D01*
X157792000Y-59295569D01*
X157792000Y-60104430D01*
X157808032Y-60267205D01*
X157871389Y-60476064D01*
X157974274Y-60668550D01*
X158076593Y-60793225D01*
X157930099Y-60695341D01*
X157764854Y-60626894D01*
X157589430Y-60592000D01*
X157410570Y-60592000D01*
X157235146Y-60626894D01*
X157069901Y-60695341D01*
X156921184Y-60794711D01*
X156794711Y-60921184D01*
X156695341Y-61069901D01*
X156626894Y-61235146D01*
X156592000Y-61410570D01*
X156592000Y-61589430D01*
X156597482Y-61616990D01*
X148781095Y-61616990D01*
X148750009Y-61613928D01*
X148718923Y-61616990D01*
X148718922Y-61616990D01*
X148625920Y-61626150D01*
X148506600Y-61662345D01*
X148396633Y-61721124D01*
X148300246Y-61800226D01*
X148280426Y-61824377D01*
X148012803Y-62092000D01*
X147910570Y-62092000D01*
X147735146Y-62126894D01*
X147569901Y-62195341D01*
X147421184Y-62294711D01*
X147294711Y-62421184D01*
X147195341Y-62569901D01*
X147126894Y-62735146D01*
X147092000Y-62910570D01*
X147092000Y-63089430D01*
X147126894Y-63264854D01*
X147195341Y-63430099D01*
X147294711Y-63578816D01*
X147421184Y-63705289D01*
X147569901Y-63804659D01*
X147735146Y-63873106D01*
X147910570Y-63908000D01*
X148089430Y-63908000D01*
X148264854Y-63873106D01*
X148430099Y-63804659D01*
X148578816Y-63705289D01*
X148705289Y-63578816D01*
X148804659Y-63430099D01*
X148867239Y-63279018D01*
X148912432Y-63427998D01*
X149003711Y-63598768D01*
X149126551Y-63748449D01*
X149276232Y-63871289D01*
X149318760Y-63894021D01*
X149274973Y-63999731D01*
X149242000Y-64165494D01*
X149242000Y-64334506D01*
X149274973Y-64500269D01*
X149339651Y-64656415D01*
X149433548Y-64796943D01*
X149553057Y-64916452D01*
X149693585Y-65010349D01*
X149849731Y-65075027D01*
X150015494Y-65108000D01*
X150184506Y-65108000D01*
X150350269Y-65075027D01*
X150506415Y-65010349D01*
X150646943Y-64916452D01*
X150766452Y-64796943D01*
X150843117Y-64682205D01*
X150856176Y-64684828D01*
X151040355Y-64685171D01*
X151221061Y-64649574D01*
X151391351Y-64579408D01*
X151394425Y-64577763D01*
X151404936Y-64384541D01*
X150950000Y-63929605D01*
X150935858Y-63943748D01*
X150877782Y-63885672D01*
X150860349Y-63843585D01*
X150823934Y-63789085D01*
X150873449Y-63748449D01*
X150996289Y-63598768D01*
X150999701Y-63592386D01*
X151084930Y-63677615D01*
X151086663Y-63678773D01*
X151143748Y-63735858D01*
X151129605Y-63750000D01*
X151584541Y-64204936D01*
X151777763Y-64194425D01*
X151848562Y-64024397D01*
X151884828Y-63843824D01*
X151884897Y-63806565D01*
X151982732Y-63766041D01*
X151992000Y-63759848D01*
X151992000Y-63829581D01*
X152023051Y-63985685D01*
X152083959Y-64132732D01*
X152172385Y-64265070D01*
X152284930Y-64377615D01*
X152417268Y-64466041D01*
X152564315Y-64526949D01*
X152720419Y-64558000D01*
X152879581Y-64558000D01*
X152992000Y-64535638D01*
X152992001Y-65370130D01*
X152989059Y-65400000D01*
X153000798Y-65519188D01*
X153035565Y-65633797D01*
X153092022Y-65739421D01*
X153168000Y-65832001D01*
X153191198Y-65851039D01*
X156192000Y-68851842D01*
X156192000Y-69247393D01*
X156121184Y-69294711D01*
X155994711Y-69421184D01*
X155895341Y-69569901D01*
X155826894Y-69735146D01*
X155792000Y-69910570D01*
X155792000Y-70089430D01*
X155826894Y-70264854D01*
X155895341Y-70430099D01*
X155994711Y-70578816D01*
X156121184Y-70705289D01*
X156269901Y-70804659D01*
X156435146Y-70873106D01*
X156610570Y-70908000D01*
X156789430Y-70908000D01*
X156964854Y-70873106D01*
X157130099Y-70804659D01*
X157278816Y-70705289D01*
X157405289Y-70578816D01*
X157504659Y-70430099D01*
X157573106Y-70264854D01*
X157608000Y-70089430D01*
X157608000Y-69910570D01*
X157573106Y-69735146D01*
X157504659Y-69569901D01*
X157408000Y-69425241D01*
X157408000Y-68629860D01*
X157410941Y-68599999D01*
X157399202Y-68480811D01*
X157364436Y-68366204D01*
X157364436Y-68366203D01*
X157307979Y-68260579D01*
X157232001Y-68167999D01*
X157208804Y-68148962D01*
X154208000Y-65148159D01*
X154208000Y-64535638D01*
X154320419Y-64558000D01*
X154479581Y-64558000D01*
X154635685Y-64526949D01*
X154782732Y-64466041D01*
X154800000Y-64454503D01*
X154817268Y-64466041D01*
X154964315Y-64526949D01*
X155110912Y-64556109D01*
X155905417Y-65350614D01*
X155925237Y-65374765D01*
X156021624Y-65453867D01*
X156131591Y-65512646D01*
X156250911Y-65548841D01*
X156343913Y-65558001D01*
X156343914Y-65558001D01*
X156375000Y-65561063D01*
X156406086Y-65558001D01*
X158192913Y-65558001D01*
X158224001Y-65561063D01*
X158255089Y-65558001D01*
X158348091Y-65548841D01*
X158467411Y-65512646D01*
X158577378Y-65453867D01*
X158673765Y-65374765D01*
X158693585Y-65350614D01*
X159400629Y-64643571D01*
X159424774Y-64623756D01*
X159467557Y-64571625D01*
X159503876Y-64527369D01*
X159531741Y-64475237D01*
X159562655Y-64417402D01*
X159598850Y-64298082D01*
X159608010Y-64205080D01*
X159608010Y-64205079D01*
X159611072Y-64173993D01*
X159608010Y-64142907D01*
X159608010Y-62820444D01*
X159735146Y-62873106D01*
X159910570Y-62908000D01*
X160089430Y-62908000D01*
X160264854Y-62873106D01*
X160430099Y-62804659D01*
X160578816Y-62705289D01*
X160705289Y-62578816D01*
X160804659Y-62430099D01*
X160873106Y-62264854D01*
X160908000Y-62089430D01*
X160908000Y-61910570D01*
X160873106Y-61735146D01*
X160804659Y-61569901D01*
X160705289Y-61421184D01*
X160578816Y-61294711D01*
X160430099Y-61195341D01*
X160264854Y-61126894D01*
X160089430Y-61092000D01*
X159987197Y-61092000D01*
X159969584Y-61074387D01*
X159949764Y-61050236D01*
X159853377Y-60971134D01*
X159743410Y-60912355D01*
X159635612Y-60879655D01*
X159687265Y-60837265D01*
X159825726Y-60668550D01*
X159928611Y-60476065D01*
X159941675Y-60433000D01*
X172467093Y-60433000D01*
X172660752Y-60626659D01*
X172600201Y-60717281D01*
X172396067Y-61210105D01*
X172292000Y-61733285D01*
X172292000Y-62266715D01*
X172396067Y-62789895D01*
X172600201Y-63282719D01*
X172896559Y-63726249D01*
X173273751Y-64103441D01*
X173717281Y-64399799D01*
X174210105Y-64603933D01*
X174733285Y-64708000D01*
X175211747Y-64708000D01*
X175873000Y-65369254D01*
X175873000Y-121873000D01*
X132127000Y-121873000D01*
X132127000Y-114910570D01*
X143092000Y-114910570D01*
X143092000Y-115089430D01*
X143126894Y-115264854D01*
X143195341Y-115430099D01*
X143294711Y-115578816D01*
X143421184Y-115705289D01*
X143569901Y-115804659D01*
X143735146Y-115873106D01*
X143910570Y-115908000D01*
X144089430Y-115908000D01*
X144264854Y-115873106D01*
X144430099Y-115804659D01*
X144578816Y-115705289D01*
X144705289Y-115578816D01*
X144804659Y-115430099D01*
X144873106Y-115264854D01*
X144908000Y-115089430D01*
X144908000Y-114987197D01*
X148994476Y-110900721D01*
X164492000Y-110900721D01*
X164492000Y-111099279D01*
X164530737Y-111294023D01*
X164606722Y-111477467D01*
X164717035Y-111642562D01*
X164857438Y-111782965D01*
X165022533Y-111893278D01*
X165205977Y-111969263D01*
X165400721Y-112008000D01*
X165599279Y-112008000D01*
X165794023Y-111969263D01*
X165977467Y-111893278D01*
X166142562Y-111782965D01*
X166282965Y-111642562D01*
X166393278Y-111477467D01*
X166469263Y-111294023D01*
X166491347Y-111183000D01*
X169757473Y-111183000D01*
X169857438Y-111282965D01*
X170022533Y-111393278D01*
X170205977Y-111469263D01*
X170400721Y-111508000D01*
X170599279Y-111508000D01*
X170794023Y-111469263D01*
X170977467Y-111393278D01*
X171142562Y-111282965D01*
X171282965Y-111142562D01*
X171393278Y-110977467D01*
X171469263Y-110794023D01*
X171508000Y-110599279D01*
X171508000Y-110400721D01*
X171469263Y-110205977D01*
X171393278Y-110022533D01*
X171282965Y-109857438D01*
X171142562Y-109717035D01*
X170977467Y-109606722D01*
X170794023Y-109530737D01*
X170599279Y-109492000D01*
X170400721Y-109492000D01*
X170205977Y-109530737D01*
X170022533Y-109606722D01*
X169857438Y-109717035D01*
X169757473Y-109817000D01*
X166033539Y-109817000D01*
X166000000Y-109813697D01*
X165966461Y-109817000D01*
X165966454Y-109817000D01*
X165878655Y-109825647D01*
X165866108Y-109826883D01*
X165737363Y-109865938D01*
X165618710Y-109929359D01*
X165542382Y-109992000D01*
X165400721Y-109992000D01*
X165205977Y-110030737D01*
X165022533Y-110106722D01*
X164857438Y-110217035D01*
X164717035Y-110357438D01*
X164606722Y-110522533D01*
X164530737Y-110705977D01*
X164492000Y-110900721D01*
X148994476Y-110900721D01*
X152425613Y-107469584D01*
X152449764Y-107449764D01*
X152528866Y-107353377D01*
X152587645Y-107243410D01*
X152623840Y-107124090D01*
X152633000Y-107031088D01*
X152633000Y-107031079D01*
X152636061Y-107000001D01*
X152633000Y-106968923D01*
X152633000Y-106910570D01*
X164642000Y-106910570D01*
X164642000Y-107089430D01*
X164676894Y-107264854D01*
X164745341Y-107430099D01*
X164844711Y-107578816D01*
X164971184Y-107705289D01*
X165119901Y-107804659D01*
X165285146Y-107873106D01*
X165460570Y-107908000D01*
X165639430Y-107908000D01*
X165814854Y-107873106D01*
X165980099Y-107804659D01*
X166128816Y-107705289D01*
X166201105Y-107633000D01*
X169737803Y-107633000D01*
X170092000Y-107987197D01*
X170092000Y-108089430D01*
X170126894Y-108264854D01*
X170195341Y-108430099D01*
X170294711Y-108578816D01*
X170421184Y-108705289D01*
X170569901Y-108804659D01*
X170735146Y-108873106D01*
X170910570Y-108908000D01*
X171089430Y-108908000D01*
X171264854Y-108873106D01*
X171430099Y-108804659D01*
X171578816Y-108705289D01*
X171705289Y-108578816D01*
X171804659Y-108430099D01*
X171873106Y-108264854D01*
X171908000Y-108089430D01*
X171908000Y-107910570D01*
X171873106Y-107735146D01*
X171804659Y-107569901D01*
X171705289Y-107421184D01*
X171578816Y-107294711D01*
X171430099Y-107195341D01*
X171264854Y-107126894D01*
X171089430Y-107092000D01*
X170987197Y-107092000D01*
X170469584Y-106574387D01*
X170449764Y-106550236D01*
X170353377Y-106471134D01*
X170243410Y-106412355D01*
X170124090Y-106376160D01*
X170031088Y-106367000D01*
X170000000Y-106363938D01*
X169968912Y-106367000D01*
X166201105Y-106367000D01*
X166128816Y-106294711D01*
X165980099Y-106195341D01*
X165814854Y-106126894D01*
X165639430Y-106092000D01*
X165460570Y-106092000D01*
X165285146Y-106126894D01*
X165119901Y-106195341D01*
X164971184Y-106294711D01*
X164844711Y-106421184D01*
X164745341Y-106569901D01*
X164676894Y-106735146D01*
X164642000Y-106910570D01*
X152633000Y-106910570D01*
X152633000Y-103651105D01*
X152705289Y-103578816D01*
X152804659Y-103430099D01*
X152812748Y-103410570D01*
X168092000Y-103410570D01*
X168092000Y-103589430D01*
X168126894Y-103764854D01*
X168195341Y-103930099D01*
X168294711Y-104078816D01*
X168421184Y-104205289D01*
X168569901Y-104304659D01*
X168735146Y-104373106D01*
X168910570Y-104408000D01*
X169012803Y-104408000D01*
X172367000Y-107762197D01*
X172367001Y-108348894D01*
X172294711Y-108421184D01*
X172195341Y-108569901D01*
X172126894Y-108735146D01*
X172092000Y-108910570D01*
X172092000Y-109089430D01*
X172126894Y-109264854D01*
X172195341Y-109430099D01*
X172294711Y-109578816D01*
X172421184Y-109705289D01*
X172569901Y-109804659D01*
X172735146Y-109873106D01*
X172910570Y-109908000D01*
X173089430Y-109908000D01*
X173264854Y-109873106D01*
X173430099Y-109804659D01*
X173578816Y-109705289D01*
X173705289Y-109578816D01*
X173804659Y-109430099D01*
X173873106Y-109264854D01*
X173908000Y-109089430D01*
X173908000Y-108910570D01*
X173873106Y-108735146D01*
X173804659Y-108569901D01*
X173705289Y-108421184D01*
X173633000Y-108348895D01*
X173633000Y-107531085D01*
X173636062Y-107499999D01*
X173629177Y-107430099D01*
X173623840Y-107375910D01*
X173587645Y-107256590D01*
X173554907Y-107195341D01*
X173528866Y-107146623D01*
X173481929Y-107089430D01*
X173449764Y-107050236D01*
X173425614Y-107030417D01*
X169908000Y-103512803D01*
X169908000Y-103410570D01*
X169873106Y-103235146D01*
X169804659Y-103069901D01*
X169705289Y-102921184D01*
X169578816Y-102794711D01*
X169430099Y-102695341D01*
X169264854Y-102626894D01*
X169089430Y-102592000D01*
X168910570Y-102592000D01*
X168735146Y-102626894D01*
X168569901Y-102695341D01*
X168421184Y-102794711D01*
X168294711Y-102921184D01*
X168195341Y-103069901D01*
X168126894Y-103235146D01*
X168092000Y-103410570D01*
X152812748Y-103410570D01*
X152873106Y-103264854D01*
X152908000Y-103089430D01*
X152908000Y-102910570D01*
X152873106Y-102735146D01*
X152804659Y-102569901D01*
X152705289Y-102421184D01*
X152578816Y-102294711D01*
X152430099Y-102195341D01*
X152264854Y-102126894D01*
X152089430Y-102092000D01*
X151910570Y-102092000D01*
X151735146Y-102126894D01*
X151569901Y-102195341D01*
X151421184Y-102294711D01*
X151294711Y-102421184D01*
X151195341Y-102569901D01*
X151126894Y-102735146D01*
X151092000Y-102910570D01*
X151092000Y-103089430D01*
X151126894Y-103264854D01*
X151195341Y-103430099D01*
X151294711Y-103578816D01*
X151367000Y-103651105D01*
X151367001Y-106737802D01*
X144012803Y-114092000D01*
X143910570Y-114092000D01*
X143735146Y-114126894D01*
X143569901Y-114195341D01*
X143421184Y-114294711D01*
X143294711Y-114421184D01*
X143195341Y-114569901D01*
X143126894Y-114735146D01*
X143092000Y-114910570D01*
X132127000Y-114910570D01*
X132127000Y-101910570D01*
X138092000Y-101910570D01*
X138092000Y-102089430D01*
X138126894Y-102264854D01*
X138195341Y-102430099D01*
X138294711Y-102578816D01*
X138421184Y-102705289D01*
X138569901Y-102804659D01*
X138735146Y-102873106D01*
X138910570Y-102908000D01*
X139012803Y-102908000D01*
X142530416Y-106425613D01*
X142550236Y-106449764D01*
X142646623Y-106528866D01*
X142723394Y-106569901D01*
X142756590Y-106587645D01*
X142875910Y-106623840D01*
X142968912Y-106633000D01*
X142968913Y-106633000D01*
X142999999Y-106636062D01*
X143031085Y-106633000D01*
X146348895Y-106633000D01*
X146421184Y-106705289D01*
X146569901Y-106804659D01*
X146735146Y-106873106D01*
X146910570Y-106908000D01*
X147089430Y-106908000D01*
X147264854Y-106873106D01*
X147430099Y-106804659D01*
X147578816Y-106705289D01*
X147705289Y-106578816D01*
X147804659Y-106430099D01*
X147873106Y-106264854D01*
X147908000Y-106089430D01*
X147908000Y-105910570D01*
X147873106Y-105735146D01*
X147804659Y-105569901D01*
X147705289Y-105421184D01*
X147578816Y-105294711D01*
X147430099Y-105195341D01*
X147264854Y-105126894D01*
X147089430Y-105092000D01*
X146910570Y-105092000D01*
X146735146Y-105126894D01*
X146569901Y-105195341D01*
X146421184Y-105294711D01*
X146348895Y-105367000D01*
X143262197Y-105367000D01*
X141767293Y-103872096D01*
X141930099Y-103804659D01*
X142078816Y-103705289D01*
X142205289Y-103578816D01*
X142304659Y-103430099D01*
X142373106Y-103264854D01*
X142408000Y-103089430D01*
X142408000Y-102910570D01*
X142373106Y-102735146D01*
X142304659Y-102569901D01*
X142205289Y-102421184D01*
X142078816Y-102294711D01*
X141930099Y-102195341D01*
X141764854Y-102126894D01*
X141633000Y-102100667D01*
X141633000Y-102031088D01*
X141636062Y-102000000D01*
X141623840Y-101875910D01*
X141600490Y-101798936D01*
X141587645Y-101756590D01*
X141582847Y-101747614D01*
X141582847Y-101585417D01*
X141547953Y-101409993D01*
X141479506Y-101244748D01*
X141380136Y-101096031D01*
X141253663Y-100969558D01*
X141104946Y-100870188D01*
X140939701Y-100801741D01*
X140764277Y-100766847D01*
X140585417Y-100766847D01*
X140409993Y-100801741D01*
X140244748Y-100870188D01*
X140096031Y-100969558D01*
X139969558Y-101096031D01*
X139870188Y-101244748D01*
X139801741Y-101409993D01*
X139777899Y-101529853D01*
X139705289Y-101421184D01*
X139578816Y-101294711D01*
X139430099Y-101195341D01*
X139264854Y-101126894D01*
X139089430Y-101092000D01*
X138910570Y-101092000D01*
X138735146Y-101126894D01*
X138569901Y-101195341D01*
X138421184Y-101294711D01*
X138294711Y-101421184D01*
X138195341Y-101569901D01*
X138126894Y-101735146D01*
X138092000Y-101910570D01*
X132127000Y-101910570D01*
X132127000Y-97910570D01*
X139092000Y-97910570D01*
X139092000Y-98089430D01*
X139126894Y-98264854D01*
X139195341Y-98430099D01*
X139294711Y-98578816D01*
X139372936Y-98657041D01*
X139376160Y-98689775D01*
X139412355Y-98809095D01*
X139471134Y-98919062D01*
X139550237Y-99015449D01*
X139574384Y-99035266D01*
X139689728Y-99150610D01*
X139709552Y-99174765D01*
X139805939Y-99253867D01*
X139915906Y-99312646D01*
X140035226Y-99348841D01*
X140159316Y-99361063D01*
X140190404Y-99358001D01*
X146462804Y-99358001D01*
X149092000Y-101987198D01*
X149092000Y-102089430D01*
X149126894Y-102264854D01*
X149195341Y-102430099D01*
X149294711Y-102578816D01*
X149421184Y-102705289D01*
X149569901Y-102804659D01*
X149735146Y-102873106D01*
X149910570Y-102908000D01*
X150089430Y-102908000D01*
X150264854Y-102873106D01*
X150430099Y-102804659D01*
X150578816Y-102705289D01*
X150705289Y-102578816D01*
X150804659Y-102430099D01*
X150873106Y-102264854D01*
X150908000Y-102089430D01*
X150908000Y-101910570D01*
X150873106Y-101735146D01*
X150804659Y-101569901D01*
X150705289Y-101421184D01*
X150578816Y-101294711D01*
X150430099Y-101195341D01*
X150264854Y-101126894D01*
X150089430Y-101092000D01*
X149987198Y-101092000D01*
X149805768Y-100910570D01*
X168092000Y-100910570D01*
X168092000Y-101089430D01*
X168126894Y-101264854D01*
X168195341Y-101430099D01*
X168294711Y-101578816D01*
X168421184Y-101705289D01*
X168569901Y-101804659D01*
X168735146Y-101873106D01*
X168910570Y-101908000D01*
X169089430Y-101908000D01*
X169264854Y-101873106D01*
X169430099Y-101804659D01*
X169578816Y-101705289D01*
X169705289Y-101578816D01*
X169804659Y-101430099D01*
X169873106Y-101264854D01*
X169908000Y-101089430D01*
X169908000Y-101057907D01*
X170459235Y-100506673D01*
X170485290Y-100485290D01*
X170537901Y-100421184D01*
X170570641Y-100381291D01*
X170634062Y-100262637D01*
X170673117Y-100133892D01*
X170686304Y-100000000D01*
X170683000Y-99966454D01*
X170683000Y-93305625D01*
X170720562Y-93321184D01*
X170905645Y-93358000D01*
X171094355Y-93358000D01*
X171279438Y-93321184D01*
X171453783Y-93248968D01*
X171610689Y-93144127D01*
X171744127Y-93010689D01*
X171848968Y-92853783D01*
X171921184Y-92679438D01*
X171958000Y-92494355D01*
X171958000Y-92305645D01*
X171921184Y-92120562D01*
X171848968Y-91946217D01*
X171744127Y-91789311D01*
X171610689Y-91655873D01*
X171453783Y-91551032D01*
X171279438Y-91478816D01*
X171094355Y-91442000D01*
X170905645Y-91442000D01*
X170720562Y-91478816D01*
X170683000Y-91494375D01*
X170683000Y-90601105D01*
X170705289Y-90578816D01*
X170804659Y-90430099D01*
X170873106Y-90264854D01*
X170908000Y-90089430D01*
X170908000Y-90057907D01*
X173459240Y-87506668D01*
X173485289Y-87485290D01*
X173506668Y-87459240D01*
X173506674Y-87459234D01*
X173570641Y-87381291D01*
X173634062Y-87262637D01*
X173673117Y-87133892D01*
X173677496Y-87089430D01*
X173683000Y-87033546D01*
X173683000Y-87033539D01*
X173686303Y-87000000D01*
X173683000Y-86966461D01*
X173683000Y-84601105D01*
X173705289Y-84578816D01*
X173804659Y-84430099D01*
X173873106Y-84264854D01*
X173908000Y-84089430D01*
X173908000Y-83910570D01*
X173873106Y-83735146D01*
X173804659Y-83569901D01*
X173705289Y-83421184D01*
X173578816Y-83294711D01*
X173430099Y-83195341D01*
X173264854Y-83126894D01*
X173089430Y-83092000D01*
X172910570Y-83092000D01*
X172735146Y-83126894D01*
X172569901Y-83195341D01*
X172421184Y-83294711D01*
X172294711Y-83421184D01*
X172195341Y-83569901D01*
X172126894Y-83735146D01*
X172092000Y-83910570D01*
X172092000Y-84089430D01*
X172126894Y-84264854D01*
X172195341Y-84430099D01*
X172294711Y-84578816D01*
X172317001Y-84601106D01*
X172317000Y-86717092D01*
X169942093Y-89092000D01*
X169910570Y-89092000D01*
X169735146Y-89126894D01*
X169569901Y-89195341D01*
X169421184Y-89294711D01*
X169294711Y-89421184D01*
X169195341Y-89569901D01*
X169126894Y-89735146D01*
X169092000Y-89910570D01*
X169092000Y-90089430D01*
X169126894Y-90264854D01*
X169195341Y-90430099D01*
X169294711Y-90578816D01*
X169317000Y-90601105D01*
X169317001Y-99717091D01*
X168942093Y-100092000D01*
X168910570Y-100092000D01*
X168735146Y-100126894D01*
X168569901Y-100195341D01*
X168421184Y-100294711D01*
X168294711Y-100421184D01*
X168195341Y-100569901D01*
X168126894Y-100735146D01*
X168092000Y-100910570D01*
X149805768Y-100910570D01*
X147194583Y-98299386D01*
X147174765Y-98275237D01*
X147078378Y-98196135D01*
X146968411Y-98137356D01*
X146849091Y-98101161D01*
X146756089Y-98092001D01*
X146725001Y-98088939D01*
X146693913Y-98092001D01*
X144682489Y-98092001D01*
X144683000Y-98089430D01*
X144683000Y-97910570D01*
X144648106Y-97735146D01*
X144579659Y-97569901D01*
X144480289Y-97421184D01*
X144458000Y-97398895D01*
X144458000Y-82507907D01*
X145084478Y-81881430D01*
X145116000Y-81881430D01*
X145291424Y-81846536D01*
X145456669Y-81778089D01*
X145605386Y-81678719D01*
X145731859Y-81552246D01*
X145826524Y-81410570D01*
X150092000Y-81410570D01*
X150092000Y-81589430D01*
X150126894Y-81764854D01*
X150195341Y-81930099D01*
X150294711Y-82078816D01*
X150421184Y-82205289D01*
X150569901Y-82304659D01*
X150735146Y-82373106D01*
X150910570Y-82408000D01*
X151089430Y-82408000D01*
X151264854Y-82373106D01*
X151430099Y-82304659D01*
X151578816Y-82205289D01*
X151651105Y-82133000D01*
X159968912Y-82133000D01*
X160000000Y-82136062D01*
X160031088Y-82133000D01*
X160124090Y-82123840D01*
X160243410Y-82087645D01*
X160353377Y-82028866D01*
X160449764Y-81949764D01*
X160469584Y-81925613D01*
X160487197Y-81908000D01*
X160589430Y-81908000D01*
X160764854Y-81873106D01*
X160930099Y-81804659D01*
X161078816Y-81705289D01*
X161205289Y-81578816D01*
X161304659Y-81430099D01*
X161373106Y-81264854D01*
X161408000Y-81089430D01*
X161408000Y-80910570D01*
X161373106Y-80735146D01*
X161304659Y-80569901D01*
X161205289Y-80421184D01*
X161078816Y-80294711D01*
X160930099Y-80195341D01*
X160764854Y-80126894D01*
X160589430Y-80092000D01*
X160410570Y-80092000D01*
X160235146Y-80126894D01*
X160069901Y-80195341D01*
X159921184Y-80294711D01*
X159794711Y-80421184D01*
X159695341Y-80569901D01*
X159626894Y-80735146D01*
X159600667Y-80867000D01*
X151651105Y-80867000D01*
X151578816Y-80794711D01*
X151430099Y-80695341D01*
X151264854Y-80626894D01*
X151089430Y-80592000D01*
X150910570Y-80592000D01*
X150735146Y-80626894D01*
X150569901Y-80695341D01*
X150421184Y-80794711D01*
X150294711Y-80921184D01*
X150195341Y-81069901D01*
X150126894Y-81235146D01*
X150092000Y-81410570D01*
X145826524Y-81410570D01*
X145831229Y-81403529D01*
X145899676Y-81238284D01*
X145934570Y-81062860D01*
X145934570Y-80884000D01*
X145899676Y-80708576D01*
X145831229Y-80543331D01*
X145731859Y-80394614D01*
X145605386Y-80268141D01*
X145456669Y-80168771D01*
X145291424Y-80100324D01*
X145116000Y-80065430D01*
X144937140Y-80065430D01*
X144761716Y-80100324D01*
X144596471Y-80168771D01*
X144447754Y-80268141D01*
X144321281Y-80394614D01*
X144221911Y-80543331D01*
X144153464Y-80708576D01*
X144118570Y-80884000D01*
X144118570Y-80915522D01*
X143315766Y-81718327D01*
X143289710Y-81739711D01*
X143204359Y-81843711D01*
X143140938Y-81962364D01*
X143101883Y-82091110D01*
X143092000Y-82191455D01*
X143092000Y-82191464D01*
X143088697Y-82225000D01*
X143092000Y-82258536D01*
X143092000Y-86092511D01*
X143089430Y-86092000D01*
X142910570Y-86092000D01*
X142735146Y-86126894D01*
X142683000Y-86148494D01*
X142683000Y-85601105D01*
X142705289Y-85578816D01*
X142804659Y-85430099D01*
X142873106Y-85264854D01*
X142908000Y-85089430D01*
X142908000Y-84910570D01*
X142873106Y-84735146D01*
X142804659Y-84569901D01*
X142705289Y-84421184D01*
X142578816Y-84294711D01*
X142430099Y-84195341D01*
X142264854Y-84126894D01*
X142089430Y-84092000D01*
X141910570Y-84092000D01*
X141735146Y-84126894D01*
X141569901Y-84195341D01*
X141421184Y-84294711D01*
X141294711Y-84421184D01*
X141195341Y-84569901D01*
X141126894Y-84735146D01*
X141092000Y-84910570D01*
X141092000Y-85089430D01*
X141126894Y-85264854D01*
X141195341Y-85430099D01*
X141294711Y-85578816D01*
X141317000Y-85601105D01*
X141317001Y-96717091D01*
X140942093Y-97092000D01*
X140910570Y-97092000D01*
X140735146Y-97126894D01*
X140569901Y-97195341D01*
X140500000Y-97242048D01*
X140430099Y-97195341D01*
X140264854Y-97126894D01*
X140089430Y-97092000D01*
X139910570Y-97092000D01*
X139735146Y-97126894D01*
X139569901Y-97195341D01*
X139421184Y-97294711D01*
X139294711Y-97421184D01*
X139195341Y-97569901D01*
X139126894Y-97735146D01*
X139092000Y-97910570D01*
X132127000Y-97910570D01*
X132127000Y-91350711D01*
X134492000Y-91350711D01*
X134492000Y-91549269D01*
X134530737Y-91744013D01*
X134606722Y-91927457D01*
X134717035Y-92092552D01*
X134817001Y-92192518D01*
X134817000Y-92357463D01*
X134717035Y-92457428D01*
X134606722Y-92622523D01*
X134530737Y-92805967D01*
X134492000Y-93000711D01*
X134492000Y-93199269D01*
X134530737Y-93394013D01*
X134606722Y-93577457D01*
X134717035Y-93742552D01*
X134857438Y-93882955D01*
X135022533Y-93993268D01*
X135205977Y-94069253D01*
X135400721Y-94107990D01*
X135599279Y-94107990D01*
X135794023Y-94069253D01*
X135977467Y-93993268D01*
X136142562Y-93882955D01*
X136282965Y-93742552D01*
X136322756Y-93683000D01*
X139257473Y-93683000D01*
X139357438Y-93782965D01*
X139522533Y-93893278D01*
X139705977Y-93969263D01*
X139900721Y-94008000D01*
X140099279Y-94008000D01*
X140294023Y-93969263D01*
X140477467Y-93893278D01*
X140642562Y-93782965D01*
X140782965Y-93642562D01*
X140893278Y-93477467D01*
X140969263Y-93294023D01*
X141008000Y-93099279D01*
X141008000Y-92900721D01*
X140969263Y-92705977D01*
X140893278Y-92522533D01*
X140782965Y-92357438D01*
X140642562Y-92217035D01*
X140477467Y-92106722D01*
X140294023Y-92030737D01*
X140099279Y-91992000D01*
X139900721Y-91992000D01*
X139705977Y-92030737D01*
X139522533Y-92106722D01*
X139357438Y-92217035D01*
X139257473Y-92317000D01*
X136183000Y-92317000D01*
X136183000Y-92192517D01*
X136282965Y-92092552D01*
X136393278Y-91927457D01*
X136469263Y-91744013D01*
X136508000Y-91549269D01*
X136508000Y-91350711D01*
X136469263Y-91155967D01*
X136393278Y-90972523D01*
X136282965Y-90807428D01*
X136142562Y-90667025D01*
X135977467Y-90556712D01*
X135794023Y-90480727D01*
X135599279Y-90441990D01*
X135400721Y-90441990D01*
X135205977Y-90480727D01*
X135022533Y-90556712D01*
X134857438Y-90667025D01*
X134717035Y-90807428D01*
X134606722Y-90972523D01*
X134530737Y-91155967D01*
X134492000Y-91350711D01*
X132127000Y-91350711D01*
X132127000Y-74400721D01*
X135992000Y-74400721D01*
X135992000Y-74599279D01*
X136030737Y-74794023D01*
X136106722Y-74977467D01*
X136217035Y-75142562D01*
X136357438Y-75282965D01*
X136522533Y-75393278D01*
X136705977Y-75469263D01*
X136900721Y-75508000D01*
X137099279Y-75508000D01*
X137294023Y-75469263D01*
X137477467Y-75393278D01*
X137642562Y-75282965D01*
X137782965Y-75142562D01*
X137893278Y-74977467D01*
X137969263Y-74794023D01*
X137991347Y-74683000D01*
X157864095Y-74683000D01*
X158453927Y-75272832D01*
X158421184Y-75294711D01*
X158348895Y-75367000D01*
X154651105Y-75367000D01*
X154578816Y-75294711D01*
X154430099Y-75195341D01*
X154264854Y-75126894D01*
X154089430Y-75092000D01*
X153910570Y-75092000D01*
X153735146Y-75126894D01*
X153569901Y-75195341D01*
X153499996Y-75242050D01*
X153426862Y-75193183D01*
X153261617Y-75124736D01*
X153086193Y-75089842D01*
X152907333Y-75089842D01*
X152731909Y-75124736D01*
X152566664Y-75193183D01*
X152417947Y-75292553D01*
X152291474Y-75419026D01*
X152192104Y-75567743D01*
X152123657Y-75732988D01*
X152088763Y-75908412D01*
X152088763Y-76087272D01*
X152123657Y-76262696D01*
X152192104Y-76427941D01*
X152291474Y-76576658D01*
X152417947Y-76703131D01*
X152566664Y-76802501D01*
X152731909Y-76870948D01*
X152907333Y-76905842D01*
X152937643Y-76905842D01*
X153457418Y-77425618D01*
X153477234Y-77449764D01*
X153573621Y-77528866D01*
X153683588Y-77587645D01*
X153802908Y-77623840D01*
X153926998Y-77636062D01*
X153958086Y-77633000D01*
X159348895Y-77633000D01*
X159421184Y-77705289D01*
X159569901Y-77804659D01*
X159735146Y-77873106D01*
X159910570Y-77908000D01*
X160089430Y-77908000D01*
X160264854Y-77873106D01*
X160430099Y-77804659D01*
X160578816Y-77705289D01*
X160705289Y-77578816D01*
X160727167Y-77546073D01*
X166006901Y-82825807D01*
X165992000Y-82900721D01*
X165992000Y-83042092D01*
X160040766Y-88993327D01*
X160014710Y-89014711D01*
X159929359Y-89118711D01*
X159865938Y-89237364D01*
X159826883Y-89366110D01*
X159817000Y-89466455D01*
X159817000Y-89466464D01*
X159813697Y-89500000D01*
X159817000Y-89533536D01*
X159817001Y-97757472D01*
X159717035Y-97857438D01*
X159606722Y-98022533D01*
X159530737Y-98205977D01*
X159492000Y-98400721D01*
X159492000Y-98599279D01*
X159530737Y-98794023D01*
X159606722Y-98977467D01*
X159717035Y-99142562D01*
X159857438Y-99282965D01*
X160022533Y-99393278D01*
X160205977Y-99469263D01*
X160400721Y-99508000D01*
X160599279Y-99508000D01*
X160794023Y-99469263D01*
X160977467Y-99393278D01*
X161142562Y-99282965D01*
X161282965Y-99142562D01*
X161393278Y-98977467D01*
X161469263Y-98794023D01*
X161508000Y-98599279D01*
X161508000Y-98400721D01*
X161469263Y-98205977D01*
X161393278Y-98022533D01*
X161282965Y-97857438D01*
X161183000Y-97757473D01*
X161183000Y-89782907D01*
X165460262Y-85505645D01*
X170042000Y-85505645D01*
X170042000Y-85694355D01*
X170078816Y-85879438D01*
X170151032Y-86053783D01*
X170255873Y-86210689D01*
X170389311Y-86344127D01*
X170546217Y-86448968D01*
X170720562Y-86521184D01*
X170905645Y-86558000D01*
X171094355Y-86558000D01*
X171279438Y-86521184D01*
X171453783Y-86448968D01*
X171610689Y-86344127D01*
X171744127Y-86210689D01*
X171848968Y-86053783D01*
X171921184Y-85879438D01*
X171958000Y-85694355D01*
X171958000Y-85505645D01*
X171921184Y-85320562D01*
X171848968Y-85146217D01*
X171744127Y-84989311D01*
X171610689Y-84855873D01*
X171453783Y-84751032D01*
X171279438Y-84678816D01*
X171094355Y-84642000D01*
X170905645Y-84642000D01*
X170720562Y-84678816D01*
X170546217Y-84751032D01*
X170389311Y-84855873D01*
X170255873Y-84989311D01*
X170151032Y-85146217D01*
X170078816Y-85320562D01*
X170042000Y-85505645D01*
X165460262Y-85505645D01*
X166957908Y-84008000D01*
X167099279Y-84008000D01*
X167294023Y-83969263D01*
X167477467Y-83893278D01*
X167642562Y-83782965D01*
X167782965Y-83642562D01*
X167893278Y-83477467D01*
X167969263Y-83294023D01*
X168008000Y-83099279D01*
X168008000Y-82900721D01*
X167969263Y-82705977D01*
X167893278Y-82522533D01*
X167782965Y-82357438D01*
X167642562Y-82217035D01*
X167477467Y-82106722D01*
X167294023Y-82030737D01*
X167106308Y-81993398D01*
X158653679Y-73540770D01*
X158632292Y-73514710D01*
X158528292Y-73429359D01*
X158409639Y-73365938D01*
X158280893Y-73326883D01*
X158180548Y-73317000D01*
X158180538Y-73317000D01*
X158147002Y-73313697D01*
X158113466Y-73317000D01*
X137533539Y-73317000D01*
X137500000Y-73313697D01*
X137466461Y-73317000D01*
X137466454Y-73317000D01*
X137378655Y-73325647D01*
X137366108Y-73326883D01*
X137237363Y-73365938D01*
X137118710Y-73429359D01*
X137042382Y-73492000D01*
X136900721Y-73492000D01*
X136705977Y-73530737D01*
X136522533Y-73606722D01*
X136357438Y-73717035D01*
X136217035Y-73857438D01*
X136106722Y-74022533D01*
X136030737Y-74205977D01*
X135992000Y-74400721D01*
X132127000Y-74400721D01*
X132127000Y-69900721D01*
X136111999Y-69900721D01*
X136111999Y-70099279D01*
X136150736Y-70294023D01*
X136226721Y-70477467D01*
X136337034Y-70642562D01*
X136477437Y-70782965D01*
X136642532Y-70893278D01*
X136825976Y-70969263D01*
X137020720Y-71008000D01*
X137219278Y-71008000D01*
X137414022Y-70969263D01*
X137597466Y-70893278D01*
X137762561Y-70782965D01*
X137902964Y-70642562D01*
X138013277Y-70477467D01*
X138089262Y-70294023D01*
X138127999Y-70099279D01*
X138127999Y-69957908D01*
X138177908Y-69907999D01*
X140942092Y-69907999D01*
X140992000Y-69957907D01*
X140992000Y-70099279D01*
X141030737Y-70294023D01*
X141106722Y-70477467D01*
X141217035Y-70642562D01*
X141357438Y-70782965D01*
X141522533Y-70893278D01*
X141705977Y-70969263D01*
X141900721Y-71008000D01*
X142099279Y-71008000D01*
X142294023Y-70969263D01*
X142477467Y-70893278D01*
X142642562Y-70782965D01*
X142782965Y-70642562D01*
X142893278Y-70477467D01*
X142969263Y-70294023D01*
X143008000Y-70099279D01*
X143008000Y-69900721D01*
X142969263Y-69705977D01*
X142893278Y-69522533D01*
X142782965Y-69357438D01*
X142642562Y-69217035D01*
X142477467Y-69106722D01*
X142294023Y-69030737D01*
X142099279Y-68992000D01*
X141957907Y-68992000D01*
X141731676Y-68765769D01*
X141710289Y-68739709D01*
X141606289Y-68654358D01*
X141487636Y-68590937D01*
X141358890Y-68551882D01*
X141258545Y-68541999D01*
X141258535Y-68541999D01*
X141224999Y-68538696D01*
X141191463Y-68541999D01*
X137928536Y-68541999D01*
X137895000Y-68538696D01*
X137861464Y-68541999D01*
X137861454Y-68541999D01*
X137761109Y-68551882D01*
X137632363Y-68590937D01*
X137513710Y-68654358D01*
X137409710Y-68739709D01*
X137388327Y-68765764D01*
X137162091Y-68992000D01*
X137020720Y-68992000D01*
X136825976Y-69030737D01*
X136642532Y-69106722D01*
X136477437Y-69217035D01*
X136337034Y-69357438D01*
X136226721Y-69522533D01*
X136150736Y-69705977D01*
X136111999Y-69900721D01*
X132127000Y-69900721D01*
X132127000Y-65369253D01*
X132788254Y-64708000D01*
X133266715Y-64708000D01*
X133789895Y-64603933D01*
X134282719Y-64399799D01*
X134726249Y-64103441D01*
X135103441Y-63726249D01*
X135399799Y-63282719D01*
X135603933Y-62789895D01*
X135708000Y-62266715D01*
X135708000Y-61733285D01*
X135603933Y-61210105D01*
X135399799Y-60717281D01*
X135339248Y-60626659D01*
X135532907Y-60433000D01*
X148058326Y-60433000D01*
X148071389Y-60476064D01*
X148174274Y-60668550D01*
X148312735Y-60837265D01*
X148481450Y-60975726D01*
X148673935Y-61078611D01*
X148882794Y-61141968D01*
X149100000Y-61163361D01*
X149317205Y-61141968D01*
X149526064Y-61078611D01*
X149718550Y-60975726D01*
X149887265Y-60837265D01*
X150025726Y-60668550D01*
X150128611Y-60476065D01*
X150191968Y-60267206D01*
X150208000Y-60104431D01*
X150208000Y-59295570D01*
X150191968Y-59132795D01*
X150128611Y-58923935D01*
X150025726Y-58731450D01*
X149887265Y-58562735D01*
X149851033Y-58533000D01*
X158148968Y-58533000D01*
X158112736Y-58562735D01*
G37*
%TD.AperFunction*%
D19*
X157003711Y-63598768D02*
X157126551Y-63748449D01*
X157176066Y-63789085D01*
X157139651Y-63843585D01*
X157122218Y-63885672D01*
X157064143Y-63943748D01*
X157050000Y-63929605D01*
X157035858Y-63943748D01*
X156856253Y-63764143D01*
X156870395Y-63750000D01*
X156856253Y-63735858D01*
X156913337Y-63678773D01*
X156915070Y-63677615D01*
X157000299Y-63592386D01*
X157003711Y-63598768D01*
%TA.AperFunction,Conductor*%
D20*
G36*
X157003711Y-63598768D02*
G01*
X157126551Y-63748449D01*
X157176066Y-63789085D01*
X157139651Y-63843585D01*
X157122218Y-63885672D01*
X157064143Y-63943748D01*
X157050000Y-63929605D01*
X157035858Y-63943748D01*
X156856253Y-63764143D01*
X156870395Y-63750000D01*
X156856253Y-63735858D01*
X156913337Y-63678773D01*
X156915070Y-63677615D01*
X157000299Y-63592386D01*
X157003711Y-63598768D01*
G37*
%TD.AperFunction*%
%TD*%
M02*
