M48
; DRILL file {KiCad (5.1.9-0-10_14)} date Thursday, May 06, 2021 at 04:15:18 PM
; FORMAT={-:-/ absolute / inch / decimal}
; #@! TF.CreationDate,2021-05-06T16:15:18-06:00
; #@! TF.GenerationSoftware,Kicad,Pcbnew,(5.1.9-0-10_14)
; #@! TF.FileFunction,Plated,1,2,PTH
FMAT,2
INCH
T1C0.0157
T2C0.0217
T3C0.0276
T4C0.0866
%
G90
G05
T1
X5.1181Y-2.5591
X5.1181Y-4.5276
X5.315Y-3.5827
X5.315Y-3.6614
X5.3937Y-2.7559
X5.4134Y-2.9331
X5.4331Y-2.5591
X5.4724Y-3.8189
X5.4724Y-4.0157
X5.5118Y-2.7559
X5.5118Y-2.9921
X5.5118Y-3.3465
X5.5118Y-3.8583
X5.5384Y-4.0029
X5.5512Y-3.0906
X5.5512Y-3.6614
X5.5512Y-3.8583
X5.5709Y-4.0551
X5.5906Y-3.3465
X5.5906Y-4.4882
X5.6211Y-3.8583
X5.6299Y-2.7559
X5.6299Y-3.4252
X5.6604Y-3.8583
X5.6693Y-4.5276
X5.7087Y-2.5984
X5.7097Y-3.1879
X5.7874Y-4.1732
X5.8268Y-2.5098
X5.9055Y-4.0157
X5.9331Y-2.5118
X5.9449Y-3.2087
X5.9587Y-2.4843
X5.9843Y-4.0551
X5.9902Y-2.4843
X6.0059Y-2.5118
X6.0217Y-2.4843
X6.0235Y-2.992
X6.0236Y-3.1299
X6.0236Y-3.2677
X6.0374Y-2.5118
X6.0433Y-2.7441
X6.063Y-2.3228
X6.063Y-2.4016
X6.063Y-2.9921
X6.063Y-4.685
X6.0689Y-2.5118
X6.0846Y-2.4843
X6.1004Y-2.5118
X6.1161Y-2.4843
X6.1476Y-2.4843
X6.1732Y-2.5118
X6.1811Y-2.7559
X6.2185Y-2.4213
X6.2598Y-2.9921
X6.2992Y-2.5886
X6.2992Y-3.0315
X6.3189Y-3.189
X6.3386Y-2.4803
X6.3386Y-3.8976
X6.3759Y-4.0163
X6.4567Y-3.4646
X6.4961Y-3.6614
X6.4961Y-4.4488
X6.5177Y-4.2126
X6.6142Y-3.3268
X6.6535Y-3.9764
X6.6535Y-4.0551
X6.6929Y-3.5433
X6.6929Y-4.4488
X6.7323Y-4.252
X6.811Y-3.3071
X6.811Y-3.937
X6.811Y-4.2913
X7.0079Y-2.5591
X7.0079Y-4.5276
T2
X5.8957Y-2.4843
X6.2106Y-2.4843
T4
X5.2362Y-2.4409
X5.2362Y-5.2362
X6.8898Y-2.4409
X6.8898Y-5.2362
T3
G00X5.8602Y-2.3661
M15
G01X5.8602Y-2.3386
M16
G05
G00X6.2461Y-2.3661
M15
G01X6.2461Y-2.3386
M16
G05
T0
M30
