%TF.GenerationSoftware,KiCad,Pcbnew,5.1.10*%
%TF.CreationDate,2021-05-06T14:57:10-06:00*%
%TF.ProjectId,tx500-data,74783530-302d-4646-9174-612e6b696361,1*%
%TF.SameCoordinates,Original*%
%TF.FileFunction,Paste,Top*%
%TF.FilePolarity,Positive*%
%FSLAX46Y46*%
G04 Gerber Fmt 4.6, Leading zero omitted, Abs format (unit mm)*
G04 Created by KiCad (PCBNEW 5.1.10) date 2021-05-06 14:57:10*
%MOMM*%
%LPD*%
G01*
G04 APERTURE LIST*
%ADD10R,0.350000X0.850000*%
%ADD11R,4.000000X1.700000*%
%ADD12R,4.000000X1.500000*%
%ADD13R,2.500000X1.250000*%
%ADD14R,1.750000X0.450000*%
%ADD15R,1.060000X0.650000*%
%ADD16R,2.450000X2.350000*%
G04 APERTURE END LIST*
%TO.C,U5*%
G36*
G01*
X154125000Y-69125000D02*
X154125000Y-68925000D01*
G75*
G02*
X154225000Y-68825000I100000J0D01*
G01*
X155500000Y-68825000D01*
G75*
G02*
X155600000Y-68925000I0J-100000D01*
G01*
X155600000Y-69125000D01*
G75*
G02*
X155500000Y-69225000I-100000J0D01*
G01*
X154225000Y-69225000D01*
G75*
G02*
X154125000Y-69125000I0J100000D01*
G01*
G37*
G36*
G01*
X154125000Y-69775000D02*
X154125000Y-69575000D01*
G75*
G02*
X154225000Y-69475000I100000J0D01*
G01*
X155500000Y-69475000D01*
G75*
G02*
X155600000Y-69575000I0J-100000D01*
G01*
X155600000Y-69775000D01*
G75*
G02*
X155500000Y-69875000I-100000J0D01*
G01*
X154225000Y-69875000D01*
G75*
G02*
X154125000Y-69775000I0J100000D01*
G01*
G37*
G36*
G01*
X154125000Y-70425000D02*
X154125000Y-70225000D01*
G75*
G02*
X154225000Y-70125000I100000J0D01*
G01*
X155500000Y-70125000D01*
G75*
G02*
X155600000Y-70225000I0J-100000D01*
G01*
X155600000Y-70425000D01*
G75*
G02*
X155500000Y-70525000I-100000J0D01*
G01*
X154225000Y-70525000D01*
G75*
G02*
X154125000Y-70425000I0J100000D01*
G01*
G37*
G36*
G01*
X154125000Y-71075000D02*
X154125000Y-70875000D01*
G75*
G02*
X154225000Y-70775000I100000J0D01*
G01*
X155500000Y-70775000D01*
G75*
G02*
X155600000Y-70875000I0J-100000D01*
G01*
X155600000Y-71075000D01*
G75*
G02*
X155500000Y-71175000I-100000J0D01*
G01*
X154225000Y-71175000D01*
G75*
G02*
X154125000Y-71075000I0J100000D01*
G01*
G37*
G36*
G01*
X148400000Y-71075000D02*
X148400000Y-70875000D01*
G75*
G02*
X148500000Y-70775000I100000J0D01*
G01*
X149775000Y-70775000D01*
G75*
G02*
X149875000Y-70875000I0J-100000D01*
G01*
X149875000Y-71075000D01*
G75*
G02*
X149775000Y-71175000I-100000J0D01*
G01*
X148500000Y-71175000D01*
G75*
G02*
X148400000Y-71075000I0J100000D01*
G01*
G37*
G36*
G01*
X148400000Y-70425000D02*
X148400000Y-70225000D01*
G75*
G02*
X148500000Y-70125000I100000J0D01*
G01*
X149775000Y-70125000D01*
G75*
G02*
X149875000Y-70225000I0J-100000D01*
G01*
X149875000Y-70425000D01*
G75*
G02*
X149775000Y-70525000I-100000J0D01*
G01*
X148500000Y-70525000D01*
G75*
G02*
X148400000Y-70425000I0J100000D01*
G01*
G37*
G36*
G01*
X148400000Y-69775000D02*
X148400000Y-69575000D01*
G75*
G02*
X148500000Y-69475000I100000J0D01*
G01*
X149775000Y-69475000D01*
G75*
G02*
X149875000Y-69575000I0J-100000D01*
G01*
X149875000Y-69775000D01*
G75*
G02*
X149775000Y-69875000I-100000J0D01*
G01*
X148500000Y-69875000D01*
G75*
G02*
X148400000Y-69775000I0J100000D01*
G01*
G37*
G36*
G01*
X148400000Y-69125000D02*
X148400000Y-68925000D01*
G75*
G02*
X148500000Y-68825000I100000J0D01*
G01*
X149775000Y-68825000D01*
G75*
G02*
X149875000Y-68925000I0J-100000D01*
G01*
X149875000Y-69125000D01*
G75*
G02*
X149775000Y-69225000I-100000J0D01*
G01*
X148500000Y-69225000D01*
G75*
G02*
X148400000Y-69125000I0J100000D01*
G01*
G37*
%TD*%
D10*
%TO.C,J1*%
X151500000Y-65325000D03*
X152000000Y-65325000D03*
X152500000Y-65325000D03*
X153000000Y-65325000D03*
X153500000Y-65325000D03*
X154000000Y-65325000D03*
X154500000Y-65325000D03*
X155000000Y-65325000D03*
X155500000Y-65325000D03*
X156000000Y-65325000D03*
X151000000Y-65325000D03*
X156500000Y-65325000D03*
%TD*%
D11*
%TO.C,Y1*%
X164000000Y-74500000D03*
D12*
X164000000Y-72000000D03*
D11*
X164000000Y-69500000D03*
%TD*%
%TO.C,J2*%
G36*
G01*
X173600000Y-117500000D02*
X173600000Y-115000000D01*
G75*
G02*
X173850000Y-114750000I250000J0D01*
G01*
X174950000Y-114750000D01*
G75*
G02*
X175200000Y-115000000I0J-250000D01*
G01*
X175200000Y-117500000D01*
G75*
G02*
X174950000Y-117750000I-250000J0D01*
G01*
X173850000Y-117750000D01*
G75*
G02*
X173600000Y-117500000I0J250000D01*
G01*
G37*
G36*
G01*
X158800000Y-117500000D02*
X158800000Y-115000000D01*
G75*
G02*
X159050000Y-114750000I250000J0D01*
G01*
X160150000Y-114750000D01*
G75*
G02*
X160400000Y-115000000I0J-250000D01*
G01*
X160400000Y-117500000D01*
G75*
G02*
X160150000Y-117750000I-250000J0D01*
G01*
X159050000Y-117750000D01*
G75*
G02*
X158800000Y-117500000I0J250000D01*
G01*
G37*
G36*
G01*
X171500000Y-121000000D02*
X171500000Y-116000000D01*
G75*
G02*
X171750000Y-115750000I250000J0D01*
G01*
X172250000Y-115750000D01*
G75*
G02*
X172500000Y-116000000I0J-250000D01*
G01*
X172500000Y-121000000D01*
G75*
G02*
X172250000Y-121250000I-250000J0D01*
G01*
X171750000Y-121250000D01*
G75*
G02*
X171500000Y-121000000I0J250000D01*
G01*
G37*
G36*
G01*
X169500000Y-121000000D02*
X169500000Y-116000000D01*
G75*
G02*
X169750000Y-115750000I250000J0D01*
G01*
X170250000Y-115750000D01*
G75*
G02*
X170500000Y-116000000I0J-250000D01*
G01*
X170500000Y-121000000D01*
G75*
G02*
X170250000Y-121250000I-250000J0D01*
G01*
X169750000Y-121250000D01*
G75*
G02*
X169500000Y-121000000I0J250000D01*
G01*
G37*
G36*
G01*
X167500000Y-121000000D02*
X167500000Y-116000000D01*
G75*
G02*
X167750000Y-115750000I250000J0D01*
G01*
X168250000Y-115750000D01*
G75*
G02*
X168500000Y-116000000I0J-250000D01*
G01*
X168500000Y-121000000D01*
G75*
G02*
X168250000Y-121250000I-250000J0D01*
G01*
X167750000Y-121250000D01*
G75*
G02*
X167500000Y-121000000I0J250000D01*
G01*
G37*
G36*
G01*
X165500000Y-121000000D02*
X165500000Y-116000000D01*
G75*
G02*
X165750000Y-115750000I250000J0D01*
G01*
X166250000Y-115750000D01*
G75*
G02*
X166500000Y-116000000I0J-250000D01*
G01*
X166500000Y-121000000D01*
G75*
G02*
X166250000Y-121250000I-250000J0D01*
G01*
X165750000Y-121250000D01*
G75*
G02*
X165500000Y-121000000I0J250000D01*
G01*
G37*
G36*
G01*
X163500000Y-121000000D02*
X163500000Y-116000000D01*
G75*
G02*
X163750000Y-115750000I250000J0D01*
G01*
X164250000Y-115750000D01*
G75*
G02*
X164500000Y-116000000I0J-250000D01*
G01*
X164500000Y-121000000D01*
G75*
G02*
X164250000Y-121250000I-250000J0D01*
G01*
X163750000Y-121250000D01*
G75*
G02*
X163500000Y-121000000I0J250000D01*
G01*
G37*
G36*
G01*
X161500000Y-121000000D02*
X161500000Y-116000000D01*
G75*
G02*
X161750000Y-115750000I250000J0D01*
G01*
X162250000Y-115750000D01*
G75*
G02*
X162500000Y-116000000I0J-250000D01*
G01*
X162500000Y-121000000D01*
G75*
G02*
X162250000Y-121250000I-250000J0D01*
G01*
X161750000Y-121250000D01*
G75*
G02*
X161500000Y-121000000I0J250000D01*
G01*
G37*
%TD*%
%TO.C,J3*%
G36*
G01*
X147600000Y-117500000D02*
X147600000Y-115000000D01*
G75*
G02*
X147850000Y-114750000I250000J0D01*
G01*
X148950000Y-114750000D01*
G75*
G02*
X149200000Y-115000000I0J-250000D01*
G01*
X149200000Y-117500000D01*
G75*
G02*
X148950000Y-117750000I-250000J0D01*
G01*
X147850000Y-117750000D01*
G75*
G02*
X147600000Y-117500000I0J250000D01*
G01*
G37*
G36*
G01*
X132800000Y-117500000D02*
X132800000Y-115000000D01*
G75*
G02*
X133050000Y-114750000I250000J0D01*
G01*
X134150000Y-114750000D01*
G75*
G02*
X134400000Y-115000000I0J-250000D01*
G01*
X134400000Y-117500000D01*
G75*
G02*
X134150000Y-117750000I-250000J0D01*
G01*
X133050000Y-117750000D01*
G75*
G02*
X132800000Y-117500000I0J250000D01*
G01*
G37*
G36*
G01*
X145500000Y-121000000D02*
X145500000Y-116000000D01*
G75*
G02*
X145750000Y-115750000I250000J0D01*
G01*
X146250000Y-115750000D01*
G75*
G02*
X146500000Y-116000000I0J-250000D01*
G01*
X146500000Y-121000000D01*
G75*
G02*
X146250000Y-121250000I-250000J0D01*
G01*
X145750000Y-121250000D01*
G75*
G02*
X145500000Y-121000000I0J250000D01*
G01*
G37*
G36*
G01*
X143500000Y-121000000D02*
X143500000Y-116000000D01*
G75*
G02*
X143750000Y-115750000I250000J0D01*
G01*
X144250000Y-115750000D01*
G75*
G02*
X144500000Y-116000000I0J-250000D01*
G01*
X144500000Y-121000000D01*
G75*
G02*
X144250000Y-121250000I-250000J0D01*
G01*
X143750000Y-121250000D01*
G75*
G02*
X143500000Y-121000000I0J250000D01*
G01*
G37*
G36*
G01*
X141500000Y-121000000D02*
X141500000Y-116000000D01*
G75*
G02*
X141750000Y-115750000I250000J0D01*
G01*
X142250000Y-115750000D01*
G75*
G02*
X142500000Y-116000000I0J-250000D01*
G01*
X142500000Y-121000000D01*
G75*
G02*
X142250000Y-121250000I-250000J0D01*
G01*
X141750000Y-121250000D01*
G75*
G02*
X141500000Y-121000000I0J250000D01*
G01*
G37*
G36*
G01*
X139500000Y-121000000D02*
X139500000Y-116000000D01*
G75*
G02*
X139750000Y-115750000I250000J0D01*
G01*
X140250000Y-115750000D01*
G75*
G02*
X140500000Y-116000000I0J-250000D01*
G01*
X140500000Y-121000000D01*
G75*
G02*
X140250000Y-121250000I-250000J0D01*
G01*
X139750000Y-121250000D01*
G75*
G02*
X139500000Y-121000000I0J250000D01*
G01*
G37*
G36*
G01*
X137500000Y-121000000D02*
X137500000Y-116000000D01*
G75*
G02*
X137750000Y-115750000I250000J0D01*
G01*
X138250000Y-115750000D01*
G75*
G02*
X138500000Y-116000000I0J-250000D01*
G01*
X138500000Y-121000000D01*
G75*
G02*
X138250000Y-121250000I-250000J0D01*
G01*
X137750000Y-121250000D01*
G75*
G02*
X137500000Y-121000000I0J250000D01*
G01*
G37*
G36*
G01*
X135500000Y-121000000D02*
X135500000Y-116000000D01*
G75*
G02*
X135750000Y-115750000I250000J0D01*
G01*
X136250000Y-115750000D01*
G75*
G02*
X136500000Y-116000000I0J-250000D01*
G01*
X136500000Y-121000000D01*
G75*
G02*
X136250000Y-121250000I-250000J0D01*
G01*
X135750000Y-121250000D01*
G75*
G02*
X135500000Y-121000000I0J250000D01*
G01*
G37*
%TD*%
D13*
%TO.C,SW1*%
X168250000Y-86500000D03*
X168250000Y-89000000D03*
X168250000Y-91500000D03*
%TD*%
D14*
%TO.C,U2*%
X163400000Y-104225000D03*
X163400000Y-103575000D03*
X163400000Y-102925000D03*
X163400000Y-102275000D03*
X163400000Y-101625000D03*
X163400000Y-100975000D03*
X163400000Y-100325000D03*
X163400000Y-99675000D03*
X163400000Y-99025000D03*
X163400000Y-98375000D03*
X163400000Y-97725000D03*
X163400000Y-97075000D03*
X163400000Y-96425000D03*
X163400000Y-95775000D03*
X170600000Y-95775000D03*
X170600000Y-96425000D03*
X170600000Y-97075000D03*
X170600000Y-97725000D03*
X170600000Y-98375000D03*
X170600000Y-99025000D03*
X170600000Y-99675000D03*
X170600000Y-100325000D03*
X170600000Y-100975000D03*
X170600000Y-101625000D03*
X170600000Y-102275000D03*
X170600000Y-102925000D03*
X170600000Y-103575000D03*
X170600000Y-104225000D03*
%TD*%
%TO.C,U1*%
G36*
G01*
X150950000Y-78450000D02*
X150950000Y-77200000D01*
G75*
G02*
X151075000Y-77075000I125000J0D01*
G01*
X151325000Y-77075000D01*
G75*
G02*
X151450000Y-77200000I0J-125000D01*
G01*
X151450000Y-78450000D01*
G75*
G02*
X151325000Y-78575000I-125000J0D01*
G01*
X151075000Y-78575000D01*
G75*
G02*
X150950000Y-78450000I0J125000D01*
G01*
G37*
G36*
G01*
X151750000Y-78450000D02*
X151750000Y-77200000D01*
G75*
G02*
X151875000Y-77075000I125000J0D01*
G01*
X152125000Y-77075000D01*
G75*
G02*
X152250000Y-77200000I0J-125000D01*
G01*
X152250000Y-78450000D01*
G75*
G02*
X152125000Y-78575000I-125000J0D01*
G01*
X151875000Y-78575000D01*
G75*
G02*
X151750000Y-78450000I0J125000D01*
G01*
G37*
G36*
G01*
X152550000Y-78450000D02*
X152550000Y-77200000D01*
G75*
G02*
X152675000Y-77075000I125000J0D01*
G01*
X152925000Y-77075000D01*
G75*
G02*
X153050000Y-77200000I0J-125000D01*
G01*
X153050000Y-78450000D01*
G75*
G02*
X152925000Y-78575000I-125000J0D01*
G01*
X152675000Y-78575000D01*
G75*
G02*
X152550000Y-78450000I0J125000D01*
G01*
G37*
G36*
G01*
X153350000Y-78450000D02*
X153350000Y-77200000D01*
G75*
G02*
X153475000Y-77075000I125000J0D01*
G01*
X153725000Y-77075000D01*
G75*
G02*
X153850000Y-77200000I0J-125000D01*
G01*
X153850000Y-78450000D01*
G75*
G02*
X153725000Y-78575000I-125000J0D01*
G01*
X153475000Y-78575000D01*
G75*
G02*
X153350000Y-78450000I0J125000D01*
G01*
G37*
G36*
G01*
X154150000Y-78450000D02*
X154150000Y-77200000D01*
G75*
G02*
X154275000Y-77075000I125000J0D01*
G01*
X154525000Y-77075000D01*
G75*
G02*
X154650000Y-77200000I0J-125000D01*
G01*
X154650000Y-78450000D01*
G75*
G02*
X154525000Y-78575000I-125000J0D01*
G01*
X154275000Y-78575000D01*
G75*
G02*
X154150000Y-78450000I0J125000D01*
G01*
G37*
G36*
G01*
X154950000Y-78450000D02*
X154950000Y-77200000D01*
G75*
G02*
X155075000Y-77075000I125000J0D01*
G01*
X155325000Y-77075000D01*
G75*
G02*
X155450000Y-77200000I0J-125000D01*
G01*
X155450000Y-78450000D01*
G75*
G02*
X155325000Y-78575000I-125000J0D01*
G01*
X155075000Y-78575000D01*
G75*
G02*
X154950000Y-78450000I0J125000D01*
G01*
G37*
G36*
G01*
X155750000Y-78450000D02*
X155750000Y-77200000D01*
G75*
G02*
X155875000Y-77075000I125000J0D01*
G01*
X156125000Y-77075000D01*
G75*
G02*
X156250000Y-77200000I0J-125000D01*
G01*
X156250000Y-78450000D01*
G75*
G02*
X156125000Y-78575000I-125000J0D01*
G01*
X155875000Y-78575000D01*
G75*
G02*
X155750000Y-78450000I0J125000D01*
G01*
G37*
G36*
G01*
X156550000Y-78450000D02*
X156550000Y-77200000D01*
G75*
G02*
X156675000Y-77075000I125000J0D01*
G01*
X156925000Y-77075000D01*
G75*
G02*
X157050000Y-77200000I0J-125000D01*
G01*
X157050000Y-78450000D01*
G75*
G02*
X156925000Y-78575000I-125000J0D01*
G01*
X156675000Y-78575000D01*
G75*
G02*
X156550000Y-78450000I0J125000D01*
G01*
G37*
G36*
G01*
X157425000Y-79325000D02*
X157425000Y-79075000D01*
G75*
G02*
X157550000Y-78950000I125000J0D01*
G01*
X158800000Y-78950000D01*
G75*
G02*
X158925000Y-79075000I0J-125000D01*
G01*
X158925000Y-79325000D01*
G75*
G02*
X158800000Y-79450000I-125000J0D01*
G01*
X157550000Y-79450000D01*
G75*
G02*
X157425000Y-79325000I0J125000D01*
G01*
G37*
G36*
G01*
X157425000Y-80125000D02*
X157425000Y-79875000D01*
G75*
G02*
X157550000Y-79750000I125000J0D01*
G01*
X158800000Y-79750000D01*
G75*
G02*
X158925000Y-79875000I0J-125000D01*
G01*
X158925000Y-80125000D01*
G75*
G02*
X158800000Y-80250000I-125000J0D01*
G01*
X157550000Y-80250000D01*
G75*
G02*
X157425000Y-80125000I0J125000D01*
G01*
G37*
G36*
G01*
X157425000Y-80925000D02*
X157425000Y-80675000D01*
G75*
G02*
X157550000Y-80550000I125000J0D01*
G01*
X158800000Y-80550000D01*
G75*
G02*
X158925000Y-80675000I0J-125000D01*
G01*
X158925000Y-80925000D01*
G75*
G02*
X158800000Y-81050000I-125000J0D01*
G01*
X157550000Y-81050000D01*
G75*
G02*
X157425000Y-80925000I0J125000D01*
G01*
G37*
G36*
G01*
X157425000Y-81725000D02*
X157425000Y-81475000D01*
G75*
G02*
X157550000Y-81350000I125000J0D01*
G01*
X158800000Y-81350000D01*
G75*
G02*
X158925000Y-81475000I0J-125000D01*
G01*
X158925000Y-81725000D01*
G75*
G02*
X158800000Y-81850000I-125000J0D01*
G01*
X157550000Y-81850000D01*
G75*
G02*
X157425000Y-81725000I0J125000D01*
G01*
G37*
G36*
G01*
X157425000Y-82525000D02*
X157425000Y-82275000D01*
G75*
G02*
X157550000Y-82150000I125000J0D01*
G01*
X158800000Y-82150000D01*
G75*
G02*
X158925000Y-82275000I0J-125000D01*
G01*
X158925000Y-82525000D01*
G75*
G02*
X158800000Y-82650000I-125000J0D01*
G01*
X157550000Y-82650000D01*
G75*
G02*
X157425000Y-82525000I0J125000D01*
G01*
G37*
G36*
G01*
X157425000Y-83325000D02*
X157425000Y-83075000D01*
G75*
G02*
X157550000Y-82950000I125000J0D01*
G01*
X158800000Y-82950000D01*
G75*
G02*
X158925000Y-83075000I0J-125000D01*
G01*
X158925000Y-83325000D01*
G75*
G02*
X158800000Y-83450000I-125000J0D01*
G01*
X157550000Y-83450000D01*
G75*
G02*
X157425000Y-83325000I0J125000D01*
G01*
G37*
G36*
G01*
X157425000Y-84125000D02*
X157425000Y-83875000D01*
G75*
G02*
X157550000Y-83750000I125000J0D01*
G01*
X158800000Y-83750000D01*
G75*
G02*
X158925000Y-83875000I0J-125000D01*
G01*
X158925000Y-84125000D01*
G75*
G02*
X158800000Y-84250000I-125000J0D01*
G01*
X157550000Y-84250000D01*
G75*
G02*
X157425000Y-84125000I0J125000D01*
G01*
G37*
G36*
G01*
X157425000Y-84925000D02*
X157425000Y-84675000D01*
G75*
G02*
X157550000Y-84550000I125000J0D01*
G01*
X158800000Y-84550000D01*
G75*
G02*
X158925000Y-84675000I0J-125000D01*
G01*
X158925000Y-84925000D01*
G75*
G02*
X158800000Y-85050000I-125000J0D01*
G01*
X157550000Y-85050000D01*
G75*
G02*
X157425000Y-84925000I0J125000D01*
G01*
G37*
G36*
G01*
X156550000Y-86800000D02*
X156550000Y-85550000D01*
G75*
G02*
X156675000Y-85425000I125000J0D01*
G01*
X156925000Y-85425000D01*
G75*
G02*
X157050000Y-85550000I0J-125000D01*
G01*
X157050000Y-86800000D01*
G75*
G02*
X156925000Y-86925000I-125000J0D01*
G01*
X156675000Y-86925000D01*
G75*
G02*
X156550000Y-86800000I0J125000D01*
G01*
G37*
G36*
G01*
X155750000Y-86800000D02*
X155750000Y-85550000D01*
G75*
G02*
X155875000Y-85425000I125000J0D01*
G01*
X156125000Y-85425000D01*
G75*
G02*
X156250000Y-85550000I0J-125000D01*
G01*
X156250000Y-86800000D01*
G75*
G02*
X156125000Y-86925000I-125000J0D01*
G01*
X155875000Y-86925000D01*
G75*
G02*
X155750000Y-86800000I0J125000D01*
G01*
G37*
G36*
G01*
X154950000Y-86800000D02*
X154950000Y-85550000D01*
G75*
G02*
X155075000Y-85425000I125000J0D01*
G01*
X155325000Y-85425000D01*
G75*
G02*
X155450000Y-85550000I0J-125000D01*
G01*
X155450000Y-86800000D01*
G75*
G02*
X155325000Y-86925000I-125000J0D01*
G01*
X155075000Y-86925000D01*
G75*
G02*
X154950000Y-86800000I0J125000D01*
G01*
G37*
G36*
G01*
X154150000Y-86800000D02*
X154150000Y-85550000D01*
G75*
G02*
X154275000Y-85425000I125000J0D01*
G01*
X154525000Y-85425000D01*
G75*
G02*
X154650000Y-85550000I0J-125000D01*
G01*
X154650000Y-86800000D01*
G75*
G02*
X154525000Y-86925000I-125000J0D01*
G01*
X154275000Y-86925000D01*
G75*
G02*
X154150000Y-86800000I0J125000D01*
G01*
G37*
G36*
G01*
X153350000Y-86800000D02*
X153350000Y-85550000D01*
G75*
G02*
X153475000Y-85425000I125000J0D01*
G01*
X153725000Y-85425000D01*
G75*
G02*
X153850000Y-85550000I0J-125000D01*
G01*
X153850000Y-86800000D01*
G75*
G02*
X153725000Y-86925000I-125000J0D01*
G01*
X153475000Y-86925000D01*
G75*
G02*
X153350000Y-86800000I0J125000D01*
G01*
G37*
G36*
G01*
X152550000Y-86800000D02*
X152550000Y-85550000D01*
G75*
G02*
X152675000Y-85425000I125000J0D01*
G01*
X152925000Y-85425000D01*
G75*
G02*
X153050000Y-85550000I0J-125000D01*
G01*
X153050000Y-86800000D01*
G75*
G02*
X152925000Y-86925000I-125000J0D01*
G01*
X152675000Y-86925000D01*
G75*
G02*
X152550000Y-86800000I0J125000D01*
G01*
G37*
G36*
G01*
X151750000Y-86800000D02*
X151750000Y-85550000D01*
G75*
G02*
X151875000Y-85425000I125000J0D01*
G01*
X152125000Y-85425000D01*
G75*
G02*
X152250000Y-85550000I0J-125000D01*
G01*
X152250000Y-86800000D01*
G75*
G02*
X152125000Y-86925000I-125000J0D01*
G01*
X151875000Y-86925000D01*
G75*
G02*
X151750000Y-86800000I0J125000D01*
G01*
G37*
G36*
G01*
X150950000Y-86800000D02*
X150950000Y-85550000D01*
G75*
G02*
X151075000Y-85425000I125000J0D01*
G01*
X151325000Y-85425000D01*
G75*
G02*
X151450000Y-85550000I0J-125000D01*
G01*
X151450000Y-86800000D01*
G75*
G02*
X151325000Y-86925000I-125000J0D01*
G01*
X151075000Y-86925000D01*
G75*
G02*
X150950000Y-86800000I0J125000D01*
G01*
G37*
G36*
G01*
X149075000Y-84925000D02*
X149075000Y-84675000D01*
G75*
G02*
X149200000Y-84550000I125000J0D01*
G01*
X150450000Y-84550000D01*
G75*
G02*
X150575000Y-84675000I0J-125000D01*
G01*
X150575000Y-84925000D01*
G75*
G02*
X150450000Y-85050000I-125000J0D01*
G01*
X149200000Y-85050000D01*
G75*
G02*
X149075000Y-84925000I0J125000D01*
G01*
G37*
G36*
G01*
X149075000Y-84125000D02*
X149075000Y-83875000D01*
G75*
G02*
X149200000Y-83750000I125000J0D01*
G01*
X150450000Y-83750000D01*
G75*
G02*
X150575000Y-83875000I0J-125000D01*
G01*
X150575000Y-84125000D01*
G75*
G02*
X150450000Y-84250000I-125000J0D01*
G01*
X149200000Y-84250000D01*
G75*
G02*
X149075000Y-84125000I0J125000D01*
G01*
G37*
G36*
G01*
X149075000Y-83325000D02*
X149075000Y-83075000D01*
G75*
G02*
X149200000Y-82950000I125000J0D01*
G01*
X150450000Y-82950000D01*
G75*
G02*
X150575000Y-83075000I0J-125000D01*
G01*
X150575000Y-83325000D01*
G75*
G02*
X150450000Y-83450000I-125000J0D01*
G01*
X149200000Y-83450000D01*
G75*
G02*
X149075000Y-83325000I0J125000D01*
G01*
G37*
G36*
G01*
X149075000Y-82525000D02*
X149075000Y-82275000D01*
G75*
G02*
X149200000Y-82150000I125000J0D01*
G01*
X150450000Y-82150000D01*
G75*
G02*
X150575000Y-82275000I0J-125000D01*
G01*
X150575000Y-82525000D01*
G75*
G02*
X150450000Y-82650000I-125000J0D01*
G01*
X149200000Y-82650000D01*
G75*
G02*
X149075000Y-82525000I0J125000D01*
G01*
G37*
G36*
G01*
X149075000Y-81725000D02*
X149075000Y-81475000D01*
G75*
G02*
X149200000Y-81350000I125000J0D01*
G01*
X150450000Y-81350000D01*
G75*
G02*
X150575000Y-81475000I0J-125000D01*
G01*
X150575000Y-81725000D01*
G75*
G02*
X150450000Y-81850000I-125000J0D01*
G01*
X149200000Y-81850000D01*
G75*
G02*
X149075000Y-81725000I0J125000D01*
G01*
G37*
G36*
G01*
X149075000Y-80925000D02*
X149075000Y-80675000D01*
G75*
G02*
X149200000Y-80550000I125000J0D01*
G01*
X150450000Y-80550000D01*
G75*
G02*
X150575000Y-80675000I0J-125000D01*
G01*
X150575000Y-80925000D01*
G75*
G02*
X150450000Y-81050000I-125000J0D01*
G01*
X149200000Y-81050000D01*
G75*
G02*
X149075000Y-80925000I0J125000D01*
G01*
G37*
G36*
G01*
X149075000Y-80125000D02*
X149075000Y-79875000D01*
G75*
G02*
X149200000Y-79750000I125000J0D01*
G01*
X150450000Y-79750000D01*
G75*
G02*
X150575000Y-79875000I0J-125000D01*
G01*
X150575000Y-80125000D01*
G75*
G02*
X150450000Y-80250000I-125000J0D01*
G01*
X149200000Y-80250000D01*
G75*
G02*
X149075000Y-80125000I0J125000D01*
G01*
G37*
G36*
G01*
X149075000Y-79325000D02*
X149075000Y-79075000D01*
G75*
G02*
X149200000Y-78950000I125000J0D01*
G01*
X150450000Y-78950000D01*
G75*
G02*
X150575000Y-79075000I0J-125000D01*
G01*
X150575000Y-79325000D01*
G75*
G02*
X150450000Y-79450000I-125000J0D01*
G01*
X149200000Y-79450000D01*
G75*
G02*
X149075000Y-79325000I0J125000D01*
G01*
G37*
%TD*%
%TO.C,U3*%
G36*
G01*
X145250000Y-92600000D02*
X146575000Y-92600000D01*
G75*
G02*
X146650000Y-92675000I0J-75000D01*
G01*
X146650000Y-92825000D01*
G75*
G02*
X146575000Y-92900000I-75000J0D01*
G01*
X145250000Y-92900000D01*
G75*
G02*
X145175000Y-92825000I0J75000D01*
G01*
X145175000Y-92675000D01*
G75*
G02*
X145250000Y-92600000I75000J0D01*
G01*
G37*
G36*
G01*
X145250000Y-93100000D02*
X146575000Y-93100000D01*
G75*
G02*
X146650000Y-93175000I0J-75000D01*
G01*
X146650000Y-93325000D01*
G75*
G02*
X146575000Y-93400000I-75000J0D01*
G01*
X145250000Y-93400000D01*
G75*
G02*
X145175000Y-93325000I0J75000D01*
G01*
X145175000Y-93175000D01*
G75*
G02*
X145250000Y-93100000I75000J0D01*
G01*
G37*
G36*
G01*
X145250000Y-93600000D02*
X146575000Y-93600000D01*
G75*
G02*
X146650000Y-93675000I0J-75000D01*
G01*
X146650000Y-93825000D01*
G75*
G02*
X146575000Y-93900000I-75000J0D01*
G01*
X145250000Y-93900000D01*
G75*
G02*
X145175000Y-93825000I0J75000D01*
G01*
X145175000Y-93675000D01*
G75*
G02*
X145250000Y-93600000I75000J0D01*
G01*
G37*
G36*
G01*
X145250000Y-94100000D02*
X146575000Y-94100000D01*
G75*
G02*
X146650000Y-94175000I0J-75000D01*
G01*
X146650000Y-94325000D01*
G75*
G02*
X146575000Y-94400000I-75000J0D01*
G01*
X145250000Y-94400000D01*
G75*
G02*
X145175000Y-94325000I0J75000D01*
G01*
X145175000Y-94175000D01*
G75*
G02*
X145250000Y-94100000I75000J0D01*
G01*
G37*
G36*
G01*
X145250000Y-94600000D02*
X146575000Y-94600000D01*
G75*
G02*
X146650000Y-94675000I0J-75000D01*
G01*
X146650000Y-94825000D01*
G75*
G02*
X146575000Y-94900000I-75000J0D01*
G01*
X145250000Y-94900000D01*
G75*
G02*
X145175000Y-94825000I0J75000D01*
G01*
X145175000Y-94675000D01*
G75*
G02*
X145250000Y-94600000I75000J0D01*
G01*
G37*
G36*
G01*
X145250000Y-95100000D02*
X146575000Y-95100000D01*
G75*
G02*
X146650000Y-95175000I0J-75000D01*
G01*
X146650000Y-95325000D01*
G75*
G02*
X146575000Y-95400000I-75000J0D01*
G01*
X145250000Y-95400000D01*
G75*
G02*
X145175000Y-95325000I0J75000D01*
G01*
X145175000Y-95175000D01*
G75*
G02*
X145250000Y-95100000I75000J0D01*
G01*
G37*
G36*
G01*
X145250000Y-95600000D02*
X146575000Y-95600000D01*
G75*
G02*
X146650000Y-95675000I0J-75000D01*
G01*
X146650000Y-95825000D01*
G75*
G02*
X146575000Y-95900000I-75000J0D01*
G01*
X145250000Y-95900000D01*
G75*
G02*
X145175000Y-95825000I0J75000D01*
G01*
X145175000Y-95675000D01*
G75*
G02*
X145250000Y-95600000I75000J0D01*
G01*
G37*
G36*
G01*
X145250000Y-96100000D02*
X146575000Y-96100000D01*
G75*
G02*
X146650000Y-96175000I0J-75000D01*
G01*
X146650000Y-96325000D01*
G75*
G02*
X146575000Y-96400000I-75000J0D01*
G01*
X145250000Y-96400000D01*
G75*
G02*
X145175000Y-96325000I0J75000D01*
G01*
X145175000Y-96175000D01*
G75*
G02*
X145250000Y-96100000I75000J0D01*
G01*
G37*
G36*
G01*
X145250000Y-96600000D02*
X146575000Y-96600000D01*
G75*
G02*
X146650000Y-96675000I0J-75000D01*
G01*
X146650000Y-96825000D01*
G75*
G02*
X146575000Y-96900000I-75000J0D01*
G01*
X145250000Y-96900000D01*
G75*
G02*
X145175000Y-96825000I0J75000D01*
G01*
X145175000Y-96675000D01*
G75*
G02*
X145250000Y-96600000I75000J0D01*
G01*
G37*
G36*
G01*
X145250000Y-97100000D02*
X146575000Y-97100000D01*
G75*
G02*
X146650000Y-97175000I0J-75000D01*
G01*
X146650000Y-97325000D01*
G75*
G02*
X146575000Y-97400000I-75000J0D01*
G01*
X145250000Y-97400000D01*
G75*
G02*
X145175000Y-97325000I0J75000D01*
G01*
X145175000Y-97175000D01*
G75*
G02*
X145250000Y-97100000I75000J0D01*
G01*
G37*
G36*
G01*
X145250000Y-97600000D02*
X146575000Y-97600000D01*
G75*
G02*
X146650000Y-97675000I0J-75000D01*
G01*
X146650000Y-97825000D01*
G75*
G02*
X146575000Y-97900000I-75000J0D01*
G01*
X145250000Y-97900000D01*
G75*
G02*
X145175000Y-97825000I0J75000D01*
G01*
X145175000Y-97675000D01*
G75*
G02*
X145250000Y-97600000I75000J0D01*
G01*
G37*
G36*
G01*
X145250000Y-98100000D02*
X146575000Y-98100000D01*
G75*
G02*
X146650000Y-98175000I0J-75000D01*
G01*
X146650000Y-98325000D01*
G75*
G02*
X146575000Y-98400000I-75000J0D01*
G01*
X145250000Y-98400000D01*
G75*
G02*
X145175000Y-98325000I0J75000D01*
G01*
X145175000Y-98175000D01*
G75*
G02*
X145250000Y-98100000I75000J0D01*
G01*
G37*
G36*
G01*
X144425000Y-98925000D02*
X144575000Y-98925000D01*
G75*
G02*
X144650000Y-99000000I0J-75000D01*
G01*
X144650000Y-100325000D01*
G75*
G02*
X144575000Y-100400000I-75000J0D01*
G01*
X144425000Y-100400000D01*
G75*
G02*
X144350000Y-100325000I0J75000D01*
G01*
X144350000Y-99000000D01*
G75*
G02*
X144425000Y-98925000I75000J0D01*
G01*
G37*
G36*
G01*
X143925000Y-98925000D02*
X144075000Y-98925000D01*
G75*
G02*
X144150000Y-99000000I0J-75000D01*
G01*
X144150000Y-100325000D01*
G75*
G02*
X144075000Y-100400000I-75000J0D01*
G01*
X143925000Y-100400000D01*
G75*
G02*
X143850000Y-100325000I0J75000D01*
G01*
X143850000Y-99000000D01*
G75*
G02*
X143925000Y-98925000I75000J0D01*
G01*
G37*
G36*
G01*
X143425000Y-98925000D02*
X143575000Y-98925000D01*
G75*
G02*
X143650000Y-99000000I0J-75000D01*
G01*
X143650000Y-100325000D01*
G75*
G02*
X143575000Y-100400000I-75000J0D01*
G01*
X143425000Y-100400000D01*
G75*
G02*
X143350000Y-100325000I0J75000D01*
G01*
X143350000Y-99000000D01*
G75*
G02*
X143425000Y-98925000I75000J0D01*
G01*
G37*
G36*
G01*
X142925000Y-98925000D02*
X143075000Y-98925000D01*
G75*
G02*
X143150000Y-99000000I0J-75000D01*
G01*
X143150000Y-100325000D01*
G75*
G02*
X143075000Y-100400000I-75000J0D01*
G01*
X142925000Y-100400000D01*
G75*
G02*
X142850000Y-100325000I0J75000D01*
G01*
X142850000Y-99000000D01*
G75*
G02*
X142925000Y-98925000I75000J0D01*
G01*
G37*
G36*
G01*
X142425000Y-98925000D02*
X142575000Y-98925000D01*
G75*
G02*
X142650000Y-99000000I0J-75000D01*
G01*
X142650000Y-100325000D01*
G75*
G02*
X142575000Y-100400000I-75000J0D01*
G01*
X142425000Y-100400000D01*
G75*
G02*
X142350000Y-100325000I0J75000D01*
G01*
X142350000Y-99000000D01*
G75*
G02*
X142425000Y-98925000I75000J0D01*
G01*
G37*
G36*
G01*
X141925000Y-98925000D02*
X142075000Y-98925000D01*
G75*
G02*
X142150000Y-99000000I0J-75000D01*
G01*
X142150000Y-100325000D01*
G75*
G02*
X142075000Y-100400000I-75000J0D01*
G01*
X141925000Y-100400000D01*
G75*
G02*
X141850000Y-100325000I0J75000D01*
G01*
X141850000Y-99000000D01*
G75*
G02*
X141925000Y-98925000I75000J0D01*
G01*
G37*
G36*
G01*
X141425000Y-98925000D02*
X141575000Y-98925000D01*
G75*
G02*
X141650000Y-99000000I0J-75000D01*
G01*
X141650000Y-100325000D01*
G75*
G02*
X141575000Y-100400000I-75000J0D01*
G01*
X141425000Y-100400000D01*
G75*
G02*
X141350000Y-100325000I0J75000D01*
G01*
X141350000Y-99000000D01*
G75*
G02*
X141425000Y-98925000I75000J0D01*
G01*
G37*
G36*
G01*
X140925000Y-98925000D02*
X141075000Y-98925000D01*
G75*
G02*
X141150000Y-99000000I0J-75000D01*
G01*
X141150000Y-100325000D01*
G75*
G02*
X141075000Y-100400000I-75000J0D01*
G01*
X140925000Y-100400000D01*
G75*
G02*
X140850000Y-100325000I0J75000D01*
G01*
X140850000Y-99000000D01*
G75*
G02*
X140925000Y-98925000I75000J0D01*
G01*
G37*
G36*
G01*
X140425000Y-98925000D02*
X140575000Y-98925000D01*
G75*
G02*
X140650000Y-99000000I0J-75000D01*
G01*
X140650000Y-100325000D01*
G75*
G02*
X140575000Y-100400000I-75000J0D01*
G01*
X140425000Y-100400000D01*
G75*
G02*
X140350000Y-100325000I0J75000D01*
G01*
X140350000Y-99000000D01*
G75*
G02*
X140425000Y-98925000I75000J0D01*
G01*
G37*
G36*
G01*
X139925000Y-98925000D02*
X140075000Y-98925000D01*
G75*
G02*
X140150000Y-99000000I0J-75000D01*
G01*
X140150000Y-100325000D01*
G75*
G02*
X140075000Y-100400000I-75000J0D01*
G01*
X139925000Y-100400000D01*
G75*
G02*
X139850000Y-100325000I0J75000D01*
G01*
X139850000Y-99000000D01*
G75*
G02*
X139925000Y-98925000I75000J0D01*
G01*
G37*
G36*
G01*
X139425000Y-98925000D02*
X139575000Y-98925000D01*
G75*
G02*
X139650000Y-99000000I0J-75000D01*
G01*
X139650000Y-100325000D01*
G75*
G02*
X139575000Y-100400000I-75000J0D01*
G01*
X139425000Y-100400000D01*
G75*
G02*
X139350000Y-100325000I0J75000D01*
G01*
X139350000Y-99000000D01*
G75*
G02*
X139425000Y-98925000I75000J0D01*
G01*
G37*
G36*
G01*
X138925000Y-98925000D02*
X139075000Y-98925000D01*
G75*
G02*
X139150000Y-99000000I0J-75000D01*
G01*
X139150000Y-100325000D01*
G75*
G02*
X139075000Y-100400000I-75000J0D01*
G01*
X138925000Y-100400000D01*
G75*
G02*
X138850000Y-100325000I0J75000D01*
G01*
X138850000Y-99000000D01*
G75*
G02*
X138925000Y-98925000I75000J0D01*
G01*
G37*
G36*
G01*
X136925000Y-98100000D02*
X138250000Y-98100000D01*
G75*
G02*
X138325000Y-98175000I0J-75000D01*
G01*
X138325000Y-98325000D01*
G75*
G02*
X138250000Y-98400000I-75000J0D01*
G01*
X136925000Y-98400000D01*
G75*
G02*
X136850000Y-98325000I0J75000D01*
G01*
X136850000Y-98175000D01*
G75*
G02*
X136925000Y-98100000I75000J0D01*
G01*
G37*
G36*
G01*
X136925000Y-97600000D02*
X138250000Y-97600000D01*
G75*
G02*
X138325000Y-97675000I0J-75000D01*
G01*
X138325000Y-97825000D01*
G75*
G02*
X138250000Y-97900000I-75000J0D01*
G01*
X136925000Y-97900000D01*
G75*
G02*
X136850000Y-97825000I0J75000D01*
G01*
X136850000Y-97675000D01*
G75*
G02*
X136925000Y-97600000I75000J0D01*
G01*
G37*
G36*
G01*
X136925000Y-97100000D02*
X138250000Y-97100000D01*
G75*
G02*
X138325000Y-97175000I0J-75000D01*
G01*
X138325000Y-97325000D01*
G75*
G02*
X138250000Y-97400000I-75000J0D01*
G01*
X136925000Y-97400000D01*
G75*
G02*
X136850000Y-97325000I0J75000D01*
G01*
X136850000Y-97175000D01*
G75*
G02*
X136925000Y-97100000I75000J0D01*
G01*
G37*
G36*
G01*
X136925000Y-96600000D02*
X138250000Y-96600000D01*
G75*
G02*
X138325000Y-96675000I0J-75000D01*
G01*
X138325000Y-96825000D01*
G75*
G02*
X138250000Y-96900000I-75000J0D01*
G01*
X136925000Y-96900000D01*
G75*
G02*
X136850000Y-96825000I0J75000D01*
G01*
X136850000Y-96675000D01*
G75*
G02*
X136925000Y-96600000I75000J0D01*
G01*
G37*
G36*
G01*
X136925000Y-96100000D02*
X138250000Y-96100000D01*
G75*
G02*
X138325000Y-96175000I0J-75000D01*
G01*
X138325000Y-96325000D01*
G75*
G02*
X138250000Y-96400000I-75000J0D01*
G01*
X136925000Y-96400000D01*
G75*
G02*
X136850000Y-96325000I0J75000D01*
G01*
X136850000Y-96175000D01*
G75*
G02*
X136925000Y-96100000I75000J0D01*
G01*
G37*
G36*
G01*
X136925000Y-95600000D02*
X138250000Y-95600000D01*
G75*
G02*
X138325000Y-95675000I0J-75000D01*
G01*
X138325000Y-95825000D01*
G75*
G02*
X138250000Y-95900000I-75000J0D01*
G01*
X136925000Y-95900000D01*
G75*
G02*
X136850000Y-95825000I0J75000D01*
G01*
X136850000Y-95675000D01*
G75*
G02*
X136925000Y-95600000I75000J0D01*
G01*
G37*
G36*
G01*
X136925000Y-95100000D02*
X138250000Y-95100000D01*
G75*
G02*
X138325000Y-95175000I0J-75000D01*
G01*
X138325000Y-95325000D01*
G75*
G02*
X138250000Y-95400000I-75000J0D01*
G01*
X136925000Y-95400000D01*
G75*
G02*
X136850000Y-95325000I0J75000D01*
G01*
X136850000Y-95175000D01*
G75*
G02*
X136925000Y-95100000I75000J0D01*
G01*
G37*
G36*
G01*
X136925000Y-94600000D02*
X138250000Y-94600000D01*
G75*
G02*
X138325000Y-94675000I0J-75000D01*
G01*
X138325000Y-94825000D01*
G75*
G02*
X138250000Y-94900000I-75000J0D01*
G01*
X136925000Y-94900000D01*
G75*
G02*
X136850000Y-94825000I0J75000D01*
G01*
X136850000Y-94675000D01*
G75*
G02*
X136925000Y-94600000I75000J0D01*
G01*
G37*
G36*
G01*
X136925000Y-94100000D02*
X138250000Y-94100000D01*
G75*
G02*
X138325000Y-94175000I0J-75000D01*
G01*
X138325000Y-94325000D01*
G75*
G02*
X138250000Y-94400000I-75000J0D01*
G01*
X136925000Y-94400000D01*
G75*
G02*
X136850000Y-94325000I0J75000D01*
G01*
X136850000Y-94175000D01*
G75*
G02*
X136925000Y-94100000I75000J0D01*
G01*
G37*
G36*
G01*
X136925000Y-93600000D02*
X138250000Y-93600000D01*
G75*
G02*
X138325000Y-93675000I0J-75000D01*
G01*
X138325000Y-93825000D01*
G75*
G02*
X138250000Y-93900000I-75000J0D01*
G01*
X136925000Y-93900000D01*
G75*
G02*
X136850000Y-93825000I0J75000D01*
G01*
X136850000Y-93675000D01*
G75*
G02*
X136925000Y-93600000I75000J0D01*
G01*
G37*
G36*
G01*
X136925000Y-93100000D02*
X138250000Y-93100000D01*
G75*
G02*
X138325000Y-93175000I0J-75000D01*
G01*
X138325000Y-93325000D01*
G75*
G02*
X138250000Y-93400000I-75000J0D01*
G01*
X136925000Y-93400000D01*
G75*
G02*
X136850000Y-93325000I0J75000D01*
G01*
X136850000Y-93175000D01*
G75*
G02*
X136925000Y-93100000I75000J0D01*
G01*
G37*
G36*
G01*
X136925000Y-92600000D02*
X138250000Y-92600000D01*
G75*
G02*
X138325000Y-92675000I0J-75000D01*
G01*
X138325000Y-92825000D01*
G75*
G02*
X138250000Y-92900000I-75000J0D01*
G01*
X136925000Y-92900000D01*
G75*
G02*
X136850000Y-92825000I0J75000D01*
G01*
X136850000Y-92675000D01*
G75*
G02*
X136925000Y-92600000I75000J0D01*
G01*
G37*
G36*
G01*
X138925000Y-90600000D02*
X139075000Y-90600000D01*
G75*
G02*
X139150000Y-90675000I0J-75000D01*
G01*
X139150000Y-92000000D01*
G75*
G02*
X139075000Y-92075000I-75000J0D01*
G01*
X138925000Y-92075000D01*
G75*
G02*
X138850000Y-92000000I0J75000D01*
G01*
X138850000Y-90675000D01*
G75*
G02*
X138925000Y-90600000I75000J0D01*
G01*
G37*
G36*
G01*
X139425000Y-90600000D02*
X139575000Y-90600000D01*
G75*
G02*
X139650000Y-90675000I0J-75000D01*
G01*
X139650000Y-92000000D01*
G75*
G02*
X139575000Y-92075000I-75000J0D01*
G01*
X139425000Y-92075000D01*
G75*
G02*
X139350000Y-92000000I0J75000D01*
G01*
X139350000Y-90675000D01*
G75*
G02*
X139425000Y-90600000I75000J0D01*
G01*
G37*
G36*
G01*
X139925000Y-90600000D02*
X140075000Y-90600000D01*
G75*
G02*
X140150000Y-90675000I0J-75000D01*
G01*
X140150000Y-92000000D01*
G75*
G02*
X140075000Y-92075000I-75000J0D01*
G01*
X139925000Y-92075000D01*
G75*
G02*
X139850000Y-92000000I0J75000D01*
G01*
X139850000Y-90675000D01*
G75*
G02*
X139925000Y-90600000I75000J0D01*
G01*
G37*
G36*
G01*
X140425000Y-90600000D02*
X140575000Y-90600000D01*
G75*
G02*
X140650000Y-90675000I0J-75000D01*
G01*
X140650000Y-92000000D01*
G75*
G02*
X140575000Y-92075000I-75000J0D01*
G01*
X140425000Y-92075000D01*
G75*
G02*
X140350000Y-92000000I0J75000D01*
G01*
X140350000Y-90675000D01*
G75*
G02*
X140425000Y-90600000I75000J0D01*
G01*
G37*
G36*
G01*
X140925000Y-90600000D02*
X141075000Y-90600000D01*
G75*
G02*
X141150000Y-90675000I0J-75000D01*
G01*
X141150000Y-92000000D01*
G75*
G02*
X141075000Y-92075000I-75000J0D01*
G01*
X140925000Y-92075000D01*
G75*
G02*
X140850000Y-92000000I0J75000D01*
G01*
X140850000Y-90675000D01*
G75*
G02*
X140925000Y-90600000I75000J0D01*
G01*
G37*
G36*
G01*
X141425000Y-90600000D02*
X141575000Y-90600000D01*
G75*
G02*
X141650000Y-90675000I0J-75000D01*
G01*
X141650000Y-92000000D01*
G75*
G02*
X141575000Y-92075000I-75000J0D01*
G01*
X141425000Y-92075000D01*
G75*
G02*
X141350000Y-92000000I0J75000D01*
G01*
X141350000Y-90675000D01*
G75*
G02*
X141425000Y-90600000I75000J0D01*
G01*
G37*
G36*
G01*
X141925000Y-90600000D02*
X142075000Y-90600000D01*
G75*
G02*
X142150000Y-90675000I0J-75000D01*
G01*
X142150000Y-92000000D01*
G75*
G02*
X142075000Y-92075000I-75000J0D01*
G01*
X141925000Y-92075000D01*
G75*
G02*
X141850000Y-92000000I0J75000D01*
G01*
X141850000Y-90675000D01*
G75*
G02*
X141925000Y-90600000I75000J0D01*
G01*
G37*
G36*
G01*
X142425000Y-90600000D02*
X142575000Y-90600000D01*
G75*
G02*
X142650000Y-90675000I0J-75000D01*
G01*
X142650000Y-92000000D01*
G75*
G02*
X142575000Y-92075000I-75000J0D01*
G01*
X142425000Y-92075000D01*
G75*
G02*
X142350000Y-92000000I0J75000D01*
G01*
X142350000Y-90675000D01*
G75*
G02*
X142425000Y-90600000I75000J0D01*
G01*
G37*
G36*
G01*
X142925000Y-90600000D02*
X143075000Y-90600000D01*
G75*
G02*
X143150000Y-90675000I0J-75000D01*
G01*
X143150000Y-92000000D01*
G75*
G02*
X143075000Y-92075000I-75000J0D01*
G01*
X142925000Y-92075000D01*
G75*
G02*
X142850000Y-92000000I0J75000D01*
G01*
X142850000Y-90675000D01*
G75*
G02*
X142925000Y-90600000I75000J0D01*
G01*
G37*
G36*
G01*
X143425000Y-90600000D02*
X143575000Y-90600000D01*
G75*
G02*
X143650000Y-90675000I0J-75000D01*
G01*
X143650000Y-92000000D01*
G75*
G02*
X143575000Y-92075000I-75000J0D01*
G01*
X143425000Y-92075000D01*
G75*
G02*
X143350000Y-92000000I0J75000D01*
G01*
X143350000Y-90675000D01*
G75*
G02*
X143425000Y-90600000I75000J0D01*
G01*
G37*
G36*
G01*
X143925000Y-90600000D02*
X144075000Y-90600000D01*
G75*
G02*
X144150000Y-90675000I0J-75000D01*
G01*
X144150000Y-92000000D01*
G75*
G02*
X144075000Y-92075000I-75000J0D01*
G01*
X143925000Y-92075000D01*
G75*
G02*
X143850000Y-92000000I0J75000D01*
G01*
X143850000Y-90675000D01*
G75*
G02*
X143925000Y-90600000I75000J0D01*
G01*
G37*
G36*
G01*
X144425000Y-90600000D02*
X144575000Y-90600000D01*
G75*
G02*
X144650000Y-90675000I0J-75000D01*
G01*
X144650000Y-92000000D01*
G75*
G02*
X144575000Y-92075000I-75000J0D01*
G01*
X144425000Y-92075000D01*
G75*
G02*
X144350000Y-92000000I0J75000D01*
G01*
X144350000Y-90675000D01*
G75*
G02*
X144425000Y-90600000I75000J0D01*
G01*
G37*
%TD*%
%TO.C,R24*%
G36*
G01*
X137725000Y-87425000D02*
X138275000Y-87425000D01*
G75*
G02*
X138475000Y-87625000I0J-200000D01*
G01*
X138475000Y-88025000D01*
G75*
G02*
X138275000Y-88225000I-200000J0D01*
G01*
X137725000Y-88225000D01*
G75*
G02*
X137525000Y-88025000I0J200000D01*
G01*
X137525000Y-87625000D01*
G75*
G02*
X137725000Y-87425000I200000J0D01*
G01*
G37*
G36*
G01*
X137725000Y-85775000D02*
X138275000Y-85775000D01*
G75*
G02*
X138475000Y-85975000I0J-200000D01*
G01*
X138475000Y-86375000D01*
G75*
G02*
X138275000Y-86575000I-200000J0D01*
G01*
X137725000Y-86575000D01*
G75*
G02*
X137525000Y-86375000I0J200000D01*
G01*
X137525000Y-85975000D01*
G75*
G02*
X137725000Y-85775000I200000J0D01*
G01*
G37*
%TD*%
%TO.C,R23*%
G36*
G01*
X137725000Y-83425000D02*
X138275000Y-83425000D01*
G75*
G02*
X138475000Y-83625000I0J-200000D01*
G01*
X138475000Y-84025000D01*
G75*
G02*
X138275000Y-84225000I-200000J0D01*
G01*
X137725000Y-84225000D01*
G75*
G02*
X137525000Y-84025000I0J200000D01*
G01*
X137525000Y-83625000D01*
G75*
G02*
X137725000Y-83425000I200000J0D01*
G01*
G37*
G36*
G01*
X137725000Y-81775000D02*
X138275000Y-81775000D01*
G75*
G02*
X138475000Y-81975000I0J-200000D01*
G01*
X138475000Y-82375000D01*
G75*
G02*
X138275000Y-82575000I-200000J0D01*
G01*
X137725000Y-82575000D01*
G75*
G02*
X137525000Y-82375000I0J200000D01*
G01*
X137525000Y-81975000D01*
G75*
G02*
X137725000Y-81775000I200000J0D01*
G01*
G37*
%TD*%
%TO.C,R22*%
G36*
G01*
X142575000Y-79725000D02*
X142575000Y-80275000D01*
G75*
G02*
X142375000Y-80475000I-200000J0D01*
G01*
X141975000Y-80475000D01*
G75*
G02*
X141775000Y-80275000I0J200000D01*
G01*
X141775000Y-79725000D01*
G75*
G02*
X141975000Y-79525000I200000J0D01*
G01*
X142375000Y-79525000D01*
G75*
G02*
X142575000Y-79725000I0J-200000D01*
G01*
G37*
G36*
G01*
X144225000Y-79725000D02*
X144225000Y-80275000D01*
G75*
G02*
X144025000Y-80475000I-200000J0D01*
G01*
X143625000Y-80475000D01*
G75*
G02*
X143425000Y-80275000I0J200000D01*
G01*
X143425000Y-79725000D01*
G75*
G02*
X143625000Y-79525000I200000J0D01*
G01*
X144025000Y-79525000D01*
G75*
G02*
X144225000Y-79725000I0J-200000D01*
G01*
G37*
%TD*%
D15*
%TO.C,U6*%
X141100000Y-75050000D03*
X141100000Y-76950000D03*
X138900000Y-76950000D03*
X138900000Y-76000000D03*
X138900000Y-75050000D03*
%TD*%
%TO.C,U4*%
X141100000Y-69050000D03*
X141100000Y-70950000D03*
X138900000Y-70950000D03*
X138900000Y-70000000D03*
X138900000Y-69050000D03*
%TD*%
%TO.C,R21*%
G36*
G01*
X170425000Y-109275000D02*
X170425000Y-108725000D01*
G75*
G02*
X170625000Y-108525000I200000J0D01*
G01*
X171025000Y-108525000D01*
G75*
G02*
X171225000Y-108725000I0J-200000D01*
G01*
X171225000Y-109275000D01*
G75*
G02*
X171025000Y-109475000I-200000J0D01*
G01*
X170625000Y-109475000D01*
G75*
G02*
X170425000Y-109275000I0J200000D01*
G01*
G37*
G36*
G01*
X168775000Y-109275000D02*
X168775000Y-108725000D01*
G75*
G02*
X168975000Y-108525000I200000J0D01*
G01*
X169375000Y-108525000D01*
G75*
G02*
X169575000Y-108725000I0J-200000D01*
G01*
X169575000Y-109275000D01*
G75*
G02*
X169375000Y-109475000I-200000J0D01*
G01*
X168975000Y-109475000D01*
G75*
G02*
X168775000Y-109275000I0J200000D01*
G01*
G37*
%TD*%
%TO.C,R20*%
G36*
G01*
X164425000Y-109275000D02*
X164425000Y-108725000D01*
G75*
G02*
X164625000Y-108525000I200000J0D01*
G01*
X165025000Y-108525000D01*
G75*
G02*
X165225000Y-108725000I0J-200000D01*
G01*
X165225000Y-109275000D01*
G75*
G02*
X165025000Y-109475000I-200000J0D01*
G01*
X164625000Y-109475000D01*
G75*
G02*
X164425000Y-109275000I0J200000D01*
G01*
G37*
G36*
G01*
X162775000Y-109275000D02*
X162775000Y-108725000D01*
G75*
G02*
X162975000Y-108525000I200000J0D01*
G01*
X163375000Y-108525000D01*
G75*
G02*
X163575000Y-108725000I0J-200000D01*
G01*
X163575000Y-109275000D01*
G75*
G02*
X163375000Y-109475000I-200000J0D01*
G01*
X162975000Y-109475000D01*
G75*
G02*
X162775000Y-109275000I0J200000D01*
G01*
G37*
%TD*%
%TO.C,R19*%
G36*
G01*
X133725000Y-94425000D02*
X134275000Y-94425000D01*
G75*
G02*
X134475000Y-94625000I0J-200000D01*
G01*
X134475000Y-95025000D01*
G75*
G02*
X134275000Y-95225000I-200000J0D01*
G01*
X133725000Y-95225000D01*
G75*
G02*
X133525000Y-95025000I0J200000D01*
G01*
X133525000Y-94625000D01*
G75*
G02*
X133725000Y-94425000I200000J0D01*
G01*
G37*
G36*
G01*
X133725000Y-92775000D02*
X134275000Y-92775000D01*
G75*
G02*
X134475000Y-92975000I0J-200000D01*
G01*
X134475000Y-93375000D01*
G75*
G02*
X134275000Y-93575000I-200000J0D01*
G01*
X133725000Y-93575000D01*
G75*
G02*
X133525000Y-93375000I0J200000D01*
G01*
X133525000Y-92975000D01*
G75*
G02*
X133725000Y-92775000I200000J0D01*
G01*
G37*
%TD*%
%TO.C,R18*%
G36*
G01*
X134275000Y-105575000D02*
X133725000Y-105575000D01*
G75*
G02*
X133525000Y-105375000I0J200000D01*
G01*
X133525000Y-104975000D01*
G75*
G02*
X133725000Y-104775000I200000J0D01*
G01*
X134275000Y-104775000D01*
G75*
G02*
X134475000Y-104975000I0J-200000D01*
G01*
X134475000Y-105375000D01*
G75*
G02*
X134275000Y-105575000I-200000J0D01*
G01*
G37*
G36*
G01*
X134275000Y-107225000D02*
X133725000Y-107225000D01*
G75*
G02*
X133525000Y-107025000I0J200000D01*
G01*
X133525000Y-106625000D01*
G75*
G02*
X133725000Y-106425000I200000J0D01*
G01*
X134275000Y-106425000D01*
G75*
G02*
X134475000Y-106625000I0J-200000D01*
G01*
X134475000Y-107025000D01*
G75*
G02*
X134275000Y-107225000I-200000J0D01*
G01*
G37*
%TD*%
%TO.C,R17*%
G36*
G01*
X153425000Y-104275000D02*
X153425000Y-103725000D01*
G75*
G02*
X153625000Y-103525000I200000J0D01*
G01*
X154025000Y-103525000D01*
G75*
G02*
X154225000Y-103725000I0J-200000D01*
G01*
X154225000Y-104275000D01*
G75*
G02*
X154025000Y-104475000I-200000J0D01*
G01*
X153625000Y-104475000D01*
G75*
G02*
X153425000Y-104275000I0J200000D01*
G01*
G37*
G36*
G01*
X151775000Y-104275000D02*
X151775000Y-103725000D01*
G75*
G02*
X151975000Y-103525000I200000J0D01*
G01*
X152375000Y-103525000D01*
G75*
G02*
X152575000Y-103725000I0J-200000D01*
G01*
X152575000Y-104275000D01*
G75*
G02*
X152375000Y-104475000I-200000J0D01*
G01*
X151975000Y-104475000D01*
G75*
G02*
X151775000Y-104275000I0J200000D01*
G01*
G37*
%TD*%
%TO.C,R16*%
G36*
G01*
X149600000Y-104275000D02*
X149600000Y-103725000D01*
G75*
G02*
X149800000Y-103525000I200000J0D01*
G01*
X150200000Y-103525000D01*
G75*
G02*
X150400000Y-103725000I0J-200000D01*
G01*
X150400000Y-104275000D01*
G75*
G02*
X150200000Y-104475000I-200000J0D01*
G01*
X149800000Y-104475000D01*
G75*
G02*
X149600000Y-104275000I0J200000D01*
G01*
G37*
G36*
G01*
X147950000Y-104275000D02*
X147950000Y-103725000D01*
G75*
G02*
X148150000Y-103525000I200000J0D01*
G01*
X148550000Y-103525000D01*
G75*
G02*
X148750000Y-103725000I0J-200000D01*
G01*
X148750000Y-104275000D01*
G75*
G02*
X148550000Y-104475000I-200000J0D01*
G01*
X148150000Y-104475000D01*
G75*
G02*
X147950000Y-104275000I0J200000D01*
G01*
G37*
%TD*%
%TO.C,R15*%
G36*
G01*
X157575000Y-94725000D02*
X157575000Y-95275000D01*
G75*
G02*
X157375000Y-95475000I-200000J0D01*
G01*
X156975000Y-95475000D01*
G75*
G02*
X156775000Y-95275000I0J200000D01*
G01*
X156775000Y-94725000D01*
G75*
G02*
X156975000Y-94525000I200000J0D01*
G01*
X157375000Y-94525000D01*
G75*
G02*
X157575000Y-94725000I0J-200000D01*
G01*
G37*
G36*
G01*
X159225000Y-94725000D02*
X159225000Y-95275000D01*
G75*
G02*
X159025000Y-95475000I-200000J0D01*
G01*
X158625000Y-95475000D01*
G75*
G02*
X158425000Y-95275000I0J200000D01*
G01*
X158425000Y-94725000D01*
G75*
G02*
X158625000Y-94525000I200000J0D01*
G01*
X159025000Y-94525000D01*
G75*
G02*
X159225000Y-94725000I0J-200000D01*
G01*
G37*
%TD*%
%TO.C,R14*%
G36*
G01*
X157575000Y-88725000D02*
X157575000Y-89275000D01*
G75*
G02*
X157375000Y-89475000I-200000J0D01*
G01*
X156975000Y-89475000D01*
G75*
G02*
X156775000Y-89275000I0J200000D01*
G01*
X156775000Y-88725000D01*
G75*
G02*
X156975000Y-88525000I200000J0D01*
G01*
X157375000Y-88525000D01*
G75*
G02*
X157575000Y-88725000I0J-200000D01*
G01*
G37*
G36*
G01*
X159225000Y-88725000D02*
X159225000Y-89275000D01*
G75*
G02*
X159025000Y-89475000I-200000J0D01*
G01*
X158625000Y-89475000D01*
G75*
G02*
X158425000Y-89275000I0J200000D01*
G01*
X158425000Y-88725000D01*
G75*
G02*
X158625000Y-88525000I200000J0D01*
G01*
X159025000Y-88525000D01*
G75*
G02*
X159225000Y-88725000I0J-200000D01*
G01*
G37*
%TD*%
%TO.C,R13*%
G36*
G01*
X157575000Y-92725000D02*
X157575000Y-93275000D01*
G75*
G02*
X157375000Y-93475000I-200000J0D01*
G01*
X156975000Y-93475000D01*
G75*
G02*
X156775000Y-93275000I0J200000D01*
G01*
X156775000Y-92725000D01*
G75*
G02*
X156975000Y-92525000I200000J0D01*
G01*
X157375000Y-92525000D01*
G75*
G02*
X157575000Y-92725000I0J-200000D01*
G01*
G37*
G36*
G01*
X159225000Y-92725000D02*
X159225000Y-93275000D01*
G75*
G02*
X159025000Y-93475000I-200000J0D01*
G01*
X158625000Y-93475000D01*
G75*
G02*
X158425000Y-93275000I0J200000D01*
G01*
X158425000Y-92725000D01*
G75*
G02*
X158625000Y-92525000I200000J0D01*
G01*
X159025000Y-92525000D01*
G75*
G02*
X159225000Y-92725000I0J-200000D01*
G01*
G37*
%TD*%
%TO.C,R12*%
G36*
G01*
X157575000Y-90725000D02*
X157575000Y-91275000D01*
G75*
G02*
X157375000Y-91475000I-200000J0D01*
G01*
X156975000Y-91475000D01*
G75*
G02*
X156775000Y-91275000I0J200000D01*
G01*
X156775000Y-90725000D01*
G75*
G02*
X156975000Y-90525000I200000J0D01*
G01*
X157375000Y-90525000D01*
G75*
G02*
X157575000Y-90725000I0J-200000D01*
G01*
G37*
G36*
G01*
X159225000Y-90725000D02*
X159225000Y-91275000D01*
G75*
G02*
X159025000Y-91475000I-200000J0D01*
G01*
X158625000Y-91475000D01*
G75*
G02*
X158425000Y-91275000I0J200000D01*
G01*
X158425000Y-90725000D01*
G75*
G02*
X158625000Y-90525000I200000J0D01*
G01*
X159025000Y-90525000D01*
G75*
G02*
X159225000Y-90725000I0J-200000D01*
G01*
G37*
%TD*%
%TO.C,R11*%
G36*
G01*
X151425000Y-89275000D02*
X151425000Y-88725000D01*
G75*
G02*
X151625000Y-88525000I200000J0D01*
G01*
X152025000Y-88525000D01*
G75*
G02*
X152225000Y-88725000I0J-200000D01*
G01*
X152225000Y-89275000D01*
G75*
G02*
X152025000Y-89475000I-200000J0D01*
G01*
X151625000Y-89475000D01*
G75*
G02*
X151425000Y-89275000I0J200000D01*
G01*
G37*
G36*
G01*
X149775000Y-89275000D02*
X149775000Y-88725000D01*
G75*
G02*
X149975000Y-88525000I200000J0D01*
G01*
X150375000Y-88525000D01*
G75*
G02*
X150575000Y-88725000I0J-200000D01*
G01*
X150575000Y-89275000D01*
G75*
G02*
X150375000Y-89475000I-200000J0D01*
G01*
X149975000Y-89475000D01*
G75*
G02*
X149775000Y-89275000I0J200000D01*
G01*
G37*
%TD*%
%TO.C,R10*%
G36*
G01*
X151425000Y-95275000D02*
X151425000Y-94725000D01*
G75*
G02*
X151625000Y-94525000I200000J0D01*
G01*
X152025000Y-94525000D01*
G75*
G02*
X152225000Y-94725000I0J-200000D01*
G01*
X152225000Y-95275000D01*
G75*
G02*
X152025000Y-95475000I-200000J0D01*
G01*
X151625000Y-95475000D01*
G75*
G02*
X151425000Y-95275000I0J200000D01*
G01*
G37*
G36*
G01*
X149775000Y-95275000D02*
X149775000Y-94725000D01*
G75*
G02*
X149975000Y-94525000I200000J0D01*
G01*
X150375000Y-94525000D01*
G75*
G02*
X150575000Y-94725000I0J-200000D01*
G01*
X150575000Y-95275000D01*
G75*
G02*
X150375000Y-95475000I-200000J0D01*
G01*
X149975000Y-95475000D01*
G75*
G02*
X149775000Y-95275000I0J200000D01*
G01*
G37*
%TD*%
%TO.C,R9*%
G36*
G01*
X151425000Y-91275000D02*
X151425000Y-90725000D01*
G75*
G02*
X151625000Y-90525000I200000J0D01*
G01*
X152025000Y-90525000D01*
G75*
G02*
X152225000Y-90725000I0J-200000D01*
G01*
X152225000Y-91275000D01*
G75*
G02*
X152025000Y-91475000I-200000J0D01*
G01*
X151625000Y-91475000D01*
G75*
G02*
X151425000Y-91275000I0J200000D01*
G01*
G37*
G36*
G01*
X149775000Y-91275000D02*
X149775000Y-90725000D01*
G75*
G02*
X149975000Y-90525000I200000J0D01*
G01*
X150375000Y-90525000D01*
G75*
G02*
X150575000Y-90725000I0J-200000D01*
G01*
X150575000Y-91275000D01*
G75*
G02*
X150375000Y-91475000I-200000J0D01*
G01*
X149975000Y-91475000D01*
G75*
G02*
X149775000Y-91275000I0J200000D01*
G01*
G37*
%TD*%
%TO.C,R8*%
G36*
G01*
X151425000Y-93275000D02*
X151425000Y-92725000D01*
G75*
G02*
X151625000Y-92525000I200000J0D01*
G01*
X152025000Y-92525000D01*
G75*
G02*
X152225000Y-92725000I0J-200000D01*
G01*
X152225000Y-93275000D01*
G75*
G02*
X152025000Y-93475000I-200000J0D01*
G01*
X151625000Y-93475000D01*
G75*
G02*
X151425000Y-93275000I0J200000D01*
G01*
G37*
G36*
G01*
X149775000Y-93275000D02*
X149775000Y-92725000D01*
G75*
G02*
X149975000Y-92525000I200000J0D01*
G01*
X150375000Y-92525000D01*
G75*
G02*
X150575000Y-92725000I0J-200000D01*
G01*
X150575000Y-93275000D01*
G75*
G02*
X150375000Y-93475000I-200000J0D01*
G01*
X149975000Y-93475000D01*
G75*
G02*
X149775000Y-93275000I0J200000D01*
G01*
G37*
%TD*%
%TO.C,R7*%
G36*
G01*
X150775000Y-73575000D02*
X150225000Y-73575000D01*
G75*
G02*
X150025000Y-73375000I0J200000D01*
G01*
X150025000Y-72975000D01*
G75*
G02*
X150225000Y-72775000I200000J0D01*
G01*
X150775000Y-72775000D01*
G75*
G02*
X150975000Y-72975000I0J-200000D01*
G01*
X150975000Y-73375000D01*
G75*
G02*
X150775000Y-73575000I-200000J0D01*
G01*
G37*
G36*
G01*
X150775000Y-75225000D02*
X150225000Y-75225000D01*
G75*
G02*
X150025000Y-75025000I0J200000D01*
G01*
X150025000Y-74625000D01*
G75*
G02*
X150225000Y-74425000I200000J0D01*
G01*
X150775000Y-74425000D01*
G75*
G02*
X150975000Y-74625000I0J-200000D01*
G01*
X150975000Y-75025000D01*
G75*
G02*
X150775000Y-75225000I-200000J0D01*
G01*
G37*
%TD*%
%TO.C,R6*%
G36*
G01*
X152775000Y-73575000D02*
X152225000Y-73575000D01*
G75*
G02*
X152025000Y-73375000I0J200000D01*
G01*
X152025000Y-72975000D01*
G75*
G02*
X152225000Y-72775000I200000J0D01*
G01*
X152775000Y-72775000D01*
G75*
G02*
X152975000Y-72975000I0J-200000D01*
G01*
X152975000Y-73375000D01*
G75*
G02*
X152775000Y-73575000I-200000J0D01*
G01*
G37*
G36*
G01*
X152775000Y-75225000D02*
X152225000Y-75225000D01*
G75*
G02*
X152025000Y-75025000I0J200000D01*
G01*
X152025000Y-74625000D01*
G75*
G02*
X152225000Y-74425000I200000J0D01*
G01*
X152775000Y-74425000D01*
G75*
G02*
X152975000Y-74625000I0J-200000D01*
G01*
X152975000Y-75025000D01*
G75*
G02*
X152775000Y-75225000I-200000J0D01*
G01*
G37*
%TD*%
%TO.C,R5*%
G36*
G01*
X163425000Y-63275000D02*
X163425000Y-62725000D01*
G75*
G02*
X163625000Y-62525000I200000J0D01*
G01*
X164025000Y-62525000D01*
G75*
G02*
X164225000Y-62725000I0J-200000D01*
G01*
X164225000Y-63275000D01*
G75*
G02*
X164025000Y-63475000I-200000J0D01*
G01*
X163625000Y-63475000D01*
G75*
G02*
X163425000Y-63275000I0J200000D01*
G01*
G37*
G36*
G01*
X161775000Y-63275000D02*
X161775000Y-62725000D01*
G75*
G02*
X161975000Y-62525000I200000J0D01*
G01*
X162375000Y-62525000D01*
G75*
G02*
X162575000Y-62725000I0J-200000D01*
G01*
X162575000Y-63275000D01*
G75*
G02*
X162375000Y-63475000I-200000J0D01*
G01*
X161975000Y-63475000D01*
G75*
G02*
X161775000Y-63275000I0J200000D01*
G01*
G37*
%TD*%
%TO.C,R4*%
G36*
G01*
X163425000Y-66275000D02*
X163425000Y-65725000D01*
G75*
G02*
X163625000Y-65525000I200000J0D01*
G01*
X164025000Y-65525000D01*
G75*
G02*
X164225000Y-65725000I0J-200000D01*
G01*
X164225000Y-66275000D01*
G75*
G02*
X164025000Y-66475000I-200000J0D01*
G01*
X163625000Y-66475000D01*
G75*
G02*
X163425000Y-66275000I0J200000D01*
G01*
G37*
G36*
G01*
X161775000Y-66275000D02*
X161775000Y-65725000D01*
G75*
G02*
X161975000Y-65525000I200000J0D01*
G01*
X162375000Y-65525000D01*
G75*
G02*
X162575000Y-65725000I0J-200000D01*
G01*
X162575000Y-66275000D01*
G75*
G02*
X162375000Y-66475000I-200000J0D01*
G01*
X161975000Y-66475000D01*
G75*
G02*
X161775000Y-66275000I0J200000D01*
G01*
G37*
%TD*%
%TO.C,R3*%
G36*
G01*
X158275000Y-73575000D02*
X157725000Y-73575000D01*
G75*
G02*
X157525000Y-73375000I0J200000D01*
G01*
X157525000Y-72975000D01*
G75*
G02*
X157725000Y-72775000I200000J0D01*
G01*
X158275000Y-72775000D01*
G75*
G02*
X158475000Y-72975000I0J-200000D01*
G01*
X158475000Y-73375000D01*
G75*
G02*
X158275000Y-73575000I-200000J0D01*
G01*
G37*
G36*
G01*
X158275000Y-75225000D02*
X157725000Y-75225000D01*
G75*
G02*
X157525000Y-75025000I0J200000D01*
G01*
X157525000Y-74625000D01*
G75*
G02*
X157725000Y-74425000I200000J0D01*
G01*
X158275000Y-74425000D01*
G75*
G02*
X158475000Y-74625000I0J-200000D01*
G01*
X158475000Y-75025000D01*
G75*
G02*
X158275000Y-75225000I-200000J0D01*
G01*
G37*
%TD*%
%TO.C,R2*%
G36*
G01*
X159725000Y-74425000D02*
X160275000Y-74425000D01*
G75*
G02*
X160475000Y-74625000I0J-200000D01*
G01*
X160475000Y-75025000D01*
G75*
G02*
X160275000Y-75225000I-200000J0D01*
G01*
X159725000Y-75225000D01*
G75*
G02*
X159525000Y-75025000I0J200000D01*
G01*
X159525000Y-74625000D01*
G75*
G02*
X159725000Y-74425000I200000J0D01*
G01*
G37*
G36*
G01*
X159725000Y-72775000D02*
X160275000Y-72775000D01*
G75*
G02*
X160475000Y-72975000I0J-200000D01*
G01*
X160475000Y-73375000D01*
G75*
G02*
X160275000Y-73575000I-200000J0D01*
G01*
X159725000Y-73575000D01*
G75*
G02*
X159525000Y-73375000I0J200000D01*
G01*
X159525000Y-72975000D01*
G75*
G02*
X159725000Y-72775000I200000J0D01*
G01*
G37*
%TD*%
%TO.C,R1*%
G36*
G01*
X162425000Y-79275000D02*
X162425000Y-78725000D01*
G75*
G02*
X162625000Y-78525000I200000J0D01*
G01*
X163025000Y-78525000D01*
G75*
G02*
X163225000Y-78725000I0J-200000D01*
G01*
X163225000Y-79275000D01*
G75*
G02*
X163025000Y-79475000I-200000J0D01*
G01*
X162625000Y-79475000D01*
G75*
G02*
X162425000Y-79275000I0J200000D01*
G01*
G37*
G36*
G01*
X160775000Y-79275000D02*
X160775000Y-78725000D01*
G75*
G02*
X160975000Y-78525000I200000J0D01*
G01*
X161375000Y-78525000D01*
G75*
G02*
X161575000Y-78725000I0J-200000D01*
G01*
X161575000Y-79275000D01*
G75*
G02*
X161375000Y-79475000I-200000J0D01*
G01*
X160975000Y-79475000D01*
G75*
G02*
X160775000Y-79275000I0J200000D01*
G01*
G37*
%TD*%
%TO.C,L2*%
G36*
G01*
X145650000Y-63743750D02*
X145650000Y-64256250D01*
G75*
G02*
X145431250Y-64475000I-218750J0D01*
G01*
X144993750Y-64475000D01*
G75*
G02*
X144775000Y-64256250I0J218750D01*
G01*
X144775000Y-63743750D01*
G75*
G02*
X144993750Y-63525000I218750J0D01*
G01*
X145431250Y-63525000D01*
G75*
G02*
X145650000Y-63743750I0J-218750D01*
G01*
G37*
G36*
G01*
X147225000Y-63743750D02*
X147225000Y-64256250D01*
G75*
G02*
X147006250Y-64475000I-218750J0D01*
G01*
X146568750Y-64475000D01*
G75*
G02*
X146350000Y-64256250I0J218750D01*
G01*
X146350000Y-63743750D01*
G75*
G02*
X146568750Y-63525000I218750J0D01*
G01*
X147006250Y-63525000D01*
G75*
G02*
X147225000Y-63743750I0J-218750D01*
G01*
G37*
%TD*%
%TO.C,L1*%
G36*
G01*
X134350000Y-66256250D02*
X134350000Y-65743750D01*
G75*
G02*
X134568750Y-65525000I218750J0D01*
G01*
X135006250Y-65525000D01*
G75*
G02*
X135225000Y-65743750I0J-218750D01*
G01*
X135225000Y-66256250D01*
G75*
G02*
X135006250Y-66475000I-218750J0D01*
G01*
X134568750Y-66475000D01*
G75*
G02*
X134350000Y-66256250I0J218750D01*
G01*
G37*
G36*
G01*
X132775000Y-66256250D02*
X132775000Y-65743750D01*
G75*
G02*
X132993750Y-65525000I218750J0D01*
G01*
X133431250Y-65525000D01*
G75*
G02*
X133650000Y-65743750I0J-218750D01*
G01*
X133650000Y-66256250D01*
G75*
G02*
X133431250Y-66475000I-218750J0D01*
G01*
X132993750Y-66475000D01*
G75*
G02*
X132775000Y-66256250I0J218750D01*
G01*
G37*
%TD*%
%TO.C,D3*%
G36*
G01*
X170350000Y-112256250D02*
X170350000Y-111743750D01*
G75*
G02*
X170568750Y-111525000I218750J0D01*
G01*
X171006250Y-111525000D01*
G75*
G02*
X171225000Y-111743750I0J-218750D01*
G01*
X171225000Y-112256250D01*
G75*
G02*
X171006250Y-112475000I-218750J0D01*
G01*
X170568750Y-112475000D01*
G75*
G02*
X170350000Y-112256250I0J218750D01*
G01*
G37*
G36*
G01*
X168775000Y-112256250D02*
X168775000Y-111743750D01*
G75*
G02*
X168993750Y-111525000I218750J0D01*
G01*
X169431250Y-111525000D01*
G75*
G02*
X169650000Y-111743750I0J-218750D01*
G01*
X169650000Y-112256250D01*
G75*
G02*
X169431250Y-112475000I-218750J0D01*
G01*
X168993750Y-112475000D01*
G75*
G02*
X168775000Y-112256250I0J218750D01*
G01*
G37*
%TD*%
%TO.C,D2*%
G36*
G01*
X164350000Y-112256250D02*
X164350000Y-111743750D01*
G75*
G02*
X164568750Y-111525000I218750J0D01*
G01*
X165006250Y-111525000D01*
G75*
G02*
X165225000Y-111743750I0J-218750D01*
G01*
X165225000Y-112256250D01*
G75*
G02*
X165006250Y-112475000I-218750J0D01*
G01*
X164568750Y-112475000D01*
G75*
G02*
X164350000Y-112256250I0J218750D01*
G01*
G37*
G36*
G01*
X162775000Y-112256250D02*
X162775000Y-111743750D01*
G75*
G02*
X162993750Y-111525000I218750J0D01*
G01*
X163431250Y-111525000D01*
G75*
G02*
X163650000Y-111743750I0J-218750D01*
G01*
X163650000Y-112256250D01*
G75*
G02*
X163431250Y-112475000I-218750J0D01*
G01*
X162993750Y-112475000D01*
G75*
G02*
X162775000Y-112256250I0J218750D01*
G01*
G37*
%TD*%
%TO.C,D1*%
G36*
G01*
X134256250Y-109650000D02*
X133743750Y-109650000D01*
G75*
G02*
X133525000Y-109431250I0J218750D01*
G01*
X133525000Y-108993750D01*
G75*
G02*
X133743750Y-108775000I218750J0D01*
G01*
X134256250Y-108775000D01*
G75*
G02*
X134475000Y-108993750I0J-218750D01*
G01*
X134475000Y-109431250D01*
G75*
G02*
X134256250Y-109650000I-218750J0D01*
G01*
G37*
G36*
G01*
X134256250Y-111225000D02*
X133743750Y-111225000D01*
G75*
G02*
X133525000Y-111006250I0J218750D01*
G01*
X133525000Y-110568750D01*
G75*
G02*
X133743750Y-110350000I218750J0D01*
G01*
X134256250Y-110350000D01*
G75*
G02*
X134475000Y-110568750I0J-218750D01*
G01*
X134475000Y-111006250D01*
G75*
G02*
X134256250Y-111225000I-218750J0D01*
G01*
G37*
%TD*%
%TO.C,C18*%
G36*
G01*
X162675000Y-85750000D02*
X162675000Y-86250000D01*
G75*
G02*
X162450000Y-86475000I-225000J0D01*
G01*
X162000000Y-86475000D01*
G75*
G02*
X161775000Y-86250000I0J225000D01*
G01*
X161775000Y-85750000D01*
G75*
G02*
X162000000Y-85525000I225000J0D01*
G01*
X162450000Y-85525000D01*
G75*
G02*
X162675000Y-85750000I0J-225000D01*
G01*
G37*
G36*
G01*
X164225000Y-85750000D02*
X164225000Y-86250000D01*
G75*
G02*
X164000000Y-86475000I-225000J0D01*
G01*
X163550000Y-86475000D01*
G75*
G02*
X163325000Y-86250000I0J225000D01*
G01*
X163325000Y-85750000D01*
G75*
G02*
X163550000Y-85525000I225000J0D01*
G01*
X164000000Y-85525000D01*
G75*
G02*
X164225000Y-85750000I0J-225000D01*
G01*
G37*
%TD*%
D16*
%TO.C,C17*%
X144000000Y-110100000D03*
X144000000Y-103900000D03*
%TD*%
%TO.C,C16*%
G36*
G01*
X153100000Y-107250000D02*
X153100000Y-106750000D01*
G75*
G02*
X153325000Y-106525000I225000J0D01*
G01*
X153775000Y-106525000D01*
G75*
G02*
X154000000Y-106750000I0J-225000D01*
G01*
X154000000Y-107250000D01*
G75*
G02*
X153775000Y-107475000I-225000J0D01*
G01*
X153325000Y-107475000D01*
G75*
G02*
X153100000Y-107250000I0J225000D01*
G01*
G37*
G36*
G01*
X151550000Y-107250000D02*
X151550000Y-106750000D01*
G75*
G02*
X151775000Y-106525000I225000J0D01*
G01*
X152225000Y-106525000D01*
G75*
G02*
X152450000Y-106750000I0J-225000D01*
G01*
X152450000Y-107250000D01*
G75*
G02*
X152225000Y-107475000I-225000J0D01*
G01*
X151775000Y-107475000D01*
G75*
G02*
X151550000Y-107250000I0J225000D01*
G01*
G37*
%TD*%
%TO.C,C15*%
X138000000Y-110100000D03*
X138000000Y-103900000D03*
%TD*%
%TO.C,C14*%
G36*
G01*
X149550000Y-107250000D02*
X149550000Y-106750000D01*
G75*
G02*
X149775000Y-106525000I225000J0D01*
G01*
X150225000Y-106525000D01*
G75*
G02*
X150450000Y-106750000I0J-225000D01*
G01*
X150450000Y-107250000D01*
G75*
G02*
X150225000Y-107475000I-225000J0D01*
G01*
X149775000Y-107475000D01*
G75*
G02*
X149550000Y-107250000I0J225000D01*
G01*
G37*
G36*
G01*
X148000000Y-107250000D02*
X148000000Y-106750000D01*
G75*
G02*
X148225000Y-106525000I225000J0D01*
G01*
X148675000Y-106525000D01*
G75*
G02*
X148900000Y-106750000I0J-225000D01*
G01*
X148900000Y-107250000D01*
G75*
G02*
X148675000Y-107475000I-225000J0D01*
G01*
X148225000Y-107475000D01*
G75*
G02*
X148000000Y-107250000I0J225000D01*
G01*
G37*
%TD*%
%TO.C,C13*%
G36*
G01*
X133750000Y-98325000D02*
X134250000Y-98325000D01*
G75*
G02*
X134475000Y-98550000I0J-225000D01*
G01*
X134475000Y-99000000D01*
G75*
G02*
X134250000Y-99225000I-225000J0D01*
G01*
X133750000Y-99225000D01*
G75*
G02*
X133525000Y-99000000I0J225000D01*
G01*
X133525000Y-98550000D01*
G75*
G02*
X133750000Y-98325000I225000J0D01*
G01*
G37*
G36*
G01*
X133750000Y-96775000D02*
X134250000Y-96775000D01*
G75*
G02*
X134475000Y-97000000I0J-225000D01*
G01*
X134475000Y-97450000D01*
G75*
G02*
X134250000Y-97675000I-225000J0D01*
G01*
X133750000Y-97675000D01*
G75*
G02*
X133525000Y-97450000I0J225000D01*
G01*
X133525000Y-97000000D01*
G75*
G02*
X133750000Y-96775000I225000J0D01*
G01*
G37*
%TD*%
%TO.C,C12*%
G36*
G01*
X162675000Y-90750000D02*
X162675000Y-91250000D01*
G75*
G02*
X162450000Y-91475000I-225000J0D01*
G01*
X162000000Y-91475000D01*
G75*
G02*
X161775000Y-91250000I0J225000D01*
G01*
X161775000Y-90750000D01*
G75*
G02*
X162000000Y-90525000I225000J0D01*
G01*
X162450000Y-90525000D01*
G75*
G02*
X162675000Y-90750000I0J-225000D01*
G01*
G37*
G36*
G01*
X164225000Y-90750000D02*
X164225000Y-91250000D01*
G75*
G02*
X164000000Y-91475000I-225000J0D01*
G01*
X163550000Y-91475000D01*
G75*
G02*
X163325000Y-91250000I0J225000D01*
G01*
X163325000Y-90750000D01*
G75*
G02*
X163550000Y-90525000I225000J0D01*
G01*
X164000000Y-90525000D01*
G75*
G02*
X164225000Y-90750000I0J-225000D01*
G01*
G37*
%TD*%
%TO.C,C11*%
G36*
G01*
X143750000Y-87325000D02*
X144250000Y-87325000D01*
G75*
G02*
X144475000Y-87550000I0J-225000D01*
G01*
X144475000Y-88000000D01*
G75*
G02*
X144250000Y-88225000I-225000J0D01*
G01*
X143750000Y-88225000D01*
G75*
G02*
X143525000Y-88000000I0J225000D01*
G01*
X143525000Y-87550000D01*
G75*
G02*
X143750000Y-87325000I225000J0D01*
G01*
G37*
G36*
G01*
X143750000Y-85775000D02*
X144250000Y-85775000D01*
G75*
G02*
X144475000Y-86000000I0J-225000D01*
G01*
X144475000Y-86450000D01*
G75*
G02*
X144250000Y-86675000I-225000J0D01*
G01*
X143750000Y-86675000D01*
G75*
G02*
X143525000Y-86450000I0J225000D01*
G01*
X143525000Y-86000000D01*
G75*
G02*
X143750000Y-85775000I225000J0D01*
G01*
G37*
%TD*%
%TO.C,C10*%
G36*
G01*
X143750000Y-83325000D02*
X144250000Y-83325000D01*
G75*
G02*
X144475000Y-83550000I0J-225000D01*
G01*
X144475000Y-84000000D01*
G75*
G02*
X144250000Y-84225000I-225000J0D01*
G01*
X143750000Y-84225000D01*
G75*
G02*
X143525000Y-84000000I0J225000D01*
G01*
X143525000Y-83550000D01*
G75*
G02*
X143750000Y-83325000I225000J0D01*
G01*
G37*
G36*
G01*
X143750000Y-81775000D02*
X144250000Y-81775000D01*
G75*
G02*
X144475000Y-82000000I0J-225000D01*
G01*
X144475000Y-82450000D01*
G75*
G02*
X144250000Y-82675000I-225000J0D01*
G01*
X143750000Y-82675000D01*
G75*
G02*
X143525000Y-82450000I0J225000D01*
G01*
X143525000Y-82000000D01*
G75*
G02*
X143750000Y-81775000I225000J0D01*
G01*
G37*
%TD*%
%TO.C,C9*%
G36*
G01*
X140750000Y-87325000D02*
X141250000Y-87325000D01*
G75*
G02*
X141475000Y-87550000I0J-225000D01*
G01*
X141475000Y-88000000D01*
G75*
G02*
X141250000Y-88225000I-225000J0D01*
G01*
X140750000Y-88225000D01*
G75*
G02*
X140525000Y-88000000I0J225000D01*
G01*
X140525000Y-87550000D01*
G75*
G02*
X140750000Y-87325000I225000J0D01*
G01*
G37*
G36*
G01*
X140750000Y-85775000D02*
X141250000Y-85775000D01*
G75*
G02*
X141475000Y-86000000I0J-225000D01*
G01*
X141475000Y-86450000D01*
G75*
G02*
X141250000Y-86675000I-225000J0D01*
G01*
X140750000Y-86675000D01*
G75*
G02*
X140525000Y-86450000I0J225000D01*
G01*
X140525000Y-86000000D01*
G75*
G02*
X140750000Y-85775000I225000J0D01*
G01*
G37*
%TD*%
%TO.C,C8*%
G36*
G01*
X140750000Y-83325000D02*
X141250000Y-83325000D01*
G75*
G02*
X141475000Y-83550000I0J-225000D01*
G01*
X141475000Y-84000000D01*
G75*
G02*
X141250000Y-84225000I-225000J0D01*
G01*
X140750000Y-84225000D01*
G75*
G02*
X140525000Y-84000000I0J225000D01*
G01*
X140525000Y-83550000D01*
G75*
G02*
X140750000Y-83325000I225000J0D01*
G01*
G37*
G36*
G01*
X140750000Y-81775000D02*
X141250000Y-81775000D01*
G75*
G02*
X141475000Y-82000000I0J-225000D01*
G01*
X141475000Y-82450000D01*
G75*
G02*
X141250000Y-82675000I-225000J0D01*
G01*
X140750000Y-82675000D01*
G75*
G02*
X140525000Y-82450000I0J225000D01*
G01*
X140525000Y-82000000D01*
G75*
G02*
X140750000Y-81775000I225000J0D01*
G01*
G37*
%TD*%
%TO.C,C7*%
G36*
G01*
X139325000Y-80250000D02*
X139325000Y-79750000D01*
G75*
G02*
X139550000Y-79525000I225000J0D01*
G01*
X140000000Y-79525000D01*
G75*
G02*
X140225000Y-79750000I0J-225000D01*
G01*
X140225000Y-80250000D01*
G75*
G02*
X140000000Y-80475000I-225000J0D01*
G01*
X139550000Y-80475000D01*
G75*
G02*
X139325000Y-80250000I0J225000D01*
G01*
G37*
G36*
G01*
X137775000Y-80250000D02*
X137775000Y-79750000D01*
G75*
G02*
X138000000Y-79525000I225000J0D01*
G01*
X138450000Y-79525000D01*
G75*
G02*
X138675000Y-79750000I0J-225000D01*
G01*
X138675000Y-80250000D01*
G75*
G02*
X138450000Y-80475000I-225000J0D01*
G01*
X138000000Y-80475000D01*
G75*
G02*
X137775000Y-80250000I0J225000D01*
G01*
G37*
%TD*%
%TO.C,C6*%
G36*
G01*
X155250000Y-73675000D02*
X154750000Y-73675000D01*
G75*
G02*
X154525000Y-73450000I0J225000D01*
G01*
X154525000Y-73000000D01*
G75*
G02*
X154750000Y-72775000I225000J0D01*
G01*
X155250000Y-72775000D01*
G75*
G02*
X155475000Y-73000000I0J-225000D01*
G01*
X155475000Y-73450000D01*
G75*
G02*
X155250000Y-73675000I-225000J0D01*
G01*
G37*
G36*
G01*
X155250000Y-75225000D02*
X154750000Y-75225000D01*
G75*
G02*
X154525000Y-75000000I0J225000D01*
G01*
X154525000Y-74550000D01*
G75*
G02*
X154750000Y-74325000I225000J0D01*
G01*
X155250000Y-74325000D01*
G75*
G02*
X155475000Y-74550000I0J-225000D01*
G01*
X155475000Y-75000000D01*
G75*
G02*
X155250000Y-75225000I-225000J0D01*
G01*
G37*
%TD*%
%TO.C,C5*%
G36*
G01*
X148250000Y-73675000D02*
X147750000Y-73675000D01*
G75*
G02*
X147525000Y-73450000I0J225000D01*
G01*
X147525000Y-73000000D01*
G75*
G02*
X147750000Y-72775000I225000J0D01*
G01*
X148250000Y-72775000D01*
G75*
G02*
X148475000Y-73000000I0J-225000D01*
G01*
X148475000Y-73450000D01*
G75*
G02*
X148250000Y-73675000I-225000J0D01*
G01*
G37*
G36*
G01*
X148250000Y-75225000D02*
X147750000Y-75225000D01*
G75*
G02*
X147525000Y-75000000I0J225000D01*
G01*
X147525000Y-74550000D01*
G75*
G02*
X147750000Y-74325000I225000J0D01*
G01*
X148250000Y-74325000D01*
G75*
G02*
X148475000Y-74550000I0J-225000D01*
G01*
X148475000Y-75000000D01*
G75*
G02*
X148250000Y-75225000I-225000J0D01*
G01*
G37*
%TD*%
%TO.C,C4*%
G36*
G01*
X144325000Y-69250000D02*
X144325000Y-68750000D01*
G75*
G02*
X144550000Y-68525000I225000J0D01*
G01*
X145000000Y-68525000D01*
G75*
G02*
X145225000Y-68750000I0J-225000D01*
G01*
X145225000Y-69250000D01*
G75*
G02*
X145000000Y-69475000I-225000J0D01*
G01*
X144550000Y-69475000D01*
G75*
G02*
X144325000Y-69250000I0J225000D01*
G01*
G37*
G36*
G01*
X142775000Y-69250000D02*
X142775000Y-68750000D01*
G75*
G02*
X143000000Y-68525000I225000J0D01*
G01*
X143450000Y-68525000D01*
G75*
G02*
X143675000Y-68750000I0J-225000D01*
G01*
X143675000Y-69250000D01*
G75*
G02*
X143450000Y-69475000I-225000J0D01*
G01*
X143000000Y-69475000D01*
G75*
G02*
X142775000Y-69250000I0J225000D01*
G01*
G37*
%TD*%
%TO.C,C3*%
G36*
G01*
X140675000Y-64750000D02*
X140675000Y-65250000D01*
G75*
G02*
X140450000Y-65475000I-225000J0D01*
G01*
X140000000Y-65475000D01*
G75*
G02*
X139775000Y-65250000I0J225000D01*
G01*
X139775000Y-64750000D01*
G75*
G02*
X140000000Y-64525000I225000J0D01*
G01*
X140450000Y-64525000D01*
G75*
G02*
X140675000Y-64750000I0J-225000D01*
G01*
G37*
G36*
G01*
X142225000Y-64750000D02*
X142225000Y-65250000D01*
G75*
G02*
X142000000Y-65475000I-225000J0D01*
G01*
X141550000Y-65475000D01*
G75*
G02*
X141325000Y-65250000I0J225000D01*
G01*
X141325000Y-64750000D01*
G75*
G02*
X141550000Y-64525000I225000J0D01*
G01*
X142000000Y-64525000D01*
G75*
G02*
X142225000Y-64750000I0J-225000D01*
G01*
G37*
%TD*%
%TO.C,C2*%
G36*
G01*
X140675000Y-61750000D02*
X140675000Y-62250000D01*
G75*
G02*
X140450000Y-62475000I-225000J0D01*
G01*
X140000000Y-62475000D01*
G75*
G02*
X139775000Y-62250000I0J225000D01*
G01*
X139775000Y-61750000D01*
G75*
G02*
X140000000Y-61525000I225000J0D01*
G01*
X140450000Y-61525000D01*
G75*
G02*
X140675000Y-61750000I0J-225000D01*
G01*
G37*
G36*
G01*
X142225000Y-61750000D02*
X142225000Y-62250000D01*
G75*
G02*
X142000000Y-62475000I-225000J0D01*
G01*
X141550000Y-62475000D01*
G75*
G02*
X141325000Y-62250000I0J225000D01*
G01*
X141325000Y-61750000D01*
G75*
G02*
X141550000Y-61525000I225000J0D01*
G01*
X142000000Y-61525000D01*
G75*
G02*
X142225000Y-61750000I0J-225000D01*
G01*
G37*
%TD*%
%TO.C,C1*%
G36*
G01*
X162325000Y-82250000D02*
X162325000Y-81750000D01*
G75*
G02*
X162550000Y-81525000I225000J0D01*
G01*
X163000000Y-81525000D01*
G75*
G02*
X163225000Y-81750000I0J-225000D01*
G01*
X163225000Y-82250000D01*
G75*
G02*
X163000000Y-82475000I-225000J0D01*
G01*
X162550000Y-82475000D01*
G75*
G02*
X162325000Y-82250000I0J225000D01*
G01*
G37*
G36*
G01*
X160775000Y-82250000D02*
X160775000Y-81750000D01*
G75*
G02*
X161000000Y-81525000I225000J0D01*
G01*
X161450000Y-81525000D01*
G75*
G02*
X161675000Y-81750000I0J-225000D01*
G01*
X161675000Y-82250000D01*
G75*
G02*
X161450000Y-82475000I-225000J0D01*
G01*
X161000000Y-82475000D01*
G75*
G02*
X160775000Y-82250000I0J225000D01*
G01*
G37*
%TD*%
M02*
