<svg id="color" enable-background="new 0 0 24 24" height="512" viewBox="0 0 24 24" width="512" xmlns="http://www.w3.org/2000/svg"><g><g><path d="m15.25 5h-5.75c-.414 0-.75-.336-.75-.75v-3.5c0-.414.336-.75.75-.75h5.75c.293 0 .559.17.681.437.123.266.079.579-.112.802l-1.081 1.261 1.082 1.262c.191.223.234.536.112.802-.123.266-.389.436-.682.436z" fill="#f44336"/></g></g><g><g><path d="m9.5 8c-.414 0-.75-.336-.75-.75v-6.5c0-.414.336-.75.75-.75s.75.336.75.75v6.5c0 .414-.336.75-.75.75z" fill="#607d8b"/></g></g><g><g><path d="m13.61 13.02-2.13 1.8c-.14.12-.31.18-.48.18-.19 0-.38-.07-.53-.22l-.97-.97-.97.97c-.28.28-.72.29-1.01.04l-2.07-1.74.74-1.34 2.65-4.85c.13-.24.38-.39.66-.39.25-.03.52.14.65.38l2.71 4.81z" fill="#eceff1"/></g></g><g><g><path d="m9.5 0c-.414 0-.75.336-.75.75v6.305l.09-.165c.13-.24.38-.39.66-.39z" fill="#546d79"/></g></g><g><g><path d="m9.5 6.5c-.28 0-.53.15-.66.39l-.09.165-2.56 4.685-.74 1.34 2.07 1.74c.138.119.311.179.483.179.19 0 .38-.072.527-.219l.97-.97z" fill="#cdd0d2"/></g></g><g><g><path d="m23.25 24h-10.092c-.261 0-.503-.136-.64-.358-.136-.222-.147-.5-.028-.732l4.842-9.5c.126-.247.378-.404.655-.409.316.022.536.145.669.387l5.25 9.5c.128.232.125.515-.01.744-.135.228-.38.368-.646.368z" fill="#1976d2"/></g></g><g><g><path d="m17.987 13c-.277.005-.529.162-.655.409l-4.842 9.5c-.119.233-.108.51.028.732.137.223.379.359.64.359h4.842v-10.999c-.004 0-.008-.001-.013-.001z" fill="#1667b7"/></g></g><g><g><path d="m19.15 22.88-5.54-9.86-2.13 1.8c-.14.12-.31.18-.48.18-.19 0-.38-.07-.53-.22l-.97-.97-.97.97c-.28.28-.72.29-1.01.04l-2.07-1.74-5.36 9.81c-.13.23-.12.51.01.74.14.23.39.37.65.37h17.75c.27 0 .51-.14.65-.37.13-.23.13-.52 0-.75z" fill="#2196f3"/></g></g><g><g><path d="m5.45 13.08-5.36 9.81c-.13.23-.12.51.01.74.14.23.39.37.65.37h8.75v-10.19l-.97.97c-.147.146-.337.219-.527.219-.173 0-.345-.06-.483-.179z" fill="#1d83d4"/></g></g></svg>