<svg id="bold" enable-background="new 0 0 24 24" height="512" viewBox="0 0 24 24" width="512" xmlns="http://www.w3.org/2000/svg"><path d="m23.91 22.89-5.25-9.5c-.14-.25-.36-.37-.67-.39-.28 0-.53.16-.66.41l-.85 1.66 3.98 7.08c.32.56.37 1.24.15 1.85h2.64c.27 0 .51-.14.65-.37.13-.23.13-.51.01-.74z"/><path d="m19.15 22.88-4.79-8.53-1.91 1.62c-.4.34-.92.53-1.45.53-.56 0-1.09-.2-1.5-.57-.41.37-.94.57-1.5.57-.53 0-1.05-.19-1.46-.54l-1.82-1.54-4.63 8.47c-.13.23-.12.51.01.74.14.23.39.37.65.37h17.75c.27 0 .51-.14.65-.37.13-.23.13-.52 0-.75z"/><path d="m15.25 5h-5.75c-.414 0-.75-.336-.75-.75v-3.5c0-.414.336-.75.75-.75h5.75c.293 0 .559.17.681.437.123.266.079.579-.112.802l-1.081 1.261 1.082 1.262c.191.223.234.536.112.802-.123.266-.389.436-.682.436z"/><path d="m9.5 8c-.414 0-.75-.336-.75-.75v-6.5c0-.414.336-.75.75-.75s.75.336.75.75v6.5c0 .414-.336.75-.75.75z"/><path d="m13.61 13.02-2.13 1.8c-.14.12-.31.18-.48.18-.19 0-.38-.07-.53-.22l-.97-.97-.97.97c-.28.28-.72.29-1.01.04l-2.07-1.74.74-1.34 2.65-4.85c.13-.24.38-.39.66-.39.25-.03.52.14.65.38l2.71 4.81z"/></svg>